G04 #@! TF.GenerationSoftware,KiCad,Pcbnew,6.0.5-2.fc35*
G04 #@! TF.CreationDate,2022-07-06T13:19:10+02:00*
G04 #@! TF.ProjectId,back,6261636b-2e6b-4696-9361-645f70636258,rev?*
G04 #@! TF.SameCoordinates,Original*
G04 #@! TF.FileFunction,Legend,Top*
G04 #@! TF.FilePolarity,Positive*
%FSLAX46Y46*%
G04 Gerber Fmt 4.6, Leading zero omitted, Abs format (unit mm)*
G04 Created by KiCad (PCBNEW 6.0.5-2.fc35) date 2022-07-06 13:19:10*
%MOMM*%
%LPD*%
G01*
G04 APERTURE LIST*
G04 Aperture macros list*
%AMRoundRect*
0 Rectangle with rounded corners*
0 $1 Rounding radius*
0 $2 $3 $4 $5 $6 $7 $8 $9 X,Y pos of 4 corners*
0 Add a 4 corners polygon primitive as box body*
4,1,4,$2,$3,$4,$5,$6,$7,$8,$9,$2,$3,0*
0 Add four circle primitives for the rounded corners*
1,1,$1+$1,$2,$3*
1,1,$1+$1,$4,$5*
1,1,$1+$1,$6,$7*
1,1,$1+$1,$8,$9*
0 Add four rect primitives between the rounded corners*
20,1,$1+$1,$2,$3,$4,$5,0*
20,1,$1+$1,$4,$5,$6,$7,0*
20,1,$1+$1,$6,$7,$8,$9,0*
20,1,$1+$1,$8,$9,$2,$3,0*%
G04 Aperture macros list end*
%ADD10C,0.150000*%
%ADD11C,0.120000*%
%ADD12C,1.600000*%
%ADD13R,1.600000X1.600000*%
%ADD14O,1.600000X1.600000*%
%ADD15R,0.850000X0.850000*%
%ADD16O,0.850000X0.850000*%
%ADD17RoundRect,0.249900X-0.400100X0.275100X-0.400100X-0.275100X0.400100X-0.275100X0.400100X0.275100X0*%
%ADD18O,1.300000X1.050000*%
%ADD19R,2.200000X2.200000*%
%ADD20O,2.200000X2.200000*%
%ADD21C,1.500000*%
%ADD22R,2.000000X1.905000*%
%ADD23O,2.000000X1.905000*%
%ADD24R,1.700000X1.700000*%
%ADD25O,1.700000X1.700000*%
G04 APERTURE END LIST*
D10*
X110407142Y-59766666D02*
X110454761Y-59814285D01*
X110502380Y-59957142D01*
X110502380Y-60052380D01*
X110454761Y-60195238D01*
X110359523Y-60290476D01*
X110264285Y-60338095D01*
X110073809Y-60385714D01*
X109930952Y-60385714D01*
X109740476Y-60338095D01*
X109645238Y-60290476D01*
X109550000Y-60195238D01*
X109502380Y-60052380D01*
X109502380Y-59957142D01*
X109550000Y-59814285D01*
X109597619Y-59766666D01*
X109502380Y-59433333D02*
X109502380Y-58766666D01*
X110502380Y-59195238D01*
X101507142Y-60166666D02*
X101554761Y-60214285D01*
X101602380Y-60357142D01*
X101602380Y-60452380D01*
X101554761Y-60595238D01*
X101459523Y-60690476D01*
X101364285Y-60738095D01*
X101173809Y-60785714D01*
X101030952Y-60785714D01*
X100840476Y-60738095D01*
X100745238Y-60690476D01*
X100650000Y-60595238D01*
X100602380Y-60452380D01*
X100602380Y-60357142D01*
X100650000Y-60214285D01*
X100697619Y-60166666D01*
X100935714Y-59309523D02*
X101602380Y-59309523D01*
X100554761Y-59547619D02*
X101269047Y-59785714D01*
X101269047Y-59166666D01*
X114307142Y-116042857D02*
X114354761Y-116090476D01*
X114402380Y-116233333D01*
X114402380Y-116328571D01*
X114354761Y-116471428D01*
X114259523Y-116566666D01*
X114164285Y-116614285D01*
X113973809Y-116661904D01*
X113830952Y-116661904D01*
X113640476Y-116614285D01*
X113545238Y-116566666D01*
X113450000Y-116471428D01*
X113402380Y-116328571D01*
X113402380Y-116233333D01*
X113450000Y-116090476D01*
X113497619Y-116042857D01*
X114402380Y-115090476D02*
X114402380Y-115661904D01*
X114402380Y-115376190D02*
X113402380Y-115376190D01*
X113545238Y-115471428D01*
X113640476Y-115566666D01*
X113688095Y-115661904D01*
X113402380Y-114471428D02*
X113402380Y-114376190D01*
X113450000Y-114280952D01*
X113497619Y-114233333D01*
X113592857Y-114185714D01*
X113783333Y-114138095D01*
X114021428Y-114138095D01*
X114211904Y-114185714D01*
X114307142Y-114233333D01*
X114354761Y-114280952D01*
X114402380Y-114376190D01*
X114402380Y-114471428D01*
X114354761Y-114566666D01*
X114307142Y-114614285D01*
X114211904Y-114661904D01*
X114021428Y-114709523D01*
X113783333Y-114709523D01*
X113592857Y-114661904D01*
X113497619Y-114614285D01*
X113450000Y-114566666D01*
X113402380Y-114471428D01*
X157096666Y-125310000D02*
X157096666Y-124833809D01*
X157382380Y-125405238D02*
X156382380Y-125071904D01*
X157382380Y-124738571D01*
X156715714Y-124548095D02*
X156715714Y-124167142D01*
X156382380Y-124405238D02*
X157239523Y-124405238D01*
X157334761Y-124357619D01*
X157382380Y-124262380D01*
X157382380Y-124167142D01*
X157382380Y-123833809D02*
X156715714Y-123833809D01*
X156810952Y-123833809D02*
X156763333Y-123786190D01*
X156715714Y-123690952D01*
X156715714Y-123548095D01*
X156763333Y-123452857D01*
X156858571Y-123405238D01*
X157382380Y-123405238D01*
X156858571Y-123405238D02*
X156763333Y-123357619D01*
X156715714Y-123262380D01*
X156715714Y-123119523D01*
X156763333Y-123024285D01*
X156858571Y-122976666D01*
X157382380Y-122976666D01*
X157334761Y-122119523D02*
X157382380Y-122214761D01*
X157382380Y-122405238D01*
X157334761Y-122500476D01*
X157239523Y-122548095D01*
X156858571Y-122548095D01*
X156763333Y-122500476D01*
X156715714Y-122405238D01*
X156715714Y-122214761D01*
X156763333Y-122119523D01*
X156858571Y-122071904D01*
X156953809Y-122071904D01*
X157049047Y-122548095D01*
X156715714Y-121214761D02*
X157525238Y-121214761D01*
X157620476Y-121262380D01*
X157668095Y-121310000D01*
X157715714Y-121405238D01*
X157715714Y-121548095D01*
X157668095Y-121643333D01*
X157334761Y-121214761D02*
X157382380Y-121310000D01*
X157382380Y-121500476D01*
X157334761Y-121595714D01*
X157287142Y-121643333D01*
X157191904Y-121690952D01*
X156906190Y-121690952D01*
X156810952Y-121643333D01*
X156763333Y-121595714D01*
X156715714Y-121500476D01*
X156715714Y-121310000D01*
X156763333Y-121214761D01*
X157382380Y-120310000D02*
X156858571Y-120310000D01*
X156763333Y-120357619D01*
X156715714Y-120452857D01*
X156715714Y-120643333D01*
X156763333Y-120738571D01*
X157334761Y-120310000D02*
X157382380Y-120405238D01*
X157382380Y-120643333D01*
X157334761Y-120738571D01*
X157239523Y-120786190D01*
X157144285Y-120786190D01*
X157049047Y-120738571D01*
X157001428Y-120643333D01*
X157001428Y-120405238D01*
X156953809Y-120310000D01*
X157382380Y-119310000D02*
X157382380Y-119881428D01*
X157382380Y-119595714D02*
X156382380Y-119595714D01*
X156525238Y-119690952D01*
X156620476Y-119786190D01*
X156668095Y-119881428D01*
X106307142Y-67766666D02*
X106354761Y-67814285D01*
X106402380Y-67957142D01*
X106402380Y-68052380D01*
X106354761Y-68195238D01*
X106259523Y-68290476D01*
X106164285Y-68338095D01*
X105973809Y-68385714D01*
X105830952Y-68385714D01*
X105640476Y-68338095D01*
X105545238Y-68290476D01*
X105450000Y-68195238D01*
X105402380Y-68052380D01*
X105402380Y-67957142D01*
X105450000Y-67814285D01*
X105497619Y-67766666D01*
X105830952Y-67195238D02*
X105783333Y-67290476D01*
X105735714Y-67338095D01*
X105640476Y-67385714D01*
X105592857Y-67385714D01*
X105497619Y-67338095D01*
X105450000Y-67290476D01*
X105402380Y-67195238D01*
X105402380Y-67004761D01*
X105450000Y-66909523D01*
X105497619Y-66861904D01*
X105592857Y-66814285D01*
X105640476Y-66814285D01*
X105735714Y-66861904D01*
X105783333Y-66909523D01*
X105830952Y-67004761D01*
X105830952Y-67195238D01*
X105878571Y-67290476D01*
X105926190Y-67338095D01*
X106021428Y-67385714D01*
X106211904Y-67385714D01*
X106307142Y-67338095D01*
X106354761Y-67290476D01*
X106402380Y-67195238D01*
X106402380Y-67004761D01*
X106354761Y-66909523D01*
X106307142Y-66861904D01*
X106211904Y-66814285D01*
X106021428Y-66814285D01*
X105926190Y-66861904D01*
X105878571Y-66909523D01*
X105830952Y-67004761D01*
X105907142Y-115366666D02*
X105954761Y-115414285D01*
X106002380Y-115557142D01*
X106002380Y-115652380D01*
X105954761Y-115795238D01*
X105859523Y-115890476D01*
X105764285Y-115938095D01*
X105573809Y-115985714D01*
X105430952Y-115985714D01*
X105240476Y-115938095D01*
X105145238Y-115890476D01*
X105050000Y-115795238D01*
X105002380Y-115652380D01*
X105002380Y-115557142D01*
X105050000Y-115414285D01*
X105097619Y-115366666D01*
X106002380Y-114890476D02*
X106002380Y-114700000D01*
X105954761Y-114604761D01*
X105907142Y-114557142D01*
X105764285Y-114461904D01*
X105573809Y-114414285D01*
X105192857Y-114414285D01*
X105097619Y-114461904D01*
X105050000Y-114509523D01*
X105002380Y-114604761D01*
X105002380Y-114795238D01*
X105050000Y-114890476D01*
X105097619Y-114938095D01*
X105192857Y-114985714D01*
X105430952Y-114985714D01*
X105526190Y-114938095D01*
X105573809Y-114890476D01*
X105621428Y-114795238D01*
X105621428Y-114604761D01*
X105573809Y-114509523D01*
X105526190Y-114461904D01*
X105430952Y-114414285D01*
X99107142Y-67766666D02*
X99154761Y-67814285D01*
X99202380Y-67957142D01*
X99202380Y-68052380D01*
X99154761Y-68195238D01*
X99059523Y-68290476D01*
X98964285Y-68338095D01*
X98773809Y-68385714D01*
X98630952Y-68385714D01*
X98440476Y-68338095D01*
X98345238Y-68290476D01*
X98250000Y-68195238D01*
X98202380Y-68052380D01*
X98202380Y-67957142D01*
X98250000Y-67814285D01*
X98297619Y-67766666D01*
X99202380Y-66814285D02*
X99202380Y-67385714D01*
X99202380Y-67100000D02*
X98202380Y-67100000D01*
X98345238Y-67195238D01*
X98440476Y-67290476D01*
X98488095Y-67385714D01*
X149415714Y-80757142D02*
X149415714Y-80376190D01*
X149082380Y-80614285D02*
X149939523Y-80614285D01*
X150034761Y-80566666D01*
X150082380Y-80471428D01*
X150082380Y-80376190D01*
X150082380Y-80042857D02*
X149415714Y-80042857D01*
X149606190Y-80042857D02*
X149510952Y-79995238D01*
X149463333Y-79947619D01*
X149415714Y-79852380D01*
X149415714Y-79757142D01*
X150082380Y-79423809D02*
X149415714Y-79423809D01*
X149082380Y-79423809D02*
X149130000Y-79471428D01*
X149177619Y-79423809D01*
X149130000Y-79376190D01*
X149082380Y-79423809D01*
X149177619Y-79423809D01*
X149415714Y-78519047D02*
X150225238Y-78519047D01*
X150320476Y-78566666D01*
X150368095Y-78614285D01*
X150415714Y-78709523D01*
X150415714Y-78852380D01*
X150368095Y-78947619D01*
X150034761Y-78519047D02*
X150082380Y-78614285D01*
X150082380Y-78804761D01*
X150034761Y-78900000D01*
X149987142Y-78947619D01*
X149891904Y-78995238D01*
X149606190Y-78995238D01*
X149510952Y-78947619D01*
X149463333Y-78900000D01*
X149415714Y-78804761D01*
X149415714Y-78614285D01*
X149463333Y-78519047D01*
X150082380Y-78042857D02*
X149415714Y-78042857D01*
X149082380Y-78042857D02*
X149130000Y-78090476D01*
X149177619Y-78042857D01*
X149130000Y-77995238D01*
X149082380Y-78042857D01*
X149177619Y-78042857D01*
X149415714Y-77566666D02*
X150082380Y-77566666D01*
X149510952Y-77566666D02*
X149463333Y-77519047D01*
X149415714Y-77423809D01*
X149415714Y-77280952D01*
X149463333Y-77185714D01*
X149558571Y-77138095D01*
X150082380Y-77138095D01*
X149177619Y-76709523D02*
X149130000Y-76661904D01*
X149082380Y-76566666D01*
X149082380Y-76328571D01*
X149130000Y-76233333D01*
X149177619Y-76185714D01*
X149272857Y-76138095D01*
X149368095Y-76138095D01*
X149510952Y-76185714D01*
X150082380Y-76757142D01*
X150082380Y-76138095D01*
X140433333Y-57504761D02*
X140338095Y-57552380D01*
X140147619Y-57552380D01*
X140052380Y-57504761D01*
X140004761Y-57457142D01*
X139957142Y-57361904D01*
X139957142Y-57076190D01*
X140004761Y-56980952D01*
X140052380Y-56933333D01*
X140147619Y-56885714D01*
X140338095Y-56885714D01*
X140433333Y-56933333D01*
X141004761Y-57552380D02*
X140909523Y-57504761D01*
X140861904Y-57457142D01*
X140814285Y-57361904D01*
X140814285Y-57076190D01*
X140861904Y-56980952D01*
X140909523Y-56933333D01*
X141004761Y-56885714D01*
X141147619Y-56885714D01*
X141242857Y-56933333D01*
X141290476Y-56980952D01*
X141338095Y-57076190D01*
X141338095Y-57361904D01*
X141290476Y-57457142D01*
X141242857Y-57504761D01*
X141147619Y-57552380D01*
X141004761Y-57552380D01*
X141766666Y-56885714D02*
X141766666Y-57552380D01*
X141766666Y-56980952D02*
X141814285Y-56933333D01*
X141909523Y-56885714D01*
X142052380Y-56885714D01*
X142147619Y-56933333D01*
X142195238Y-57028571D01*
X142195238Y-57552380D01*
X142671428Y-57552380D02*
X142671428Y-56552380D01*
X143004761Y-57266666D01*
X143338095Y-56552380D01*
X143338095Y-57552380D01*
X144242857Y-57552380D02*
X144242857Y-57028571D01*
X144195238Y-56933333D01*
X144100000Y-56885714D01*
X143909523Y-56885714D01*
X143814285Y-56933333D01*
X144242857Y-57504761D02*
X144147619Y-57552380D01*
X143909523Y-57552380D01*
X143814285Y-57504761D01*
X143766666Y-57409523D01*
X143766666Y-57314285D01*
X143814285Y-57219047D01*
X143909523Y-57171428D01*
X144147619Y-57171428D01*
X144242857Y-57123809D01*
X144671428Y-56647619D02*
X144719047Y-56600000D01*
X144814285Y-56552380D01*
X145052380Y-56552380D01*
X145147619Y-56600000D01*
X145195238Y-56647619D01*
X145242857Y-56742857D01*
X145242857Y-56838095D01*
X145195238Y-56980952D01*
X144623809Y-57552380D01*
X145242857Y-57552380D01*
X147527619Y-76200238D02*
X147480000Y-76295476D01*
X147384761Y-76390714D01*
X147241904Y-76533571D01*
X147194285Y-76628809D01*
X147194285Y-76724047D01*
X147432380Y-76676428D02*
X147384761Y-76771666D01*
X147289523Y-76866904D01*
X147099047Y-76914523D01*
X146765714Y-76914523D01*
X146575238Y-76866904D01*
X146480000Y-76771666D01*
X146432380Y-76676428D01*
X146432380Y-76485952D01*
X146480000Y-76390714D01*
X146575238Y-76295476D01*
X146765714Y-76247857D01*
X147099047Y-76247857D01*
X147289523Y-76295476D01*
X147384761Y-76390714D01*
X147432380Y-76485952D01*
X147432380Y-76676428D01*
X146527619Y-75866904D02*
X146480000Y-75819285D01*
X146432380Y-75724047D01*
X146432380Y-75485952D01*
X146480000Y-75390714D01*
X146527619Y-75343095D01*
X146622857Y-75295476D01*
X146718095Y-75295476D01*
X146860952Y-75343095D01*
X147432380Y-75914523D01*
X147432380Y-75295476D01*
X155782380Y-67333333D02*
X154782380Y-67333333D01*
X155734761Y-67333333D02*
X155782380Y-67428571D01*
X155782380Y-67619047D01*
X155734761Y-67714285D01*
X155687142Y-67761904D01*
X155591904Y-67809523D01*
X155306190Y-67809523D01*
X155210952Y-67761904D01*
X155163333Y-67714285D01*
X155115714Y-67619047D01*
X155115714Y-67428571D01*
X155163333Y-67333333D01*
X154782380Y-67000000D02*
X154782380Y-66428571D01*
X155782380Y-66714285D02*
X154782380Y-66714285D01*
X155782380Y-66095238D02*
X155115714Y-66095238D01*
X155306190Y-66095238D02*
X155210952Y-66047619D01*
X155163333Y-66000000D01*
X155115714Y-65904761D01*
X155115714Y-65809523D01*
X155782380Y-65476190D02*
X155115714Y-65476190D01*
X154782380Y-65476190D02*
X154830000Y-65523809D01*
X154877619Y-65476190D01*
X154830000Y-65428571D01*
X154782380Y-65476190D01*
X154877619Y-65476190D01*
X155115714Y-64571428D02*
X155925238Y-64571428D01*
X156020476Y-64619047D01*
X156068095Y-64666666D01*
X156115714Y-64761904D01*
X156115714Y-64904761D01*
X156068095Y-65000000D01*
X155734761Y-64571428D02*
X155782380Y-64666666D01*
X155782380Y-64857142D01*
X155734761Y-64952380D01*
X155687142Y-65000000D01*
X155591904Y-65047619D01*
X155306190Y-65047619D01*
X155210952Y-65000000D01*
X155163333Y-64952380D01*
X155115714Y-64857142D01*
X155115714Y-64666666D01*
X155163333Y-64571428D01*
X155782380Y-64095238D02*
X154782380Y-64095238D01*
X155115714Y-63619047D02*
X155782380Y-63619047D01*
X155210952Y-63619047D02*
X155163333Y-63571428D01*
X155115714Y-63476190D01*
X155115714Y-63333333D01*
X155163333Y-63238095D01*
X155258571Y-63190476D01*
X155782380Y-63190476D01*
X154877619Y-62761904D02*
X154830000Y-62714285D01*
X154782380Y-62619047D01*
X154782380Y-62380952D01*
X154830000Y-62285714D01*
X154877619Y-62238095D01*
X154972857Y-62190476D01*
X155068095Y-62190476D01*
X155210952Y-62238095D01*
X155782380Y-62809523D01*
X155782380Y-62190476D01*
X156152380Y-70341904D02*
X155152380Y-70341904D01*
X156152380Y-69770476D02*
X155580952Y-70199047D01*
X155152380Y-69770476D02*
X155723809Y-70341904D01*
X143433333Y-137804761D02*
X143338095Y-137852380D01*
X143147619Y-137852380D01*
X143052380Y-137804761D01*
X143004761Y-137757142D01*
X142957142Y-137661904D01*
X142957142Y-137376190D01*
X143004761Y-137280952D01*
X143052380Y-137233333D01*
X143147619Y-137185714D01*
X143338095Y-137185714D01*
X143433333Y-137233333D01*
X144004761Y-137852380D02*
X143909523Y-137804761D01*
X143861904Y-137757142D01*
X143814285Y-137661904D01*
X143814285Y-137376190D01*
X143861904Y-137280952D01*
X143909523Y-137233333D01*
X144004761Y-137185714D01*
X144147619Y-137185714D01*
X144242857Y-137233333D01*
X144290476Y-137280952D01*
X144338095Y-137376190D01*
X144338095Y-137661904D01*
X144290476Y-137757142D01*
X144242857Y-137804761D01*
X144147619Y-137852380D01*
X144004761Y-137852380D01*
X144766666Y-137185714D02*
X144766666Y-137852380D01*
X144766666Y-137280952D02*
X144814285Y-137233333D01*
X144909523Y-137185714D01*
X145052380Y-137185714D01*
X145147619Y-137233333D01*
X145195238Y-137328571D01*
X145195238Y-137852380D01*
X145671428Y-137852380D02*
X145671428Y-136852380D01*
X146004761Y-137566666D01*
X146338095Y-136852380D01*
X146338095Y-137852380D01*
X147242857Y-137852380D02*
X147242857Y-137328571D01*
X147195238Y-137233333D01*
X147100000Y-137185714D01*
X146909523Y-137185714D01*
X146814285Y-137233333D01*
X147242857Y-137804761D02*
X147147619Y-137852380D01*
X146909523Y-137852380D01*
X146814285Y-137804761D01*
X146766666Y-137709523D01*
X146766666Y-137614285D01*
X146814285Y-137519047D01*
X146909523Y-137471428D01*
X147147619Y-137471428D01*
X147242857Y-137423809D01*
X148242857Y-137852380D02*
X147671428Y-137852380D01*
X147957142Y-137852380D02*
X147957142Y-136852380D01*
X147861904Y-136995238D01*
X147766666Y-137090476D01*
X147671428Y-137138095D01*
X153615714Y-80757142D02*
X153615714Y-80376190D01*
X153282380Y-80614285D02*
X154139523Y-80614285D01*
X154234761Y-80566666D01*
X154282380Y-80471428D01*
X154282380Y-80376190D01*
X154282380Y-80042857D02*
X153615714Y-80042857D01*
X153806190Y-80042857D02*
X153710952Y-79995238D01*
X153663333Y-79947619D01*
X153615714Y-79852380D01*
X153615714Y-79757142D01*
X154282380Y-79423809D02*
X153615714Y-79423809D01*
X153282380Y-79423809D02*
X153330000Y-79471428D01*
X153377619Y-79423809D01*
X153330000Y-79376190D01*
X153282380Y-79423809D01*
X153377619Y-79423809D01*
X153615714Y-78519047D02*
X154425238Y-78519047D01*
X154520476Y-78566666D01*
X154568095Y-78614285D01*
X154615714Y-78709523D01*
X154615714Y-78852380D01*
X154568095Y-78947619D01*
X154234761Y-78519047D02*
X154282380Y-78614285D01*
X154282380Y-78804761D01*
X154234761Y-78900000D01*
X154187142Y-78947619D01*
X154091904Y-78995238D01*
X153806190Y-78995238D01*
X153710952Y-78947619D01*
X153663333Y-78900000D01*
X153615714Y-78804761D01*
X153615714Y-78614285D01*
X153663333Y-78519047D01*
X154282380Y-78042857D02*
X153615714Y-78042857D01*
X153282380Y-78042857D02*
X153330000Y-78090476D01*
X153377619Y-78042857D01*
X153330000Y-77995238D01*
X153282380Y-78042857D01*
X153377619Y-78042857D01*
X153615714Y-77566666D02*
X154282380Y-77566666D01*
X153710952Y-77566666D02*
X153663333Y-77519047D01*
X153615714Y-77423809D01*
X153615714Y-77280952D01*
X153663333Y-77185714D01*
X153758571Y-77138095D01*
X154282380Y-77138095D01*
X154282380Y-76138095D02*
X154282380Y-76709523D01*
X154282380Y-76423809D02*
X153282380Y-76423809D01*
X153425238Y-76519047D01*
X153520476Y-76614285D01*
X153568095Y-76709523D01*
X115301190Y-122676190D02*
X115777380Y-122676190D01*
X114777380Y-123009523D02*
X115301190Y-122676190D01*
X114777380Y-122342857D01*
X114777380Y-122104761D02*
X114777380Y-121438095D01*
X115777380Y-121866666D01*
X160382380Y-99800476D02*
X159715714Y-99800476D01*
X159810952Y-99800476D02*
X159763333Y-99752857D01*
X159715714Y-99657619D01*
X159715714Y-99514761D01*
X159763333Y-99419523D01*
X159858571Y-99371904D01*
X160382380Y-99371904D01*
X159858571Y-99371904D02*
X159763333Y-99324285D01*
X159715714Y-99229047D01*
X159715714Y-99086190D01*
X159763333Y-98990952D01*
X159858571Y-98943333D01*
X160382380Y-98943333D01*
X159715714Y-98038571D02*
X160382380Y-98038571D01*
X159715714Y-98467142D02*
X160239523Y-98467142D01*
X160334761Y-98419523D01*
X160382380Y-98324285D01*
X160382380Y-98181428D01*
X160334761Y-98086190D01*
X160287142Y-98038571D01*
X160382380Y-97657619D02*
X159715714Y-97133809D01*
X159715714Y-97657619D02*
X160382380Y-97133809D01*
X159906190Y-96562380D02*
X160382380Y-96562380D01*
X159382380Y-96895714D02*
X159906190Y-96562380D01*
X159382380Y-96229047D01*
X160382380Y-95371904D02*
X160382380Y-95943333D01*
X160382380Y-95657619D02*
X159382380Y-95657619D01*
X159525238Y-95752857D01*
X159620476Y-95848095D01*
X159668095Y-95943333D01*
X143582380Y-67133333D02*
X142582380Y-67133333D01*
X143534761Y-67133333D02*
X143582380Y-67228571D01*
X143582380Y-67419047D01*
X143534761Y-67514285D01*
X143487142Y-67561904D01*
X143391904Y-67609523D01*
X143106190Y-67609523D01*
X143010952Y-67561904D01*
X142963333Y-67514285D01*
X142915714Y-67419047D01*
X142915714Y-67228571D01*
X142963333Y-67133333D01*
X142582380Y-66800000D02*
X142582380Y-66228571D01*
X143582380Y-66514285D02*
X142582380Y-66514285D01*
X143582380Y-65895238D02*
X142915714Y-65895238D01*
X143106190Y-65895238D02*
X143010952Y-65847619D01*
X142963333Y-65800000D01*
X142915714Y-65704761D01*
X142915714Y-65609523D01*
X143582380Y-65276190D02*
X142915714Y-65276190D01*
X142582380Y-65276190D02*
X142630000Y-65323809D01*
X142677619Y-65276190D01*
X142630000Y-65228571D01*
X142582380Y-65276190D01*
X142677619Y-65276190D01*
X142915714Y-64371428D02*
X143725238Y-64371428D01*
X143820476Y-64419047D01*
X143868095Y-64466666D01*
X143915714Y-64561904D01*
X143915714Y-64704761D01*
X143868095Y-64800000D01*
X143534761Y-64371428D02*
X143582380Y-64466666D01*
X143582380Y-64657142D01*
X143534761Y-64752380D01*
X143487142Y-64800000D01*
X143391904Y-64847619D01*
X143106190Y-64847619D01*
X143010952Y-64800000D01*
X142963333Y-64752380D01*
X142915714Y-64657142D01*
X142915714Y-64466666D01*
X142963333Y-64371428D01*
X143582380Y-63895238D02*
X142582380Y-63895238D01*
X142915714Y-63419047D02*
X143582380Y-63419047D01*
X143010952Y-63419047D02*
X142963333Y-63371428D01*
X142915714Y-63276190D01*
X142915714Y-63133333D01*
X142963333Y-63038095D01*
X143058571Y-62990476D01*
X143582380Y-62990476D01*
X143582380Y-61990476D02*
X143582380Y-62561904D01*
X143582380Y-62276190D02*
X142582380Y-62276190D01*
X142725238Y-62371428D01*
X142820476Y-62466666D01*
X142868095Y-62561904D01*
X143952380Y-70141904D02*
X142952380Y-70141904D01*
X143952380Y-69570476D02*
X143380952Y-69999047D01*
X142952380Y-69570476D02*
X143523809Y-70141904D01*
X103907142Y-67766666D02*
X103954761Y-67814285D01*
X104002380Y-67957142D01*
X104002380Y-68052380D01*
X103954761Y-68195238D01*
X103859523Y-68290476D01*
X103764285Y-68338095D01*
X103573809Y-68385714D01*
X103430952Y-68385714D01*
X103240476Y-68338095D01*
X103145238Y-68290476D01*
X103050000Y-68195238D01*
X103002380Y-68052380D01*
X103002380Y-67957142D01*
X103050000Y-67814285D01*
X103097619Y-67766666D01*
X103002380Y-66861904D02*
X103002380Y-67338095D01*
X103478571Y-67385714D01*
X103430952Y-67338095D01*
X103383333Y-67242857D01*
X103383333Y-67004761D01*
X103430952Y-66909523D01*
X103478571Y-66861904D01*
X103573809Y-66814285D01*
X103811904Y-66814285D01*
X103907142Y-66861904D01*
X103954761Y-66909523D01*
X104002380Y-67004761D01*
X104002380Y-67242857D01*
X103954761Y-67338095D01*
X103907142Y-67385714D01*
X101510714Y-84028571D02*
X102177380Y-83790476D01*
X101510714Y-83552380D01*
X102177380Y-83028571D02*
X102129761Y-83123809D01*
X102082142Y-83171428D01*
X101986904Y-83219047D01*
X101701190Y-83219047D01*
X101605952Y-83171428D01*
X101558333Y-83123809D01*
X101510714Y-83028571D01*
X101510714Y-82885714D01*
X101558333Y-82790476D01*
X101605952Y-82742857D01*
X101701190Y-82695238D01*
X101986904Y-82695238D01*
X102082142Y-82742857D01*
X102129761Y-82790476D01*
X102177380Y-82885714D01*
X102177380Y-83028571D01*
X102177380Y-82123809D02*
X102129761Y-82219047D01*
X102034523Y-82266666D01*
X101177380Y-82266666D01*
X101510714Y-81885714D02*
X101510714Y-81504761D01*
X101177380Y-81742857D02*
X102034523Y-81742857D01*
X102129761Y-81695238D01*
X102177380Y-81600000D01*
X102177380Y-81504761D01*
X102177380Y-80742857D02*
X101653571Y-80742857D01*
X101558333Y-80790476D01*
X101510714Y-80885714D01*
X101510714Y-81076190D01*
X101558333Y-81171428D01*
X102129761Y-80742857D02*
X102177380Y-80838095D01*
X102177380Y-81076190D01*
X102129761Y-81171428D01*
X102034523Y-81219047D01*
X101939285Y-81219047D01*
X101844047Y-81171428D01*
X101796428Y-81076190D01*
X101796428Y-80838095D01*
X101748809Y-80742857D01*
X101510714Y-79838095D02*
X102320238Y-79838095D01*
X102415476Y-79885714D01*
X102463095Y-79933333D01*
X102510714Y-80028571D01*
X102510714Y-80171428D01*
X102463095Y-80266666D01*
X102129761Y-79838095D02*
X102177380Y-79933333D01*
X102177380Y-80123809D01*
X102129761Y-80219047D01*
X102082142Y-80266666D01*
X101986904Y-80314285D01*
X101701190Y-80314285D01*
X101605952Y-80266666D01*
X101558333Y-80219047D01*
X101510714Y-80123809D01*
X101510714Y-79933333D01*
X101558333Y-79838095D01*
X102129761Y-78980952D02*
X102177380Y-79076190D01*
X102177380Y-79266666D01*
X102129761Y-79361904D01*
X102034523Y-79409523D01*
X101653571Y-79409523D01*
X101558333Y-79361904D01*
X101510714Y-79266666D01*
X101510714Y-79076190D01*
X101558333Y-78980952D01*
X101653571Y-78933333D01*
X101748809Y-78933333D01*
X101844047Y-79409523D01*
X102177380Y-77933333D02*
X101701190Y-78266666D01*
X102177380Y-78504761D02*
X101177380Y-78504761D01*
X101177380Y-78123809D01*
X101225000Y-78028571D01*
X101272619Y-77980952D01*
X101367857Y-77933333D01*
X101510714Y-77933333D01*
X101605952Y-77980952D01*
X101653571Y-78028571D01*
X101701190Y-78123809D01*
X101701190Y-78504761D01*
X102129761Y-77123809D02*
X102177380Y-77219047D01*
X102177380Y-77409523D01*
X102129761Y-77504761D01*
X102034523Y-77552380D01*
X101653571Y-77552380D01*
X101558333Y-77504761D01*
X101510714Y-77409523D01*
X101510714Y-77219047D01*
X101558333Y-77123809D01*
X101653571Y-77076190D01*
X101748809Y-77076190D01*
X101844047Y-77552380D01*
X101510714Y-76219047D02*
X102320238Y-76219047D01*
X102415476Y-76266666D01*
X102463095Y-76314285D01*
X102510714Y-76409523D01*
X102510714Y-76552380D01*
X102463095Y-76647619D01*
X102129761Y-76219047D02*
X102177380Y-76314285D01*
X102177380Y-76504761D01*
X102129761Y-76600000D01*
X102082142Y-76647619D01*
X101986904Y-76695238D01*
X101701190Y-76695238D01*
X101605952Y-76647619D01*
X101558333Y-76600000D01*
X101510714Y-76504761D01*
X101510714Y-76314285D01*
X101558333Y-76219047D01*
X102177380Y-75219047D02*
X102177380Y-75790476D01*
X102177380Y-75504761D02*
X101177380Y-75504761D01*
X101320238Y-75600000D01*
X101415476Y-75695238D01*
X101463095Y-75790476D01*
X149215714Y-67361904D02*
X149215714Y-66980952D01*
X148882380Y-67219047D02*
X149739523Y-67219047D01*
X149834761Y-67171428D01*
X149882380Y-67076190D01*
X149882380Y-66980952D01*
X149882380Y-66647619D02*
X149215714Y-66647619D01*
X149406190Y-66647619D02*
X149310952Y-66600000D01*
X149263333Y-66552380D01*
X149215714Y-66457142D01*
X149215714Y-66361904D01*
X149215714Y-65600000D02*
X150025238Y-65600000D01*
X150120476Y-65647619D01*
X150168095Y-65695238D01*
X150215714Y-65790476D01*
X150215714Y-65933333D01*
X150168095Y-66028571D01*
X149834761Y-65600000D02*
X149882380Y-65695238D01*
X149882380Y-65885714D01*
X149834761Y-65980952D01*
X149787142Y-66028571D01*
X149691904Y-66076190D01*
X149406190Y-66076190D01*
X149310952Y-66028571D01*
X149263333Y-65980952D01*
X149215714Y-65885714D01*
X149215714Y-65695238D01*
X149263333Y-65600000D01*
X149882380Y-64552380D02*
X149406190Y-64885714D01*
X149882380Y-65123809D02*
X148882380Y-65123809D01*
X148882380Y-64742857D01*
X148930000Y-64647619D01*
X148977619Y-64600000D01*
X149072857Y-64552380D01*
X149215714Y-64552380D01*
X149310952Y-64600000D01*
X149358571Y-64647619D01*
X149406190Y-64742857D01*
X149406190Y-65123809D01*
X149834761Y-63742857D02*
X149882380Y-63838095D01*
X149882380Y-64028571D01*
X149834761Y-64123809D01*
X149739523Y-64171428D01*
X149358571Y-64171428D01*
X149263333Y-64123809D01*
X149215714Y-64028571D01*
X149215714Y-63838095D01*
X149263333Y-63742857D01*
X149358571Y-63695238D01*
X149453809Y-63695238D01*
X149549047Y-64171428D01*
X149834761Y-63314285D02*
X149882380Y-63219047D01*
X149882380Y-63028571D01*
X149834761Y-62933333D01*
X149739523Y-62885714D01*
X149691904Y-62885714D01*
X149596666Y-62933333D01*
X149549047Y-63028571D01*
X149549047Y-63171428D01*
X149501428Y-63266666D01*
X149406190Y-63314285D01*
X149358571Y-63314285D01*
X149263333Y-63266666D01*
X149215714Y-63171428D01*
X149215714Y-63028571D01*
X149263333Y-62933333D01*
X149882380Y-61933333D02*
X149882380Y-62504761D01*
X149882380Y-62219047D02*
X148882380Y-62219047D01*
X149025238Y-62314285D01*
X149120476Y-62409523D01*
X149168095Y-62504761D01*
X103907142Y-60166666D02*
X103954761Y-60214285D01*
X104002380Y-60357142D01*
X104002380Y-60452380D01*
X103954761Y-60595238D01*
X103859523Y-60690476D01*
X103764285Y-60738095D01*
X103573809Y-60785714D01*
X103430952Y-60785714D01*
X103240476Y-60738095D01*
X103145238Y-60690476D01*
X103050000Y-60595238D01*
X103002380Y-60452380D01*
X103002380Y-60357142D01*
X103050000Y-60214285D01*
X103097619Y-60166666D01*
X103002380Y-59309523D02*
X103002380Y-59500000D01*
X103050000Y-59595238D01*
X103097619Y-59642857D01*
X103240476Y-59738095D01*
X103430952Y-59785714D01*
X103811904Y-59785714D01*
X103907142Y-59738095D01*
X103954761Y-59690476D01*
X104002380Y-59595238D01*
X104002380Y-59404761D01*
X103954761Y-59309523D01*
X103907142Y-59261904D01*
X103811904Y-59214285D01*
X103573809Y-59214285D01*
X103478571Y-59261904D01*
X103430952Y-59309523D01*
X103383333Y-59404761D01*
X103383333Y-59595238D01*
X103430952Y-59690476D01*
X103478571Y-59738095D01*
X103573809Y-59785714D01*
X163927619Y-76200238D02*
X163880000Y-76295476D01*
X163784761Y-76390714D01*
X163641904Y-76533571D01*
X163594285Y-76628809D01*
X163594285Y-76724047D01*
X163832380Y-76676428D02*
X163784761Y-76771666D01*
X163689523Y-76866904D01*
X163499047Y-76914523D01*
X163165714Y-76914523D01*
X162975238Y-76866904D01*
X162880000Y-76771666D01*
X162832380Y-76676428D01*
X162832380Y-76485952D01*
X162880000Y-76390714D01*
X162975238Y-76295476D01*
X163165714Y-76247857D01*
X163499047Y-76247857D01*
X163689523Y-76295476D01*
X163784761Y-76390714D01*
X163832380Y-76485952D01*
X163832380Y-76676428D01*
X163832380Y-75295476D02*
X163832380Y-75866904D01*
X163832380Y-75581190D02*
X162832380Y-75581190D01*
X162975238Y-75676428D01*
X163070476Y-75771666D01*
X163118095Y-75866904D01*
X161615714Y-67351904D02*
X161615714Y-66970952D01*
X161282380Y-67209047D02*
X162139523Y-67209047D01*
X162234761Y-67161428D01*
X162282380Y-67066190D01*
X162282380Y-66970952D01*
X162282380Y-66637619D02*
X161615714Y-66637619D01*
X161806190Y-66637619D02*
X161710952Y-66590000D01*
X161663333Y-66542380D01*
X161615714Y-66447142D01*
X161615714Y-66351904D01*
X161615714Y-65590000D02*
X162425238Y-65590000D01*
X162520476Y-65637619D01*
X162568095Y-65685238D01*
X162615714Y-65780476D01*
X162615714Y-65923333D01*
X162568095Y-66018571D01*
X162234761Y-65590000D02*
X162282380Y-65685238D01*
X162282380Y-65875714D01*
X162234761Y-65970952D01*
X162187142Y-66018571D01*
X162091904Y-66066190D01*
X161806190Y-66066190D01*
X161710952Y-66018571D01*
X161663333Y-65970952D01*
X161615714Y-65875714D01*
X161615714Y-65685238D01*
X161663333Y-65590000D01*
X162282380Y-64542380D02*
X161806190Y-64875714D01*
X162282380Y-65113809D02*
X161282380Y-65113809D01*
X161282380Y-64732857D01*
X161330000Y-64637619D01*
X161377619Y-64590000D01*
X161472857Y-64542380D01*
X161615714Y-64542380D01*
X161710952Y-64590000D01*
X161758571Y-64637619D01*
X161806190Y-64732857D01*
X161806190Y-65113809D01*
X162234761Y-63732857D02*
X162282380Y-63828095D01*
X162282380Y-64018571D01*
X162234761Y-64113809D01*
X162139523Y-64161428D01*
X161758571Y-64161428D01*
X161663333Y-64113809D01*
X161615714Y-64018571D01*
X161615714Y-63828095D01*
X161663333Y-63732857D01*
X161758571Y-63685238D01*
X161853809Y-63685238D01*
X161949047Y-64161428D01*
X162234761Y-63304285D02*
X162282380Y-63209047D01*
X162282380Y-63018571D01*
X162234761Y-62923333D01*
X162139523Y-62875714D01*
X162091904Y-62875714D01*
X161996666Y-62923333D01*
X161949047Y-63018571D01*
X161949047Y-63161428D01*
X161901428Y-63256666D01*
X161806190Y-63304285D01*
X161758571Y-63304285D01*
X161663333Y-63256666D01*
X161615714Y-63161428D01*
X161615714Y-63018571D01*
X161663333Y-62923333D01*
X161377619Y-62494761D02*
X161330000Y-62447142D01*
X161282380Y-62351904D01*
X161282380Y-62113809D01*
X161330000Y-62018571D01*
X161377619Y-61970952D01*
X161472857Y-61923333D01*
X161568095Y-61923333D01*
X161710952Y-61970952D01*
X162282380Y-62542380D01*
X162282380Y-61923333D01*
X95996666Y-55802380D02*
X95996666Y-56516666D01*
X95949047Y-56659523D01*
X95853809Y-56754761D01*
X95710952Y-56802380D01*
X95615714Y-56802380D01*
X96901428Y-55802380D02*
X96710952Y-55802380D01*
X96615714Y-55850000D01*
X96568095Y-55897619D01*
X96472857Y-56040476D01*
X96425238Y-56230952D01*
X96425238Y-56611904D01*
X96472857Y-56707142D01*
X96520476Y-56754761D01*
X96615714Y-56802380D01*
X96806190Y-56802380D01*
X96901428Y-56754761D01*
X96949047Y-56707142D01*
X96996666Y-56611904D01*
X96996666Y-56373809D01*
X96949047Y-56278571D01*
X96901428Y-56230952D01*
X96806190Y-56183333D01*
X96615714Y-56183333D01*
X96520476Y-56230952D01*
X96472857Y-56278571D01*
X96425238Y-56373809D01*
X99107142Y-60016666D02*
X99154761Y-60064285D01*
X99202380Y-60207142D01*
X99202380Y-60302380D01*
X99154761Y-60445238D01*
X99059523Y-60540476D01*
X98964285Y-60588095D01*
X98773809Y-60635714D01*
X98630952Y-60635714D01*
X98440476Y-60588095D01*
X98345238Y-60540476D01*
X98250000Y-60445238D01*
X98202380Y-60302380D01*
X98202380Y-60207142D01*
X98250000Y-60064285D01*
X98297619Y-60016666D01*
X98297619Y-59635714D02*
X98250000Y-59588095D01*
X98202380Y-59492857D01*
X98202380Y-59254761D01*
X98250000Y-59159523D01*
X98297619Y-59111904D01*
X98392857Y-59064285D01*
X98488095Y-59064285D01*
X98630952Y-59111904D01*
X99202380Y-59683333D01*
X99202380Y-59064285D01*
X101507142Y-67766666D02*
X101554761Y-67814285D01*
X101602380Y-67957142D01*
X101602380Y-68052380D01*
X101554761Y-68195238D01*
X101459523Y-68290476D01*
X101364285Y-68338095D01*
X101173809Y-68385714D01*
X101030952Y-68385714D01*
X100840476Y-68338095D01*
X100745238Y-68290476D01*
X100650000Y-68195238D01*
X100602380Y-68052380D01*
X100602380Y-67957142D01*
X100650000Y-67814285D01*
X100697619Y-67766666D01*
X100602380Y-67433333D02*
X100602380Y-66814285D01*
X100983333Y-67147619D01*
X100983333Y-67004761D01*
X101030952Y-66909523D01*
X101078571Y-66861904D01*
X101173809Y-66814285D01*
X101411904Y-66814285D01*
X101507142Y-66861904D01*
X101554761Y-66909523D01*
X101602380Y-67004761D01*
X101602380Y-67290476D01*
X101554761Y-67385714D01*
X101507142Y-67433333D01*
X136682380Y-99848095D02*
X136015714Y-99848095D01*
X136110952Y-99848095D02*
X136063333Y-99800476D01*
X136015714Y-99705238D01*
X136015714Y-99562380D01*
X136063333Y-99467142D01*
X136158571Y-99419523D01*
X136682380Y-99419523D01*
X136158571Y-99419523D02*
X136063333Y-99371904D01*
X136015714Y-99276666D01*
X136015714Y-99133809D01*
X136063333Y-99038571D01*
X136158571Y-98990952D01*
X136682380Y-98990952D01*
X136015714Y-98086190D02*
X136682380Y-98086190D01*
X136015714Y-98514761D02*
X136539523Y-98514761D01*
X136634761Y-98467142D01*
X136682380Y-98371904D01*
X136682380Y-98229047D01*
X136634761Y-98133809D01*
X136587142Y-98086190D01*
X136682380Y-97705238D02*
X136015714Y-97181428D01*
X136015714Y-97705238D02*
X136682380Y-97181428D01*
X135682380Y-96895714D02*
X136682380Y-96229047D01*
X135682380Y-96229047D02*
X136682380Y-96895714D01*
X136682380Y-95324285D02*
X136682380Y-95895714D01*
X136682380Y-95610000D02*
X135682380Y-95610000D01*
X135825238Y-95705238D01*
X135920476Y-95800476D01*
X135968095Y-95895714D01*
D11*
X108920000Y-58971000D02*
X108920000Y-60229000D01*
X107080000Y-58971000D02*
X107080000Y-60229000D01*
X104120000Y-60629000D02*
X104120000Y-59371000D01*
X102280000Y-60629000D02*
X102280000Y-59371000D01*
X116920000Y-116029000D02*
X116920000Y-114771000D01*
X115080000Y-116029000D02*
X115080000Y-114771000D01*
X120250000Y-119660000D02*
X120250000Y-124960000D01*
X120250000Y-124960000D02*
X155930000Y-124960000D01*
X155930000Y-124960000D02*
X155930000Y-123310000D01*
X155930000Y-121310000D02*
X155930000Y-119660000D01*
X155930000Y-119660000D02*
X120250000Y-119660000D01*
X155930000Y-121310000D02*
G75*
G03*
X155930000Y-123310000I0J-1000000D01*
G01*
X108920000Y-68229000D02*
X108920000Y-66971000D01*
X107080000Y-68229000D02*
X107080000Y-66971000D01*
X106680000Y-115829000D02*
X106680000Y-114571000D01*
X108520000Y-115829000D02*
X108520000Y-114571000D01*
X101720000Y-68229000D02*
X101720000Y-66971000D01*
X99880000Y-68229000D02*
X99880000Y-66971000D01*
X153370000Y-81670000D02*
X153370000Y-75130000D01*
X153370000Y-75130000D02*
X153040000Y-75130000D01*
X150960000Y-81670000D02*
X150630000Y-81670000D01*
X153040000Y-81670000D02*
X153370000Y-81670000D01*
X150630000Y-81670000D02*
X150630000Y-75130000D01*
X150630000Y-75130000D02*
X150960000Y-75130000D01*
X145915000Y-55095000D02*
X129040000Y-55095000D01*
X145915000Y-53705000D02*
X129040000Y-53705000D01*
X129040000Y-54794493D02*
X129040000Y-55095000D01*
X145915000Y-53705000D02*
X145915000Y-53791724D01*
X146600000Y-53705000D02*
X147285000Y-53705000D01*
X145915000Y-55008276D02*
X145915000Y-55095000D01*
X147285000Y-53705000D02*
X147285000Y-54400000D01*
X129040000Y-53705000D02*
X129040000Y-54005507D01*
X145080000Y-78075000D02*
X145230000Y-78225000D01*
X145230000Y-73975000D02*
X146180000Y-73975000D01*
X144430000Y-74825000D02*
X144430000Y-77425000D01*
X144430000Y-77425000D02*
X144680000Y-77675000D01*
X144430000Y-74825000D02*
X144680000Y-74575000D01*
X146180000Y-78225000D02*
X145230000Y-78225000D01*
X145080000Y-74125000D02*
X145230000Y-73975000D01*
X156330000Y-66820000D02*
X159270000Y-66820000D01*
X156330000Y-67720000D02*
X159270000Y-67720000D01*
X157800000Y-68740000D02*
X157800000Y-67720000D01*
X156330000Y-62280000D02*
X156330000Y-67720000D01*
X159270000Y-67720000D02*
X159270000Y-62280000D01*
X157800000Y-61260000D02*
X157800000Y-62280000D01*
X156330000Y-66700000D02*
X159270000Y-66700000D01*
X156330000Y-66940000D02*
X159270000Y-66940000D01*
X159270000Y-62280000D02*
X156330000Y-62280000D01*
X147285000Y-134205000D02*
X147285000Y-134900000D01*
X145915000Y-135508276D02*
X145915000Y-135595000D01*
X145915000Y-135595000D02*
X134040000Y-135595000D01*
X146600000Y-134205000D02*
X147285000Y-134205000D01*
X134040000Y-134205000D02*
X134040000Y-134505507D01*
X145915000Y-134205000D02*
X145915000Y-134291724D01*
X145915000Y-134205000D02*
X134040000Y-134205000D01*
X134040000Y-135294493D02*
X134040000Y-135595000D01*
X157570000Y-81670000D02*
X157570000Y-75130000D01*
X155160000Y-81670000D02*
X154830000Y-81670000D01*
X154830000Y-81670000D02*
X154830000Y-75130000D01*
X154830000Y-75130000D02*
X155160000Y-75130000D01*
X157570000Y-75130000D02*
X157240000Y-75130000D01*
X157240000Y-81670000D02*
X157570000Y-81670000D01*
X109275000Y-119075000D02*
X109275000Y-125325000D01*
X114325000Y-119075000D02*
X114325000Y-125325000D01*
X109275000Y-125325000D02*
G75*
G03*
X114325000Y-125325000I2525000J0D01*
G01*
X114325000Y-119075000D02*
G75*
G03*
X109275000Y-119075000I-2525000J0D01*
G01*
X138490000Y-94960000D02*
X138490000Y-100260000D01*
X138430000Y-92470000D02*
X138430000Y-102750000D01*
X158930000Y-96610000D02*
X158930000Y-94960000D01*
X158930000Y-94960000D02*
X138490000Y-94960000D01*
X138430000Y-102750000D02*
X158990000Y-102750000D01*
X158930000Y-100260000D02*
X158930000Y-98610000D01*
X158990000Y-92470000D02*
X138430000Y-92470000D01*
X158990000Y-102750000D02*
X158990000Y-92470000D01*
X138490000Y-100260000D02*
X158930000Y-100260000D01*
X158930000Y-96610000D02*
G75*
G03*
X158930000Y-98610000I0J-1000000D01*
G01*
X144130000Y-66740000D02*
X147070000Y-66740000D01*
X144130000Y-67520000D02*
X147070000Y-67520000D01*
X144130000Y-66500000D02*
X147070000Y-66500000D01*
X147070000Y-62080000D02*
X144130000Y-62080000D01*
X145600000Y-68540000D02*
X145600000Y-67520000D01*
X147070000Y-67520000D02*
X147070000Y-62080000D01*
X144130000Y-62080000D02*
X144130000Y-67520000D01*
X144130000Y-66620000D02*
X147070000Y-66620000D01*
X145600000Y-61060000D02*
X145600000Y-62080000D01*
X104680000Y-68229000D02*
X104680000Y-66971000D01*
X106520000Y-68229000D02*
X106520000Y-66971000D01*
X100725000Y-84720000D02*
X96084000Y-84720000D01*
X96084000Y-74480000D02*
X96084000Y-84720000D01*
X100725000Y-77750000D02*
X99215000Y-77750000D01*
X100725000Y-74480000D02*
X100725000Y-84720000D01*
X99215000Y-74480000D02*
X99215000Y-84720000D01*
X100725000Y-81451000D02*
X99215000Y-81451000D01*
X100725000Y-74480000D02*
X96084000Y-74480000D01*
X150430000Y-67870000D02*
X150430000Y-61330000D01*
X153170000Y-67870000D02*
X153170000Y-61330000D01*
X152840000Y-67870000D02*
X153170000Y-67870000D01*
X150430000Y-61330000D02*
X150760000Y-61330000D01*
X150760000Y-67870000D02*
X150430000Y-67870000D01*
X153170000Y-61330000D02*
X152840000Y-61330000D01*
X104680000Y-60629000D02*
X104680000Y-59371000D01*
X106520000Y-60629000D02*
X106520000Y-59371000D01*
X160830000Y-74825000D02*
X160830000Y-77425000D01*
X161480000Y-78075000D02*
X161630000Y-78225000D01*
X161630000Y-73975000D02*
X162580000Y-73975000D01*
X160830000Y-77425000D02*
X161080000Y-77675000D01*
X160830000Y-74825000D02*
X161080000Y-74575000D01*
X162580000Y-78225000D02*
X161630000Y-78225000D01*
X161480000Y-74125000D02*
X161630000Y-73975000D01*
X162830000Y-61320000D02*
X163160000Y-61320000D01*
X165570000Y-61320000D02*
X165240000Y-61320000D01*
X162830000Y-67860000D02*
X162830000Y-61320000D01*
X165570000Y-67860000D02*
X165570000Y-61320000D01*
X163160000Y-67860000D02*
X162830000Y-67860000D01*
X165240000Y-67860000D02*
X165570000Y-67860000D01*
X96330000Y-59950000D02*
X96330000Y-57350000D01*
X93730000Y-59950000D02*
X96330000Y-59950000D01*
X93730000Y-59950000D02*
X93730000Y-70170000D01*
X98930000Y-57350000D02*
X98930000Y-70170000D01*
X93730000Y-58680000D02*
X93730000Y-57350000D01*
X93730000Y-70170000D02*
X98930000Y-70170000D01*
X93730000Y-57350000D02*
X95060000Y-57350000D01*
X96330000Y-57350000D02*
X98930000Y-57350000D01*
X99880000Y-60479000D02*
X99880000Y-59221000D01*
X101720000Y-60479000D02*
X101720000Y-59221000D01*
X102280000Y-68229000D02*
X102280000Y-66971000D01*
X104120000Y-68229000D02*
X104120000Y-66971000D01*
X114730000Y-92470000D02*
X114730000Y-102750000D01*
X135290000Y-102750000D02*
X135290000Y-92470000D01*
X135290000Y-92470000D02*
X114730000Y-92470000D01*
X135230000Y-96610000D02*
X135230000Y-94960000D01*
X114730000Y-102750000D02*
X135290000Y-102750000D01*
X114790000Y-100260000D02*
X135230000Y-100260000D01*
X114790000Y-94960000D02*
X114790000Y-100260000D01*
X135230000Y-100260000D02*
X135230000Y-98610000D01*
X135230000Y-94960000D02*
X114790000Y-94960000D01*
X135230000Y-96610000D02*
G75*
G03*
X135230000Y-98610000I0J-1000000D01*
G01*
%LPC*%
D12*
X108000000Y-58350000D03*
X108000000Y-60850000D03*
X103200000Y-61250000D03*
X103200000Y-58750000D03*
X116000000Y-116650000D03*
X116000000Y-114150000D03*
D13*
X154600000Y-118500000D03*
D14*
X152060000Y-118500000D03*
X149520000Y-118500000D03*
X146980000Y-118500000D03*
X144440000Y-118500000D03*
X141900000Y-118500000D03*
X139360000Y-118500000D03*
X136820000Y-118500000D03*
X134280000Y-118500000D03*
X131740000Y-118500000D03*
X129200000Y-118500000D03*
X126660000Y-118500000D03*
X124120000Y-118500000D03*
X121580000Y-118500000D03*
X121580000Y-126120000D03*
X124120000Y-126120000D03*
X126660000Y-126120000D03*
X129200000Y-126120000D03*
X131740000Y-126120000D03*
X134280000Y-126120000D03*
X136820000Y-126120000D03*
X139360000Y-126120000D03*
X141900000Y-126120000D03*
X144440000Y-126120000D03*
X146980000Y-126120000D03*
X149520000Y-126120000D03*
X152060000Y-126120000D03*
X154600000Y-126120000D03*
D12*
X108000000Y-68850000D03*
X108000000Y-66350000D03*
X107600000Y-116450000D03*
X107600000Y-113950000D03*
X100800000Y-68850000D03*
X100800000Y-66350000D03*
X152000000Y-82210000D03*
D14*
X152000000Y-74590000D03*
D15*
X146600000Y-54400000D03*
D16*
X145600000Y-54400000D03*
X144600000Y-54400000D03*
X143600000Y-54400000D03*
X142600000Y-54400000D03*
X141600000Y-54400000D03*
X140600000Y-54400000D03*
X139600000Y-54400000D03*
X138600000Y-54400000D03*
X137600000Y-54400000D03*
X136600000Y-54400000D03*
X135600000Y-54400000D03*
X134600000Y-54400000D03*
X133600000Y-54400000D03*
X132600000Y-54400000D03*
X131600000Y-54400000D03*
X130600000Y-54400000D03*
X129600000Y-54400000D03*
D17*
X145530000Y-74835000D03*
D18*
X145530000Y-76105000D03*
X145530000Y-77375000D03*
D19*
X157800000Y-70080000D03*
D20*
X157800000Y-59920000D03*
D15*
X146600000Y-134900000D03*
D16*
X145600000Y-134900000D03*
X144600000Y-134900000D03*
X143600000Y-134900000D03*
X142600000Y-134900000D03*
X141600000Y-134900000D03*
X140600000Y-134900000D03*
X139600000Y-134900000D03*
X138600000Y-134900000D03*
X137600000Y-134900000D03*
X136600000Y-134900000D03*
X135600000Y-134900000D03*
X134600000Y-134900000D03*
D12*
X156200000Y-82210000D03*
D14*
X156200000Y-74590000D03*
D21*
X111800000Y-119750000D03*
X111800000Y-124650000D03*
D13*
X157600000Y-93800000D03*
D14*
X155060000Y-93800000D03*
X152520000Y-93800000D03*
X149980000Y-93800000D03*
X147440000Y-93800000D03*
X144900000Y-93800000D03*
X142360000Y-93800000D03*
X139820000Y-93800000D03*
X139820000Y-101420000D03*
X142360000Y-101420000D03*
X144900000Y-101420000D03*
X147440000Y-101420000D03*
X149980000Y-101420000D03*
X152520000Y-101420000D03*
X155060000Y-101420000D03*
X157600000Y-101420000D03*
D19*
X145600000Y-69880000D03*
D20*
X145600000Y-59720000D03*
D12*
X105600000Y-68850000D03*
X105600000Y-66350000D03*
D22*
X97455000Y-77060000D03*
D23*
X97455000Y-79600000D03*
X97455000Y-82140000D03*
D12*
X151800000Y-68410000D03*
D14*
X151800000Y-60790000D03*
D12*
X105600000Y-61250000D03*
X105600000Y-58750000D03*
D17*
X161930000Y-74835000D03*
D18*
X161930000Y-76105000D03*
X161930000Y-77375000D03*
D12*
X164200000Y-68400000D03*
D14*
X164200000Y-60780000D03*
D24*
X95060000Y-58680000D03*
D25*
X97600000Y-58680000D03*
X95060000Y-61220000D03*
X97600000Y-61220000D03*
X95060000Y-63760000D03*
X97600000Y-63760000D03*
X95060000Y-66300000D03*
X97600000Y-66300000D03*
X95060000Y-68840000D03*
X97600000Y-68840000D03*
D12*
X100800000Y-61100000D03*
X100800000Y-58600000D03*
X103200000Y-68850000D03*
X103200000Y-66350000D03*
D13*
X133900000Y-93800000D03*
D14*
X131360000Y-93800000D03*
X128820000Y-93800000D03*
X126280000Y-93800000D03*
X123740000Y-93800000D03*
X121200000Y-93800000D03*
X118660000Y-93800000D03*
X116120000Y-93800000D03*
X116120000Y-101420000D03*
X118660000Y-101420000D03*
X121200000Y-101420000D03*
X123740000Y-101420000D03*
X126280000Y-101420000D03*
X128820000Y-101420000D03*
X131360000Y-101420000D03*
X133900000Y-101420000D03*
M02*
