M48
; DRILL file {KiCad 6.0.5-2.fc35} date Mi 06 Jul 2022 13:19:51 CEST
; FORMAT={-:-/ absolute / metric / decimal}
; #@! TF.CreationDate,2022-07-06T13:19:51+02:00
; #@! TF.GenerationSoftware,Kicad,Pcbnew,6.0.5-2.fc35
; #@! TF.FileFunction,Plated,1,2,PTH
FMAT,2
METRIC
; #@! TA.AperFunction,Plated,PTH,ViaDrill
T1C0.400
; #@! TA.AperFunction,Plated,PTH,ComponentDrill
T2C0.500
; #@! TA.AperFunction,Plated,PTH,ComponentDrill
T3C0.750
; #@! TA.AperFunction,Plated,PTH,ComponentDrill
T4C0.800
; #@! TA.AperFunction,Plated,PTH,ComponentDrill
T5C1.000
; #@! TA.AperFunction,Plated,PTH,ComponentDrill
T6C1.100
%
G90
G05
T1
X163.4Y-96.4
T2
X129.6Y-54.4
X130.6Y-54.4
X131.6Y-54.4
X132.6Y-54.4
X133.6Y-54.4
X134.6Y-54.4
X134.6Y-134.9
X135.6Y-54.4
X135.6Y-134.9
X136.6Y-54.4
X136.6Y-134.9
X137.6Y-54.4
X137.6Y-134.9
X138.6Y-54.4
X138.6Y-134.9
X139.6Y-54.4
X139.6Y-134.9
X140.6Y-54.4
X140.6Y-134.9
X141.6Y-54.4
X141.6Y-134.9
X142.6Y-54.4
X142.6Y-134.9
X143.6Y-54.4
X143.6Y-134.9
X144.6Y-54.4
X144.6Y-134.9
X145.6Y-54.4
X145.6Y-134.9
X146.6Y-54.4
X146.6Y-134.9
T3
X145.53Y-74.835
X145.53Y-76.105
X145.53Y-77.375
X161.93Y-74.835
X161.93Y-76.105
X161.93Y-77.375
T4
X100.8Y-58.6
X100.8Y-61.1
X100.8Y-66.35
X100.8Y-68.85
X103.2Y-58.75
X103.2Y-61.25
X103.2Y-66.35
X103.2Y-68.85
X105.6Y-58.75
X105.6Y-61.25
X105.6Y-66.35
X105.6Y-68.85
X107.6Y-113.95
X107.6Y-116.45
X108.0Y-58.35
X108.0Y-60.85
X108.0Y-66.35
X108.0Y-68.85
X111.8Y-119.75
X111.8Y-124.65
X116.0Y-114.15
X116.0Y-116.65
X116.12Y-93.8
X116.12Y-101.42
X118.66Y-93.8
X118.66Y-101.42
X121.2Y-93.8
X121.2Y-101.42
X121.58Y-118.5
X121.58Y-126.12
X123.74Y-93.8
X123.74Y-101.42
X124.12Y-118.5
X124.12Y-126.12
X126.28Y-93.8
X126.28Y-101.42
X126.66Y-118.5
X126.66Y-126.12
X128.82Y-93.8
X128.82Y-101.42
X129.2Y-118.5
X129.2Y-126.12
X131.36Y-93.8
X131.36Y-101.42
X131.74Y-118.5
X131.74Y-126.12
X133.9Y-93.8
X133.9Y-101.42
X134.28Y-118.5
X134.28Y-126.12
X136.82Y-118.5
X136.82Y-126.12
X139.36Y-118.5
X139.36Y-126.12
X139.82Y-93.8
X139.82Y-101.42
X141.9Y-118.5
X141.9Y-126.12
X142.36Y-93.8
X142.36Y-101.42
X144.44Y-118.5
X144.44Y-126.12
X144.9Y-93.8
X144.9Y-101.42
X146.98Y-118.5
X146.98Y-126.12
X147.44Y-93.8
X147.44Y-101.42
X149.52Y-118.5
X149.52Y-126.12
X149.98Y-93.8
X149.98Y-101.42
X151.8Y-60.79
X151.8Y-68.41
X152.0Y-74.59
X152.0Y-82.21
X152.06Y-118.5
X152.06Y-126.12
X152.52Y-93.8
X152.52Y-101.42
X154.6Y-118.5
X154.6Y-126.12
X155.06Y-93.8
X155.06Y-101.42
X156.2Y-74.59
X156.2Y-82.21
X157.6Y-93.8
X157.6Y-101.42
X164.2Y-60.78
X164.2Y-68.4
T5
X95.06Y-58.68
X95.06Y-61.22
X95.06Y-63.76
X95.06Y-66.3
X95.06Y-68.84
X97.6Y-58.68
X97.6Y-61.22
X97.6Y-63.76
X97.6Y-66.3
X97.6Y-68.84
T6
X97.455Y-77.06
X97.455Y-79.6
X97.455Y-82.14
X145.6Y-59.72
X145.6Y-69.88
X157.8Y-59.92
X157.8Y-70.08
T0
M30
