M48
; DRILL file {KiCad 6.0.5-2.fc35} date Do 07 Jul 2022 15:13:37 CEST
; FORMAT={-:-/ absolute / metric / decimal}
; #@! TF.CreationDate,2022-07-07T15:13:37+02:00
; #@! TF.GenerationSoftware,Kicad,Pcbnew,6.0.5-2.fc35
; #@! TF.FileFunction,Plated,1,2,PTH
FMAT,2
METRIC
; #@! TA.AperFunction,Plated,PTH,ViaDrill
T1C0.400
; #@! TA.AperFunction,Plated,PTH,ComponentDrill
T2C0.750
; #@! TA.AperFunction,Plated,PTH,ComponentDrill
T3C0.800
; #@! TA.AperFunction,Plated,PTH,ComponentDrill
T4C0.900
; #@! TA.AperFunction,Plated,PTH,ComponentDrill
T5C1.000
; #@! TA.AperFunction,Plated,PTH,ComponentDrill
T6C1.100
; #@! TA.AperFunction,Plated,PTH,ComponentDrill
T7C1.220
; #@! TA.AperFunction,Plated,PTH,ComponentDrill
T8C1.420
; #@! TA.AperFunction,Plated,PTH,ComponentDrill
T9C1.430
%
G90
G05
T1
X69.078Y-322.5
X69.5Y-302.0
X69.5Y-302.0
X88.945Y-322.625
X126.0Y-258.0
X127.0Y-256.54
X137.5Y-321.06
X138.496Y-320.977
X139.5Y-321.0
X139.5Y-327.0
X139.5Y-331.5
X141.5Y-327.0
X178.8Y-184.6
X184.2Y-325.5
T2
X160.93Y-163.035
X160.93Y-164.305
X160.93Y-165.575
X177.33Y-163.035
X177.33Y-164.305
X177.33Y-165.575
T3
X75.12Y-246.2
X75.12Y-253.82
X75.12Y-327.2
X75.12Y-334.82
X77.66Y-246.2
X77.66Y-253.82
X77.66Y-327.2
X77.66Y-334.82
X80.2Y-246.2
X80.2Y-253.82
X80.2Y-327.2
X80.2Y-334.82
X82.74Y-246.2
X82.74Y-253.82
X82.74Y-327.2
X82.74Y-334.82
X85.28Y-246.2
X85.28Y-253.82
X85.28Y-327.2
X85.28Y-334.82
X87.82Y-246.2
X87.82Y-253.82
X87.82Y-327.2
X87.82Y-334.82
X90.36Y-246.2
X90.36Y-253.82
X90.36Y-327.2
X90.36Y-334.82
X92.9Y-246.2
X92.9Y-253.82
X92.9Y-327.2
X92.9Y-334.82
X99.0Y-327.19
X99.0Y-334.81
X99.5Y-244.69
X99.5Y-252.31
X106.0Y-244.69
X106.0Y-252.31
X112.62Y-245.7
X112.62Y-253.32
X112.62Y-327.2
X112.62Y-334.82
X115.16Y-245.7
X115.16Y-253.32
X115.16Y-327.2
X115.16Y-334.82
X117.7Y-245.7
X117.7Y-253.32
X117.7Y-327.2
X117.7Y-334.82
X120.0Y-148.75
X120.0Y-151.25
X120.1Y-157.05
X120.1Y-159.55
X120.24Y-245.7
X120.24Y-253.32
X120.24Y-327.2
X120.24Y-334.82
X122.78Y-245.7
X122.78Y-253.32
X122.78Y-327.2
X122.78Y-334.82
X123.0Y-202.15
X123.0Y-204.65
X123.1Y-148.7
X123.1Y-151.2
X123.3Y-157.05
X123.3Y-159.55
X125.32Y-245.7
X125.32Y-253.32
X125.32Y-327.2
X125.32Y-334.82
X126.4Y-148.7
X126.4Y-151.2
X126.7Y-157.05
X126.7Y-159.55
X127.2Y-207.95
X127.2Y-212.85
X127.86Y-245.7
X127.86Y-253.32
X127.86Y-327.2
X127.86Y-334.82
X129.7Y-148.7
X129.7Y-151.2
X129.8Y-157.05
X129.8Y-159.55
X130.4Y-245.7
X130.4Y-253.32
X130.4Y-327.2
X130.4Y-334.82
X131.4Y-202.35
X131.4Y-204.85
X131.52Y-182.0
X131.52Y-189.62
X134.06Y-182.0
X134.06Y-189.62
X136.5Y-327.19
X136.5Y-334.81
X136.6Y-182.0
X136.6Y-189.62
X136.98Y-206.7
X136.98Y-214.32
X139.14Y-182.0
X139.14Y-189.62
X139.52Y-206.7
X139.52Y-214.32
X141.68Y-182.0
X141.68Y-189.62
X142.06Y-206.7
X142.06Y-214.32
X144.22Y-182.0
X144.22Y-189.62
X144.6Y-206.7
X144.6Y-214.32
X146.76Y-182.0
X146.76Y-189.62
X146.89Y-322.6
X146.99Y-326.1
X147.14Y-206.7
X147.14Y-214.32
X147.19Y-330.0
X149.3Y-182.0
X149.3Y-189.62
X149.68Y-206.7
X149.68Y-214.32
X152.22Y-206.7
X152.22Y-214.32
X154.51Y-322.6
X154.61Y-326.1
X154.76Y-206.7
X154.76Y-214.32
X154.81Y-330.0
X155.22Y-182.0
X155.22Y-189.62
X157.3Y-206.7
X157.3Y-214.32
X157.3Y-322.65
X157.3Y-325.15
X157.3Y-327.15
X157.3Y-329.65
X157.76Y-182.0
X157.76Y-189.62
X159.84Y-206.7
X159.84Y-214.32
X160.3Y-182.0
X160.3Y-189.62
X160.5Y-322.19
X160.5Y-329.81
X161.5Y-288.19
X161.5Y-295.81
X161.5Y-299.69
X161.5Y-307.31
X162.38Y-206.7
X162.38Y-214.32
X162.84Y-182.0
X162.84Y-189.62
X164.92Y-206.7
X164.92Y-214.32
X165.38Y-182.0
X165.38Y-189.62
X166.26Y-319.0
X166.26Y-326.62
X167.2Y-148.99
X167.2Y-156.61
X167.4Y-162.79
X167.4Y-170.41
X167.46Y-206.7
X167.46Y-214.32
X167.92Y-182.0
X167.92Y-189.62
X168.8Y-319.0
X168.8Y-326.62
X170.0Y-206.7
X170.0Y-214.32
X170.46Y-182.0
X170.46Y-189.62
X171.34Y-319.0
X171.34Y-326.62
X171.6Y-162.79
X171.6Y-170.41
X173.0Y-182.0
X173.0Y-189.62
X173.88Y-319.0
X173.88Y-326.62
X176.42Y-319.0
X176.42Y-326.62
X178.96Y-319.0
X178.96Y-326.62
X179.6Y-148.98
X179.6Y-156.6
X181.5Y-319.0
X181.5Y-326.62
X275.94Y-277.1
X276.18Y-284.035
X276.18Y-286.575
X276.18Y-289.115
X276.18Y-291.655
X276.18Y-294.195
X276.18Y-296.735
X276.18Y-299.275
X276.18Y-301.815
X276.18Y-304.355
X276.18Y-306.895
X276.18Y-309.435
X276.18Y-311.975
X283.56Y-277.1
X283.8Y-284.035
X283.8Y-286.575
X283.8Y-289.115
X283.8Y-291.655
X283.8Y-294.195
X283.8Y-296.735
X283.8Y-299.275
X283.8Y-301.815
X283.8Y-304.355
X283.8Y-306.895
X283.8Y-309.435
X283.8Y-311.975
T4
X80.0Y-263.885
X80.0Y-266.425
X80.0Y-279.735
X80.0Y-282.275
X80.0Y-295.46
X80.0Y-298.0
X80.0Y-310.735
X80.0Y-313.275
X97.5Y-263.735
X97.5Y-266.275
X97.5Y-279.735
X97.5Y-282.275
X97.5Y-295.235
X97.5Y-297.775
X97.5Y-311.01
X97.5Y-313.55
X117.5Y-263.51
X117.5Y-266.05
X117.5Y-279.235
X117.5Y-281.775
X117.5Y-295.46
X117.5Y-298.0
X117.5Y-311.235
X117.5Y-313.775
X133.5Y-263.0
X133.5Y-265.54
X133.5Y-278.735
X133.5Y-281.275
X133.5Y-294.96
X133.5Y-297.5
X133.5Y-311.235
X133.5Y-313.775
X200.96Y-266.0
X201.0Y-290.5
X201.0Y-327.0
X201.225Y-278.5
X201.225Y-303.0
X201.225Y-314.5
X203.5Y-266.0
X203.54Y-290.5
X203.54Y-327.0
X203.765Y-278.5
X203.765Y-303.0
X203.765Y-314.5
X213.46Y-266.0
X213.725Y-278.5
X213.725Y-290.5
X213.725Y-303.0
X213.725Y-314.5
X213.725Y-327.0
X216.0Y-266.0
X216.265Y-278.5
X216.265Y-290.5
X216.265Y-303.0
X216.265Y-314.5
X216.265Y-327.0
X225.96Y-266.0
X225.96Y-278.5
X225.96Y-290.5
X225.96Y-303.0
X225.96Y-314.5
X225.96Y-327.0
X228.5Y-266.0
X228.5Y-278.5
X228.5Y-290.5
X228.5Y-303.0
X228.5Y-314.5
X228.5Y-327.0
X238.0Y-278.5
X238.225Y-266.0
X238.225Y-290.5
X238.225Y-303.0
X238.225Y-314.5
X238.225Y-327.0
X240.54Y-278.5
X240.765Y-266.0
X240.765Y-290.5
X240.765Y-303.0
X240.765Y-314.5
X240.765Y-327.0
X251.225Y-266.0
X251.45Y-278.5
X251.45Y-290.5
X251.45Y-303.0
X251.45Y-314.5
X251.45Y-327.0
X253.765Y-266.0
X253.99Y-278.5
X253.99Y-290.5
X253.99Y-303.0
X253.99Y-314.5
X253.99Y-327.0
X263.46Y-266.0
X263.685Y-278.5
X263.685Y-290.5
X263.685Y-303.0
X263.685Y-314.5
X263.685Y-327.0
X266.0Y-266.0
X266.225Y-278.5
X266.225Y-290.5
X266.225Y-303.0
X266.225Y-314.5
X266.225Y-327.0
T5
X77.5Y-273.11
X77.5Y-289.14
X77.5Y-304.65
X77.5Y-320.15
X80.0Y-273.11
X80.0Y-289.14
X80.0Y-304.65
X80.0Y-320.15
X82.5Y-273.11
X82.5Y-289.14
X82.5Y-304.65
X82.5Y-320.15
X95.0Y-273.0
X95.0Y-289.0
X95.0Y-304.5
X95.0Y-320.0
X97.5Y-273.0
X97.5Y-289.0
X97.5Y-304.5
X97.5Y-320.0
X100.0Y-273.0
X100.0Y-289.0
X100.0Y-304.5
X100.0Y-320.0
X110.46Y-146.88
X110.46Y-149.42
X110.46Y-151.96
X110.46Y-154.5
X110.46Y-157.04
X113.0Y-146.88
X113.0Y-149.42
X113.0Y-151.96
X113.0Y-154.5
X113.0Y-157.04
X115.0Y-272.275
X115.0Y-288.275
X115.0Y-304.275
X115.0Y-320.0
X117.5Y-272.275
X117.5Y-288.275
X117.5Y-304.275
X117.5Y-320.0
X118.82Y-135.5
X120.0Y-272.275
X120.0Y-288.275
X120.0Y-304.275
X120.0Y-320.0
X121.36Y-135.5
X123.9Y-135.5
X126.44Y-135.5
X128.98Y-135.5
X131.0Y-272.0
X131.0Y-287.775
X131.0Y-304.0
X131.0Y-320.0
X131.52Y-135.5
X131.52Y-223.1
X133.5Y-272.0
X133.5Y-287.775
X133.5Y-304.0
X133.5Y-320.0
X134.06Y-135.5
X134.06Y-223.1
X136.0Y-272.0
X136.0Y-287.775
X136.0Y-304.0
X136.0Y-320.0
X136.6Y-135.5
X136.6Y-223.1
X139.14Y-135.5
X139.14Y-223.1
X141.68Y-135.5
X141.68Y-223.1
X144.22Y-135.5
X144.22Y-223.1
X145.0Y-249.5
X145.0Y-337.0
X146.76Y-135.5
X146.76Y-223.1
X147.54Y-249.5
X147.54Y-337.0
X149.3Y-135.5
X149.3Y-223.1
X150.08Y-249.5
X150.08Y-337.0
X151.84Y-135.5
X151.84Y-223.1
X152.62Y-249.5
X152.62Y-337.0
X154.38Y-135.5
X154.38Y-223.1
X155.16Y-249.5
X155.16Y-337.0
X156.92Y-135.5
X156.92Y-223.1
X157.7Y-249.5
X157.7Y-337.0
X159.46Y-135.5
X159.46Y-223.1
X160.24Y-249.5
X160.24Y-337.0
X162.0Y-135.5
X162.0Y-223.1
X162.78Y-249.5
X162.78Y-337.0
X165.32Y-249.5
X165.32Y-337.0
X167.86Y-249.5
X167.86Y-337.0
X170.4Y-249.5
X170.4Y-337.0
X172.94Y-249.5
X172.94Y-337.0
X175.48Y-249.5
X175.48Y-337.0
X178.02Y-249.5
X180.56Y-249.5
X183.1Y-249.5
X185.64Y-249.5
X188.18Y-249.5
T6
X112.855Y-165.26
X112.855Y-167.8
X112.855Y-170.34
X161.0Y-147.92
X161.0Y-158.08
X173.2Y-148.12
X173.2Y-158.28
T7
X146.22Y-266.5
X146.22Y-278.0
X146.22Y-292.0
X146.22Y-303.0
X146.22Y-314.0
T8
X149.32Y-266.5
X149.32Y-278.0
X149.32Y-292.0
X149.32Y-303.0
X149.32Y-314.0
T9
X157.62Y-266.5
X157.62Y-278.0
X157.62Y-292.0
X157.62Y-303.0
X157.62Y-314.0
T5
X170.46Y-271.9G85X170.46Y-270.9
G05
X170.46Y-284.5G85X170.46Y-283.5
G05
X170.46Y-297.0G85X170.46Y-296.0
G05
X170.46Y-309.5G85X170.46Y-308.5
G05
X175.54Y-271.9G85X175.54Y-270.9
G05
X175.54Y-284.5G85X175.54Y-283.5
G05
X175.54Y-297.0G85X175.54Y-296.0
G05
X175.54Y-309.5G85X175.54Y-308.5
G05
X187.46Y-265.0G85X187.46Y-266.0
G05
X187.46Y-277.5G85X187.46Y-278.5
G05
X187.46Y-290.0G85X187.46Y-291.0
G05
X187.96Y-302.5G85X187.96Y-303.5
G05
X187.96Y-315.0G85X187.96Y-316.0
G05
X187.96Y-327.5G85X187.96Y-328.5
G05
X192.54Y-265.0G85X192.54Y-266.0
G05
X192.54Y-277.5G85X192.54Y-278.5
G05
X192.54Y-290.0G85X192.54Y-291.0
G05
X193.04Y-302.5G85X193.04Y-303.5
G05
X193.04Y-315.0G85X193.04Y-316.0
G05
X193.04Y-327.5G85X193.04Y-328.5
G05
X201.5Y-249.96G85X202.5Y-249.96
G05
X201.5Y-255.04G85X202.5Y-255.04
G05
X214.0Y-249.96G85X215.0Y-249.96
G05
X214.0Y-255.04G85X215.0Y-255.04
G05
X226.5Y-249.96G85X227.5Y-249.96
G05
X226.5Y-255.04G85X227.5Y-255.04
G05
X239.0Y-249.46G85X240.0Y-249.46
G05
X239.0Y-254.54G85X240.0Y-254.54
G05
X251.5Y-249.46G85X252.5Y-249.46
G05
X251.5Y-254.54G85X252.5Y-254.54
G05
X264.0Y-249.46G85X265.0Y-249.46
G05
X264.0Y-254.54G85X265.0Y-254.54
G05
T6
X75.2Y-265.96G85X75.2Y-265.26
G05
X75.2Y-281.99G85X75.2Y-281.29
G05
X75.2Y-297.5G85X75.2Y-296.8
G05
X75.2Y-313.0G85X75.2Y-312.3
G05
X84.8Y-265.96G85X84.8Y-265.26
G05
X84.8Y-281.99G85X84.8Y-281.29
G05
X84.8Y-297.5G85X84.8Y-296.8
G05
X84.8Y-313.0G85X84.8Y-312.3
G05
X92.7Y-265.85G85X92.7Y-265.15
G05
X92.7Y-281.85G85X92.7Y-281.15
G05
X92.7Y-297.35G85X92.7Y-296.65
G05
X92.7Y-312.85G85X92.7Y-312.15
G05
X102.3Y-265.85G85X102.3Y-265.15
G05
X102.3Y-281.85G85X102.3Y-281.15
G05
X102.3Y-297.35G85X102.3Y-296.65
G05
X102.3Y-312.85G85X102.3Y-312.15
G05
X112.7Y-265.125G85X112.7Y-264.425
G05
X112.7Y-281.125G85X112.7Y-280.425
G05
X112.7Y-297.125G85X112.7Y-296.425
G05
X112.7Y-312.85G85X112.7Y-312.15
G05
X122.3Y-265.125G85X122.3Y-264.425
G05
X122.3Y-281.125G85X122.3Y-280.425
G05
X122.3Y-297.125G85X122.3Y-296.425
G05
X122.3Y-312.85G85X122.3Y-312.15
G05
X128.7Y-264.85G85X128.7Y-264.15
G05
X128.7Y-280.625G85X128.7Y-279.925
G05
X128.7Y-296.85G85X128.7Y-296.15
G05
X128.7Y-312.85G85X128.7Y-312.15
G05
X138.3Y-264.85G85X138.3Y-264.15
G05
X138.3Y-280.625G85X138.3Y-279.925
G05
X138.3Y-296.85G85X138.3Y-296.15
G05
X138.3Y-312.85G85X138.3Y-312.15
G05
T0
M30
