G04 #@! TF.GenerationSoftware,KiCad,Pcbnew,6.0.7-1.fc36*
G04 #@! TF.CreationDate,2022-08-06T18:57:46+02:00*
G04 #@! TF.ProjectId,matrix-sq-v1,6d617472-6978-42d7-9371-2d76312e6b69,rev?*
G04 #@! TF.SameCoordinates,Original*
G04 #@! TF.FileFunction,Copper,L1,Top*
G04 #@! TF.FilePolarity,Positive*
%FSLAX46Y46*%
G04 Gerber Fmt 4.6, Leading zero omitted, Abs format (unit mm)*
G04 Created by KiCad (PCBNEW 6.0.7-1.fc36) date 2022-08-06 18:57:46*
%MOMM*%
%LPD*%
G01*
G04 APERTURE LIST*
G04 Aperture macros list*
%AMRoundRect*
0 Rectangle with rounded corners*
0 $1 Rounding radius*
0 $2 $3 $4 $5 $6 $7 $8 $9 X,Y pos of 4 corners*
0 Add a 4 corners polygon primitive as box body*
4,1,4,$2,$3,$4,$5,$6,$7,$8,$9,$2,$3,0*
0 Add four circle primitives for the rounded corners*
1,1,$1+$1,$2,$3*
1,1,$1+$1,$4,$5*
1,1,$1+$1,$6,$7*
1,1,$1+$1,$8,$9*
0 Add four rect primitives between the rounded corners*
20,1,$1+$1,$2,$3,$4,$5,0*
20,1,$1+$1,$4,$5,$6,$7,0*
20,1,$1+$1,$6,$7,$8,$9,0*
20,1,$1+$1,$8,$9,$2,$3,0*%
G04 Aperture macros list end*
G04 #@! TA.AperFunction,Profile*
%ADD10C,0.100000*%
G04 #@! TD*
G04 #@! TA.AperFunction,ComponentPad*
%ADD11R,1.800000X1.800000*%
G04 #@! TD*
G04 #@! TA.AperFunction,ComponentPad*
%ADD12C,1.800000*%
G04 #@! TD*
G04 #@! TA.AperFunction,ComponentPad*
%ADD13O,2.720000X3.240000*%
G04 #@! TD*
G04 #@! TA.AperFunction,ComponentPad*
%ADD14C,1.600000*%
G04 #@! TD*
G04 #@! TA.AperFunction,ComponentPad*
%ADD15O,1.600000X1.600000*%
G04 #@! TD*
G04 #@! TA.AperFunction,ComponentPad*
%ADD16O,3.000000X2.000000*%
G04 #@! TD*
G04 #@! TA.AperFunction,ComponentPad*
%ADD17R,1.600000X1.600000*%
G04 #@! TD*
G04 #@! TA.AperFunction,ComponentPad*
%ADD18O,2.000000X3.000000*%
G04 #@! TD*
G04 #@! TA.AperFunction,ComponentPad*
%ADD19R,1.830000X1.930000*%
G04 #@! TD*
G04 #@! TA.AperFunction,ComponentPad*
%ADD20C,2.130000*%
G04 #@! TD*
G04 #@! TA.AperFunction,ComponentPad*
%ADD21R,1.700000X1.700000*%
G04 #@! TD*
G04 #@! TA.AperFunction,ComponentPad*
%ADD22O,1.700000X1.700000*%
G04 #@! TD*
G04 #@! TA.AperFunction,ComponentPad*
%ADD23RoundRect,0.249900X-0.400100X0.275100X-0.400100X-0.275100X0.400100X-0.275100X0.400100X0.275100X0*%
G04 #@! TD*
G04 #@! TA.AperFunction,ComponentPad*
%ADD24O,1.300000X1.050000*%
G04 #@! TD*
G04 #@! TA.AperFunction,ComponentPad*
%ADD25R,2.000000X1.905000*%
G04 #@! TD*
G04 #@! TA.AperFunction,ComponentPad*
%ADD26O,2.000000X1.905000*%
G04 #@! TD*
G04 #@! TA.AperFunction,ComponentPad*
%ADD27R,2.200000X2.200000*%
G04 #@! TD*
G04 #@! TA.AperFunction,ComponentPad*
%ADD28O,2.200000X2.200000*%
G04 #@! TD*
G04 #@! TA.AperFunction,ComponentPad*
%ADD29C,1.500000*%
G04 #@! TD*
G04 #@! TA.AperFunction,ViaPad*
%ADD30C,0.800000*%
G04 #@! TD*
G04 #@! TA.AperFunction,Conductor*
%ADD31C,0.250000*%
G04 #@! TD*
G04 APERTURE END LIST*
D10*
X108300000Y-132900000D02*
X176300000Y-132900000D01*
X176300000Y-132900000D02*
X176300000Y-227300000D01*
X176300000Y-227300000D02*
X108300000Y-227300000D01*
X108300000Y-227300000D02*
X108300000Y-132900000D01*
X70800000Y-241500000D02*
X270800000Y-241500000D01*
X270800000Y-241500000D02*
X270800000Y-341000000D01*
X270800000Y-341000000D02*
X70800000Y-341000000D01*
X70800000Y-341000000D02*
X70800000Y-241500000D01*
D11*
X200800000Y-323600000D03*
D12*
X203340000Y-323600000D03*
D13*
X75200000Y-297150000D03*
X84800000Y-297150000D03*
D11*
X77500000Y-304650000D03*
D12*
X80000000Y-304650000D03*
X82500000Y-304650000D03*
D11*
X238025000Y-262600000D03*
D12*
X240565000Y-262600000D03*
D14*
X161500000Y-307310000D03*
D15*
X161500000Y-299690000D03*
D13*
X112700000Y-312500000D03*
X122300000Y-312500000D03*
D11*
X115000000Y-320000000D03*
D12*
X117500000Y-320000000D03*
X120000000Y-320000000D03*
D14*
X166290000Y-191700000D03*
D15*
X173910000Y-191700000D03*
D14*
X154510000Y-322600000D03*
D15*
X146890000Y-322600000D03*
D16*
X252000000Y-249460000D03*
X252000000Y-254540000D03*
D17*
X138000000Y-179100000D03*
D15*
X138000000Y-181640000D03*
X138000000Y-184180000D03*
X138000000Y-186720000D03*
X138000000Y-189260000D03*
X138000000Y-191800000D03*
X138000000Y-194340000D03*
X138000000Y-196880000D03*
X145620000Y-196880000D03*
X145620000Y-194340000D03*
X145620000Y-191800000D03*
X145620000Y-189260000D03*
X145620000Y-186720000D03*
X145620000Y-184180000D03*
X145620000Y-181640000D03*
X145620000Y-179100000D03*
D11*
X133500000Y-297500000D03*
D12*
X133500000Y-294960000D03*
D11*
X225760000Y-275100000D03*
D12*
X228300000Y-275100000D03*
D13*
X122300000Y-280775000D03*
X112700000Y-280775000D03*
D11*
X115000000Y-288275000D03*
D12*
X117500000Y-288275000D03*
X120000000Y-288275000D03*
D14*
X123300000Y-159550000D03*
X123300000Y-157050000D03*
D11*
X251250000Y-299600000D03*
D12*
X253790000Y-299600000D03*
D11*
X251250000Y-311100000D03*
D12*
X253790000Y-311100000D03*
D14*
X127710000Y-177900000D03*
D15*
X120090000Y-177900000D03*
D18*
X170460000Y-271400000D03*
X175540000Y-271400000D03*
D11*
X213260000Y-262600000D03*
D12*
X215800000Y-262600000D03*
D13*
X138300000Y-312500000D03*
X128700000Y-312500000D03*
D11*
X131000000Y-320000000D03*
D12*
X133500000Y-320000000D03*
X136000000Y-320000000D03*
D19*
X146220000Y-278000000D03*
D20*
X157620000Y-278000000D03*
X149320000Y-278000000D03*
D18*
X193000000Y-263000000D03*
X187920000Y-263000000D03*
D11*
X251250000Y-275100000D03*
D12*
X253790000Y-275100000D03*
D13*
X112700000Y-264775000D03*
X122300000Y-264775000D03*
D11*
X115000000Y-272275000D03*
D12*
X117500000Y-272275000D03*
X120000000Y-272275000D03*
D18*
X193000000Y-288000000D03*
X187920000Y-288000000D03*
D13*
X138300000Y-264500000D03*
X128700000Y-264500000D03*
D11*
X131000000Y-272000000D03*
D12*
X133500000Y-272000000D03*
X136000000Y-272000000D03*
D13*
X138300000Y-296500000D03*
X128700000Y-296500000D03*
D11*
X131000000Y-304000000D03*
D12*
X133500000Y-304000000D03*
X136000000Y-304000000D03*
D14*
X166290000Y-196300000D03*
D15*
X173910000Y-196300000D03*
D14*
X120000000Y-151250000D03*
X120000000Y-148750000D03*
D11*
X263260000Y-262600000D03*
D12*
X265800000Y-262600000D03*
D11*
X133500000Y-265540000D03*
D12*
X133500000Y-263000000D03*
D13*
X92700000Y-281500000D03*
X102300000Y-281500000D03*
D11*
X95000000Y-289000000D03*
D12*
X97500000Y-289000000D03*
X100000000Y-289000000D03*
D11*
X213525000Y-299600000D03*
D12*
X216065000Y-299600000D03*
D21*
X110460000Y-146880000D03*
D22*
X113000000Y-146880000D03*
X110460000Y-149420000D03*
X113000000Y-149420000D03*
X110460000Y-151960000D03*
X113000000Y-151960000D03*
X110460000Y-154500000D03*
X113000000Y-154500000D03*
X110460000Y-157040000D03*
X113000000Y-157040000D03*
D16*
X264500000Y-249460000D03*
X264500000Y-254540000D03*
D14*
X254300000Y-337210000D03*
D15*
X254300000Y-329590000D03*
D14*
X171700000Y-149000000D03*
D15*
X171700000Y-141380000D03*
D11*
X200760000Y-262600000D03*
D12*
X203300000Y-262600000D03*
D11*
X238025000Y-299600000D03*
D12*
X240565000Y-299600000D03*
D23*
X170530000Y-154235000D03*
D24*
X170530000Y-155505000D03*
X170530000Y-156775000D03*
D14*
X157300000Y-330000000D03*
X157300000Y-327500000D03*
D21*
X174000000Y-212825000D03*
D22*
X174000000Y-215365000D03*
D14*
X126400000Y-151200000D03*
X126400000Y-148700000D03*
D11*
X225760000Y-262600000D03*
D12*
X228300000Y-262600000D03*
D18*
X193000000Y-275500000D03*
X187920000Y-275500000D03*
D11*
X263485000Y-311100000D03*
D12*
X266025000Y-311100000D03*
D11*
X97500000Y-282275000D03*
D12*
X97500000Y-279735000D03*
D14*
X154810000Y-330000000D03*
D15*
X147190000Y-330000000D03*
D14*
X136500000Y-334810000D03*
D15*
X136500000Y-327190000D03*
D11*
X213525000Y-323600000D03*
D12*
X216065000Y-323600000D03*
D11*
X263485000Y-299600000D03*
D12*
X266025000Y-299600000D03*
D16*
X214500000Y-249960000D03*
X214500000Y-255040000D03*
X202000000Y-249960000D03*
X202000000Y-255040000D03*
D14*
X166290000Y-187300000D03*
D15*
X173910000Y-187300000D03*
D18*
X170460000Y-284000000D03*
X175540000Y-284000000D03*
D11*
X225760000Y-299600000D03*
D12*
X228300000Y-299600000D03*
D11*
X251250000Y-287100000D03*
D12*
X253790000Y-287100000D03*
D18*
X170460000Y-296500000D03*
X175540000Y-296500000D03*
D14*
X159300000Y-149010000D03*
D15*
X159300000Y-141390000D03*
D13*
X84800000Y-312650000D03*
X75200000Y-312650000D03*
D11*
X77500000Y-320150000D03*
D12*
X80000000Y-320150000D03*
X82500000Y-320150000D03*
D14*
X127710000Y-191000000D03*
D15*
X120090000Y-191000000D03*
D19*
X146220000Y-292000000D03*
D20*
X157620000Y-292000000D03*
X149320000Y-292000000D03*
D11*
X117500000Y-298000000D03*
D12*
X117500000Y-295460000D03*
D11*
X238025000Y-323600000D03*
D12*
X240565000Y-323600000D03*
D19*
X146220000Y-303000000D03*
D20*
X157620000Y-303000000D03*
X149320000Y-303000000D03*
D25*
X112855000Y-165260000D03*
D26*
X112855000Y-167800000D03*
X112855000Y-170340000D03*
D17*
X92900000Y-327200000D03*
D15*
X90360000Y-327200000D03*
X87820000Y-327200000D03*
X85280000Y-327200000D03*
X82740000Y-327200000D03*
X80200000Y-327200000D03*
X77660000Y-327200000D03*
X75120000Y-327200000D03*
X75120000Y-334820000D03*
X77660000Y-334820000D03*
X80200000Y-334820000D03*
X82740000Y-334820000D03*
X85280000Y-334820000D03*
X87820000Y-334820000D03*
X90360000Y-334820000D03*
X92900000Y-334820000D03*
D14*
X126700000Y-159550000D03*
X126700000Y-157050000D03*
D27*
X153100000Y-150480000D03*
D28*
X153100000Y-140320000D03*
D11*
X201025000Y-311100000D03*
D12*
X203565000Y-311100000D03*
D17*
X152300000Y-179100000D03*
D15*
X152300000Y-181640000D03*
X152300000Y-184180000D03*
X152300000Y-186720000D03*
X152300000Y-189260000D03*
X152300000Y-191800000D03*
X152300000Y-194340000D03*
X152300000Y-196880000D03*
X159920000Y-196880000D03*
X159920000Y-194340000D03*
X159920000Y-191800000D03*
X159920000Y-189260000D03*
X159920000Y-186720000D03*
X159920000Y-184180000D03*
X159920000Y-181640000D03*
X159920000Y-179100000D03*
D13*
X75200000Y-281640000D03*
X84800000Y-281640000D03*
D11*
X77500000Y-289140000D03*
D12*
X80000000Y-289140000D03*
X82500000Y-289140000D03*
D14*
X166390000Y-182900000D03*
D15*
X174010000Y-182900000D03*
D29*
X123950000Y-214800000D03*
X128850000Y-214800000D03*
D14*
X164800000Y-161610000D03*
D15*
X164800000Y-153990000D03*
D21*
X145000000Y-249500000D03*
D22*
X147540000Y-249500000D03*
X150080000Y-249500000D03*
X152620000Y-249500000D03*
X155160000Y-249500000D03*
X157700000Y-249500000D03*
X160240000Y-249500000D03*
X162780000Y-249500000D03*
X165320000Y-249500000D03*
X167860000Y-249500000D03*
X170400000Y-249500000D03*
X172940000Y-249500000D03*
X175480000Y-249500000D03*
X178020000Y-249500000D03*
X180560000Y-249500000D03*
X183100000Y-249500000D03*
X185640000Y-249500000D03*
X188180000Y-249500000D03*
D21*
X162000000Y-223100000D03*
D22*
X159460000Y-223100000D03*
X156920000Y-223100000D03*
X154380000Y-223100000D03*
X151840000Y-223100000D03*
X149300000Y-223100000D03*
X146760000Y-223100000D03*
X144220000Y-223100000D03*
X141680000Y-223100000D03*
X139140000Y-223100000D03*
X136600000Y-223100000D03*
X134060000Y-223100000D03*
X131520000Y-223100000D03*
D11*
X213525000Y-311100000D03*
D12*
X216065000Y-311100000D03*
D14*
X106000000Y-252310000D03*
D15*
X106000000Y-244690000D03*
D14*
X157300000Y-325150000D03*
X157300000Y-322650000D03*
D11*
X251025000Y-262600000D03*
D12*
X253565000Y-262600000D03*
D11*
X117500000Y-281775000D03*
D12*
X117500000Y-279235000D03*
D14*
X127710000Y-203600000D03*
D15*
X120090000Y-203600000D03*
D14*
X166290000Y-200800000D03*
D15*
X173910000Y-200800000D03*
D11*
X200800000Y-287100000D03*
D12*
X203340000Y-287100000D03*
D14*
X160500000Y-329810000D03*
D15*
X160500000Y-322190000D03*
D17*
X130400000Y-245700000D03*
D15*
X127860000Y-245700000D03*
X125320000Y-245700000D03*
X122780000Y-245700000D03*
X120240000Y-245700000D03*
X117700000Y-245700000D03*
X115160000Y-245700000D03*
X112620000Y-245700000D03*
X112620000Y-253320000D03*
X115160000Y-253320000D03*
X117700000Y-253320000D03*
X120240000Y-253320000D03*
X122780000Y-253320000D03*
X125320000Y-253320000D03*
X127860000Y-253320000D03*
X130400000Y-253320000D03*
D11*
X97500000Y-313550000D03*
D12*
X97500000Y-311010000D03*
D19*
X146220000Y-266500000D03*
D20*
X157620000Y-266500000D03*
X149320000Y-266500000D03*
D18*
X193500000Y-300500000D03*
X188420000Y-300500000D03*
D27*
X165300000Y-150680000D03*
D28*
X165300000Y-140520000D03*
D14*
X161500000Y-295810000D03*
D15*
X161500000Y-288190000D03*
D23*
X154130000Y-154235000D03*
D24*
X154130000Y-155505000D03*
X154130000Y-156775000D03*
D14*
X166490000Y-169600000D03*
D15*
X174110000Y-169600000D03*
D17*
X220325000Y-337300000D03*
D15*
X222865000Y-337300000D03*
X225405000Y-337300000D03*
X227945000Y-337300000D03*
X230485000Y-337300000D03*
X233025000Y-337300000D03*
X235565000Y-337300000D03*
X238105000Y-337300000D03*
X240645000Y-337300000D03*
X243185000Y-337300000D03*
X245725000Y-337300000D03*
X248265000Y-337300000D03*
X248265000Y-329680000D03*
X245725000Y-329680000D03*
X243185000Y-329680000D03*
X240645000Y-329680000D03*
X238105000Y-329680000D03*
X235565000Y-329680000D03*
X233025000Y-329680000D03*
X230485000Y-329680000D03*
X227945000Y-329680000D03*
X225405000Y-329680000D03*
X222865000Y-329680000D03*
X220325000Y-329680000D03*
D11*
X201025000Y-299600000D03*
D12*
X203565000Y-299600000D03*
D14*
X154610000Y-326100000D03*
D15*
X146990000Y-326100000D03*
D11*
X117500000Y-313775000D03*
D12*
X117500000Y-311235000D03*
D14*
X166490000Y-174100000D03*
D15*
X174110000Y-174100000D03*
D19*
X146220000Y-314000000D03*
D20*
X157620000Y-314000000D03*
X149320000Y-314000000D03*
D11*
X225760000Y-287100000D03*
D12*
X228300000Y-287100000D03*
D14*
X166390000Y-178500000D03*
D15*
X174010000Y-178500000D03*
D11*
X97500000Y-297775000D03*
D12*
X97500000Y-295235000D03*
D18*
X193500000Y-325500000D03*
X188420000Y-325500000D03*
D16*
X239500000Y-249460000D03*
X239500000Y-254540000D03*
D21*
X162000000Y-135500000D03*
D22*
X159460000Y-135500000D03*
X156920000Y-135500000D03*
X154380000Y-135500000D03*
X151840000Y-135500000D03*
X149300000Y-135500000D03*
X146760000Y-135500000D03*
X144220000Y-135500000D03*
X141680000Y-135500000D03*
X139140000Y-135500000D03*
X136600000Y-135500000D03*
X134060000Y-135500000D03*
X131520000Y-135500000D03*
X128980000Y-135500000D03*
X126440000Y-135500000D03*
X123900000Y-135500000D03*
X121360000Y-135500000D03*
X118820000Y-135500000D03*
D13*
X75200000Y-265610000D03*
X84800000Y-265610000D03*
D11*
X77500000Y-273110000D03*
D12*
X80000000Y-273110000D03*
X82500000Y-273110000D03*
D11*
X238025000Y-311100000D03*
D12*
X240565000Y-311100000D03*
D11*
X213525000Y-287100000D03*
D12*
X216065000Y-287100000D03*
D11*
X80000000Y-313275000D03*
D12*
X80000000Y-310735000D03*
D11*
X263485000Y-323600000D03*
D12*
X266025000Y-323600000D03*
D17*
X130400000Y-327200000D03*
D15*
X127860000Y-327200000D03*
X125320000Y-327200000D03*
X122780000Y-327200000D03*
X120240000Y-327200000D03*
X117700000Y-327200000D03*
X115160000Y-327200000D03*
X112620000Y-327200000D03*
X112620000Y-334820000D03*
X115160000Y-334820000D03*
X117700000Y-334820000D03*
X120240000Y-334820000D03*
X122780000Y-334820000D03*
X125320000Y-334820000D03*
X127860000Y-334820000D03*
X130400000Y-334820000D03*
D11*
X117500000Y-266050000D03*
D12*
X117500000Y-263510000D03*
D14*
X160600000Y-161610000D03*
D15*
X160600000Y-153990000D03*
D14*
X127710000Y-195200000D03*
D15*
X120090000Y-195200000D03*
D13*
X102300000Y-265500000D03*
X92700000Y-265500000D03*
D11*
X95000000Y-273000000D03*
D12*
X97500000Y-273000000D03*
X100000000Y-273000000D03*
D11*
X251250000Y-323600000D03*
D12*
X253790000Y-323600000D03*
D14*
X127710000Y-186800000D03*
D15*
X120090000Y-186800000D03*
D11*
X80000000Y-282275000D03*
D12*
X80000000Y-279735000D03*
D14*
X120100000Y-159550000D03*
X120100000Y-157050000D03*
X127710000Y-182500000D03*
D15*
X120090000Y-182500000D03*
D11*
X225760000Y-323600000D03*
D12*
X228300000Y-323600000D03*
D14*
X127710000Y-199400000D03*
D15*
X120090000Y-199400000D03*
D14*
X124350000Y-209300000D03*
X121850000Y-209300000D03*
D18*
X193500000Y-313000000D03*
X188420000Y-313000000D03*
D13*
X92700000Y-312500000D03*
X102300000Y-312500000D03*
D11*
X95000000Y-320000000D03*
D12*
X97500000Y-320000000D03*
X100000000Y-320000000D03*
D11*
X133500000Y-313775000D03*
D12*
X133500000Y-311235000D03*
D13*
X122300000Y-296775000D03*
X112700000Y-296775000D03*
D11*
X115000000Y-304275000D03*
D12*
X117500000Y-304275000D03*
X120000000Y-304275000D03*
D14*
X129700000Y-151200000D03*
X129700000Y-148700000D03*
D11*
X133500000Y-281275000D03*
D12*
X133500000Y-278735000D03*
D11*
X238025000Y-287100000D03*
D12*
X240565000Y-287100000D03*
D11*
X263485000Y-287100000D03*
D12*
X266025000Y-287100000D03*
D14*
X127610000Y-173600000D03*
D15*
X119990000Y-173600000D03*
D11*
X225760000Y-311100000D03*
D12*
X228300000Y-311100000D03*
D13*
X92700000Y-297000000D03*
X102300000Y-297000000D03*
D11*
X95000000Y-304500000D03*
D12*
X97500000Y-304500000D03*
X100000000Y-304500000D03*
D13*
X128700000Y-280275000D03*
X138300000Y-280275000D03*
D11*
X131000000Y-287775000D03*
D12*
X133500000Y-287775000D03*
X136000000Y-287775000D03*
D16*
X227000000Y-249960000D03*
X227000000Y-255040000D03*
D11*
X97500000Y-266275000D03*
D12*
X97500000Y-263735000D03*
D11*
X201025000Y-275100000D03*
D12*
X203565000Y-275100000D03*
D17*
X181500000Y-319000000D03*
D15*
X178960000Y-319000000D03*
X176420000Y-319000000D03*
X173880000Y-319000000D03*
X171340000Y-319000000D03*
X168800000Y-319000000D03*
X166260000Y-319000000D03*
X166260000Y-326620000D03*
X168800000Y-326620000D03*
X171340000Y-326620000D03*
X173880000Y-326620000D03*
X176420000Y-326620000D03*
X178960000Y-326620000D03*
X181500000Y-326620000D03*
D11*
X80000000Y-298000000D03*
D12*
X80000000Y-295460000D03*
D17*
X168700000Y-210700000D03*
D15*
X166160000Y-210700000D03*
X163620000Y-210700000D03*
X161080000Y-210700000D03*
X158540000Y-210700000D03*
X156000000Y-210700000D03*
X153460000Y-210700000D03*
X150920000Y-210700000D03*
X148380000Y-210700000D03*
X145840000Y-210700000D03*
X143300000Y-210700000D03*
X140760000Y-210700000D03*
X138220000Y-210700000D03*
X135680000Y-210700000D03*
X135680000Y-218320000D03*
X138220000Y-218320000D03*
X140760000Y-218320000D03*
X143300000Y-218320000D03*
X145840000Y-218320000D03*
X148380000Y-218320000D03*
X150920000Y-218320000D03*
X153460000Y-218320000D03*
X156000000Y-218320000D03*
X158540000Y-218320000D03*
X161080000Y-218320000D03*
X163620000Y-218320000D03*
X166160000Y-218320000D03*
X168700000Y-218320000D03*
D21*
X145000000Y-337000000D03*
D22*
X147540000Y-337000000D03*
X150080000Y-337000000D03*
X152620000Y-337000000D03*
X155160000Y-337000000D03*
X157700000Y-337000000D03*
X160240000Y-337000000D03*
X162780000Y-337000000D03*
X165320000Y-337000000D03*
X167860000Y-337000000D03*
X170400000Y-337000000D03*
X172940000Y-337000000D03*
X175480000Y-337000000D03*
D11*
X263485000Y-275100000D03*
D12*
X266025000Y-275100000D03*
D14*
X129800000Y-209300000D03*
X127300000Y-209300000D03*
X123100000Y-151200000D03*
X123100000Y-148700000D03*
D11*
X80000000Y-266425000D03*
D12*
X80000000Y-263885000D03*
D14*
X99500000Y-252310000D03*
D15*
X99500000Y-244690000D03*
D18*
X170460000Y-309000000D03*
X175540000Y-309000000D03*
D11*
X237800000Y-275100000D03*
D12*
X240340000Y-275100000D03*
D17*
X92900000Y-246200000D03*
D15*
X90360000Y-246200000D03*
X87820000Y-246200000D03*
X85280000Y-246200000D03*
X82740000Y-246200000D03*
X80200000Y-246200000D03*
X77660000Y-246200000D03*
X75120000Y-246200000D03*
X75120000Y-253820000D03*
X77660000Y-253820000D03*
X80200000Y-253820000D03*
X82740000Y-253820000D03*
X85280000Y-253820000D03*
X87820000Y-253820000D03*
X90360000Y-253820000D03*
X92900000Y-253820000D03*
D14*
X99000000Y-334810000D03*
D15*
X99000000Y-327190000D03*
D11*
X213525000Y-275100000D03*
D12*
X216065000Y-275100000D03*
D14*
X129800000Y-159550000D03*
X129800000Y-157050000D03*
D30*
X148900000Y-180800000D03*
X139500000Y-327000000D03*
X138496058Y-320977395D03*
X141500000Y-327000000D03*
X139500000Y-331500000D03*
X139500000Y-321000000D03*
X137500000Y-321060308D03*
X184200000Y-325500000D03*
D31*
X167613601Y-209246399D02*
X170421399Y-209246399D01*
X170421399Y-209246399D02*
X174000000Y-212825000D01*
X166160000Y-210700000D02*
X167613601Y-209246399D01*
X168285000Y-215365000D02*
X174000000Y-215365000D01*
X163620000Y-210700000D02*
X168285000Y-215365000D01*
X145000000Y-253880000D02*
X145000000Y-249500000D01*
X157620000Y-266500000D02*
X145000000Y-253880000D01*
X157620000Y-278000000D02*
X159009511Y-276610489D01*
X158195555Y-265110489D02*
X157110489Y-265110489D01*
X157110489Y-265110489D02*
X147540000Y-255540000D01*
X147540000Y-255540000D02*
X147540000Y-249500000D01*
X159009511Y-265924445D02*
X158195555Y-265110489D01*
X159009511Y-276610489D02*
X159009511Y-265924445D01*
X153205000Y-223705000D02*
X153800000Y-224300000D01*
X91015480Y-266457751D02*
X92002249Y-267444520D01*
X107538565Y-334810000D02*
X99000000Y-334810000D01*
X170460000Y-309000000D02*
X170500000Y-309000000D01*
X115000000Y-272275000D02*
X118724511Y-275999511D01*
X91169520Y-336550480D02*
X87960180Y-336550480D01*
X187920000Y-275500000D02*
X187920000Y-288000000D01*
X118000000Y-303000000D02*
X120000000Y-301000000D01*
X92002249Y-267444520D02*
X93444520Y-267444520D01*
X115000000Y-320000000D02*
X116674031Y-318325969D01*
X153800000Y-224300000D02*
X158260000Y-224300000D01*
X115899040Y-322899040D02*
X141599040Y-322899040D01*
X84000000Y-253195718D02*
X84000000Y-254464282D01*
X142224511Y-323524511D02*
X142224511Y-332775489D01*
X115000000Y-307000000D02*
X115000000Y-304275000D01*
X130400000Y-271400000D02*
X131000000Y-272000000D01*
X72550480Y-275429520D02*
X74870000Y-273110000D01*
X132224511Y-321224511D02*
X131000000Y-320000000D01*
X134724511Y-303492790D02*
X134724511Y-304775489D01*
X134724511Y-319492790D02*
X134724511Y-320507210D01*
X130500000Y-307500000D02*
X115500000Y-307500000D01*
X128061396Y-174725000D02*
X122725000Y-174725000D01*
X133561396Y-180225000D02*
X128061396Y-174725000D01*
X86500000Y-334449700D02*
X85497291Y-333446991D01*
X81053009Y-333446991D02*
X79206977Y-331600960D01*
X158260000Y-224300000D02*
X159460000Y-223100000D01*
X120000000Y-296000000D02*
X115000000Y-291000000D01*
X73810000Y-304650000D02*
X72700000Y-303540000D01*
X138790000Y-334810000D02*
X136500000Y-334810000D01*
X188420000Y-313000000D02*
X188420000Y-325500000D01*
X151200000Y-182800000D02*
X150900000Y-182800000D01*
X134724511Y-304775489D02*
X134000000Y-305500000D01*
X122725000Y-174725000D02*
X115800000Y-167800000D01*
X136000000Y-307500000D02*
X131500000Y-307500000D01*
X118724511Y-275999511D02*
X118724511Y-284550489D01*
X134724511Y-288775489D02*
X134724511Y-287267790D01*
X170460000Y-284000000D02*
X170460000Y-271400000D01*
X84695718Y-252500000D02*
X84000000Y-253195718D01*
X92900000Y-253820000D02*
X91580000Y-252500000D01*
X227500000Y-249460000D02*
X227000000Y-249960000D01*
X159920000Y-179100000D02*
X156220000Y-182800000D01*
X116275000Y-303000000D02*
X118000000Y-303000000D01*
X99000000Y-290500000D02*
X96500000Y-290500000D01*
X134500489Y-288999511D02*
X134724511Y-288775489D01*
X115000000Y-304275000D02*
X116275000Y-303000000D01*
X202000002Y-249960003D02*
X190540005Y-249960003D01*
X131000000Y-283543279D02*
X131000000Y-272000000D01*
X87002735Y-255050480D02*
X86500000Y-254547745D01*
X144495000Y-180225000D02*
X133561396Y-180225000D01*
X74080000Y-289140000D02*
X77500000Y-289140000D01*
X85497291Y-333446991D02*
X81053009Y-333446991D01*
X146040000Y-338500000D02*
X141314308Y-338500000D01*
X74150000Y-320150000D02*
X77500000Y-320150000D01*
X73810000Y-304650000D02*
X77500000Y-304650000D01*
X92910000Y-334810000D02*
X92900000Y-334820000D01*
X86500000Y-335090300D02*
X86500000Y-334449700D01*
X92900000Y-334820000D02*
X91169520Y-336550480D01*
X91580000Y-252500000D02*
X90000000Y-252500000D01*
X130400000Y-334820000D02*
X136490000Y-334820000D01*
X109228565Y-336500000D02*
X107538565Y-334810000D01*
X96500000Y-274500000D02*
X95000000Y-273000000D01*
X133557690Y-318325969D02*
X134724511Y-319492790D01*
X170460000Y-296500000D02*
X170460000Y-284500000D01*
X96317858Y-287682142D02*
X98182141Y-287682142D01*
X93223384Y-263555480D02*
X92002249Y-263555480D01*
X131500000Y-307500000D02*
X131000000Y-307000000D01*
X131000000Y-300864282D02*
X132567859Y-302432141D01*
X94050480Y-268050480D02*
X94050480Y-272050480D01*
X136490000Y-334820000D02*
X136500000Y-334810000D01*
X239500000Y-249460000D02*
X227500000Y-249460000D01*
X214500000Y-249960000D02*
X202000000Y-249960000D01*
X130400000Y-253320000D02*
X130400000Y-271400000D01*
X136615480Y-308115480D02*
X136000000Y-307500000D01*
X99600960Y-299899040D02*
X99600960Y-291100960D01*
X187920000Y-288000000D02*
X187920000Y-300000000D01*
X84000000Y-254464282D02*
X81280000Y-257184282D01*
X91015480Y-264542249D02*
X91015480Y-266457751D01*
X153205000Y-222705000D02*
X153205000Y-223705000D01*
X133557690Y-318325969D02*
X136615480Y-315268179D01*
X94050480Y-272050480D02*
X95000000Y-273000000D01*
X131000000Y-307000000D02*
X130500000Y-307500000D01*
X86500000Y-252974850D02*
X86025150Y-252500000D01*
X118724511Y-284550489D02*
X115000000Y-288275000D01*
X115800000Y-167800000D02*
X112855000Y-167800000D01*
X141314308Y-338500000D02*
X139400000Y-336585692D01*
X139400000Y-336585692D02*
X139400000Y-335420000D01*
X95000000Y-304500000D02*
X99600960Y-299899040D01*
X74870000Y-273110000D02*
X77500000Y-273110000D01*
X86500000Y-254547745D02*
X86500000Y-252974850D01*
X98682141Y-305817859D02*
X96317859Y-305817859D01*
X227000000Y-249960000D02*
X214500000Y-249960000D01*
X72900000Y-330700000D02*
X72900000Y-321400000D01*
X187920000Y-252580000D02*
X187920000Y-263000000D01*
X187920000Y-300000000D02*
X188420000Y-300500000D01*
X95000000Y-289000000D02*
X96317858Y-287682142D01*
X99875951Y-285988332D02*
X99875951Y-283625374D01*
X134000000Y-305500000D02*
X132500000Y-305500000D01*
X100500000Y-274500000D02*
X96500000Y-274500000D01*
X81280000Y-269330000D02*
X77500000Y-273110000D01*
X174500000Y-313000000D02*
X188420000Y-313000000D01*
X73800960Y-331600960D02*
X72900000Y-330700000D01*
X132567859Y-302432141D02*
X133663862Y-302432141D01*
X99266920Y-283016342D02*
X99266920Y-279983655D01*
X148820000Y-218320000D02*
X153205000Y-222705000D01*
X115500000Y-307500000D02*
X115000000Y-307000000D01*
X88449520Y-255050480D02*
X87002735Y-255050480D01*
X86025150Y-252500000D02*
X84695718Y-252500000D01*
X153460000Y-213240000D02*
X148380000Y-218320000D01*
X170460000Y-284500000D02*
X169960000Y-284000000D01*
X170500000Y-309000000D02*
X174500000Y-313000000D01*
X131000000Y-287775000D02*
X132224511Y-288999511D01*
X131000000Y-307000000D02*
X131000000Y-304000000D01*
X72700000Y-290520000D02*
X74080000Y-289140000D01*
X99600960Y-291100960D02*
X99000000Y-290500000D01*
X93444520Y-267444520D02*
X94050480Y-268050480D01*
X131000000Y-287775000D02*
X131000000Y-300864282D01*
X98182141Y-287682142D02*
X99875951Y-285988332D01*
X156220000Y-182800000D02*
X151200000Y-182800000D01*
X72900000Y-321400000D02*
X74150000Y-320150000D01*
X170460000Y-309000000D02*
X170460000Y-296500000D01*
X140190000Y-334810000D02*
X138790000Y-334810000D01*
X90000000Y-252500000D02*
X89000000Y-253500000D01*
X115000000Y-320000000D02*
X115000000Y-322000000D01*
X148380000Y-218320000D02*
X148820000Y-218320000D01*
X72800000Y-318800000D02*
X72800000Y-305660000D01*
X72550480Y-287610480D02*
X72550480Y-275429520D01*
X147540000Y-337000000D02*
X146040000Y-338500000D01*
X190540000Y-249960000D02*
X187920000Y-252580000D01*
X92900000Y-253820000D02*
X94050480Y-254970480D01*
X99266920Y-279983655D02*
X99530243Y-279720333D01*
X132500000Y-305500000D02*
X131000000Y-304000000D01*
X187920000Y-275500000D02*
X187920000Y-263000000D01*
X132224511Y-288999511D02*
X134500489Y-288999511D01*
X142224511Y-332775489D02*
X140190000Y-334810000D01*
X96317859Y-305817859D02*
X95000000Y-304500000D01*
X81280000Y-257184282D02*
X81280000Y-269330000D01*
X252000000Y-249460000D02*
X239500000Y-249460000D01*
X99000000Y-334810000D02*
X92910000Y-334810000D01*
X99875951Y-283625374D02*
X99266920Y-283016342D01*
X136615480Y-315268179D02*
X136615480Y-308115480D01*
X99530243Y-279720333D02*
X101151440Y-278099135D01*
X94050480Y-254970480D02*
X94050480Y-262728384D01*
X134724511Y-287267790D02*
X131000000Y-283543279D01*
X145620000Y-179100000D02*
X144495000Y-180225000D01*
X100050480Y-314949520D02*
X100050480Y-307186198D01*
X89000000Y-254500000D02*
X88449520Y-255050480D01*
X128720000Y-336500000D02*
X109228565Y-336500000D01*
X130400000Y-334820000D02*
X128720000Y-336500000D01*
X101151440Y-275151440D02*
X100500000Y-274500000D01*
X101151440Y-278099135D02*
X101151440Y-275151440D01*
X92002249Y-263555480D02*
X91015480Y-264542249D01*
X153460000Y-210700000D02*
X153460000Y-213240000D01*
X134007210Y-321224511D02*
X132224511Y-321224511D01*
X115000000Y-322000000D02*
X115899040Y-322899040D01*
X141599040Y-322899040D02*
X142224511Y-323524511D01*
X72700000Y-303540000D02*
X72700000Y-290520000D01*
X94050480Y-262728384D02*
X93223384Y-263555480D01*
X89000000Y-253500000D02*
X89000000Y-254500000D01*
X150900000Y-182800000D02*
X148900000Y-180800000D01*
X100050480Y-307186198D02*
X98682141Y-305817859D01*
X79206977Y-331600960D02*
X73800960Y-331600960D01*
X87960180Y-336550480D02*
X86500000Y-335090300D01*
X74150000Y-320150000D02*
X72800000Y-318800000D01*
X134724511Y-320507210D02*
X134007210Y-321224511D01*
X96500000Y-290500000D02*
X95000000Y-289000000D01*
X133663862Y-302432141D02*
X134724511Y-303492790D01*
X188420000Y-300500000D02*
X188420000Y-313000000D01*
X264500000Y-249460000D02*
X252000000Y-249460000D01*
X74080000Y-289140000D02*
X72550480Y-287610480D01*
X139400000Y-335420000D02*
X138790000Y-334810000D01*
X115000000Y-291000000D02*
X115000000Y-288275000D01*
X120000000Y-301000000D02*
X120000000Y-296000000D01*
X72800000Y-305660000D02*
X73810000Y-304650000D01*
X95000000Y-320000000D02*
X100050480Y-314949520D01*
X116674031Y-318325969D02*
X133557690Y-318325969D01*
X71650480Y-330786876D02*
X71650480Y-262369520D01*
X141128110Y-338949520D02*
X160830480Y-338949520D01*
X71650480Y-262369520D02*
X80200000Y-253820000D01*
X73363604Y-332500000D02*
X71650480Y-330786876D01*
X139178589Y-337000000D02*
X141128110Y-338949520D01*
X80200000Y-336200000D02*
X81000000Y-337000000D01*
X160830480Y-338949520D02*
X162780000Y-337000000D01*
X80200000Y-334820000D02*
X77880000Y-332500000D01*
X80200000Y-334820000D02*
X80200000Y-336200000D01*
X81000000Y-337000000D02*
X139178589Y-337000000D01*
X77880000Y-332500000D02*
X73363604Y-332500000D01*
X140941913Y-339399040D02*
X162920960Y-339399040D01*
X71200480Y-260279520D02*
X71200480Y-331000480D01*
X77660000Y-334820000D02*
X80340000Y-337500000D01*
X80340000Y-337500000D02*
X139042872Y-337500000D01*
X77660000Y-253820000D02*
X71200480Y-260279520D01*
X73149520Y-332949520D02*
X75789520Y-332949520D01*
X75789520Y-332949520D02*
X77660000Y-334820000D01*
X139042872Y-337500000D02*
X140941913Y-339399040D01*
X162920960Y-339399040D02*
X165320000Y-337000000D01*
X71200480Y-331000480D02*
X73149520Y-332949520D01*
X140755716Y-339848560D02*
X165011440Y-339848560D01*
X78300000Y-338000000D02*
X138907154Y-338000000D01*
X165011440Y-339848560D02*
X167860000Y-337000000D01*
X138907154Y-338000000D02*
X140755716Y-339848560D01*
X75120000Y-334820000D02*
X78300000Y-338000000D01*
X161840960Y-335399040D02*
X176627604Y-335399040D01*
X181803565Y-340575000D02*
X244990000Y-340575000D01*
X160240000Y-337000000D02*
X161840960Y-335399040D01*
X244990000Y-340575000D02*
X248265000Y-337300000D01*
X176627604Y-335399040D02*
X181803565Y-340575000D01*
X159750480Y-334949520D02*
X176813802Y-334949520D01*
X157700000Y-337000000D02*
X159750480Y-334949520D01*
X176813802Y-334949520D02*
X181989282Y-340125000D01*
X244803604Y-340125000D02*
X246850000Y-338078604D01*
X181989282Y-340125000D02*
X244803604Y-340125000D01*
X246850000Y-331095000D02*
X248265000Y-329680000D01*
X246850000Y-338078604D02*
X246850000Y-331095000D01*
X155160000Y-337000000D02*
X157660000Y-334500000D01*
X218625000Y-339675000D02*
X220325000Y-337975000D01*
X157660000Y-334500000D02*
X177000000Y-334500000D01*
X220325000Y-337975000D02*
X220325000Y-337300000D01*
X177000000Y-334500000D02*
X182175000Y-339675000D01*
X182175000Y-339675000D02*
X218625000Y-339675000D01*
X115880000Y-333000000D02*
X117700000Y-334820000D01*
X105848560Y-331166419D02*
X107682141Y-333000000D01*
X108135718Y-255000000D02*
X105000000Y-258135718D01*
X117700000Y-253320000D02*
X116020000Y-255000000D01*
X105000000Y-267092848D02*
X105848560Y-267941408D01*
X105848560Y-267941408D02*
X105848560Y-331166419D01*
X107682141Y-333000000D02*
X115880000Y-333000000D01*
X105000000Y-258135718D02*
X105000000Y-267092848D01*
X116020000Y-255000000D02*
X108135718Y-255000000D01*
X113789520Y-333449520D02*
X115160000Y-334820000D01*
X105399040Y-268127605D02*
X105399040Y-331399040D01*
X107449520Y-333449520D02*
X113789520Y-333449520D01*
X108000000Y-254500000D02*
X104500000Y-258000000D01*
X113980000Y-254500000D02*
X108000000Y-254500000D01*
X104500000Y-258000000D02*
X104500000Y-267228565D01*
X105399040Y-331399040D02*
X107449520Y-333449520D01*
X115160000Y-253320000D02*
X113980000Y-254500000D01*
X104500000Y-267228565D02*
X105399040Y-268127605D01*
X108184282Y-334820000D02*
X112620000Y-334820000D01*
X107864283Y-254000000D02*
X104000000Y-257864283D01*
X104000000Y-257864283D02*
X104000000Y-267364283D01*
X104000000Y-267364283D02*
X104949520Y-268313803D01*
X112620000Y-253320000D02*
X111940000Y-254000000D01*
X111940000Y-254000000D02*
X107864283Y-254000000D01*
X104949520Y-268313803D02*
X104949520Y-331585238D01*
X104949520Y-331585238D02*
X108184282Y-334820000D01*
X112855000Y-170340000D02*
X110460000Y-167945000D01*
X126700000Y-159550000D02*
X129800000Y-159550000D01*
X113000000Y-157040000D02*
X117590000Y-157040000D01*
X120100000Y-159550000D02*
X123300000Y-159550000D01*
X110460000Y-157040000D02*
X113000000Y-157040000D01*
X117590000Y-157040000D02*
X120100000Y-159550000D01*
X123300000Y-159550000D02*
X126700000Y-159550000D01*
X110460000Y-167945000D02*
X110460000Y-157040000D01*
X123050000Y-148750000D02*
X123100000Y-148700000D01*
X113000000Y-146880000D02*
X118130000Y-146880000D01*
X123100000Y-148700000D02*
X126400000Y-148700000D01*
X118130000Y-146880000D02*
X120000000Y-148750000D01*
X120000000Y-148750000D02*
X123050000Y-148750000D01*
X110460000Y-146880000D02*
X113000000Y-146880000D01*
X126400000Y-148700000D02*
X129700000Y-148700000D01*
X175540000Y-271400000D02*
X175540000Y-254520000D01*
X175540000Y-254520000D02*
X180560000Y-249500000D01*
X177500000Y-282040000D02*
X177500000Y-255100000D01*
X175540000Y-284000000D02*
X177500000Y-282040000D01*
X177500000Y-255100000D02*
X183100000Y-249500000D01*
X175540000Y-296500000D02*
X179500000Y-292540000D01*
X179500000Y-292540000D02*
X179500000Y-255640000D01*
X179500000Y-255640000D02*
X185640000Y-249500000D01*
X181500000Y-256180000D02*
X188180000Y-249500000D01*
X178099040Y-306440960D02*
X178099040Y-306400960D01*
X175540000Y-309000000D02*
X178099040Y-306440960D01*
X178099040Y-306400960D02*
X181500000Y-303000000D01*
X181500000Y-303000000D02*
X181500000Y-256180000D01*
X72100480Y-271784520D02*
X72100480Y-330600480D01*
X81944511Y-335944511D02*
X84155489Y-335944511D01*
X73550480Y-332050480D02*
X79020780Y-332050480D01*
X81500000Y-335500000D02*
X81944511Y-335944511D01*
X80000000Y-263885000D02*
X72100480Y-271784520D01*
X81500000Y-334529700D02*
X81500000Y-335500000D01*
X84155489Y-335944511D02*
X85280000Y-334820000D01*
X79020780Y-332050480D02*
X81500000Y-334529700D01*
X72100480Y-330600480D02*
X73550480Y-332050480D01*
X105500000Y-263500000D02*
X105500000Y-266957130D01*
X117000000Y-332500000D02*
X119115489Y-334615489D01*
X116600000Y-262610000D02*
X106390000Y-262610000D01*
X106298080Y-330980221D02*
X107817859Y-332500000D01*
X107817859Y-332500000D02*
X117000000Y-332500000D01*
X119115489Y-334615489D02*
X119115489Y-335285789D01*
X119115489Y-335285789D02*
X119829700Y-336000000D01*
X117500000Y-263510000D02*
X116600000Y-262610000D01*
X106298080Y-267755211D02*
X106298080Y-330980221D01*
X106390000Y-262610000D02*
X105500000Y-263500000D01*
X119829700Y-336000000D02*
X121600000Y-336000000D01*
X121600000Y-336000000D02*
X122780000Y-334820000D01*
X105500000Y-266957130D02*
X106298080Y-267755211D01*
X91484511Y-334354211D02*
X91484511Y-335285789D01*
X88944511Y-335944511D02*
X87820000Y-334820000D01*
X104500000Y-270735000D02*
X104500000Y-326665717D01*
X95189202Y-330649520D02*
X91484511Y-334354211D01*
X100516197Y-330649520D02*
X95189202Y-330649520D01*
X91484511Y-335285789D02*
X90825789Y-335944511D01*
X97500000Y-263735000D02*
X104500000Y-270735000D01*
X104500000Y-326665717D02*
X100516197Y-330649520D01*
X90825789Y-335944511D02*
X88944511Y-335944511D01*
X131449520Y-273999502D02*
X132224511Y-273224511D01*
X139500000Y-327000000D02*
X132804511Y-333695489D01*
X132804511Y-333695489D02*
X129918722Y-333695489D01*
X129918722Y-333695489D02*
X128984511Y-334629700D01*
X132224511Y-273224511D02*
X132224511Y-264275489D01*
X140512307Y-318961146D02*
X140512307Y-290555586D01*
X126444511Y-335944511D02*
X125320000Y-334820000D01*
X132224511Y-264275489D02*
X133500000Y-263000000D01*
X136507210Y-286550489D02*
X134642928Y-286550489D01*
X140512307Y-290555586D02*
X136507210Y-286550489D01*
X128325789Y-335944511D02*
X126444511Y-335944511D01*
X128984511Y-335285789D02*
X128325789Y-335944511D01*
X131449520Y-283357081D02*
X131449520Y-273999502D01*
X128984511Y-334629700D02*
X128984511Y-335285789D01*
X134642928Y-286550489D02*
X131449520Y-283357081D01*
X138496058Y-320977395D02*
X140512307Y-318961146D01*
X78740000Y-280995000D02*
X78740000Y-320621721D01*
X80000000Y-279735000D02*
X78740000Y-280995000D01*
X88537471Y-332997471D02*
X90360000Y-334820000D01*
X81324511Y-323206232D02*
X81324511Y-331824511D01*
X81324511Y-331824511D02*
X82497471Y-332997471D01*
X82497471Y-332997471D02*
X88537471Y-332997471D01*
X78740000Y-320621721D02*
X81324511Y-323206232D01*
X108050480Y-332050480D02*
X125090480Y-332050480D01*
X125090480Y-332050480D02*
X127860000Y-334820000D01*
X117500000Y-279235000D02*
X106747601Y-289987399D01*
X106747601Y-330747601D02*
X108050480Y-332050480D01*
X106747601Y-289987399D02*
X106747601Y-330747601D01*
X209400000Y-335100000D02*
X220665000Y-335100000D01*
X201025000Y-323375000D02*
X200800000Y-323600000D01*
X201025000Y-275100000D02*
X201025000Y-286875000D01*
X200800000Y-323600000D02*
X200800000Y-326500000D01*
X200760000Y-262600000D02*
X200760000Y-274835000D01*
X220665000Y-335100000D02*
X222865000Y-337300000D01*
X200760000Y-274835000D02*
X201025000Y-275100000D01*
X200800000Y-299375000D02*
X201025000Y-299600000D01*
X201025000Y-311100000D02*
X201025000Y-323375000D01*
X200800000Y-326500000D02*
X209400000Y-335100000D01*
X201025000Y-299600000D02*
X201025000Y-311100000D01*
X200800000Y-287100000D02*
X200800000Y-299375000D01*
X201025000Y-286875000D02*
X200800000Y-287100000D01*
X218300000Y-260100000D02*
X227300000Y-260100000D01*
X204800000Y-259600000D02*
X212800000Y-259600000D01*
X253565000Y-262600000D02*
X256065000Y-260100000D01*
X228300000Y-261100000D02*
X228300000Y-262600000D01*
X263300000Y-260100000D02*
X265800000Y-262600000D01*
X243065000Y-260100000D02*
X251065000Y-260100000D01*
X230800000Y-260100000D02*
X238065000Y-260100000D01*
X212800000Y-259600000D02*
X215800000Y-262600000D01*
X240565000Y-262600000D02*
X243065000Y-260100000D01*
X228300000Y-262600000D02*
X230800000Y-260100000D01*
X203300000Y-261100000D02*
X204800000Y-259600000D01*
X215800000Y-262600000D02*
X218300000Y-260100000D01*
X203300000Y-262600000D02*
X203300000Y-261100000D01*
X238065000Y-260100000D02*
X240565000Y-262600000D01*
X251065000Y-260100000D02*
X253565000Y-262600000D01*
X227300000Y-260100000D02*
X228300000Y-261100000D01*
X256065000Y-260100000D02*
X263300000Y-260100000D01*
X228300000Y-287100000D02*
X230485000Y-289285000D01*
X230485000Y-289285000D02*
X230485000Y-329680000D01*
X216065000Y-299600000D02*
X222865000Y-306400000D01*
X222865000Y-306400000D02*
X222865000Y-329680000D01*
X229525000Y-312325000D02*
X229525000Y-328100000D01*
X228300000Y-311100000D02*
X229525000Y-312325000D01*
X229525000Y-328100000D02*
X227945000Y-329680000D01*
X139500000Y-321000000D02*
X140961827Y-319538173D01*
X131899040Y-283170883D02*
X131899040Y-280335960D01*
X139500000Y-329000000D02*
X139500000Y-331500000D01*
X136693407Y-286100969D02*
X134829126Y-286100969D01*
X134829126Y-286100969D02*
X131899040Y-283170883D01*
X141500000Y-327000000D02*
X139500000Y-329000000D01*
X140961827Y-290369389D02*
X136693407Y-286100969D01*
X131899040Y-280335960D02*
X133500000Y-278735000D01*
X140961827Y-319538173D02*
X140961827Y-290369389D01*
X89870300Y-325120000D02*
X91484511Y-326734211D01*
X88915718Y-325120000D02*
X89870300Y-325120000D01*
X91484511Y-326734211D02*
X91484511Y-326744511D01*
X80000000Y-295460000D02*
X86934040Y-302394040D01*
X91484511Y-326744511D02*
X91940000Y-327200000D01*
X91940000Y-327200000D02*
X92900000Y-327200000D01*
X86934040Y-302394040D02*
X86934040Y-323138322D01*
X86934040Y-323138322D02*
X88915718Y-325120000D01*
X117500000Y-295460000D02*
X107197121Y-305762879D01*
X137624511Y-326624511D02*
X137065489Y-326065489D01*
X133679340Y-331600960D02*
X137624511Y-327655789D01*
X137624511Y-327655789D02*
X137624511Y-326624511D01*
X131534511Y-326065489D02*
X130400000Y-327200000D01*
X107197121Y-305762879D02*
X107197121Y-330561403D01*
X108236678Y-331600960D02*
X133679340Y-331600960D01*
X137065489Y-326065489D02*
X131534511Y-326065489D01*
X107197121Y-330561403D02*
X108236678Y-331600960D01*
X213525000Y-311100000D02*
X213525000Y-323600000D01*
X213525000Y-299600000D02*
X213525000Y-311100000D01*
X222050000Y-334650000D02*
X224280000Y-336880000D01*
X225300000Y-339675000D02*
X244617208Y-339675000D01*
X213525000Y-333575000D02*
X214600000Y-334650000D01*
X224280000Y-338655000D02*
X225300000Y-339675000D01*
X214600000Y-334650000D02*
X222050000Y-334650000D01*
X224280000Y-336880000D02*
X224280000Y-338655000D01*
X213525000Y-287100000D02*
X213525000Y-299600000D01*
X213260000Y-262600000D02*
X213260000Y-274835000D01*
X244617208Y-339675000D02*
X245725000Y-338567208D01*
X213260000Y-274835000D02*
X213525000Y-275100000D01*
X213525000Y-323600000D02*
X213525000Y-333575000D01*
X245725000Y-338567208D02*
X245725000Y-337300000D01*
X213525000Y-275100000D02*
X213525000Y-287100000D01*
X97484781Y-325569520D02*
X93325969Y-321410708D01*
X82740000Y-327200000D02*
X83940000Y-326000000D01*
X88165238Y-329449520D02*
X100444762Y-329449520D01*
X94384520Y-311542249D02*
X93775489Y-310933218D01*
X101150480Y-328743802D02*
X101150480Y-326373304D01*
X86500000Y-326829700D02*
X86500000Y-327784282D01*
X93325969Y-321410708D02*
X93325969Y-314548314D01*
X83940000Y-326000000D02*
X85670300Y-326000000D01*
X100346696Y-325569520D02*
X97484781Y-325569520D01*
X85670300Y-326000000D02*
X86500000Y-326829700D01*
X101150480Y-326373304D02*
X100346696Y-325569520D01*
X93325969Y-314548314D02*
X94384520Y-313489762D01*
X93775489Y-310933218D02*
X93775489Y-298959511D01*
X94384520Y-313489762D02*
X94384520Y-311542249D01*
X93775489Y-298959511D02*
X97500000Y-295235000D01*
X86500000Y-327784282D02*
X88165238Y-329449520D01*
X100444762Y-329449520D02*
X101150480Y-328743802D01*
X140000000Y-301460000D02*
X133500000Y-294960000D01*
X137500000Y-321060308D02*
X137500000Y-320500000D01*
X137500000Y-320500000D02*
X140000000Y-318000000D01*
X140000000Y-318000000D02*
X140000000Y-301460000D01*
X226530000Y-330805000D02*
X233025000Y-337300000D01*
X225760000Y-262600000D02*
X225760000Y-275100000D01*
X225760000Y-323600000D02*
X226530000Y-324370000D01*
X225760000Y-299600000D02*
X225760000Y-311100000D01*
X225760000Y-311100000D02*
X225760000Y-323600000D01*
X226530000Y-324370000D02*
X226530000Y-330805000D01*
X225760000Y-275100000D02*
X225760000Y-287100000D01*
X225760000Y-287100000D02*
X225760000Y-299600000D01*
X80855000Y-309880000D02*
X84672271Y-309880000D01*
X84672271Y-309880000D02*
X86484520Y-311692249D01*
X80000000Y-310735000D02*
X80855000Y-309880000D01*
X86484520Y-323324520D02*
X90360000Y-327200000D01*
X86484520Y-311692249D02*
X86484520Y-323324520D01*
X124195489Y-328983233D02*
X124195489Y-326304511D01*
X108422876Y-331151440D02*
X122027282Y-331151440D01*
X125000000Y-325500000D02*
X127000000Y-325500000D01*
X124195489Y-326304511D02*
X125000000Y-325500000D01*
X122027282Y-331151440D02*
X124195489Y-328983233D01*
X127860000Y-326360000D02*
X127860000Y-327200000D01*
X117500000Y-311235000D02*
X107646641Y-321088359D01*
X127000000Y-325500000D02*
X127860000Y-326360000D01*
X107646641Y-330375205D02*
X108422876Y-331151440D01*
X107646641Y-321088359D02*
X107646641Y-330375205D01*
X88280000Y-330200000D02*
X85280000Y-327200000D01*
X101600000Y-326187106D02*
X101600000Y-328930000D01*
X100532894Y-325120000D02*
X101600000Y-326187106D01*
X93775489Y-314734511D02*
X93775489Y-321224511D01*
X97670978Y-325120000D02*
X100532894Y-325120000D01*
X97500000Y-311010000D02*
X93775489Y-314734511D01*
X101600000Y-328930000D02*
X100330000Y-330200000D01*
X93775489Y-321224511D02*
X97670978Y-325120000D01*
X100330000Y-330200000D02*
X88280000Y-330200000D01*
X122780000Y-329108117D02*
X122780000Y-327200000D01*
X108609074Y-330701920D02*
X121186197Y-330701920D01*
X108096160Y-330189006D02*
X108609074Y-330701920D01*
X133500000Y-311235000D02*
X126858551Y-317876449D01*
X108096160Y-321685277D02*
X108096160Y-330189006D01*
X121186197Y-330701920D02*
X122780000Y-329108117D01*
X111904988Y-317876449D02*
X108096160Y-321685277D01*
X126858551Y-317876449D02*
X111904988Y-317876449D01*
X238025000Y-323600000D02*
X236690000Y-324935000D01*
X236690000Y-336175000D02*
X235565000Y-337300000D01*
X238025000Y-262600000D02*
X238025000Y-274875000D01*
X238025000Y-309825000D02*
X238025000Y-311100000D01*
X237800000Y-275100000D02*
X237800000Y-286875000D01*
X238025000Y-274875000D02*
X237800000Y-275100000D01*
X238025000Y-299600000D02*
X238025000Y-309825000D01*
X238025000Y-287100000D02*
X238025000Y-299600000D01*
X238025000Y-309825000D02*
X238025000Y-323600000D01*
X237800000Y-286875000D02*
X238025000Y-287100000D01*
X236690000Y-324935000D02*
X236690000Y-336175000D01*
X242800000Y-328400000D02*
X241800000Y-329400000D01*
X251250000Y-275100000D02*
X251250000Y-287100000D01*
X251025000Y-262600000D02*
X251025000Y-274875000D01*
X246450000Y-328400000D02*
X242800000Y-328400000D01*
X227330000Y-339225000D02*
X225405000Y-337300000D01*
X251250000Y-323600000D02*
X246450000Y-328400000D01*
X241800000Y-329400000D02*
X241800000Y-337735991D01*
X241800000Y-337735991D02*
X240310991Y-339225000D01*
X251250000Y-287100000D02*
X251250000Y-299600000D01*
X251250000Y-311100000D02*
X251250000Y-323600000D01*
X251250000Y-299600000D02*
X251250000Y-311100000D01*
X251025000Y-274875000D02*
X251250000Y-275100000D01*
X240310991Y-339225000D02*
X227330000Y-339225000D01*
X263485000Y-323600000D02*
X256800000Y-323600000D01*
X256800000Y-323600000D02*
X255000000Y-325400000D01*
X263485000Y-275100000D02*
X263485000Y-287100000D01*
X250086396Y-325400000D02*
X246889999Y-328596397D01*
X263485000Y-287100000D02*
X263485000Y-299600000D01*
X255000000Y-325400000D02*
X250086396Y-325400000D01*
X263260000Y-274875000D02*
X263485000Y-275100000D01*
X263485000Y-299600000D02*
X263485000Y-311100000D01*
X246889999Y-330418605D02*
X243185000Y-334123604D01*
X243185000Y-334123604D02*
X243185000Y-337300000D01*
X263260000Y-262600000D02*
X263260000Y-274875000D01*
X263485000Y-311100000D02*
X263485000Y-323600000D01*
X246889999Y-328596397D02*
X246889999Y-330418605D01*
X157830000Y-150480000D02*
X159300000Y-149010000D01*
X153100000Y-150480000D02*
X157830000Y-150480000D01*
X165300000Y-150680000D02*
X170020000Y-150680000D01*
X170020000Y-150680000D02*
X171700000Y-149000000D01*
X169749700Y-326620000D02*
X168800000Y-326620000D01*
X145000000Y-284500000D02*
X163500000Y-284500000D01*
X160310000Y-330000000D02*
X160500000Y-329810000D01*
X182700000Y-318100000D02*
X182700000Y-320400000D01*
X134588847Y-241910259D02*
X144038079Y-251359491D01*
X182700000Y-320400000D02*
X180900000Y-320400000D01*
X144038079Y-283538079D02*
X145000000Y-284500000D01*
X182800000Y-326910300D02*
X182800000Y-322300000D01*
X106000000Y-244690000D02*
X110768264Y-244690000D01*
X175969700Y-320400000D02*
X169749700Y-326620000D01*
X181850480Y-317250480D02*
X182700000Y-318100000D01*
X157300000Y-330000000D02*
X160310000Y-330000000D01*
X172886198Y-317250480D02*
X181850480Y-317250480D01*
X110768264Y-244690000D02*
X113548006Y-241910259D01*
X99500000Y-244690000D02*
X106000000Y-244690000D01*
X165500000Y-286500000D02*
X165500000Y-309864282D01*
X180900000Y-320400000D02*
X175969700Y-320400000D01*
X163500000Y-284500000D02*
X165500000Y-286500000D01*
X165500000Y-309864282D02*
X172886198Y-317250480D01*
X160500000Y-329810000D02*
X179900300Y-329810000D01*
X144038079Y-251359491D02*
X144038079Y-283538079D01*
X179900300Y-329810000D02*
X182800000Y-326910300D01*
X182800000Y-322300000D02*
X180900000Y-320400000D01*
X113548006Y-241910259D02*
X134588847Y-241910259D01*
X160500000Y-324400000D02*
X160500000Y-322190000D01*
X156100000Y-330300300D02*
X156100000Y-328800000D01*
X146990000Y-326100000D02*
X152190000Y-331300000D01*
X160500000Y-322190000D02*
X161830000Y-322190000D01*
X161830000Y-322190000D02*
X166260000Y-326620000D01*
X152190000Y-331300000D02*
X155100300Y-331300000D01*
X156100000Y-328800000D02*
X160500000Y-324400000D01*
X155100300Y-331300000D02*
X156100000Y-330300300D01*
X150849520Y-331749520D02*
X161550480Y-331749520D01*
X154810000Y-326300000D02*
X154610000Y-326100000D01*
X154810000Y-330000000D02*
X154810000Y-326300000D01*
X163040480Y-330259520D02*
X180086497Y-330259520D01*
X180086497Y-330259520D02*
X184200000Y-326146018D01*
X184200000Y-326146018D02*
X184200000Y-325500000D01*
X156350000Y-326100000D02*
X157300000Y-325150000D01*
X154610000Y-326100000D02*
X153485489Y-324975489D01*
X145700000Y-325700000D02*
X145700000Y-326600000D01*
X145700000Y-326600000D02*
X150849520Y-331749520D01*
X146424511Y-324975489D02*
X145700000Y-325700000D01*
X161550480Y-331749520D02*
X163040480Y-330259520D01*
X153485489Y-324975489D02*
X146424511Y-324975489D01*
X154610000Y-326100000D02*
X156350000Y-326100000D01*
X168334211Y-327744511D02*
X180375489Y-327744511D01*
X149000000Y-322600000D02*
X147875489Y-323724511D01*
X157300000Y-322650000D02*
X158884511Y-321065489D01*
X180375489Y-327744511D02*
X181500000Y-326620000D01*
X162365489Y-321065489D02*
X167675489Y-326375489D01*
X154510000Y-322600000D02*
X149000000Y-322600000D01*
X145100000Y-325100000D02*
X145100000Y-327910000D01*
X146475489Y-323724511D02*
X145100000Y-325100000D01*
X167675489Y-326375489D02*
X167675489Y-327085789D01*
X147875489Y-323724511D02*
X146475489Y-323724511D01*
X158884511Y-321065489D02*
X162365489Y-321065489D01*
X157250000Y-322600000D02*
X157300000Y-322650000D01*
X145100000Y-327910000D02*
X147190000Y-330000000D01*
X167675489Y-327085789D02*
X168334211Y-327744511D01*
X154510000Y-322600000D02*
X157250000Y-322600000D01*
X157620000Y-292000000D02*
X161430000Y-288190000D01*
X161430000Y-288190000D02*
X161500000Y-288190000D01*
X161500000Y-299690000D02*
X158190000Y-303000000D01*
X158190000Y-303000000D02*
X157620000Y-303000000D01*
X155490000Y-314000000D02*
X146890000Y-322600000D01*
X157620000Y-314000000D02*
X155490000Y-314000000D01*
X170530000Y-154235000D02*
X172825000Y-151940000D01*
X172825000Y-151940000D02*
X172825000Y-142505000D01*
X172825000Y-142505000D02*
X171700000Y-141380000D01*
X167585000Y-156775000D02*
X164800000Y-153990000D01*
X170530000Y-156775000D02*
X167585000Y-156775000D01*
X160424511Y-142514511D02*
X160424511Y-149675489D01*
X159900000Y-150200000D02*
X160424511Y-149675489D01*
X159800000Y-150200000D02*
X159900000Y-150200000D01*
X155765000Y-154235000D02*
X159800000Y-150200000D01*
X155765000Y-154235000D02*
X154130000Y-154235000D01*
X159300000Y-141390000D02*
X160424511Y-142514511D01*
X154130000Y-156775000D02*
X157815000Y-156775000D01*
X157815000Y-156775000D02*
X160600000Y-153990000D01*
X97560000Y-327190000D02*
X95750000Y-329000000D01*
X99000000Y-327190000D02*
X97560000Y-327190000D01*
X89620000Y-329000000D02*
X87820000Y-327200000D01*
X95750000Y-329000000D02*
X89620000Y-329000000D01*
X126620000Y-328500000D02*
X125320000Y-327200000D01*
X134000000Y-328500000D02*
X126620000Y-328500000D01*
X135310000Y-327190000D02*
X134000000Y-328500000D01*
X136500000Y-327190000D02*
X135310000Y-327190000D01*
X143588560Y-303952842D02*
X148686198Y-309050480D01*
X143588559Y-251545688D02*
X143588560Y-303952842D01*
X172021278Y-317800000D02*
X172755489Y-318534211D01*
X170215489Y-319174811D02*
X170215489Y-318534211D01*
X134402648Y-242359779D02*
X143588559Y-251545688D01*
X162604762Y-309050480D02*
X162868084Y-309313802D01*
X94514511Y-247324511D02*
X99500000Y-252310000D01*
X113734203Y-242359779D02*
X134402648Y-242359779D01*
X108688982Y-247405000D02*
X113734203Y-242359779D01*
X94595000Y-247405000D02*
X108688982Y-247405000D01*
X175295489Y-320124511D02*
X176420000Y-319000000D01*
X168539820Y-320850480D02*
X170215489Y-319174811D01*
X148686198Y-309050480D02*
X162604762Y-309050480D01*
X88944511Y-247324511D02*
X94514511Y-247324511D01*
X165386198Y-320850480D02*
X168539820Y-320850480D01*
X172755489Y-319555489D02*
X173324511Y-320124511D01*
X162868084Y-318332366D02*
X165386198Y-320850480D01*
X173324511Y-320124511D02*
X175295489Y-320124511D01*
X170949700Y-317800000D02*
X172021278Y-317800000D01*
X170215489Y-318534211D02*
X170949700Y-317800000D01*
X162868084Y-309313802D02*
X162868084Y-318332366D01*
X87820000Y-246200000D02*
X88944511Y-247324511D01*
X172755489Y-318534211D02*
X172755489Y-319555489D01*
X113920401Y-242809299D02*
X134216451Y-242809299D01*
X125320000Y-245700000D02*
X124195489Y-246824511D01*
X124195489Y-246824511D02*
X124175489Y-246824511D01*
X169040000Y-321300000D02*
X171340000Y-319000000D01*
X143139040Y-304139040D02*
X148500000Y-309500000D01*
X124175489Y-246824511D02*
X119000000Y-252000000D01*
X106000000Y-252310000D02*
X106000000Y-250729700D01*
X162418564Y-309500000D02*
X162418564Y-318518564D01*
X119000000Y-252000000D02*
X106310000Y-252000000D01*
X143139040Y-251731886D02*
X143139040Y-304139040D01*
X165200000Y-321300000D02*
X169040000Y-321300000D01*
X106310000Y-252000000D02*
X106000000Y-252310000D01*
X106000000Y-250729700D02*
X113920401Y-242809299D01*
X162418564Y-318518564D02*
X165200000Y-321300000D01*
X148500000Y-309500000D02*
X162418564Y-309500000D01*
X134216451Y-242809299D02*
X143139040Y-251731886D01*
X178960000Y-319000000D02*
X181500000Y-319000000D01*
X164000000Y-309000000D02*
X164000000Y-298310000D01*
X164000000Y-309000000D02*
X172700000Y-317700000D01*
X172700000Y-317700000D02*
X177660000Y-317700000D01*
X177660000Y-317700000D02*
X178960000Y-319000000D01*
X164000000Y-298310000D02*
X161500000Y-295810000D01*
X166260000Y-319000000D02*
X168800000Y-319000000D01*
X166260000Y-311895718D02*
X166260000Y-319000000D01*
X161500000Y-307310000D02*
X161674249Y-307310000D01*
X161674249Y-307310000D02*
X166259993Y-311895744D01*
X83370480Y-263761531D02*
X83370480Y-255729520D01*
X83370480Y-255729520D02*
X85280000Y-253820000D01*
X82665960Y-264466051D02*
X83370480Y-263761531D01*
X80000000Y-273110000D02*
X83370480Y-269739520D01*
X82665960Y-266753948D02*
X82665960Y-264466051D01*
X83370480Y-269739520D02*
X83370480Y-267458469D01*
X83370480Y-267458469D02*
X82665960Y-266753948D01*
X83000000Y-279364282D02*
X83000000Y-286140000D01*
X83000000Y-286140000D02*
X80000000Y-289140000D01*
X81224511Y-272521207D02*
X81224511Y-277588793D01*
X83820000Y-263947729D02*
X83115480Y-264652249D01*
X83820000Y-256934991D02*
X83820000Y-263947729D01*
X83820000Y-269925718D02*
X81224511Y-272521207D01*
X83820000Y-267272271D02*
X83820000Y-269925718D01*
X81224511Y-277588793D02*
X83000000Y-279364282D01*
X83115480Y-264652249D02*
X83115480Y-266567751D01*
X88680000Y-255500000D02*
X85254991Y-255500000D01*
X85254991Y-255500000D02*
X83820000Y-256934991D01*
X83115480Y-266567751D02*
X83820000Y-267272271D01*
X90360000Y-253820000D02*
X88680000Y-255500000D01*
X119115489Y-252854211D02*
X119774211Y-252195489D01*
X119774211Y-252195489D02*
X121655489Y-252195489D01*
X119115489Y-270659511D02*
X119115489Y-252854211D01*
X121655489Y-252195489D02*
X122780000Y-253320000D01*
X117500000Y-272275000D02*
X119115489Y-270659511D01*
X124434850Y-281340150D02*
X124434850Y-256745150D01*
X124434850Y-256745150D02*
X127860000Y-253320000D01*
X117500000Y-288275000D02*
X124434850Y-281340150D01*
X117500000Y-304275000D02*
X124000000Y-297775000D01*
X124000000Y-282410717D02*
X124884370Y-281526347D01*
X124884370Y-281526347D02*
X124884370Y-256931348D01*
X128325789Y-254444511D02*
X129275489Y-253494811D01*
X124884370Y-256931348D02*
X127371207Y-254444511D01*
X129275489Y-253494811D02*
X129275489Y-246824511D01*
X129275489Y-246824511D02*
X130400000Y-245700000D01*
X127371207Y-254444511D02*
X128325789Y-254444511D01*
X124000000Y-297775000D02*
X124000000Y-282410717D01*
X117500000Y-320000000D02*
X119500000Y-322000000D01*
X142240000Y-320039999D02*
X142240000Y-252104282D01*
X119500000Y-322000000D02*
X140279999Y-322000000D01*
X142240000Y-252104282D02*
X133844057Y-243708339D01*
X133844057Y-243708339D02*
X129506921Y-243708339D01*
X127860000Y-245355260D02*
X127860000Y-245700000D01*
X129506921Y-243708339D02*
X127860000Y-245355260D01*
X140279999Y-322000000D02*
X142240000Y-320039999D01*
X90938860Y-250268560D02*
X94500000Y-253829700D01*
X94500000Y-253829700D02*
X94500000Y-267635718D01*
X87820000Y-253820000D02*
X88944511Y-252695489D01*
X88944511Y-252695489D02*
X88944511Y-251415489D01*
X97500000Y-270635718D02*
X97500000Y-273000000D01*
X88944511Y-251415489D02*
X90091440Y-250268560D01*
X90091440Y-250268560D02*
X90938860Y-250268560D01*
X94500000Y-267635718D02*
X97500000Y-270635718D01*
X86740960Y-249819040D02*
X91125058Y-249819040D01*
X98399040Y-270899040D02*
X100627604Y-270899040D01*
X94949520Y-253643502D02*
X94949520Y-267449520D01*
X94949520Y-267449520D02*
X98399040Y-270899040D01*
X100325471Y-286174529D02*
X97500000Y-289000000D01*
X99716440Y-280169853D02*
X99716440Y-282830145D01*
X100627604Y-270899040D02*
X101600960Y-271872396D01*
X101600960Y-278285333D02*
X99716440Y-280169853D01*
X82740000Y-253820000D02*
X86740960Y-249819040D01*
X99716440Y-282830145D02*
X100325471Y-283439177D01*
X91125058Y-249819040D02*
X94949520Y-253643502D01*
X100325471Y-283439177D02*
X100325471Y-286174529D01*
X101600960Y-271872396D02*
X101600960Y-278285333D01*
X100165960Y-282643948D02*
X100165960Y-280356051D01*
X98775489Y-288360228D02*
X100774991Y-286360726D01*
X97500000Y-304500000D02*
X100050480Y-301949520D01*
X83004283Y-246200000D02*
X82740000Y-246200000D01*
X98775489Y-289507210D02*
X98775489Y-288360228D01*
X95500000Y-253558265D02*
X91311255Y-249369520D01*
X85910480Y-249106197D02*
X83004283Y-246200000D01*
X100050480Y-301949520D02*
X100050480Y-290782201D01*
X91311255Y-249369520D02*
X86173802Y-249369520D01*
X102050480Y-271686198D02*
X100813802Y-270449520D01*
X100813802Y-270449520D02*
X98585238Y-270449520D01*
X86173802Y-249369520D02*
X85910480Y-249106197D01*
X98585238Y-270449520D02*
X95500000Y-267364282D01*
X102050480Y-278471531D02*
X102050480Y-271686198D01*
X100050480Y-290782201D02*
X98775489Y-289507210D01*
X95500000Y-267364282D02*
X95500000Y-253558265D01*
X100774991Y-283252980D02*
X100165960Y-282643948D01*
X100165960Y-280356051D02*
X102050480Y-278471531D01*
X100774991Y-286360726D02*
X100774991Y-283252980D01*
X101224511Y-289507210D02*
X100500000Y-290231721D01*
X100500000Y-302135718D02*
X98775489Y-303860229D01*
X101000000Y-270000000D02*
X102500000Y-271500000D01*
X85280000Y-247840000D02*
X86360000Y-248920000D01*
X101224511Y-283066782D02*
X101224511Y-289507210D01*
X102500000Y-271500000D02*
X102500000Y-278657729D01*
X100500000Y-317000000D02*
X97500000Y-320000000D01*
X85280000Y-246200000D02*
X85280000Y-247840000D01*
X100500000Y-307000000D02*
X100500000Y-317000000D01*
X98775978Y-270000000D02*
X101000000Y-270000000D01*
X100615480Y-280542249D02*
X100615480Y-282457751D01*
X98775489Y-303860229D02*
X98775489Y-305275489D01*
X96000000Y-267224022D02*
X98775978Y-270000000D01*
X86360000Y-248920000D02*
X91497452Y-248920000D01*
X91497452Y-248920000D02*
X96000000Y-253422548D01*
X96000000Y-253422548D02*
X96000000Y-267224022D01*
X102500000Y-278657729D02*
X100615480Y-280542249D01*
X98775489Y-305275489D02*
X100500000Y-307000000D01*
X100500000Y-290231721D02*
X100500000Y-302135718D01*
X100615480Y-282457751D02*
X101224511Y-283066782D01*
X129693119Y-244157859D02*
X129275489Y-244575489D01*
X133657859Y-244157859D02*
X129693119Y-244157859D01*
X129275489Y-244575489D02*
X129275489Y-246188793D01*
X125320000Y-250144282D02*
X125320000Y-253320000D01*
X133500000Y-272000000D02*
X141790480Y-263709520D01*
X129275489Y-246188793D02*
X125320000Y-250144282D01*
X141790480Y-263709520D02*
X141790480Y-252290480D01*
X141790480Y-252290480D02*
X133657859Y-244157859D01*
X133500000Y-320000000D02*
X132275489Y-318775489D01*
X142689520Y-251918084D02*
X134030254Y-243258819D01*
X142689520Y-320226196D02*
X142689520Y-251918084D01*
X125221181Y-243258819D02*
X122780000Y-245700000D01*
X116992790Y-318775489D02*
X116275489Y-319492790D01*
X117449520Y-322449520D02*
X140466196Y-322449520D01*
X132275489Y-318775489D02*
X116992790Y-318775489D01*
X134030254Y-243258819D02*
X125221181Y-243258819D01*
X116275489Y-321275489D02*
X117449520Y-322449520D01*
X116275489Y-319492790D02*
X116275489Y-321275489D01*
X140466196Y-322449520D02*
X142689520Y-320226196D01*
X124350000Y-214400000D02*
X123950000Y-214800000D01*
X124350000Y-209300000D02*
X124350000Y-214400000D01*
X145830000Y-213250000D02*
X148380000Y-210700000D01*
X123950000Y-214800000D02*
X125450000Y-216300000D01*
X135100000Y-213250000D02*
X145830000Y-213250000D01*
X132050000Y-216300000D02*
X135100000Y-213250000D01*
X125450000Y-216300000D02*
X132050000Y-216300000D01*
X129800000Y-209300000D02*
X133300000Y-212800000D01*
X129800000Y-209300000D02*
X129800000Y-213850000D01*
X143740000Y-212800000D02*
X145840000Y-210700000D01*
X129800000Y-213850000D02*
X128850000Y-214800000D01*
X133300000Y-212800000D02*
X143740000Y-212800000D01*
X140369009Y-211900000D02*
X142100000Y-211900000D01*
X144495000Y-194828604D02*
X140310000Y-199013604D01*
X145620000Y-191800000D02*
X147035000Y-193215000D01*
X142100000Y-211900000D02*
X143300000Y-210700000D01*
X140310000Y-199013604D02*
X140310000Y-209290000D01*
X144495000Y-192925000D02*
X144495000Y-194828604D01*
X140310000Y-209290000D02*
X139635000Y-209965000D01*
X139635000Y-209965000D02*
X139635000Y-211165991D01*
X139635000Y-211165991D02*
X140369009Y-211900000D01*
X145620000Y-191800000D02*
X144495000Y-192925000D01*
X158505000Y-193215000D02*
X159920000Y-191800000D01*
X147035000Y-193215000D02*
X158505000Y-193215000D01*
X145620000Y-194340000D02*
X146745000Y-195465000D01*
X158795000Y-195465000D02*
X159920000Y-194340000D01*
X140760000Y-199200000D02*
X145620000Y-194340000D01*
X146745000Y-195465000D02*
X158795000Y-195465000D01*
X140760000Y-210700000D02*
X140760000Y-199200000D01*
X143240991Y-212350000D02*
X144500000Y-211090991D01*
X144500000Y-211090991D02*
X144500000Y-198000000D01*
X139850000Y-212350000D02*
X143240991Y-212350000D01*
X145620000Y-196880000D02*
X146745000Y-198005000D01*
X144500000Y-198000000D02*
X145620000Y-196880000D01*
X139100000Y-211600000D02*
X139850000Y-212350000D01*
X158795000Y-198005000D02*
X159920000Y-196880000D01*
X138220000Y-210700000D02*
X139100000Y-211580000D01*
X139100000Y-211580000D02*
X139100000Y-211600000D01*
X146745000Y-198005000D02*
X158795000Y-198005000D01*
X135680000Y-220480000D02*
X137965000Y-222765000D01*
X137965000Y-223586701D02*
X138678299Y-224300000D01*
X137965000Y-222765000D02*
X137965000Y-223586701D01*
X140480000Y-224300000D02*
X141680000Y-223100000D01*
X135680000Y-218320000D02*
X135680000Y-220480000D01*
X138678299Y-224300000D02*
X140480000Y-224300000D01*
X138220000Y-218320000D02*
X138220000Y-222180000D01*
X138220000Y-222180000D02*
X139140000Y-223100000D01*
X141101701Y-218320000D02*
X145881701Y-223100000D01*
X140760000Y-218320000D02*
X141101701Y-218320000D01*
X145881701Y-223100000D02*
X146760000Y-223100000D01*
X143300000Y-218320000D02*
X143820000Y-218320000D01*
X148600000Y-223100000D02*
X149300000Y-223100000D01*
X143820000Y-218320000D02*
X148600000Y-223100000D01*
X145840000Y-218320000D02*
X146965000Y-219445000D01*
X146965000Y-219445000D02*
X148185000Y-219445000D01*
X148185000Y-219445000D02*
X151840000Y-223100000D01*
X162500000Y-225000000D02*
X163620000Y-223880000D01*
X136600000Y-223100000D02*
X138500000Y-225000000D01*
X138500000Y-225000000D02*
X162500000Y-225000000D01*
X163620000Y-223880000D02*
X163620000Y-218320000D01*
X134060000Y-223100000D02*
X136409520Y-225449520D01*
X136409520Y-225449520D02*
X163150480Y-225449520D01*
X166160000Y-222440000D02*
X166160000Y-218320000D01*
X163150480Y-225449520D02*
X166160000Y-222440000D01*
X164300960Y-225899040D02*
X168700000Y-221500000D01*
X168700000Y-221500000D02*
X168700000Y-218320000D01*
X134319040Y-225899040D02*
X164300960Y-225899040D01*
X131520000Y-223100000D02*
X134319040Y-225899040D01*
X162000000Y-135500000D02*
X162000000Y-137220000D01*
X162000000Y-137220000D02*
X165300000Y-140520000D01*
X154640000Y-140320000D02*
X159460000Y-135500000D01*
X153100000Y-140320000D02*
X154640000Y-140320000D01*
X132500000Y-173600000D02*
X138000000Y-179100000D01*
X154833557Y-133413557D02*
X117286443Y-133413557D01*
X127610000Y-169290000D02*
X127610000Y-173600000D01*
X116600000Y-138300000D02*
X117600000Y-139300000D01*
X123800000Y-139300000D02*
X132100000Y-147600000D01*
X117286443Y-133413557D02*
X116600000Y-134100000D01*
X132100000Y-164800000D02*
X127610000Y-169290000D01*
X117600000Y-139300000D02*
X123800000Y-139300000D01*
X156920000Y-135500000D02*
X154833557Y-133413557D01*
X127610000Y-173600000D02*
X132500000Y-173600000D01*
X132100000Y-147600000D02*
X132100000Y-164800000D01*
X116600000Y-134100000D02*
X116600000Y-138300000D01*
X127710000Y-203600000D02*
X131460000Y-199850000D01*
X148150000Y-186730000D02*
X145620000Y-189260000D01*
X138822792Y-199850000D02*
X140200000Y-198472792D01*
X140200000Y-194680000D02*
X145620000Y-189260000D01*
X148150000Y-175513604D02*
X148150000Y-186730000D01*
X131460000Y-199850000D02*
X138822792Y-199850000D01*
X147210000Y-174573604D02*
X148150000Y-175513604D01*
X147210000Y-142670000D02*
X147210000Y-174573604D01*
X154380000Y-135500000D02*
X147210000Y-142670000D01*
X140200000Y-198472792D02*
X140200000Y-194680000D01*
X150203557Y-133863557D02*
X144136443Y-133863557D01*
X146800000Y-180460000D02*
X145620000Y-181640000D01*
X144215699Y-183044301D02*
X145620000Y-181640000D01*
X146800000Y-176072792D02*
X146800000Y-180460000D01*
X127710000Y-182500000D02*
X128254301Y-183044301D01*
X142900000Y-135100000D02*
X142900000Y-139036396D01*
X145860000Y-141996396D02*
X145860000Y-175132792D01*
X142900000Y-139036396D02*
X145860000Y-141996396D01*
X128254301Y-183044301D02*
X144215699Y-183044301D01*
X151840000Y-135500000D02*
X150203557Y-133863557D01*
X145860000Y-175132792D02*
X146800000Y-176072792D01*
X144136443Y-133863557D02*
X142900000Y-135100000D01*
X145500000Y-135098299D02*
X145500000Y-141000000D01*
X127710000Y-191000000D02*
X130865000Y-187845000D01*
X149186441Y-135386441D02*
X148535260Y-135386441D01*
X146273299Y-134325000D02*
X145500000Y-135098299D01*
X147250000Y-182550000D02*
X145620000Y-184180000D01*
X147250000Y-175886396D02*
X147250000Y-182550000D01*
X149300000Y-135500000D02*
X149186441Y-135386441D01*
X130865000Y-187845000D02*
X141955000Y-187845000D01*
X145500000Y-141000000D02*
X146310000Y-141810000D01*
X141955000Y-187845000D02*
X145620000Y-184180000D01*
X147473819Y-134325000D02*
X146273299Y-134325000D01*
X146310000Y-174946396D02*
X147250000Y-175886396D01*
X146310000Y-141810000D02*
X146310000Y-174946396D01*
X148535260Y-135386441D02*
X147473819Y-134325000D01*
X146760000Y-174760000D02*
X146760000Y-135500000D01*
X127710000Y-199400000D02*
X138636396Y-199400000D01*
X147700000Y-184640000D02*
X147700000Y-175700000D01*
X139750000Y-192590000D02*
X145620000Y-186720000D01*
X145620000Y-186720000D02*
X147700000Y-184640000D01*
X138636396Y-199400000D02*
X139750000Y-198286396D01*
X139750000Y-198286396D02*
X139750000Y-192590000D01*
X147700000Y-175700000D02*
X146760000Y-174760000D01*
X137920000Y-186800000D02*
X138000000Y-186720000D01*
X127710000Y-186800000D02*
X137920000Y-186800000D01*
X160375699Y-190385699D02*
X155965699Y-190385699D01*
X155965699Y-190385699D02*
X152300000Y-186720000D01*
X166290000Y-196300000D02*
X160375699Y-190385699D01*
X159920000Y-186720000D02*
X165710000Y-186720000D01*
X165710000Y-186720000D02*
X166290000Y-187300000D01*
X161200000Y-182900000D02*
X159920000Y-184180000D01*
X161200000Y-182900000D02*
X166390000Y-182900000D01*
X163060000Y-178500000D02*
X159920000Y-181640000D01*
X163060000Y-178500000D02*
X166390000Y-178500000D01*
X163850000Y-189260000D02*
X166290000Y-191700000D01*
X163850000Y-189260000D02*
X159920000Y-189260000D01*
X161800000Y-169600000D02*
X166490000Y-169600000D01*
X152300000Y-179100000D02*
X161800000Y-169600000D01*
X159840000Y-174100000D02*
X152300000Y-181640000D01*
X159840000Y-174100000D02*
X166490000Y-174100000D01*
X128850000Y-195200000D02*
X132600000Y-198950000D01*
X132600000Y-198950000D02*
X138450000Y-198950000D01*
X139300000Y-190800000D02*
X138000000Y-189500000D01*
X138000000Y-189500000D02*
X138000000Y-189260000D01*
X139300000Y-198100000D02*
X139300000Y-190800000D01*
X138450000Y-198950000D02*
X139300000Y-198100000D01*
X127710000Y-195200000D02*
X128850000Y-195200000D01*
X127710000Y-177900000D02*
X130600000Y-177900000D01*
X130600000Y-177900000D02*
X134340000Y-181640000D01*
X134340000Y-181640000D02*
X138000000Y-181640000D01*
X175850000Y-160175000D02*
X171180000Y-155505000D01*
X175850000Y-204486396D02*
X175850000Y-160175000D01*
X161080000Y-210700000D02*
X163780000Y-208000000D01*
X171180000Y-155505000D02*
X170530000Y-155505000D01*
X163780000Y-208000000D02*
X172336396Y-208000000D01*
X172336396Y-208000000D02*
X175850000Y-204486396D01*
X175400000Y-204300000D02*
X175400000Y-167000000D01*
X175400000Y-167000000D02*
X161265489Y-152865489D01*
X161265489Y-152865489D02*
X160134211Y-152865489D01*
X175000000Y-204700000D02*
X175400000Y-204300000D01*
X161750000Y-207550000D02*
X164600000Y-204700000D01*
X160134211Y-152865489D02*
X157494700Y-155505000D01*
X164600000Y-204700000D02*
X175000000Y-204700000D01*
X157494700Y-155505000D02*
X154130000Y-155505000D01*
X158540000Y-210700000D02*
X161690000Y-207550000D01*
X161690000Y-207550000D02*
X161750000Y-207550000D01*
M02*
