G04 #@! TF.GenerationSoftware,KiCad,Pcbnew,6.0.7-1.fc36*
G04 #@! TF.CreationDate,2022-08-06T18:57:46+02:00*
G04 #@! TF.ProjectId,matrix-sq-v1,6d617472-6978-42d7-9371-2d76312e6b69,rev?*
G04 #@! TF.SameCoordinates,Original*
G04 #@! TF.FileFunction,Legend,Bot*
G04 #@! TF.FilePolarity,Positive*
%FSLAX46Y46*%
G04 Gerber Fmt 4.6, Leading zero omitted, Abs format (unit mm)*
G04 Created by KiCad (PCBNEW 6.0.7-1.fc36) date 2022-08-06 18:57:46*
%MOMM*%
%LPD*%
G01*
G04 APERTURE LIST*
G04 Aperture macros list*
%AMRoundRect*
0 Rectangle with rounded corners*
0 $1 Rounding radius*
0 $2 $3 $4 $5 $6 $7 $8 $9 X,Y pos of 4 corners*
0 Add a 4 corners polygon primitive as box body*
4,1,4,$2,$3,$4,$5,$6,$7,$8,$9,$2,$3,0*
0 Add four circle primitives for the rounded corners*
1,1,$1+$1,$2,$3*
1,1,$1+$1,$4,$5*
1,1,$1+$1,$6,$7*
1,1,$1+$1,$8,$9*
0 Add four rect primitives between the rounded corners*
20,1,$1+$1,$2,$3,$4,$5,0*
20,1,$1+$1,$4,$5,$6,$7,0*
20,1,$1+$1,$6,$7,$8,$9,0*
20,1,$1+$1,$8,$9,$2,$3,0*%
G04 Aperture macros list end*
G04 #@! TA.AperFunction,Profile*
%ADD10C,0.100000*%
G04 #@! TD*
%ADD11R,1.800000X1.800000*%
%ADD12C,1.800000*%
%ADD13O,2.720000X3.240000*%
%ADD14C,1.600000*%
%ADD15O,1.600000X1.600000*%
%ADD16O,3.000000X2.000000*%
%ADD17R,1.600000X1.600000*%
%ADD18O,2.000000X3.000000*%
%ADD19R,1.830000X1.930000*%
%ADD20C,2.130000*%
%ADD21R,1.700000X1.700000*%
%ADD22O,1.700000X1.700000*%
%ADD23RoundRect,0.249900X-0.400100X0.275100X-0.400100X-0.275100X0.400100X-0.275100X0.400100X0.275100X0*%
%ADD24O,1.300000X1.050000*%
%ADD25R,2.000000X1.905000*%
%ADD26O,2.000000X1.905000*%
%ADD27R,2.200000X2.200000*%
%ADD28O,2.200000X2.200000*%
%ADD29C,1.500000*%
G04 APERTURE END LIST*
D10*
X108300000Y-132900000D02*
X176300000Y-132900000D01*
X176300000Y-132900000D02*
X176300000Y-227300000D01*
X176300000Y-227300000D02*
X108300000Y-227300000D01*
X108300000Y-227300000D02*
X108300000Y-132900000D01*
X70800000Y-241500000D02*
X270800000Y-241500000D01*
X270800000Y-241500000D02*
X270800000Y-341000000D01*
X270800000Y-341000000D02*
X70800000Y-341000000D01*
X70800000Y-341000000D02*
X70800000Y-241500000D01*
%LPC*%
D11*
X200800000Y-323600000D03*
D12*
X203340000Y-323600000D03*
D13*
X75200000Y-297150000D03*
X84800000Y-297150000D03*
D11*
X77500000Y-304650000D03*
D12*
X80000000Y-304650000D03*
X82500000Y-304650000D03*
D11*
X238025000Y-262600000D03*
D12*
X240565000Y-262600000D03*
D14*
X161500000Y-307310000D03*
D15*
X161500000Y-299690000D03*
D13*
X112700000Y-312500000D03*
X122300000Y-312500000D03*
D11*
X115000000Y-320000000D03*
D12*
X117500000Y-320000000D03*
X120000000Y-320000000D03*
D14*
X166290000Y-191700000D03*
D15*
X173910000Y-191700000D03*
D14*
X154510000Y-322600000D03*
D15*
X146890000Y-322600000D03*
D16*
X252000000Y-249460000D03*
X252000000Y-254540000D03*
D17*
X138000000Y-179100000D03*
D15*
X138000000Y-181640000D03*
X138000000Y-184180000D03*
X138000000Y-186720000D03*
X138000000Y-189260000D03*
X138000000Y-191800000D03*
X138000000Y-194340000D03*
X138000000Y-196880000D03*
X145620000Y-196880000D03*
X145620000Y-194340000D03*
X145620000Y-191800000D03*
X145620000Y-189260000D03*
X145620000Y-186720000D03*
X145620000Y-184180000D03*
X145620000Y-181640000D03*
X145620000Y-179100000D03*
D11*
X133500000Y-297500000D03*
D12*
X133500000Y-294960000D03*
D11*
X225760000Y-275100000D03*
D12*
X228300000Y-275100000D03*
D13*
X122300000Y-280775000D03*
X112700000Y-280775000D03*
D11*
X115000000Y-288275000D03*
D12*
X117500000Y-288275000D03*
X120000000Y-288275000D03*
D14*
X123300000Y-159550000D03*
X123300000Y-157050000D03*
D11*
X251250000Y-299600000D03*
D12*
X253790000Y-299600000D03*
D11*
X251250000Y-311100000D03*
D12*
X253790000Y-311100000D03*
D14*
X127710000Y-177900000D03*
D15*
X120090000Y-177900000D03*
D18*
X170460000Y-271400000D03*
X175540000Y-271400000D03*
D11*
X213260000Y-262600000D03*
D12*
X215800000Y-262600000D03*
D13*
X138300000Y-312500000D03*
X128700000Y-312500000D03*
D11*
X131000000Y-320000000D03*
D12*
X133500000Y-320000000D03*
X136000000Y-320000000D03*
D19*
X146220000Y-278000000D03*
D20*
X157620000Y-278000000D03*
X149320000Y-278000000D03*
D18*
X193000000Y-263000000D03*
X187920000Y-263000000D03*
D11*
X251250000Y-275100000D03*
D12*
X253790000Y-275100000D03*
D13*
X112700000Y-264775000D03*
X122300000Y-264775000D03*
D11*
X115000000Y-272275000D03*
D12*
X117500000Y-272275000D03*
X120000000Y-272275000D03*
D18*
X193000000Y-288000000D03*
X187920000Y-288000000D03*
D13*
X138300000Y-264500000D03*
X128700000Y-264500000D03*
D11*
X131000000Y-272000000D03*
D12*
X133500000Y-272000000D03*
X136000000Y-272000000D03*
D13*
X138300000Y-296500000D03*
X128700000Y-296500000D03*
D11*
X131000000Y-304000000D03*
D12*
X133500000Y-304000000D03*
X136000000Y-304000000D03*
D14*
X166290000Y-196300000D03*
D15*
X173910000Y-196300000D03*
D14*
X120000000Y-151250000D03*
X120000000Y-148750000D03*
D11*
X263260000Y-262600000D03*
D12*
X265800000Y-262600000D03*
D11*
X133500000Y-265540000D03*
D12*
X133500000Y-263000000D03*
D13*
X92700000Y-281500000D03*
X102300000Y-281500000D03*
D11*
X95000000Y-289000000D03*
D12*
X97500000Y-289000000D03*
X100000000Y-289000000D03*
D11*
X213525000Y-299600000D03*
D12*
X216065000Y-299600000D03*
D21*
X110460000Y-146880000D03*
D22*
X113000000Y-146880000D03*
X110460000Y-149420000D03*
X113000000Y-149420000D03*
X110460000Y-151960000D03*
X113000000Y-151960000D03*
X110460000Y-154500000D03*
X113000000Y-154500000D03*
X110460000Y-157040000D03*
X113000000Y-157040000D03*
D16*
X264500000Y-249460000D03*
X264500000Y-254540000D03*
D14*
X254300000Y-337210000D03*
D15*
X254300000Y-329590000D03*
D14*
X171700000Y-149000000D03*
D15*
X171700000Y-141380000D03*
D11*
X200760000Y-262600000D03*
D12*
X203300000Y-262600000D03*
D11*
X238025000Y-299600000D03*
D12*
X240565000Y-299600000D03*
D23*
X170530000Y-154235000D03*
D24*
X170530000Y-155505000D03*
X170530000Y-156775000D03*
D14*
X157300000Y-330000000D03*
X157300000Y-327500000D03*
D21*
X174000000Y-212825000D03*
D22*
X174000000Y-215365000D03*
D14*
X126400000Y-151200000D03*
X126400000Y-148700000D03*
D11*
X225760000Y-262600000D03*
D12*
X228300000Y-262600000D03*
D18*
X193000000Y-275500000D03*
X187920000Y-275500000D03*
D11*
X263485000Y-311100000D03*
D12*
X266025000Y-311100000D03*
D11*
X97500000Y-282275000D03*
D12*
X97500000Y-279735000D03*
D14*
X154810000Y-330000000D03*
D15*
X147190000Y-330000000D03*
D14*
X136500000Y-334810000D03*
D15*
X136500000Y-327190000D03*
D11*
X213525000Y-323600000D03*
D12*
X216065000Y-323600000D03*
D11*
X263485000Y-299600000D03*
D12*
X266025000Y-299600000D03*
D16*
X214500000Y-249960000D03*
X214500000Y-255040000D03*
X202000000Y-249960000D03*
X202000000Y-255040000D03*
D14*
X166290000Y-187300000D03*
D15*
X173910000Y-187300000D03*
D18*
X170460000Y-284000000D03*
X175540000Y-284000000D03*
D11*
X225760000Y-299600000D03*
D12*
X228300000Y-299600000D03*
D11*
X251250000Y-287100000D03*
D12*
X253790000Y-287100000D03*
D18*
X170460000Y-296500000D03*
X175540000Y-296500000D03*
D14*
X159300000Y-149010000D03*
D15*
X159300000Y-141390000D03*
D13*
X84800000Y-312650000D03*
X75200000Y-312650000D03*
D11*
X77500000Y-320150000D03*
D12*
X80000000Y-320150000D03*
X82500000Y-320150000D03*
D14*
X127710000Y-191000000D03*
D15*
X120090000Y-191000000D03*
D19*
X146220000Y-292000000D03*
D20*
X157620000Y-292000000D03*
X149320000Y-292000000D03*
D11*
X117500000Y-298000000D03*
D12*
X117500000Y-295460000D03*
D11*
X238025000Y-323600000D03*
D12*
X240565000Y-323600000D03*
D19*
X146220000Y-303000000D03*
D20*
X157620000Y-303000000D03*
X149320000Y-303000000D03*
D25*
X112855000Y-165260000D03*
D26*
X112855000Y-167800000D03*
X112855000Y-170340000D03*
D17*
X92900000Y-327200000D03*
D15*
X90360000Y-327200000D03*
X87820000Y-327200000D03*
X85280000Y-327200000D03*
X82740000Y-327200000D03*
X80200000Y-327200000D03*
X77660000Y-327200000D03*
X75120000Y-327200000D03*
X75120000Y-334820000D03*
X77660000Y-334820000D03*
X80200000Y-334820000D03*
X82740000Y-334820000D03*
X85280000Y-334820000D03*
X87820000Y-334820000D03*
X90360000Y-334820000D03*
X92900000Y-334820000D03*
D14*
X126700000Y-159550000D03*
X126700000Y-157050000D03*
D27*
X153100000Y-150480000D03*
D28*
X153100000Y-140320000D03*
D11*
X201025000Y-311100000D03*
D12*
X203565000Y-311100000D03*
D17*
X152300000Y-179100000D03*
D15*
X152300000Y-181640000D03*
X152300000Y-184180000D03*
X152300000Y-186720000D03*
X152300000Y-189260000D03*
X152300000Y-191800000D03*
X152300000Y-194340000D03*
X152300000Y-196880000D03*
X159920000Y-196880000D03*
X159920000Y-194340000D03*
X159920000Y-191800000D03*
X159920000Y-189260000D03*
X159920000Y-186720000D03*
X159920000Y-184180000D03*
X159920000Y-181640000D03*
X159920000Y-179100000D03*
D13*
X75200000Y-281640000D03*
X84800000Y-281640000D03*
D11*
X77500000Y-289140000D03*
D12*
X80000000Y-289140000D03*
X82500000Y-289140000D03*
D14*
X166390000Y-182900000D03*
D15*
X174010000Y-182900000D03*
D29*
X123950000Y-214800000D03*
X128850000Y-214800000D03*
D14*
X164800000Y-161610000D03*
D15*
X164800000Y-153990000D03*
D21*
X145000000Y-249500000D03*
D22*
X147540000Y-249500000D03*
X150080000Y-249500000D03*
X152620000Y-249500000D03*
X155160000Y-249500000D03*
X157700000Y-249500000D03*
X160240000Y-249500000D03*
X162780000Y-249500000D03*
X165320000Y-249500000D03*
X167860000Y-249500000D03*
X170400000Y-249500000D03*
X172940000Y-249500000D03*
X175480000Y-249500000D03*
X178020000Y-249500000D03*
X180560000Y-249500000D03*
X183100000Y-249500000D03*
X185640000Y-249500000D03*
X188180000Y-249500000D03*
D21*
X162000000Y-223100000D03*
D22*
X159460000Y-223100000D03*
X156920000Y-223100000D03*
X154380000Y-223100000D03*
X151840000Y-223100000D03*
X149300000Y-223100000D03*
X146760000Y-223100000D03*
X144220000Y-223100000D03*
X141680000Y-223100000D03*
X139140000Y-223100000D03*
X136600000Y-223100000D03*
X134060000Y-223100000D03*
X131520000Y-223100000D03*
D11*
X213525000Y-311100000D03*
D12*
X216065000Y-311100000D03*
D14*
X106000000Y-252310000D03*
D15*
X106000000Y-244690000D03*
D14*
X157300000Y-325150000D03*
X157300000Y-322650000D03*
D11*
X251025000Y-262600000D03*
D12*
X253565000Y-262600000D03*
D11*
X117500000Y-281775000D03*
D12*
X117500000Y-279235000D03*
D14*
X127710000Y-203600000D03*
D15*
X120090000Y-203600000D03*
D14*
X166290000Y-200800000D03*
D15*
X173910000Y-200800000D03*
D11*
X200800000Y-287100000D03*
D12*
X203340000Y-287100000D03*
D14*
X160500000Y-329810000D03*
D15*
X160500000Y-322190000D03*
D17*
X130400000Y-245700000D03*
D15*
X127860000Y-245700000D03*
X125320000Y-245700000D03*
X122780000Y-245700000D03*
X120240000Y-245700000D03*
X117700000Y-245700000D03*
X115160000Y-245700000D03*
X112620000Y-245700000D03*
X112620000Y-253320000D03*
X115160000Y-253320000D03*
X117700000Y-253320000D03*
X120240000Y-253320000D03*
X122780000Y-253320000D03*
X125320000Y-253320000D03*
X127860000Y-253320000D03*
X130400000Y-253320000D03*
D11*
X97500000Y-313550000D03*
D12*
X97500000Y-311010000D03*
D19*
X146220000Y-266500000D03*
D20*
X157620000Y-266500000D03*
X149320000Y-266500000D03*
D18*
X193500000Y-300500000D03*
X188420000Y-300500000D03*
D27*
X165300000Y-150680000D03*
D28*
X165300000Y-140520000D03*
D14*
X161500000Y-295810000D03*
D15*
X161500000Y-288190000D03*
D23*
X154130000Y-154235000D03*
D24*
X154130000Y-155505000D03*
X154130000Y-156775000D03*
D14*
X166490000Y-169600000D03*
D15*
X174110000Y-169600000D03*
D17*
X220325000Y-337300000D03*
D15*
X222865000Y-337300000D03*
X225405000Y-337300000D03*
X227945000Y-337300000D03*
X230485000Y-337300000D03*
X233025000Y-337300000D03*
X235565000Y-337300000D03*
X238105000Y-337300000D03*
X240645000Y-337300000D03*
X243185000Y-337300000D03*
X245725000Y-337300000D03*
X248265000Y-337300000D03*
X248265000Y-329680000D03*
X245725000Y-329680000D03*
X243185000Y-329680000D03*
X240645000Y-329680000D03*
X238105000Y-329680000D03*
X235565000Y-329680000D03*
X233025000Y-329680000D03*
X230485000Y-329680000D03*
X227945000Y-329680000D03*
X225405000Y-329680000D03*
X222865000Y-329680000D03*
X220325000Y-329680000D03*
D11*
X201025000Y-299600000D03*
D12*
X203565000Y-299600000D03*
D14*
X154610000Y-326100000D03*
D15*
X146990000Y-326100000D03*
D11*
X117500000Y-313775000D03*
D12*
X117500000Y-311235000D03*
D14*
X166490000Y-174100000D03*
D15*
X174110000Y-174100000D03*
D19*
X146220000Y-314000000D03*
D20*
X157620000Y-314000000D03*
X149320000Y-314000000D03*
D11*
X225760000Y-287100000D03*
D12*
X228300000Y-287100000D03*
D14*
X166390000Y-178500000D03*
D15*
X174010000Y-178500000D03*
D11*
X97500000Y-297775000D03*
D12*
X97500000Y-295235000D03*
D18*
X193500000Y-325500000D03*
X188420000Y-325500000D03*
D16*
X239500000Y-249460000D03*
X239500000Y-254540000D03*
D21*
X162000000Y-135500000D03*
D22*
X159460000Y-135500000D03*
X156920000Y-135500000D03*
X154380000Y-135500000D03*
X151840000Y-135500000D03*
X149300000Y-135500000D03*
X146760000Y-135500000D03*
X144220000Y-135500000D03*
X141680000Y-135500000D03*
X139140000Y-135500000D03*
X136600000Y-135500000D03*
X134060000Y-135500000D03*
X131520000Y-135500000D03*
X128980000Y-135500000D03*
X126440000Y-135500000D03*
X123900000Y-135500000D03*
X121360000Y-135500000D03*
X118820000Y-135500000D03*
D13*
X75200000Y-265610000D03*
X84800000Y-265610000D03*
D11*
X77500000Y-273110000D03*
D12*
X80000000Y-273110000D03*
X82500000Y-273110000D03*
D11*
X238025000Y-311100000D03*
D12*
X240565000Y-311100000D03*
D11*
X213525000Y-287100000D03*
D12*
X216065000Y-287100000D03*
D11*
X80000000Y-313275000D03*
D12*
X80000000Y-310735000D03*
D11*
X263485000Y-323600000D03*
D12*
X266025000Y-323600000D03*
D17*
X130400000Y-327200000D03*
D15*
X127860000Y-327200000D03*
X125320000Y-327200000D03*
X122780000Y-327200000D03*
X120240000Y-327200000D03*
X117700000Y-327200000D03*
X115160000Y-327200000D03*
X112620000Y-327200000D03*
X112620000Y-334820000D03*
X115160000Y-334820000D03*
X117700000Y-334820000D03*
X120240000Y-334820000D03*
X122780000Y-334820000D03*
X125320000Y-334820000D03*
X127860000Y-334820000D03*
X130400000Y-334820000D03*
D11*
X117500000Y-266050000D03*
D12*
X117500000Y-263510000D03*
D14*
X160600000Y-161610000D03*
D15*
X160600000Y-153990000D03*
D14*
X127710000Y-195200000D03*
D15*
X120090000Y-195200000D03*
D13*
X102300000Y-265500000D03*
X92700000Y-265500000D03*
D11*
X95000000Y-273000000D03*
D12*
X97500000Y-273000000D03*
X100000000Y-273000000D03*
D11*
X251250000Y-323600000D03*
D12*
X253790000Y-323600000D03*
D14*
X127710000Y-186800000D03*
D15*
X120090000Y-186800000D03*
D11*
X80000000Y-282275000D03*
D12*
X80000000Y-279735000D03*
D14*
X120100000Y-159550000D03*
X120100000Y-157050000D03*
X127710000Y-182500000D03*
D15*
X120090000Y-182500000D03*
D11*
X225760000Y-323600000D03*
D12*
X228300000Y-323600000D03*
D14*
X127710000Y-199400000D03*
D15*
X120090000Y-199400000D03*
D14*
X124350000Y-209300000D03*
X121850000Y-209300000D03*
D18*
X193500000Y-313000000D03*
X188420000Y-313000000D03*
D13*
X92700000Y-312500000D03*
X102300000Y-312500000D03*
D11*
X95000000Y-320000000D03*
D12*
X97500000Y-320000000D03*
X100000000Y-320000000D03*
D11*
X133500000Y-313775000D03*
D12*
X133500000Y-311235000D03*
D13*
X122300000Y-296775000D03*
X112700000Y-296775000D03*
D11*
X115000000Y-304275000D03*
D12*
X117500000Y-304275000D03*
X120000000Y-304275000D03*
D14*
X129700000Y-151200000D03*
X129700000Y-148700000D03*
D11*
X133500000Y-281275000D03*
D12*
X133500000Y-278735000D03*
D11*
X238025000Y-287100000D03*
D12*
X240565000Y-287100000D03*
D11*
X263485000Y-287100000D03*
D12*
X266025000Y-287100000D03*
D14*
X127610000Y-173600000D03*
D15*
X119990000Y-173600000D03*
D11*
X225760000Y-311100000D03*
D12*
X228300000Y-311100000D03*
D13*
X92700000Y-297000000D03*
X102300000Y-297000000D03*
D11*
X95000000Y-304500000D03*
D12*
X97500000Y-304500000D03*
X100000000Y-304500000D03*
D13*
X128700000Y-280275000D03*
X138300000Y-280275000D03*
D11*
X131000000Y-287775000D03*
D12*
X133500000Y-287775000D03*
X136000000Y-287775000D03*
D16*
X227000000Y-249960000D03*
X227000000Y-255040000D03*
D11*
X97500000Y-266275000D03*
D12*
X97500000Y-263735000D03*
D11*
X201025000Y-275100000D03*
D12*
X203565000Y-275100000D03*
D17*
X181500000Y-319000000D03*
D15*
X178960000Y-319000000D03*
X176420000Y-319000000D03*
X173880000Y-319000000D03*
X171340000Y-319000000D03*
X168800000Y-319000000D03*
X166260000Y-319000000D03*
X166260000Y-326620000D03*
X168800000Y-326620000D03*
X171340000Y-326620000D03*
X173880000Y-326620000D03*
X176420000Y-326620000D03*
X178960000Y-326620000D03*
X181500000Y-326620000D03*
D11*
X80000000Y-298000000D03*
D12*
X80000000Y-295460000D03*
D17*
X168700000Y-210700000D03*
D15*
X166160000Y-210700000D03*
X163620000Y-210700000D03*
X161080000Y-210700000D03*
X158540000Y-210700000D03*
X156000000Y-210700000D03*
X153460000Y-210700000D03*
X150920000Y-210700000D03*
X148380000Y-210700000D03*
X145840000Y-210700000D03*
X143300000Y-210700000D03*
X140760000Y-210700000D03*
X138220000Y-210700000D03*
X135680000Y-210700000D03*
X135680000Y-218320000D03*
X138220000Y-218320000D03*
X140760000Y-218320000D03*
X143300000Y-218320000D03*
X145840000Y-218320000D03*
X148380000Y-218320000D03*
X150920000Y-218320000D03*
X153460000Y-218320000D03*
X156000000Y-218320000D03*
X158540000Y-218320000D03*
X161080000Y-218320000D03*
X163620000Y-218320000D03*
X166160000Y-218320000D03*
X168700000Y-218320000D03*
D21*
X145000000Y-337000000D03*
D22*
X147540000Y-337000000D03*
X150080000Y-337000000D03*
X152620000Y-337000000D03*
X155160000Y-337000000D03*
X157700000Y-337000000D03*
X160240000Y-337000000D03*
X162780000Y-337000000D03*
X165320000Y-337000000D03*
X167860000Y-337000000D03*
X170400000Y-337000000D03*
X172940000Y-337000000D03*
X175480000Y-337000000D03*
D11*
X263485000Y-275100000D03*
D12*
X266025000Y-275100000D03*
D14*
X129800000Y-209300000D03*
X127300000Y-209300000D03*
X123100000Y-151200000D03*
X123100000Y-148700000D03*
D11*
X80000000Y-266425000D03*
D12*
X80000000Y-263885000D03*
D14*
X99500000Y-252310000D03*
D15*
X99500000Y-244690000D03*
D18*
X170460000Y-309000000D03*
X175540000Y-309000000D03*
D11*
X237800000Y-275100000D03*
D12*
X240340000Y-275100000D03*
D17*
X92900000Y-246200000D03*
D15*
X90360000Y-246200000D03*
X87820000Y-246200000D03*
X85280000Y-246200000D03*
X82740000Y-246200000D03*
X80200000Y-246200000D03*
X77660000Y-246200000D03*
X75120000Y-246200000D03*
X75120000Y-253820000D03*
X77660000Y-253820000D03*
X80200000Y-253820000D03*
X82740000Y-253820000D03*
X85280000Y-253820000D03*
X87820000Y-253820000D03*
X90360000Y-253820000D03*
X92900000Y-253820000D03*
D14*
X99000000Y-334810000D03*
D15*
X99000000Y-327190000D03*
D11*
X213525000Y-275100000D03*
D12*
X216065000Y-275100000D03*
D14*
X129800000Y-159550000D03*
X129800000Y-157050000D03*
M02*
