M48
; DRILL file {KiCad 6.0.7-1.fc36} date Sa 06 Aug 2022 18:58:08 CEST
; FORMAT={-:-/ absolute / metric / decimal}
; #@! TF.CreationDate,2022-08-06T18:58:08+02:00
; #@! TF.GenerationSoftware,Kicad,Pcbnew,6.0.7-1.fc36
; #@! TF.FileFunction,Plated,1,2,PTH
FMAT,2
METRIC
; #@! TA.AperFunction,Plated,PTH,ViaDrill
T1C0.400
; #@! TA.AperFunction,Plated,PTH,ComponentDrill
T2C0.750
; #@! TA.AperFunction,Plated,PTH,ComponentDrill
T3C0.800
; #@! TA.AperFunction,Plated,PTH,ComponentDrill
T4C0.900
; #@! TA.AperFunction,Plated,PTH,ComponentDrill
T5C1.000
; #@! TA.AperFunction,Plated,PTH,ComponentDrill
T6C1.100
; #@! TA.AperFunction,Plated,PTH,ComponentDrill
T7C1.220
; #@! TA.AperFunction,Plated,PTH,ComponentDrill
T8C1.420
; #@! TA.AperFunction,Plated,PTH,ComponentDrill
T9C1.430
%
G90
G05
T1
X137.5Y-321.06
X138.496Y-320.977
X139.5Y-321.0
X139.5Y-327.0
X139.5Y-331.5
X141.5Y-327.0
X148.9Y-180.8
X184.2Y-325.5
T2
X154.13Y-154.235
X154.13Y-155.505
X154.13Y-156.775
X170.53Y-154.235
X170.53Y-155.505
X170.53Y-156.775
T3
X75.12Y-246.2
X75.12Y-253.82
X75.12Y-327.2
X75.12Y-334.82
X77.66Y-246.2
X77.66Y-253.82
X77.66Y-327.2
X77.66Y-334.82
X80.2Y-246.2
X80.2Y-253.82
X80.2Y-327.2
X80.2Y-334.82
X82.74Y-246.2
X82.74Y-253.82
X82.74Y-327.2
X82.74Y-334.82
X85.28Y-246.2
X85.28Y-253.82
X85.28Y-327.2
X85.28Y-334.82
X87.82Y-246.2
X87.82Y-253.82
X87.82Y-327.2
X87.82Y-334.82
X90.36Y-246.2
X90.36Y-253.82
X90.36Y-327.2
X90.36Y-334.82
X92.9Y-246.2
X92.9Y-253.82
X92.9Y-327.2
X92.9Y-334.82
X99.0Y-327.19
X99.0Y-334.81
X99.5Y-244.69
X99.5Y-252.31
X106.0Y-244.69
X106.0Y-252.31
X112.62Y-245.7
X112.62Y-253.32
X112.62Y-327.2
X112.62Y-334.82
X115.16Y-245.7
X115.16Y-253.32
X115.16Y-327.2
X115.16Y-334.82
X117.7Y-245.7
X117.7Y-253.32
X117.7Y-327.2
X117.7Y-334.82
X119.99Y-173.6
X120.0Y-148.75
X120.0Y-151.25
X120.09Y-177.9
X120.09Y-182.5
X120.09Y-186.8
X120.09Y-191.0
X120.09Y-195.2
X120.09Y-199.4
X120.09Y-203.6
X120.1Y-157.05
X120.1Y-159.55
X120.24Y-245.7
X120.24Y-253.32
X120.24Y-327.2
X120.24Y-334.82
X121.85Y-209.3
X122.78Y-245.7
X122.78Y-253.32
X122.78Y-327.2
X122.78Y-334.82
X123.1Y-148.7
X123.1Y-151.2
X123.3Y-157.05
X123.3Y-159.55
X123.95Y-214.8
X124.35Y-209.3
X125.32Y-245.7
X125.32Y-253.32
X125.32Y-327.2
X125.32Y-334.82
X126.4Y-148.7
X126.4Y-151.2
X126.7Y-157.05
X126.7Y-159.55
X127.3Y-209.3
X127.61Y-173.6
X127.71Y-177.9
X127.71Y-182.5
X127.71Y-186.8
X127.71Y-191.0
X127.71Y-195.2
X127.71Y-199.4
X127.71Y-203.6
X127.86Y-245.7
X127.86Y-253.32
X127.86Y-327.2
X127.86Y-334.82
X128.85Y-214.8
X129.7Y-148.7
X129.7Y-151.2
X129.8Y-157.05
X129.8Y-159.55
X129.8Y-209.3
X130.4Y-245.7
X130.4Y-253.32
X130.4Y-327.2
X130.4Y-334.82
X135.68Y-210.7
X135.68Y-218.32
X136.5Y-327.19
X136.5Y-334.81
X138.0Y-179.1
X138.0Y-181.64
X138.0Y-184.18
X138.0Y-186.72
X138.0Y-189.26
X138.0Y-191.8
X138.0Y-194.34
X138.0Y-196.88
X138.22Y-210.7
X138.22Y-218.32
X140.76Y-210.7
X140.76Y-218.32
X143.3Y-210.7
X143.3Y-218.32
X145.62Y-179.1
X145.62Y-181.64
X145.62Y-184.18
X145.62Y-186.72
X145.62Y-189.26
X145.62Y-191.8
X145.62Y-194.34
X145.62Y-196.88
X145.84Y-210.7
X145.84Y-218.32
X146.89Y-322.6
X146.99Y-326.1
X147.19Y-330.0
X148.38Y-210.7
X148.38Y-218.32
X150.92Y-210.7
X150.92Y-218.32
X152.3Y-179.1
X152.3Y-181.64
X152.3Y-184.18
X152.3Y-186.72
X152.3Y-189.26
X152.3Y-191.8
X152.3Y-194.34
X152.3Y-196.88
X153.46Y-210.7
X153.46Y-218.32
X154.51Y-322.6
X154.61Y-326.1
X154.81Y-330.0
X156.0Y-210.7
X156.0Y-218.32
X157.3Y-322.65
X157.3Y-325.15
X157.3Y-327.5
X157.3Y-330.0
X158.54Y-210.7
X158.54Y-218.32
X159.3Y-141.39
X159.3Y-149.01
X159.92Y-179.1
X159.92Y-181.64
X159.92Y-184.18
X159.92Y-186.72
X159.92Y-189.26
X159.92Y-191.8
X159.92Y-194.34
X159.92Y-196.88
X160.5Y-322.19
X160.5Y-329.81
X160.6Y-153.99
X160.6Y-161.61
X161.08Y-210.7
X161.08Y-218.32
X161.5Y-288.19
X161.5Y-295.81
X161.5Y-299.69
X161.5Y-307.31
X163.62Y-210.7
X163.62Y-218.32
X164.8Y-153.99
X164.8Y-161.61
X166.16Y-210.7
X166.16Y-218.32
X166.26Y-319.0
X166.26Y-326.62
X166.29Y-187.3
X166.29Y-191.7
X166.29Y-196.3
X166.29Y-200.8
X166.39Y-178.5
X166.39Y-182.9
X166.49Y-169.6
X166.49Y-174.1
X168.7Y-210.7
X168.7Y-218.32
X168.8Y-319.0
X168.8Y-326.62
X171.34Y-319.0
X171.34Y-326.62
X171.7Y-141.38
X171.7Y-149.0
X173.88Y-319.0
X173.88Y-326.62
X173.91Y-187.3
X173.91Y-191.7
X173.91Y-196.3
X173.91Y-200.8
X174.01Y-178.5
X174.01Y-182.9
X174.11Y-169.6
X174.11Y-174.1
X176.42Y-319.0
X176.42Y-326.62
X178.96Y-319.0
X178.96Y-326.62
X181.5Y-319.0
X181.5Y-326.62
X220.325Y-329.68
X220.325Y-337.3
X222.865Y-329.68
X222.865Y-337.3
X225.405Y-329.68
X225.405Y-337.3
X227.945Y-329.68
X227.945Y-337.3
X230.485Y-329.68
X230.485Y-337.3
X233.025Y-329.68
X233.025Y-337.3
X235.565Y-329.68
X235.565Y-337.3
X238.105Y-329.68
X238.105Y-337.3
X240.645Y-329.68
X240.645Y-337.3
X243.185Y-329.68
X243.185Y-337.3
X245.725Y-329.68
X245.725Y-337.3
X248.265Y-329.68
X248.265Y-337.3
X254.3Y-329.59
X254.3Y-337.21
T4
X80.0Y-263.885
X80.0Y-266.425
X80.0Y-279.735
X80.0Y-282.275
X80.0Y-295.46
X80.0Y-298.0
X80.0Y-310.735
X80.0Y-313.275
X97.5Y-263.735
X97.5Y-266.275
X97.5Y-279.735
X97.5Y-282.275
X97.5Y-295.235
X97.5Y-297.775
X97.5Y-311.01
X97.5Y-313.55
X117.5Y-263.51
X117.5Y-266.05
X117.5Y-279.235
X117.5Y-281.775
X117.5Y-295.46
X117.5Y-298.0
X117.5Y-311.235
X117.5Y-313.775
X133.5Y-263.0
X133.5Y-265.54
X133.5Y-278.735
X133.5Y-281.275
X133.5Y-294.96
X133.5Y-297.5
X133.5Y-311.235
X133.5Y-313.775
X200.76Y-262.6
X200.8Y-287.1
X200.8Y-323.6
X201.025Y-275.1
X201.025Y-299.6
X201.025Y-311.1
X203.3Y-262.6
X203.34Y-287.1
X203.34Y-323.6
X203.565Y-275.1
X203.565Y-299.6
X203.565Y-311.1
X213.26Y-262.6
X213.525Y-275.1
X213.525Y-287.1
X213.525Y-299.6
X213.525Y-311.1
X213.525Y-323.6
X215.8Y-262.6
X216.065Y-275.1
X216.065Y-287.1
X216.065Y-299.6
X216.065Y-311.1
X216.065Y-323.6
X225.76Y-262.6
X225.76Y-275.1
X225.76Y-287.1
X225.76Y-299.6
X225.76Y-311.1
X225.76Y-323.6
X228.3Y-262.6
X228.3Y-275.1
X228.3Y-287.1
X228.3Y-299.6
X228.3Y-311.1
X228.3Y-323.6
X237.8Y-275.1
X238.025Y-262.6
X238.025Y-287.1
X238.025Y-299.6
X238.025Y-311.1
X238.025Y-323.6
X240.34Y-275.1
X240.565Y-262.6
X240.565Y-287.1
X240.565Y-299.6
X240.565Y-311.1
X240.565Y-323.6
X251.025Y-262.6
X251.25Y-275.1
X251.25Y-287.1
X251.25Y-299.6
X251.25Y-311.1
X251.25Y-323.6
X253.565Y-262.6
X253.79Y-275.1
X253.79Y-287.1
X253.79Y-299.6
X253.79Y-311.1
X253.79Y-323.6
X263.26Y-262.6
X263.485Y-275.1
X263.485Y-287.1
X263.485Y-299.6
X263.485Y-311.1
X263.485Y-323.6
X265.8Y-262.6
X266.025Y-275.1
X266.025Y-287.1
X266.025Y-299.6
X266.025Y-311.1
X266.025Y-323.6
T5
X77.5Y-273.11
X77.5Y-289.14
X77.5Y-304.65
X77.5Y-320.15
X80.0Y-273.11
X80.0Y-289.14
X80.0Y-304.65
X80.0Y-320.15
X82.5Y-273.11
X82.5Y-289.14
X82.5Y-304.65
X82.5Y-320.15
X95.0Y-273.0
X95.0Y-289.0
X95.0Y-304.5
X95.0Y-320.0
X97.5Y-273.0
X97.5Y-289.0
X97.5Y-304.5
X97.5Y-320.0
X100.0Y-273.0
X100.0Y-289.0
X100.0Y-304.5
X100.0Y-320.0
X110.46Y-146.88
X110.46Y-149.42
X110.46Y-151.96
X110.46Y-154.5
X110.46Y-157.04
X113.0Y-146.88
X113.0Y-149.42
X113.0Y-151.96
X113.0Y-154.5
X113.0Y-157.04
X115.0Y-272.275
X115.0Y-288.275
X115.0Y-304.275
X115.0Y-320.0
X117.5Y-272.275
X117.5Y-288.275
X117.5Y-304.275
X117.5Y-320.0
X118.82Y-135.5
X120.0Y-272.275
X120.0Y-288.275
X120.0Y-304.275
X120.0Y-320.0
X121.36Y-135.5
X123.9Y-135.5
X126.44Y-135.5
X128.98Y-135.5
X131.0Y-272.0
X131.0Y-287.775
X131.0Y-304.0
X131.0Y-320.0
X131.52Y-135.5
X131.52Y-223.1
X133.5Y-272.0
X133.5Y-287.775
X133.5Y-304.0
X133.5Y-320.0
X134.06Y-135.5
X134.06Y-223.1
X136.0Y-272.0
X136.0Y-287.775
X136.0Y-304.0
X136.0Y-320.0
X136.6Y-135.5
X136.6Y-223.1
X139.14Y-135.5
X139.14Y-223.1
X141.68Y-135.5
X141.68Y-223.1
X144.22Y-135.5
X144.22Y-223.1
X145.0Y-249.5
X145.0Y-337.0
X146.76Y-135.5
X146.76Y-223.1
X147.54Y-249.5
X147.54Y-337.0
X149.3Y-135.5
X149.3Y-223.1
X150.08Y-249.5
X150.08Y-337.0
X151.84Y-135.5
X151.84Y-223.1
X152.62Y-249.5
X152.62Y-337.0
X154.38Y-135.5
X154.38Y-223.1
X155.16Y-249.5
X155.16Y-337.0
X156.92Y-135.5
X156.92Y-223.1
X157.7Y-249.5
X157.7Y-337.0
X159.46Y-135.5
X159.46Y-223.1
X160.24Y-249.5
X160.24Y-337.0
X162.0Y-135.5
X162.0Y-223.1
X162.78Y-249.5
X162.78Y-337.0
X165.32Y-249.5
X165.32Y-337.0
X167.86Y-249.5
X167.86Y-337.0
X170.4Y-249.5
X170.4Y-337.0
X172.94Y-249.5
X172.94Y-337.0
X174.0Y-212.825
X174.0Y-215.365
X175.48Y-249.5
X175.48Y-337.0
X178.02Y-249.5
X180.56Y-249.5
X183.1Y-249.5
X185.64Y-249.5
X188.18Y-249.5
T6
X112.855Y-165.26
X112.855Y-167.8
X112.855Y-170.34
X153.1Y-140.32
X153.1Y-150.48
X165.3Y-140.52
X165.3Y-150.68
T7
X146.22Y-266.5
X146.22Y-278.0
X146.22Y-292.0
X146.22Y-303.0
X146.22Y-314.0
T8
X149.32Y-266.5
X149.32Y-278.0
X149.32Y-292.0
X149.32Y-303.0
X149.32Y-314.0
T9
X157.62Y-266.5
X157.62Y-278.0
X157.62Y-292.0
X157.62Y-303.0
X157.62Y-314.0
T5
X170.46Y-271.9G85X170.46Y-270.9
G05
X170.46Y-284.5G85X170.46Y-283.5
G05
X170.46Y-297.0G85X170.46Y-296.0
G05
X170.46Y-309.5G85X170.46Y-308.5
G05
X175.54Y-271.9G85X175.54Y-270.9
G05
X175.54Y-284.5G85X175.54Y-283.5
G05
X175.54Y-297.0G85X175.54Y-296.0
G05
X175.54Y-309.5G85X175.54Y-308.5
G05
X187.92Y-262.5G85X187.92Y-263.5
G05
X187.92Y-275.0G85X187.92Y-276.0
G05
X187.92Y-287.5G85X187.92Y-288.5
G05
X188.42Y-300.0G85X188.42Y-301.0
G05
X188.42Y-312.5G85X188.42Y-313.5
G05
X188.42Y-325.0G85X188.42Y-326.0
G05
X193.0Y-262.5G85X193.0Y-263.5
G05
X193.0Y-275.0G85X193.0Y-276.0
G05
X193.0Y-287.5G85X193.0Y-288.5
G05
X193.5Y-300.0G85X193.5Y-301.0
G05
X193.5Y-312.5G85X193.5Y-313.5
G05
X193.5Y-325.0G85X193.5Y-326.0
G05
X201.5Y-249.96G85X202.5Y-249.96
G05
X201.5Y-255.04G85X202.5Y-255.04
G05
X214.0Y-249.96G85X215.0Y-249.96
G05
X214.0Y-255.04G85X215.0Y-255.04
G05
X226.5Y-249.96G85X227.5Y-249.96
G05
X226.5Y-255.04G85X227.5Y-255.04
G05
X239.0Y-249.46G85X240.0Y-249.46
G05
X239.0Y-254.54G85X240.0Y-254.54
G05
X251.5Y-249.46G85X252.5Y-249.46
G05
X251.5Y-254.54G85X252.5Y-254.54
G05
X264.0Y-249.46G85X265.0Y-249.46
G05
X264.0Y-254.54G85X265.0Y-254.54
G05
T6
X75.2Y-265.96G85X75.2Y-265.26
G05
X75.2Y-281.99G85X75.2Y-281.29
G05
X75.2Y-297.5G85X75.2Y-296.8
G05
X75.2Y-313.0G85X75.2Y-312.3
G05
X84.8Y-265.96G85X84.8Y-265.26
G05
X84.8Y-281.99G85X84.8Y-281.29
G05
X84.8Y-297.5G85X84.8Y-296.8
G05
X84.8Y-313.0G85X84.8Y-312.3
G05
X92.7Y-265.85G85X92.7Y-265.15
G05
X92.7Y-281.85G85X92.7Y-281.15
G05
X92.7Y-297.35G85X92.7Y-296.65
G05
X92.7Y-312.85G85X92.7Y-312.15
G05
X102.3Y-265.85G85X102.3Y-265.15
G05
X102.3Y-281.85G85X102.3Y-281.15
G05
X102.3Y-297.35G85X102.3Y-296.65
G05
X102.3Y-312.85G85X102.3Y-312.15
G05
X112.7Y-265.125G85X112.7Y-264.425
G05
X112.7Y-281.125G85X112.7Y-280.425
G05
X112.7Y-297.125G85X112.7Y-296.425
G05
X112.7Y-312.85G85X112.7Y-312.15
G05
X122.3Y-265.125G85X122.3Y-264.425
G05
X122.3Y-281.125G85X122.3Y-280.425
G05
X122.3Y-297.125G85X122.3Y-296.425
G05
X122.3Y-312.85G85X122.3Y-312.15
G05
X128.7Y-264.85G85X128.7Y-264.15
G05
X128.7Y-280.625G85X128.7Y-279.925
G05
X128.7Y-296.85G85X128.7Y-296.15
G05
X128.7Y-312.85G85X128.7Y-312.15
G05
X138.3Y-264.85G85X138.3Y-264.15
G05
X138.3Y-280.625G85X138.3Y-279.925
G05
X138.3Y-296.85G85X138.3Y-296.15
G05
X138.3Y-312.85G85X138.3Y-312.15
G05
T0
M30
