G04 #@! TF.GenerationSoftware,KiCad,Pcbnew,6.0.5-2.fc35*
G04 #@! TF.CreationDate,2022-07-06T13:12:01+02:00*
G04 #@! TF.ProjectId,front,66726f6e-742e-46b6-9963-61645f706362,rev?*
G04 #@! TF.SameCoordinates,Original*
G04 #@! TF.FileFunction,Legend,Top*
G04 #@! TF.FilePolarity,Positive*
%FSLAX46Y46*%
G04 Gerber Fmt 4.6, Leading zero omitted, Abs format (unit mm)*
G04 Created by KiCad (PCBNEW 6.0.5-2.fc35) date 2022-07-06 13:12:01*
%MOMM*%
%LPD*%
G01*
G04 APERTURE LIST*
%ADD10C,0.150000*%
%ADD11C,0.120000*%
%ADD12R,1.800000X1.800000*%
%ADD13C,1.800000*%
%ADD14C,1.600000*%
%ADD15O,1.600000X1.600000*%
%ADD16R,1.600000X1.600000*%
%ADD17O,2.000000X3.000000*%
%ADD18R,0.850000X0.850000*%
%ADD19O,0.850000X0.850000*%
%ADD20O,3.000000X2.000000*%
%ADD21O,2.720000X3.240000*%
%ADD22R,1.830000X1.930000*%
%ADD23C,2.130000*%
G04 APERTURE END LIST*
D10*
X178280714Y-76992380D02*
X178280714Y-75992380D01*
X178518809Y-75992380D01*
X178661666Y-76040000D01*
X178756904Y-76135238D01*
X178804523Y-76230476D01*
X178852142Y-76420952D01*
X178852142Y-76563809D01*
X178804523Y-76754285D01*
X178756904Y-76849523D01*
X178661666Y-76944761D01*
X178518809Y-76992380D01*
X178280714Y-76992380D01*
X179233095Y-76087619D02*
X179280714Y-76040000D01*
X179375952Y-75992380D01*
X179614047Y-75992380D01*
X179709285Y-76040000D01*
X179756904Y-76087619D01*
X179804523Y-76182857D01*
X179804523Y-76278095D01*
X179756904Y-76420952D01*
X179185476Y-76992380D01*
X179804523Y-76992380D01*
X180661666Y-76325714D02*
X180661666Y-76992380D01*
X180423571Y-75944761D02*
X180185476Y-76659047D01*
X180804523Y-76659047D01*
X61582380Y-132166666D02*
X61106190Y-132500000D01*
X61582380Y-132738095D02*
X60582380Y-132738095D01*
X60582380Y-132357142D01*
X60630000Y-132261904D01*
X60677619Y-132214285D01*
X60772857Y-132166666D01*
X60915714Y-132166666D01*
X61010952Y-132214285D01*
X61058571Y-132261904D01*
X61106190Y-132357142D01*
X61106190Y-132738095D01*
X61582380Y-131214285D02*
X61582380Y-131785714D01*
X61582380Y-131500000D02*
X60582380Y-131500000D01*
X60725238Y-131595238D01*
X60820476Y-131690476D01*
X60868095Y-131785714D01*
X60134761Y-54414761D02*
X60182380Y-54271904D01*
X60182380Y-54033809D01*
X60134761Y-53938571D01*
X60087142Y-53890952D01*
X59991904Y-53843333D01*
X59896666Y-53843333D01*
X59801428Y-53890952D01*
X59753809Y-53938571D01*
X59706190Y-54033809D01*
X59658571Y-54224285D01*
X59610952Y-54319523D01*
X59563333Y-54367142D01*
X59468095Y-54414761D01*
X59372857Y-54414761D01*
X59277619Y-54367142D01*
X59230000Y-54319523D01*
X59182380Y-54224285D01*
X59182380Y-53986190D01*
X59230000Y-53843333D01*
X60277619Y-52748095D02*
X60230000Y-52843333D01*
X60134761Y-52938571D01*
X59991904Y-53081428D01*
X59944285Y-53176666D01*
X59944285Y-53271904D01*
X60182380Y-53224285D02*
X60134761Y-53319523D01*
X60039523Y-53414761D01*
X59849047Y-53462380D01*
X59515714Y-53462380D01*
X59325238Y-53414761D01*
X59230000Y-53319523D01*
X59182380Y-53224285D01*
X59182380Y-53033809D01*
X59230000Y-52938571D01*
X59325238Y-52843333D01*
X59515714Y-52795714D01*
X59849047Y-52795714D01*
X60039523Y-52843333D01*
X60134761Y-52938571D01*
X60182380Y-53033809D01*
X60182380Y-53224285D01*
X60182380Y-51843333D02*
X60182380Y-52414761D01*
X60182380Y-52129047D02*
X59182380Y-52129047D01*
X59325238Y-52224285D01*
X59420476Y-52319523D01*
X59468095Y-52414761D01*
X60182380Y-51414761D02*
X59182380Y-51414761D01*
X59182380Y-51033809D01*
X59230000Y-50938571D01*
X59277619Y-50890952D01*
X59372857Y-50843333D01*
X59515714Y-50843333D01*
X59610952Y-50890952D01*
X59658571Y-50938571D01*
X59706190Y-51033809D01*
X59706190Y-51414761D01*
X60182380Y-50271904D02*
X60134761Y-50367142D01*
X60087142Y-50414761D01*
X59991904Y-50462380D01*
X59706190Y-50462380D01*
X59610952Y-50414761D01*
X59563333Y-50367142D01*
X59515714Y-50271904D01*
X59515714Y-50129047D01*
X59563333Y-50033809D01*
X59610952Y-49986190D01*
X59706190Y-49938571D01*
X59991904Y-49938571D01*
X60087142Y-49986190D01*
X60134761Y-50033809D01*
X60182380Y-50129047D01*
X60182380Y-50271904D01*
X59515714Y-49652857D02*
X59515714Y-49271904D01*
X59182380Y-49510000D02*
X60039523Y-49510000D01*
X60134761Y-49462380D01*
X60182380Y-49367142D01*
X60182380Y-49271904D01*
X60134761Y-48986190D02*
X60182380Y-48890952D01*
X60182380Y-48700476D01*
X60134761Y-48605238D01*
X60039523Y-48557619D01*
X59991904Y-48557619D01*
X59896666Y-48605238D01*
X59849047Y-48700476D01*
X59849047Y-48843333D01*
X59801428Y-48938571D01*
X59706190Y-48986190D01*
X59658571Y-48986190D01*
X59563333Y-48938571D01*
X59515714Y-48843333D01*
X59515714Y-48700476D01*
X59563333Y-48605238D01*
X60182380Y-47605238D02*
X60182380Y-48176666D01*
X60182380Y-47890952D02*
X59182380Y-47890952D01*
X59325238Y-47986190D01*
X59420476Y-48081428D01*
X59468095Y-48176666D01*
X202555714Y-76992380D02*
X202555714Y-75992380D01*
X202793809Y-75992380D01*
X202936666Y-76040000D01*
X203031904Y-76135238D01*
X203079523Y-76230476D01*
X203127142Y-76420952D01*
X203127142Y-76563809D01*
X203079523Y-76754285D01*
X203031904Y-76849523D01*
X202936666Y-76944761D01*
X202793809Y-76992380D01*
X202555714Y-76992380D01*
X203508095Y-76087619D02*
X203555714Y-76040000D01*
X203650952Y-75992380D01*
X203889047Y-75992380D01*
X203984285Y-76040000D01*
X204031904Y-76087619D01*
X204079523Y-76182857D01*
X204079523Y-76278095D01*
X204031904Y-76420952D01*
X203460476Y-76992380D01*
X204079523Y-76992380D01*
X204936666Y-75992380D02*
X204746190Y-75992380D01*
X204650952Y-76040000D01*
X204603333Y-76087619D01*
X204508095Y-76230476D01*
X204460476Y-76420952D01*
X204460476Y-76801904D01*
X204508095Y-76897142D01*
X204555714Y-76944761D01*
X204650952Y-76992380D01*
X204841428Y-76992380D01*
X204936666Y-76944761D01*
X204984285Y-76897142D01*
X205031904Y-76801904D01*
X205031904Y-76563809D01*
X204984285Y-76468571D01*
X204936666Y-76420952D01*
X204841428Y-76373333D01*
X204650952Y-76373333D01*
X204555714Y-76420952D01*
X204508095Y-76468571D01*
X204460476Y-76563809D01*
X136166666Y-115404761D02*
X136309523Y-115452380D01*
X136547619Y-115452380D01*
X136642857Y-115404761D01*
X136690476Y-115357142D01*
X136738095Y-115261904D01*
X136738095Y-115166666D01*
X136690476Y-115071428D01*
X136642857Y-115023809D01*
X136547619Y-114976190D01*
X136357142Y-114928571D01*
X136261904Y-114880952D01*
X136214285Y-114833333D01*
X136166666Y-114738095D01*
X136166666Y-114642857D01*
X136214285Y-114547619D01*
X136261904Y-114500000D01*
X136357142Y-114452380D01*
X136595238Y-114452380D01*
X136738095Y-114500000D01*
X137071428Y-114452380D02*
X137309523Y-115452380D01*
X137500000Y-114738095D01*
X137690476Y-115452380D01*
X137928571Y-114452380D01*
X138738095Y-114785714D02*
X138738095Y-115452380D01*
X138500000Y-114404761D02*
X138261904Y-115119047D01*
X138880952Y-115119047D01*
X62082380Y-49666666D02*
X61606190Y-50000000D01*
X62082380Y-50238095D02*
X61082380Y-50238095D01*
X61082380Y-49857142D01*
X61130000Y-49761904D01*
X61177619Y-49714285D01*
X61272857Y-49666666D01*
X61415714Y-49666666D01*
X61510952Y-49714285D01*
X61558571Y-49761904D01*
X61606190Y-49857142D01*
X61606190Y-50238095D01*
X61082380Y-49333333D02*
X61082380Y-48714285D01*
X61463333Y-49047619D01*
X61463333Y-48904761D01*
X61510952Y-48809523D01*
X61558571Y-48761904D01*
X61653809Y-48714285D01*
X61891904Y-48714285D01*
X61987142Y-48761904D01*
X62034761Y-48809523D01*
X62082380Y-48904761D01*
X62082380Y-49190476D01*
X62034761Y-49285714D01*
X61987142Y-49333333D01*
X45952380Y-62952380D02*
X45476190Y-62952380D01*
X45476190Y-61952380D01*
X46285714Y-62428571D02*
X46619047Y-62428571D01*
X46761904Y-62952380D02*
X46285714Y-62952380D01*
X46285714Y-61952380D01*
X46761904Y-61952380D01*
X47190476Y-62952380D02*
X47190476Y-61952380D01*
X47428571Y-61952380D01*
X47571428Y-62000000D01*
X47666666Y-62095238D01*
X47714285Y-62190476D01*
X47761904Y-62380952D01*
X47761904Y-62523809D01*
X47714285Y-62714285D01*
X47666666Y-62809523D01*
X47571428Y-62904761D01*
X47428571Y-62952380D01*
X47190476Y-62952380D01*
X48142857Y-62666666D02*
X48619047Y-62666666D01*
X48047619Y-62952380D02*
X48380952Y-61952380D01*
X48714285Y-62952380D01*
X49571428Y-62952380D02*
X49000000Y-62952380D01*
X49285714Y-62952380D02*
X49285714Y-61952380D01*
X49190476Y-62095238D01*
X49095238Y-62190476D01*
X49000000Y-62238095D01*
X228240714Y-76992380D02*
X228240714Y-75992380D01*
X228478809Y-75992380D01*
X228621666Y-76040000D01*
X228716904Y-76135238D01*
X228764523Y-76230476D01*
X228812142Y-76420952D01*
X228812142Y-76563809D01*
X228764523Y-76754285D01*
X228716904Y-76849523D01*
X228621666Y-76944761D01*
X228478809Y-76992380D01*
X228240714Y-76992380D01*
X229193095Y-76087619D02*
X229240714Y-76040000D01*
X229335952Y-75992380D01*
X229574047Y-75992380D01*
X229669285Y-76040000D01*
X229716904Y-76087619D01*
X229764523Y-76182857D01*
X229764523Y-76278095D01*
X229716904Y-76420952D01*
X229145476Y-76992380D01*
X229764523Y-76992380D01*
X230335952Y-76420952D02*
X230240714Y-76373333D01*
X230193095Y-76325714D01*
X230145476Y-76230476D01*
X230145476Y-76182857D01*
X230193095Y-76087619D01*
X230240714Y-76040000D01*
X230335952Y-75992380D01*
X230526428Y-75992380D01*
X230621666Y-76040000D01*
X230669285Y-76087619D01*
X230716904Y-76182857D01*
X230716904Y-76230476D01*
X230669285Y-76325714D01*
X230621666Y-76373333D01*
X230526428Y-76420952D01*
X230335952Y-76420952D01*
X230240714Y-76468571D01*
X230193095Y-76516190D01*
X230145476Y-76611428D01*
X230145476Y-76801904D01*
X230193095Y-76897142D01*
X230240714Y-76944761D01*
X230335952Y-76992380D01*
X230526428Y-76992380D01*
X230621666Y-76944761D01*
X230669285Y-76897142D01*
X230716904Y-76801904D01*
X230716904Y-76611428D01*
X230669285Y-76516190D01*
X230621666Y-76468571D01*
X230526428Y-76420952D01*
X108344761Y-133000000D02*
X108392380Y-133095238D01*
X108392380Y-133285714D01*
X108344761Y-133380952D01*
X108297142Y-133428571D01*
X108201904Y-133476190D01*
X107916190Y-133476190D01*
X107820952Y-133428571D01*
X107773333Y-133380952D01*
X107725714Y-133285714D01*
X107725714Y-133095238D01*
X107773333Y-133000000D01*
X108392380Y-132428571D02*
X108344761Y-132523809D01*
X108297142Y-132571428D01*
X108201904Y-132619047D01*
X107916190Y-132619047D01*
X107820952Y-132571428D01*
X107773333Y-132523809D01*
X107725714Y-132428571D01*
X107725714Y-132285714D01*
X107773333Y-132190476D01*
X107820952Y-132142857D01*
X107916190Y-132095238D01*
X108201904Y-132095238D01*
X108297142Y-132142857D01*
X108344761Y-132190476D01*
X108392380Y-132285714D01*
X108392380Y-132428571D01*
X107725714Y-131666666D02*
X108392380Y-131666666D01*
X107820952Y-131666666D02*
X107773333Y-131619047D01*
X107725714Y-131523809D01*
X107725714Y-131380952D01*
X107773333Y-131285714D01*
X107868571Y-131238095D01*
X108392380Y-131238095D01*
X107868571Y-130428571D02*
X107868571Y-130761904D01*
X108392380Y-130761904D02*
X107392380Y-130761904D01*
X107392380Y-130285714D01*
X108344761Y-129523809D02*
X108392380Y-129619047D01*
X108392380Y-129809523D01*
X108344761Y-129904761D01*
X108249523Y-129952380D01*
X107868571Y-129952380D01*
X107773333Y-129904761D01*
X107725714Y-129809523D01*
X107725714Y-129619047D01*
X107773333Y-129523809D01*
X107868571Y-129476190D01*
X107963809Y-129476190D01*
X108059047Y-129952380D01*
X108392380Y-128523809D02*
X108392380Y-129095238D01*
X108392380Y-128809523D02*
X107392380Y-128809523D01*
X107535238Y-128904761D01*
X107630476Y-129000000D01*
X107678095Y-129095238D01*
X46452380Y-94677380D02*
X45976190Y-94677380D01*
X45976190Y-93677380D01*
X46785714Y-94153571D02*
X47119047Y-94153571D01*
X47261904Y-94677380D02*
X46785714Y-94677380D01*
X46785714Y-93677380D01*
X47261904Y-93677380D01*
X47690476Y-94677380D02*
X47690476Y-93677380D01*
X47928571Y-93677380D01*
X48071428Y-93725000D01*
X48166666Y-93820238D01*
X48214285Y-93915476D01*
X48261904Y-94105952D01*
X48261904Y-94248809D01*
X48214285Y-94439285D01*
X48166666Y-94534523D01*
X48071428Y-94629761D01*
X47928571Y-94677380D01*
X47690476Y-94677380D01*
X48642857Y-94391666D02*
X49119047Y-94391666D01*
X48547619Y-94677380D02*
X48880952Y-93677380D01*
X49214285Y-94677380D01*
X50023809Y-93677380D02*
X49547619Y-93677380D01*
X49500000Y-94153571D01*
X49547619Y-94105952D01*
X49642857Y-94058333D01*
X49880952Y-94058333D01*
X49976190Y-94105952D01*
X50023809Y-94153571D01*
X50071428Y-94248809D01*
X50071428Y-94486904D01*
X50023809Y-94582142D01*
X49976190Y-94629761D01*
X49880952Y-94677380D01*
X49642857Y-94677380D01*
X49547619Y-94629761D01*
X49500000Y-94582142D01*
X136728095Y-137907380D02*
X136728095Y-138716904D01*
X136775714Y-138812142D01*
X136823333Y-138859761D01*
X136918571Y-138907380D01*
X137109047Y-138907380D01*
X137204285Y-138859761D01*
X137251904Y-138812142D01*
X137299523Y-138716904D01*
X137299523Y-137907380D01*
X138299523Y-138907380D02*
X137728095Y-138907380D01*
X138013809Y-138907380D02*
X138013809Y-137907380D01*
X137918571Y-138050238D01*
X137823333Y-138145476D01*
X137728095Y-138193095D01*
X165780714Y-76992380D02*
X165780714Y-75992380D01*
X166018809Y-75992380D01*
X166161666Y-76040000D01*
X166256904Y-76135238D01*
X166304523Y-76230476D01*
X166352142Y-76420952D01*
X166352142Y-76563809D01*
X166304523Y-76754285D01*
X166256904Y-76849523D01*
X166161666Y-76944761D01*
X166018809Y-76992380D01*
X165780714Y-76992380D01*
X166733095Y-76087619D02*
X166780714Y-76040000D01*
X166875952Y-75992380D01*
X167114047Y-75992380D01*
X167209285Y-76040000D01*
X167256904Y-76087619D01*
X167304523Y-76182857D01*
X167304523Y-76278095D01*
X167256904Y-76420952D01*
X166685476Y-76992380D01*
X167304523Y-76992380D01*
X167637857Y-75992380D02*
X168256904Y-75992380D01*
X167923571Y-76373333D01*
X168066428Y-76373333D01*
X168161666Y-76420952D01*
X168209285Y-76468571D01*
X168256904Y-76563809D01*
X168256904Y-76801904D01*
X168209285Y-76897142D01*
X168161666Y-76944761D01*
X168066428Y-76992380D01*
X167780714Y-76992380D01*
X167685476Y-76944761D01*
X167637857Y-76897142D01*
X62976190Y-62802380D02*
X62976190Y-61802380D01*
X63214285Y-61802380D01*
X63357142Y-61850000D01*
X63452380Y-61945238D01*
X63500000Y-62040476D01*
X63547619Y-62230952D01*
X63547619Y-62373809D01*
X63500000Y-62564285D01*
X63452380Y-62659523D01*
X63357142Y-62754761D01*
X63214285Y-62802380D01*
X62976190Y-62802380D01*
X64452380Y-62802380D02*
X63976190Y-62802380D01*
X63976190Y-61802380D01*
X64785714Y-62278571D02*
X65119047Y-62278571D01*
X65261904Y-62802380D02*
X64785714Y-62802380D01*
X64785714Y-61802380D01*
X65261904Y-61802380D01*
X65690476Y-62802380D02*
X65690476Y-61802380D01*
X65928571Y-61802380D01*
X66071428Y-61850000D01*
X66166666Y-61945238D01*
X66214285Y-62040476D01*
X66261904Y-62230952D01*
X66261904Y-62373809D01*
X66214285Y-62564285D01*
X66166666Y-62659523D01*
X66071428Y-62754761D01*
X65928571Y-62802380D01*
X65690476Y-62802380D01*
X66642857Y-62516666D02*
X67119047Y-62516666D01*
X66547619Y-62802380D02*
X66880952Y-61802380D01*
X67214285Y-62802380D01*
X67500000Y-61897619D02*
X67547619Y-61850000D01*
X67642857Y-61802380D01*
X67880952Y-61802380D01*
X67976190Y-61850000D01*
X68023809Y-61897619D01*
X68071428Y-61992857D01*
X68071428Y-62088095D01*
X68023809Y-62230952D01*
X67452380Y-62802380D01*
X68071428Y-62802380D01*
X190690476Y-45952380D02*
X191357142Y-46952380D01*
X191357142Y-45952380D02*
X190690476Y-46952380D01*
X191642857Y-45952380D02*
X192261904Y-45952380D01*
X191928571Y-46333333D01*
X192071428Y-46333333D01*
X192166666Y-46380952D01*
X192214285Y-46428571D01*
X192261904Y-46523809D01*
X192261904Y-46761904D01*
X192214285Y-46857142D01*
X192166666Y-46904761D01*
X192071428Y-46952380D01*
X191785714Y-46952380D01*
X191690476Y-46904761D01*
X191642857Y-46857142D01*
X90788571Y-82469761D02*
X90836190Y-82326904D01*
X90883809Y-82279285D01*
X90979047Y-82231666D01*
X91121904Y-82231666D01*
X91217142Y-82279285D01*
X91264761Y-82326904D01*
X91312380Y-82422142D01*
X91312380Y-82803095D01*
X90312380Y-82803095D01*
X90312380Y-82469761D01*
X90360000Y-82374523D01*
X90407619Y-82326904D01*
X90502857Y-82279285D01*
X90598095Y-82279285D01*
X90693333Y-82326904D01*
X90740952Y-82374523D01*
X90788571Y-82469761D01*
X90788571Y-82803095D01*
X90645714Y-81374523D02*
X91312380Y-81374523D01*
X90264761Y-81612619D02*
X90979047Y-81850714D01*
X90979047Y-81231666D01*
X54666666Y-94489285D02*
X54666666Y-94013095D01*
X54952380Y-94584523D02*
X53952380Y-94251190D01*
X54952380Y-93917857D01*
X53952380Y-93155952D02*
X53952380Y-93346428D01*
X54000000Y-93441666D01*
X54047619Y-93489285D01*
X54190476Y-93584523D01*
X54380952Y-93632142D01*
X54761904Y-93632142D01*
X54857142Y-93584523D01*
X54904761Y-93536904D01*
X54952380Y-93441666D01*
X54952380Y-93251190D01*
X54904761Y-93155952D01*
X54857142Y-93108333D01*
X54761904Y-93060714D01*
X54523809Y-93060714D01*
X54428571Y-93108333D01*
X54380952Y-93155952D01*
X54333333Y-93251190D01*
X54333333Y-93441666D01*
X54380952Y-93536904D01*
X54428571Y-93584523D01*
X54523809Y-93632142D01*
X190515714Y-112992380D02*
X190515714Y-111992380D01*
X190753809Y-111992380D01*
X190896666Y-112040000D01*
X190991904Y-112135238D01*
X191039523Y-112230476D01*
X191087142Y-112420952D01*
X191087142Y-112563809D01*
X191039523Y-112754285D01*
X190991904Y-112849523D01*
X190896666Y-112944761D01*
X190753809Y-112992380D01*
X190515714Y-112992380D01*
X191944285Y-112325714D02*
X191944285Y-112992380D01*
X191706190Y-111944761D02*
X191468095Y-112659047D01*
X192087142Y-112659047D01*
X192372857Y-111992380D02*
X192991904Y-111992380D01*
X192658571Y-112373333D01*
X192801428Y-112373333D01*
X192896666Y-112420952D01*
X192944285Y-112468571D01*
X192991904Y-112563809D01*
X192991904Y-112801904D01*
X192944285Y-112897142D01*
X192896666Y-112944761D01*
X192801428Y-112992380D01*
X192515714Y-112992380D01*
X192420476Y-112944761D01*
X192372857Y-112897142D01*
X228245714Y-88952380D02*
X228245714Y-87952380D01*
X228483809Y-87952380D01*
X228626666Y-88000000D01*
X228721904Y-88095238D01*
X228769523Y-88190476D01*
X228817142Y-88380952D01*
X228817142Y-88523809D01*
X228769523Y-88714285D01*
X228721904Y-88809523D01*
X228626666Y-88904761D01*
X228483809Y-88952380D01*
X228245714Y-88952380D01*
X229150476Y-87952380D02*
X229769523Y-87952380D01*
X229436190Y-88333333D01*
X229579047Y-88333333D01*
X229674285Y-88380952D01*
X229721904Y-88428571D01*
X229769523Y-88523809D01*
X229769523Y-88761904D01*
X229721904Y-88857142D01*
X229674285Y-88904761D01*
X229579047Y-88952380D01*
X229293333Y-88952380D01*
X229198095Y-88904761D01*
X229150476Y-88857142D01*
X230626666Y-88285714D02*
X230626666Y-88952380D01*
X230388571Y-87904761D02*
X230150476Y-88619047D01*
X230769523Y-88619047D01*
X202780714Y-88992380D02*
X202780714Y-87992380D01*
X203018809Y-87992380D01*
X203161666Y-88040000D01*
X203256904Y-88135238D01*
X203304523Y-88230476D01*
X203352142Y-88420952D01*
X203352142Y-88563809D01*
X203304523Y-88754285D01*
X203256904Y-88849523D01*
X203161666Y-88944761D01*
X203018809Y-88992380D01*
X202780714Y-88992380D01*
X203685476Y-87992380D02*
X204304523Y-87992380D01*
X203971190Y-88373333D01*
X204114047Y-88373333D01*
X204209285Y-88420952D01*
X204256904Y-88468571D01*
X204304523Y-88563809D01*
X204304523Y-88801904D01*
X204256904Y-88897142D01*
X204209285Y-88944761D01*
X204114047Y-88992380D01*
X203828333Y-88992380D01*
X203733095Y-88944761D01*
X203685476Y-88897142D01*
X204685476Y-88087619D02*
X204733095Y-88040000D01*
X204828333Y-87992380D01*
X205066428Y-87992380D01*
X205161666Y-88040000D01*
X205209285Y-88087619D01*
X205256904Y-88182857D01*
X205256904Y-88278095D01*
X205209285Y-88420952D01*
X204637857Y-88992380D01*
X205256904Y-88992380D01*
X99380952Y-77952380D02*
X98904761Y-77952380D01*
X98904761Y-76952380D01*
X99714285Y-77428571D02*
X100047619Y-77428571D01*
X100190476Y-77952380D02*
X99714285Y-77952380D01*
X99714285Y-76952380D01*
X100190476Y-76952380D01*
X100619047Y-77952380D02*
X100619047Y-76952380D01*
X100857142Y-76952380D01*
X101000000Y-77000000D01*
X101095238Y-77095238D01*
X101142857Y-77190476D01*
X101190476Y-77380952D01*
X101190476Y-77523809D01*
X101142857Y-77714285D01*
X101095238Y-77809523D01*
X101000000Y-77904761D01*
X100857142Y-77952380D01*
X100619047Y-77952380D01*
X101952380Y-77428571D02*
X102095238Y-77476190D01*
X102142857Y-77523809D01*
X102190476Y-77619047D01*
X102190476Y-77761904D01*
X102142857Y-77857142D01*
X102095238Y-77904761D01*
X102000000Y-77952380D01*
X101619047Y-77952380D01*
X101619047Y-76952380D01*
X101952380Y-76952380D01*
X102047619Y-77000000D01*
X102095238Y-77047619D01*
X102142857Y-77142857D01*
X102142857Y-77238095D01*
X102095238Y-77333333D01*
X102047619Y-77380952D01*
X101952380Y-77428571D01*
X101619047Y-77428571D01*
X103047619Y-77285714D02*
X103047619Y-77952380D01*
X102809523Y-76904761D02*
X102571428Y-77619047D01*
X103190476Y-77619047D01*
X74428571Y-95179761D02*
X74476190Y-95036904D01*
X74523809Y-94989285D01*
X74619047Y-94941666D01*
X74761904Y-94941666D01*
X74857142Y-94989285D01*
X74904761Y-95036904D01*
X74952380Y-95132142D01*
X74952380Y-95513095D01*
X73952380Y-95513095D01*
X73952380Y-95179761D01*
X74000000Y-95084523D01*
X74047619Y-95036904D01*
X74142857Y-94989285D01*
X74238095Y-94989285D01*
X74333333Y-95036904D01*
X74380952Y-95084523D01*
X74428571Y-95179761D01*
X74428571Y-95513095D01*
X73952380Y-94036904D02*
X73952380Y-94513095D01*
X74428571Y-94560714D01*
X74380952Y-94513095D01*
X74333333Y-94417857D01*
X74333333Y-94179761D01*
X74380952Y-94084523D01*
X74428571Y-94036904D01*
X74523809Y-93989285D01*
X74761904Y-93989285D01*
X74857142Y-94036904D01*
X74904761Y-94084523D01*
X74952380Y-94179761D01*
X74952380Y-94417857D01*
X74904761Y-94513095D01*
X74857142Y-94560714D01*
X99380952Y-110227380D02*
X98904761Y-110227380D01*
X98904761Y-109227380D01*
X99714285Y-109703571D02*
X100047619Y-109703571D01*
X100190476Y-110227380D02*
X99714285Y-110227380D01*
X99714285Y-109227380D01*
X100190476Y-109227380D01*
X100619047Y-110227380D02*
X100619047Y-109227380D01*
X100857142Y-109227380D01*
X101000000Y-109275000D01*
X101095238Y-109370238D01*
X101142857Y-109465476D01*
X101190476Y-109655952D01*
X101190476Y-109798809D01*
X101142857Y-109989285D01*
X101095238Y-110084523D01*
X101000000Y-110179761D01*
X100857142Y-110227380D01*
X100619047Y-110227380D01*
X101952380Y-109703571D02*
X102095238Y-109751190D01*
X102142857Y-109798809D01*
X102190476Y-109894047D01*
X102190476Y-110036904D01*
X102142857Y-110132142D01*
X102095238Y-110179761D01*
X102000000Y-110227380D01*
X101619047Y-110227380D01*
X101619047Y-109227380D01*
X101952380Y-109227380D01*
X102047619Y-109275000D01*
X102095238Y-109322619D01*
X102142857Y-109417857D01*
X102142857Y-109513095D01*
X102095238Y-109608333D01*
X102047619Y-109655952D01*
X101952380Y-109703571D01*
X101619047Y-109703571D01*
X102761904Y-109655952D02*
X102666666Y-109608333D01*
X102619047Y-109560714D01*
X102571428Y-109465476D01*
X102571428Y-109417857D01*
X102619047Y-109322619D01*
X102666666Y-109275000D01*
X102761904Y-109227380D01*
X102952380Y-109227380D01*
X103047619Y-109275000D01*
X103095238Y-109322619D01*
X103142857Y-109417857D01*
X103142857Y-109465476D01*
X103095238Y-109560714D01*
X103047619Y-109608333D01*
X102952380Y-109655952D01*
X102761904Y-109655952D01*
X102666666Y-109703571D01*
X102619047Y-109751190D01*
X102571428Y-109846428D01*
X102571428Y-110036904D01*
X102619047Y-110132142D01*
X102666666Y-110179761D01*
X102761904Y-110227380D01*
X102952380Y-110227380D01*
X103047619Y-110179761D01*
X103095238Y-110132142D01*
X103142857Y-110036904D01*
X103142857Y-109846428D01*
X103095238Y-109751190D01*
X103047619Y-109703571D01*
X102952380Y-109655952D01*
X54666666Y-110489285D02*
X54666666Y-110013095D01*
X54952380Y-110584523D02*
X53952380Y-110251190D01*
X54952380Y-109917857D01*
X54380952Y-109441666D02*
X54333333Y-109536904D01*
X54285714Y-109584523D01*
X54190476Y-109632142D01*
X54142857Y-109632142D01*
X54047619Y-109584523D01*
X54000000Y-109536904D01*
X53952380Y-109441666D01*
X53952380Y-109251190D01*
X54000000Y-109155952D01*
X54047619Y-109108333D01*
X54142857Y-109060714D01*
X54190476Y-109060714D01*
X54285714Y-109108333D01*
X54333333Y-109155952D01*
X54380952Y-109251190D01*
X54380952Y-109441666D01*
X54428571Y-109536904D01*
X54476190Y-109584523D01*
X54571428Y-109632142D01*
X54761904Y-109632142D01*
X54857142Y-109584523D01*
X54904761Y-109536904D01*
X54952380Y-109441666D01*
X54952380Y-109251190D01*
X54904761Y-109155952D01*
X54857142Y-109108333D01*
X54761904Y-109060714D01*
X54571428Y-109060714D01*
X54476190Y-109108333D01*
X54428571Y-109155952D01*
X54380952Y-109251190D01*
X154523809Y-113476190D02*
X154523809Y-113952380D01*
X154190476Y-112952380D02*
X154523809Y-113476190D01*
X154857142Y-112952380D01*
X155666666Y-112952380D02*
X155190476Y-112952380D01*
X155142857Y-113428571D01*
X155190476Y-113380952D01*
X155285714Y-113333333D01*
X155523809Y-113333333D01*
X155619047Y-113380952D01*
X155666666Y-113428571D01*
X155714285Y-113523809D01*
X155714285Y-113761904D01*
X155666666Y-113857142D01*
X155619047Y-113904761D01*
X155523809Y-113952380D01*
X155285714Y-113952380D01*
X155190476Y-113904761D01*
X155142857Y-113857142D01*
X190515714Y-125492380D02*
X190515714Y-124492380D01*
X190753809Y-124492380D01*
X190896666Y-124540000D01*
X190991904Y-124635238D01*
X191039523Y-124730476D01*
X191087142Y-124920952D01*
X191087142Y-125063809D01*
X191039523Y-125254285D01*
X190991904Y-125349523D01*
X190896666Y-125444761D01*
X190753809Y-125492380D01*
X190515714Y-125492380D01*
X191944285Y-124825714D02*
X191944285Y-125492380D01*
X191706190Y-124444761D02*
X191468095Y-125159047D01*
X192087142Y-125159047D01*
X192515714Y-125492380D02*
X192706190Y-125492380D01*
X192801428Y-125444761D01*
X192849047Y-125397142D01*
X192944285Y-125254285D01*
X192991904Y-125063809D01*
X192991904Y-124682857D01*
X192944285Y-124587619D01*
X192896666Y-124540000D01*
X192801428Y-124492380D01*
X192610952Y-124492380D01*
X192515714Y-124540000D01*
X192468095Y-124587619D01*
X192420476Y-124682857D01*
X192420476Y-124920952D01*
X192468095Y-125016190D01*
X192515714Y-125063809D01*
X192610952Y-125111428D01*
X192801428Y-125111428D01*
X192896666Y-125063809D01*
X192944285Y-125016190D01*
X192991904Y-124920952D01*
X46452380Y-78802380D02*
X45976190Y-78802380D01*
X45976190Y-77802380D01*
X46785714Y-78278571D02*
X47119047Y-78278571D01*
X47261904Y-78802380D02*
X46785714Y-78802380D01*
X46785714Y-77802380D01*
X47261904Y-77802380D01*
X47690476Y-78802380D02*
X47690476Y-77802380D01*
X47928571Y-77802380D01*
X48071428Y-77850000D01*
X48166666Y-77945238D01*
X48214285Y-78040476D01*
X48261904Y-78230952D01*
X48261904Y-78373809D01*
X48214285Y-78564285D01*
X48166666Y-78659523D01*
X48071428Y-78754761D01*
X47928571Y-78802380D01*
X47690476Y-78802380D01*
X48642857Y-78516666D02*
X49119047Y-78516666D01*
X48547619Y-78802380D02*
X48880952Y-77802380D01*
X49214285Y-78802380D01*
X49452380Y-77802380D02*
X50071428Y-77802380D01*
X49738095Y-78183333D01*
X49880952Y-78183333D01*
X49976190Y-78230952D01*
X50023809Y-78278571D01*
X50071428Y-78373809D01*
X50071428Y-78611904D01*
X50023809Y-78707142D01*
X49976190Y-78754761D01*
X49880952Y-78802380D01*
X49595238Y-78802380D01*
X49500000Y-78754761D01*
X49452380Y-78707142D01*
X216005714Y-125492380D02*
X216005714Y-124492380D01*
X216243809Y-124492380D01*
X216386666Y-124540000D01*
X216481904Y-124635238D01*
X216529523Y-124730476D01*
X216577142Y-124920952D01*
X216577142Y-125063809D01*
X216529523Y-125254285D01*
X216481904Y-125349523D01*
X216386666Y-125444761D01*
X216243809Y-125492380D01*
X216005714Y-125492380D01*
X217481904Y-124492380D02*
X217005714Y-124492380D01*
X216958095Y-124968571D01*
X217005714Y-124920952D01*
X217100952Y-124873333D01*
X217339047Y-124873333D01*
X217434285Y-124920952D01*
X217481904Y-124968571D01*
X217529523Y-125063809D01*
X217529523Y-125301904D01*
X217481904Y-125397142D01*
X217434285Y-125444761D01*
X217339047Y-125492380D01*
X217100952Y-125492380D01*
X217005714Y-125444761D01*
X216958095Y-125397142D01*
X218481904Y-125492380D02*
X217910476Y-125492380D01*
X218196190Y-125492380D02*
X218196190Y-124492380D01*
X218100952Y-124635238D01*
X218005714Y-124730476D01*
X217910476Y-124778095D01*
X54666666Y-64214285D02*
X54666666Y-63738095D01*
X54952380Y-64309523D02*
X53952380Y-63976190D01*
X54952380Y-63642857D01*
X54047619Y-63357142D02*
X54000000Y-63309523D01*
X53952380Y-63214285D01*
X53952380Y-62976190D01*
X54000000Y-62880952D01*
X54047619Y-62833333D01*
X54142857Y-62785714D01*
X54238095Y-62785714D01*
X54380952Y-62833333D01*
X54952380Y-63404761D01*
X54952380Y-62785714D01*
X83880952Y-62227380D02*
X83404761Y-62227380D01*
X83404761Y-61227380D01*
X84214285Y-61703571D02*
X84547619Y-61703571D01*
X84690476Y-62227380D02*
X84214285Y-62227380D01*
X84214285Y-61227380D01*
X84690476Y-61227380D01*
X85119047Y-62227380D02*
X85119047Y-61227380D01*
X85357142Y-61227380D01*
X85500000Y-61275000D01*
X85595238Y-61370238D01*
X85642857Y-61465476D01*
X85690476Y-61655952D01*
X85690476Y-61798809D01*
X85642857Y-61989285D01*
X85595238Y-62084523D01*
X85500000Y-62179761D01*
X85357142Y-62227380D01*
X85119047Y-62227380D01*
X86452380Y-61703571D02*
X86595238Y-61751190D01*
X86642857Y-61798809D01*
X86690476Y-61894047D01*
X86690476Y-62036904D01*
X86642857Y-62132142D01*
X86595238Y-62179761D01*
X86500000Y-62227380D01*
X86119047Y-62227380D01*
X86119047Y-61227380D01*
X86452380Y-61227380D01*
X86547619Y-61275000D01*
X86595238Y-61322619D01*
X86642857Y-61417857D01*
X86642857Y-61513095D01*
X86595238Y-61608333D01*
X86547619Y-61655952D01*
X86452380Y-61703571D01*
X86119047Y-61703571D01*
X87642857Y-62227380D02*
X87071428Y-62227380D01*
X87357142Y-62227380D02*
X87357142Y-61227380D01*
X87261904Y-61370238D01*
X87166666Y-61465476D01*
X87071428Y-61513095D01*
X97634761Y-135057619D02*
X97682380Y-134914761D01*
X97682380Y-134676666D01*
X97634761Y-134581428D01*
X97587142Y-134533809D01*
X97491904Y-134486190D01*
X97396666Y-134486190D01*
X97301428Y-134533809D01*
X97253809Y-134581428D01*
X97206190Y-134676666D01*
X97158571Y-134867142D01*
X97110952Y-134962380D01*
X97063333Y-135010000D01*
X96968095Y-135057619D01*
X96872857Y-135057619D01*
X96777619Y-135010000D01*
X96730000Y-134962380D01*
X96682380Y-134867142D01*
X96682380Y-134629047D01*
X96730000Y-134486190D01*
X97777619Y-133390952D02*
X97730000Y-133486190D01*
X97634761Y-133581428D01*
X97491904Y-133724285D01*
X97444285Y-133819523D01*
X97444285Y-133914761D01*
X97682380Y-133867142D02*
X97634761Y-133962380D01*
X97539523Y-134057619D01*
X97349047Y-134105238D01*
X97015714Y-134105238D01*
X96825238Y-134057619D01*
X96730000Y-133962380D01*
X96682380Y-133867142D01*
X96682380Y-133676666D01*
X96730000Y-133581428D01*
X96825238Y-133486190D01*
X97015714Y-133438571D01*
X97349047Y-133438571D01*
X97539523Y-133486190D01*
X97634761Y-133581428D01*
X97682380Y-133676666D01*
X97682380Y-133867142D01*
X96777619Y-133057619D02*
X96730000Y-133010000D01*
X96682380Y-132914761D01*
X96682380Y-132676666D01*
X96730000Y-132581428D01*
X96777619Y-132533809D01*
X96872857Y-132486190D01*
X96968095Y-132486190D01*
X97110952Y-132533809D01*
X97682380Y-133105238D01*
X97682380Y-132486190D01*
X97682380Y-131581428D02*
X97682380Y-132057619D01*
X96682380Y-132057619D01*
X97634761Y-130867142D02*
X97682380Y-130962380D01*
X97682380Y-131152857D01*
X97634761Y-131248095D01*
X97539523Y-131295714D01*
X97158571Y-131295714D01*
X97063333Y-131248095D01*
X97015714Y-131152857D01*
X97015714Y-130962380D01*
X97063333Y-130867142D01*
X97158571Y-130819523D01*
X97253809Y-130819523D01*
X97349047Y-131295714D01*
X97682380Y-129962380D02*
X96682380Y-129962380D01*
X97634761Y-129962380D02*
X97682380Y-130057619D01*
X97682380Y-130248095D01*
X97634761Y-130343333D01*
X97587142Y-130390952D01*
X97491904Y-130438571D01*
X97206190Y-130438571D01*
X97110952Y-130390952D01*
X97063333Y-130343333D01*
X97015714Y-130248095D01*
X97015714Y-130057619D01*
X97063333Y-129962380D01*
X97682380Y-128962380D02*
X97682380Y-129533809D01*
X97682380Y-129248095D02*
X96682380Y-129248095D01*
X96825238Y-129343333D01*
X96920476Y-129438571D01*
X96968095Y-129533809D01*
X228240714Y-125492380D02*
X228240714Y-124492380D01*
X228478809Y-124492380D01*
X228621666Y-124540000D01*
X228716904Y-124635238D01*
X228764523Y-124730476D01*
X228812142Y-124920952D01*
X228812142Y-125063809D01*
X228764523Y-125254285D01*
X228716904Y-125349523D01*
X228621666Y-125444761D01*
X228478809Y-125492380D01*
X228240714Y-125492380D01*
X229716904Y-124492380D02*
X229240714Y-124492380D01*
X229193095Y-124968571D01*
X229240714Y-124920952D01*
X229335952Y-124873333D01*
X229574047Y-124873333D01*
X229669285Y-124920952D01*
X229716904Y-124968571D01*
X229764523Y-125063809D01*
X229764523Y-125301904D01*
X229716904Y-125397142D01*
X229669285Y-125444761D01*
X229574047Y-125492380D01*
X229335952Y-125492380D01*
X229240714Y-125444761D01*
X229193095Y-125397142D01*
X230145476Y-124587619D02*
X230193095Y-124540000D01*
X230288333Y-124492380D01*
X230526428Y-124492380D01*
X230621666Y-124540000D01*
X230669285Y-124587619D01*
X230716904Y-124682857D01*
X230716904Y-124778095D01*
X230669285Y-124920952D01*
X230097857Y-125492380D01*
X230716904Y-125492380D01*
X46452380Y-109677380D02*
X45976190Y-109677380D01*
X45976190Y-108677380D01*
X46785714Y-109153571D02*
X47119047Y-109153571D01*
X47261904Y-109677380D02*
X46785714Y-109677380D01*
X46785714Y-108677380D01*
X47261904Y-108677380D01*
X47690476Y-109677380D02*
X47690476Y-108677380D01*
X47928571Y-108677380D01*
X48071428Y-108725000D01*
X48166666Y-108820238D01*
X48214285Y-108915476D01*
X48261904Y-109105952D01*
X48261904Y-109248809D01*
X48214285Y-109439285D01*
X48166666Y-109534523D01*
X48071428Y-109629761D01*
X47928571Y-109677380D01*
X47690476Y-109677380D01*
X48642857Y-109391666D02*
X49119047Y-109391666D01*
X48547619Y-109677380D02*
X48880952Y-108677380D01*
X49214285Y-109677380D01*
X49452380Y-108677380D02*
X50119047Y-108677380D01*
X49690476Y-109677380D01*
X178280714Y-88992380D02*
X178280714Y-87992380D01*
X178518809Y-87992380D01*
X178661666Y-88040000D01*
X178756904Y-88135238D01*
X178804523Y-88230476D01*
X178852142Y-88420952D01*
X178852142Y-88563809D01*
X178804523Y-88754285D01*
X178756904Y-88849523D01*
X178661666Y-88944761D01*
X178518809Y-88992380D01*
X178280714Y-88992380D01*
X179185476Y-87992380D02*
X179804523Y-87992380D01*
X179471190Y-88373333D01*
X179614047Y-88373333D01*
X179709285Y-88420952D01*
X179756904Y-88468571D01*
X179804523Y-88563809D01*
X179804523Y-88801904D01*
X179756904Y-88897142D01*
X179709285Y-88944761D01*
X179614047Y-88992380D01*
X179328333Y-88992380D01*
X179233095Y-88944761D01*
X179185476Y-88897142D01*
X180423571Y-87992380D02*
X180518809Y-87992380D01*
X180614047Y-88040000D01*
X180661666Y-88087619D01*
X180709285Y-88182857D01*
X180756904Y-88373333D01*
X180756904Y-88611428D01*
X180709285Y-88801904D01*
X180661666Y-88897142D01*
X180614047Y-88944761D01*
X180518809Y-88992380D01*
X180423571Y-88992380D01*
X180328333Y-88944761D01*
X180280714Y-88897142D01*
X180233095Y-88801904D01*
X180185476Y-88611428D01*
X180185476Y-88373333D01*
X180233095Y-88182857D01*
X180280714Y-88087619D01*
X180328333Y-88040000D01*
X180423571Y-87992380D01*
X202780714Y-112992380D02*
X202780714Y-111992380D01*
X203018809Y-111992380D01*
X203161666Y-112040000D01*
X203256904Y-112135238D01*
X203304523Y-112230476D01*
X203352142Y-112420952D01*
X203352142Y-112563809D01*
X203304523Y-112754285D01*
X203256904Y-112849523D01*
X203161666Y-112944761D01*
X203018809Y-112992380D01*
X202780714Y-112992380D01*
X204209285Y-112325714D02*
X204209285Y-112992380D01*
X203971190Y-111944761D02*
X203733095Y-112659047D01*
X204352142Y-112659047D01*
X205161666Y-112325714D02*
X205161666Y-112992380D01*
X204923571Y-111944761D02*
X204685476Y-112659047D01*
X205304523Y-112659047D01*
X36806666Y-64214285D02*
X36806666Y-63738095D01*
X37092380Y-64309523D02*
X36092380Y-63976190D01*
X37092380Y-63642857D01*
X37092380Y-62785714D02*
X37092380Y-63357142D01*
X37092380Y-63071428D02*
X36092380Y-63071428D01*
X36235238Y-63166666D01*
X36330476Y-63261904D01*
X36378095Y-63357142D01*
X203190476Y-45452380D02*
X203857142Y-46452380D01*
X203857142Y-45452380D02*
X203190476Y-46452380D01*
X204666666Y-45785714D02*
X204666666Y-46452380D01*
X204428571Y-45404761D02*
X204190476Y-46119047D01*
X204809523Y-46119047D01*
X154523809Y-126476190D02*
X154523809Y-126952380D01*
X154190476Y-125952380D02*
X154523809Y-126476190D01*
X154857142Y-125952380D01*
X155619047Y-125952380D02*
X155428571Y-125952380D01*
X155333333Y-126000000D01*
X155285714Y-126047619D01*
X155190476Y-126190476D01*
X155142857Y-126380952D01*
X155142857Y-126761904D01*
X155190476Y-126857142D01*
X155238095Y-126904761D01*
X155333333Y-126952380D01*
X155523809Y-126952380D01*
X155619047Y-126904761D01*
X155666666Y-126857142D01*
X155714285Y-126761904D01*
X155714285Y-126523809D01*
X155666666Y-126428571D01*
X155619047Y-126380952D01*
X155523809Y-126333333D01*
X155333333Y-126333333D01*
X155238095Y-126380952D01*
X155190476Y-126428571D01*
X155142857Y-126523809D01*
X63952380Y-94452380D02*
X63476190Y-94452380D01*
X63476190Y-93452380D01*
X64285714Y-93928571D02*
X64619047Y-93928571D01*
X64761904Y-94452380D02*
X64285714Y-94452380D01*
X64285714Y-93452380D01*
X64761904Y-93452380D01*
X65190476Y-94452380D02*
X65190476Y-93452380D01*
X65428571Y-93452380D01*
X65571428Y-93500000D01*
X65666666Y-93595238D01*
X65714285Y-93690476D01*
X65761904Y-93880952D01*
X65761904Y-94023809D01*
X65714285Y-94214285D01*
X65666666Y-94309523D01*
X65571428Y-94404761D01*
X65428571Y-94452380D01*
X65190476Y-94452380D01*
X66142857Y-94166666D02*
X66619047Y-94166666D01*
X66047619Y-94452380D02*
X66380952Y-93452380D01*
X66714285Y-94452380D01*
X67476190Y-93452380D02*
X67285714Y-93452380D01*
X67190476Y-93500000D01*
X67142857Y-93547619D01*
X67047619Y-93690476D01*
X67000000Y-93880952D01*
X67000000Y-94261904D01*
X67047619Y-94357142D01*
X67095238Y-94404761D01*
X67190476Y-94452380D01*
X67380952Y-94452380D01*
X67476190Y-94404761D01*
X67523809Y-94357142D01*
X67571428Y-94261904D01*
X67571428Y-94023809D01*
X67523809Y-93928571D01*
X67476190Y-93880952D01*
X67380952Y-93833333D01*
X67190476Y-93833333D01*
X67095238Y-93880952D01*
X67047619Y-93928571D01*
X67000000Y-94023809D01*
X190515714Y-88992380D02*
X190515714Y-87992380D01*
X190753809Y-87992380D01*
X190896666Y-88040000D01*
X190991904Y-88135238D01*
X191039523Y-88230476D01*
X191087142Y-88420952D01*
X191087142Y-88563809D01*
X191039523Y-88754285D01*
X190991904Y-88849523D01*
X190896666Y-88944761D01*
X190753809Y-88992380D01*
X190515714Y-88992380D01*
X191420476Y-87992380D02*
X192039523Y-87992380D01*
X191706190Y-88373333D01*
X191849047Y-88373333D01*
X191944285Y-88420952D01*
X191991904Y-88468571D01*
X192039523Y-88563809D01*
X192039523Y-88801904D01*
X191991904Y-88897142D01*
X191944285Y-88944761D01*
X191849047Y-88992380D01*
X191563333Y-88992380D01*
X191468095Y-88944761D01*
X191420476Y-88897142D01*
X192991904Y-88992380D02*
X192420476Y-88992380D01*
X192706190Y-88992380D02*
X192706190Y-87992380D01*
X192610952Y-88135238D01*
X192515714Y-88230476D01*
X192420476Y-88278095D01*
X111252380Y-119363333D02*
X111966666Y-119363333D01*
X112109523Y-119410952D01*
X112204761Y-119506190D01*
X112252380Y-119649047D01*
X112252380Y-119744285D01*
X111252380Y-118410952D02*
X111252380Y-118887142D01*
X111728571Y-118934761D01*
X111680952Y-118887142D01*
X111633333Y-118791904D01*
X111633333Y-118553809D01*
X111680952Y-118458571D01*
X111728571Y-118410952D01*
X111823809Y-118363333D01*
X112061904Y-118363333D01*
X112157142Y-118410952D01*
X112204761Y-118458571D01*
X112252380Y-118553809D01*
X112252380Y-118791904D01*
X112204761Y-118887142D01*
X112157142Y-118934761D01*
X83380952Y-110227380D02*
X82904761Y-110227380D01*
X82904761Y-109227380D01*
X83714285Y-109703571D02*
X84047619Y-109703571D01*
X84190476Y-110227380D02*
X83714285Y-110227380D01*
X83714285Y-109227380D01*
X84190476Y-109227380D01*
X84619047Y-110227380D02*
X84619047Y-109227380D01*
X84857142Y-109227380D01*
X85000000Y-109275000D01*
X85095238Y-109370238D01*
X85142857Y-109465476D01*
X85190476Y-109655952D01*
X85190476Y-109798809D01*
X85142857Y-109989285D01*
X85095238Y-110084523D01*
X85000000Y-110179761D01*
X84857142Y-110227380D01*
X84619047Y-110227380D01*
X85952380Y-109703571D02*
X86095238Y-109751190D01*
X86142857Y-109798809D01*
X86190476Y-109894047D01*
X86190476Y-110036904D01*
X86142857Y-110132142D01*
X86095238Y-110179761D01*
X86000000Y-110227380D01*
X85619047Y-110227380D01*
X85619047Y-109227380D01*
X85952380Y-109227380D01*
X86047619Y-109275000D01*
X86095238Y-109322619D01*
X86142857Y-109417857D01*
X86142857Y-109513095D01*
X86095238Y-109608333D01*
X86047619Y-109655952D01*
X85952380Y-109703571D01*
X85619047Y-109703571D01*
X86523809Y-109227380D02*
X87190476Y-109227380D01*
X86761904Y-110227380D01*
X121333333Y-129822380D02*
X121000000Y-129346190D01*
X120761904Y-129822380D02*
X120761904Y-128822380D01*
X121142857Y-128822380D01*
X121238095Y-128870000D01*
X121285714Y-128917619D01*
X121333333Y-129012857D01*
X121333333Y-129155714D01*
X121285714Y-129250952D01*
X121238095Y-129298571D01*
X121142857Y-129346190D01*
X120761904Y-129346190D01*
X121904761Y-129250952D02*
X121809523Y-129203333D01*
X121761904Y-129155714D01*
X121714285Y-129060476D01*
X121714285Y-129012857D01*
X121761904Y-128917619D01*
X121809523Y-128870000D01*
X121904761Y-128822380D01*
X122095238Y-128822380D01*
X122190476Y-128870000D01*
X122238095Y-128917619D01*
X122285714Y-129012857D01*
X122285714Y-129060476D01*
X122238095Y-129155714D01*
X122190476Y-129203333D01*
X122095238Y-129250952D01*
X121904761Y-129250952D01*
X121809523Y-129298571D01*
X121761904Y-129346190D01*
X121714285Y-129441428D01*
X121714285Y-129631904D01*
X121761904Y-129727142D01*
X121809523Y-129774761D01*
X121904761Y-129822380D01*
X122095238Y-129822380D01*
X122190476Y-129774761D01*
X122238095Y-129727142D01*
X122285714Y-129631904D01*
X122285714Y-129441428D01*
X122238095Y-129346190D01*
X122190476Y-129298571D01*
X122095238Y-129250952D01*
X165780714Y-101492380D02*
X165780714Y-100492380D01*
X166018809Y-100492380D01*
X166161666Y-100540000D01*
X166256904Y-100635238D01*
X166304523Y-100730476D01*
X166352142Y-100920952D01*
X166352142Y-101063809D01*
X166304523Y-101254285D01*
X166256904Y-101349523D01*
X166161666Y-101444761D01*
X166018809Y-101492380D01*
X165780714Y-101492380D01*
X166685476Y-100492380D02*
X167304523Y-100492380D01*
X166971190Y-100873333D01*
X167114047Y-100873333D01*
X167209285Y-100920952D01*
X167256904Y-100968571D01*
X167304523Y-101063809D01*
X167304523Y-101301904D01*
X167256904Y-101397142D01*
X167209285Y-101444761D01*
X167114047Y-101492380D01*
X166828333Y-101492380D01*
X166733095Y-101444761D01*
X166685476Y-101397142D01*
X168209285Y-100492380D02*
X167733095Y-100492380D01*
X167685476Y-100968571D01*
X167733095Y-100920952D01*
X167828333Y-100873333D01*
X168066428Y-100873333D01*
X168161666Y-100920952D01*
X168209285Y-100968571D01*
X168256904Y-101063809D01*
X168256904Y-101301904D01*
X168209285Y-101397142D01*
X168161666Y-101444761D01*
X168066428Y-101492380D01*
X167828333Y-101492380D01*
X167733095Y-101444761D01*
X167685476Y-101397142D01*
X242823333Y-115757380D02*
X242823333Y-114757380D01*
X243156666Y-115471666D01*
X243490000Y-114757380D01*
X243490000Y-115757380D01*
X244394761Y-115757380D02*
X244394761Y-115233571D01*
X244347142Y-115138333D01*
X244251904Y-115090714D01*
X244061428Y-115090714D01*
X243966190Y-115138333D01*
X244394761Y-115709761D02*
X244299523Y-115757380D01*
X244061428Y-115757380D01*
X243966190Y-115709761D01*
X243918571Y-115614523D01*
X243918571Y-115519285D01*
X243966190Y-115424047D01*
X244061428Y-115376428D01*
X244299523Y-115376428D01*
X244394761Y-115328809D01*
X244775714Y-115757380D02*
X245299523Y-115090714D01*
X244775714Y-115090714D02*
X245299523Y-115757380D01*
X246204285Y-115757380D02*
X245632857Y-115757380D01*
X245918571Y-115757380D02*
X245918571Y-114757380D01*
X245823333Y-114900238D01*
X245728095Y-114995476D01*
X245632857Y-115043095D01*
X124082380Y-93166666D02*
X123606190Y-93500000D01*
X124082380Y-93738095D02*
X123082380Y-93738095D01*
X123082380Y-93357142D01*
X123130000Y-93261904D01*
X123177619Y-93214285D01*
X123272857Y-93166666D01*
X123415714Y-93166666D01*
X123510952Y-93214285D01*
X123558571Y-93261904D01*
X123606190Y-93357142D01*
X123606190Y-93738095D01*
X123082380Y-92309523D02*
X123082380Y-92500000D01*
X123130000Y-92595238D01*
X123177619Y-92642857D01*
X123320476Y-92738095D01*
X123510952Y-92785714D01*
X123891904Y-92785714D01*
X123987142Y-92738095D01*
X124034761Y-92690476D01*
X124082380Y-92595238D01*
X124082380Y-92404761D01*
X124034761Y-92309523D01*
X123987142Y-92261904D01*
X123891904Y-92214285D01*
X123653809Y-92214285D01*
X123558571Y-92261904D01*
X123510952Y-92309523D01*
X123463333Y-92404761D01*
X123463333Y-92595238D01*
X123510952Y-92690476D01*
X123558571Y-92738095D01*
X123653809Y-92785714D01*
X154523809Y-100976190D02*
X154523809Y-101452380D01*
X154190476Y-100452380D02*
X154523809Y-100976190D01*
X154857142Y-100452380D01*
X155619047Y-100785714D02*
X155619047Y-101452380D01*
X155380952Y-100404761D02*
X155142857Y-101119047D01*
X155761904Y-101119047D01*
X111252380Y-71863333D02*
X111966666Y-71863333D01*
X112109523Y-71910952D01*
X112204761Y-72006190D01*
X112252380Y-72149047D01*
X112252380Y-72244285D01*
X111347619Y-71434761D02*
X111300000Y-71387142D01*
X111252380Y-71291904D01*
X111252380Y-71053809D01*
X111300000Y-70958571D01*
X111347619Y-70910952D01*
X111442857Y-70863333D01*
X111538095Y-70863333D01*
X111680952Y-70910952D01*
X112252380Y-71482380D01*
X112252380Y-70863333D01*
X63952380Y-109952380D02*
X63476190Y-109952380D01*
X63476190Y-108952380D01*
X64285714Y-109428571D02*
X64619047Y-109428571D01*
X64761904Y-109952380D02*
X64285714Y-109952380D01*
X64285714Y-108952380D01*
X64761904Y-108952380D01*
X65190476Y-109952380D02*
X65190476Y-108952380D01*
X65428571Y-108952380D01*
X65571428Y-109000000D01*
X65666666Y-109095238D01*
X65714285Y-109190476D01*
X65761904Y-109380952D01*
X65761904Y-109523809D01*
X65714285Y-109714285D01*
X65666666Y-109809523D01*
X65571428Y-109904761D01*
X65428571Y-109952380D01*
X65190476Y-109952380D01*
X66142857Y-109666666D02*
X66619047Y-109666666D01*
X66047619Y-109952380D02*
X66380952Y-108952380D01*
X66714285Y-109952380D01*
X67190476Y-109380952D02*
X67095238Y-109333333D01*
X67047619Y-109285714D01*
X67000000Y-109190476D01*
X67000000Y-109142857D01*
X67047619Y-109047619D01*
X67095238Y-109000000D01*
X67190476Y-108952380D01*
X67380952Y-108952380D01*
X67476190Y-109000000D01*
X67523809Y-109047619D01*
X67571428Y-109142857D01*
X67571428Y-109190476D01*
X67523809Y-109285714D01*
X67476190Y-109333333D01*
X67380952Y-109380952D01*
X67190476Y-109380952D01*
X67095238Y-109428571D01*
X67047619Y-109476190D01*
X67000000Y-109571428D01*
X67000000Y-109761904D01*
X67047619Y-109857142D01*
X67095238Y-109904761D01*
X67190476Y-109952380D01*
X67380952Y-109952380D01*
X67476190Y-109904761D01*
X67523809Y-109857142D01*
X67571428Y-109761904D01*
X67571428Y-109571428D01*
X67523809Y-109476190D01*
X67476190Y-109428571D01*
X67380952Y-109380952D01*
X97634761Y-53914761D02*
X97682380Y-53771904D01*
X97682380Y-53533809D01*
X97634761Y-53438571D01*
X97587142Y-53390952D01*
X97491904Y-53343333D01*
X97396666Y-53343333D01*
X97301428Y-53390952D01*
X97253809Y-53438571D01*
X97206190Y-53533809D01*
X97158571Y-53724285D01*
X97110952Y-53819523D01*
X97063333Y-53867142D01*
X96968095Y-53914761D01*
X96872857Y-53914761D01*
X96777619Y-53867142D01*
X96730000Y-53819523D01*
X96682380Y-53724285D01*
X96682380Y-53486190D01*
X96730000Y-53343333D01*
X97777619Y-52248095D02*
X97730000Y-52343333D01*
X97634761Y-52438571D01*
X97491904Y-52581428D01*
X97444285Y-52676666D01*
X97444285Y-52771904D01*
X97682380Y-52724285D02*
X97634761Y-52819523D01*
X97539523Y-52914761D01*
X97349047Y-52962380D01*
X97015714Y-52962380D01*
X96825238Y-52914761D01*
X96730000Y-52819523D01*
X96682380Y-52724285D01*
X96682380Y-52533809D01*
X96730000Y-52438571D01*
X96825238Y-52343333D01*
X97015714Y-52295714D01*
X97349047Y-52295714D01*
X97539523Y-52343333D01*
X97634761Y-52438571D01*
X97682380Y-52533809D01*
X97682380Y-52724285D01*
X96777619Y-51914761D02*
X96730000Y-51867142D01*
X96682380Y-51771904D01*
X96682380Y-51533809D01*
X96730000Y-51438571D01*
X96777619Y-51390952D01*
X96872857Y-51343333D01*
X96968095Y-51343333D01*
X97110952Y-51390952D01*
X97682380Y-51962380D01*
X97682380Y-51343333D01*
X97682380Y-50914761D02*
X96682380Y-50914761D01*
X96682380Y-50533809D01*
X96730000Y-50438571D01*
X96777619Y-50390952D01*
X96872857Y-50343333D01*
X97015714Y-50343333D01*
X97110952Y-50390952D01*
X97158571Y-50438571D01*
X97206190Y-50533809D01*
X97206190Y-50914761D01*
X97682380Y-49771904D02*
X97634761Y-49867142D01*
X97587142Y-49914761D01*
X97491904Y-49962380D01*
X97206190Y-49962380D01*
X97110952Y-49914761D01*
X97063333Y-49867142D01*
X97015714Y-49771904D01*
X97015714Y-49629047D01*
X97063333Y-49533809D01*
X97110952Y-49486190D01*
X97206190Y-49438571D01*
X97491904Y-49438571D01*
X97587142Y-49486190D01*
X97634761Y-49533809D01*
X97682380Y-49629047D01*
X97682380Y-49771904D01*
X97015714Y-49152857D02*
X97015714Y-48771904D01*
X96682380Y-49010000D02*
X97539523Y-49010000D01*
X97634761Y-48962380D01*
X97682380Y-48867142D01*
X97682380Y-48771904D01*
X97634761Y-48486190D02*
X97682380Y-48390952D01*
X97682380Y-48200476D01*
X97634761Y-48105238D01*
X97539523Y-48057619D01*
X97491904Y-48057619D01*
X97396666Y-48105238D01*
X97349047Y-48200476D01*
X97349047Y-48343333D01*
X97301428Y-48438571D01*
X97206190Y-48486190D01*
X97158571Y-48486190D01*
X97063333Y-48438571D01*
X97015714Y-48343333D01*
X97015714Y-48200476D01*
X97063333Y-48105238D01*
X97682380Y-47105238D02*
X97682380Y-47676666D01*
X97682380Y-47390952D02*
X96682380Y-47390952D01*
X96825238Y-47486190D01*
X96920476Y-47581428D01*
X96968095Y-47676666D01*
X127082380Y-121666666D02*
X126606190Y-122000000D01*
X127082380Y-122238095D02*
X126082380Y-122238095D01*
X126082380Y-121857142D01*
X126130000Y-121761904D01*
X126177619Y-121714285D01*
X126272857Y-121666666D01*
X126415714Y-121666666D01*
X126510952Y-121714285D01*
X126558571Y-121761904D01*
X126606190Y-121857142D01*
X126606190Y-122238095D01*
X126082380Y-120761904D02*
X126082380Y-121238095D01*
X126558571Y-121285714D01*
X126510952Y-121238095D01*
X126463333Y-121142857D01*
X126463333Y-120904761D01*
X126510952Y-120809523D01*
X126558571Y-120761904D01*
X126653809Y-120714285D01*
X126891904Y-120714285D01*
X126987142Y-120761904D01*
X127034761Y-120809523D01*
X127082380Y-120904761D01*
X127082380Y-121142857D01*
X127034761Y-121238095D01*
X126987142Y-121285714D01*
X83380952Y-77952380D02*
X82904761Y-77952380D01*
X82904761Y-76952380D01*
X83714285Y-77428571D02*
X84047619Y-77428571D01*
X84190476Y-77952380D02*
X83714285Y-77952380D01*
X83714285Y-76952380D01*
X84190476Y-76952380D01*
X84619047Y-77952380D02*
X84619047Y-76952380D01*
X84857142Y-76952380D01*
X85000000Y-77000000D01*
X85095238Y-77095238D01*
X85142857Y-77190476D01*
X85190476Y-77380952D01*
X85190476Y-77523809D01*
X85142857Y-77714285D01*
X85095238Y-77809523D01*
X85000000Y-77904761D01*
X84857142Y-77952380D01*
X84619047Y-77952380D01*
X85952380Y-77428571D02*
X86095238Y-77476190D01*
X86142857Y-77523809D01*
X86190476Y-77619047D01*
X86190476Y-77761904D01*
X86142857Y-77857142D01*
X86095238Y-77904761D01*
X86000000Y-77952380D01*
X85619047Y-77952380D01*
X85619047Y-76952380D01*
X85952380Y-76952380D01*
X86047619Y-77000000D01*
X86095238Y-77047619D01*
X86142857Y-77142857D01*
X86142857Y-77238095D01*
X86095238Y-77333333D01*
X86047619Y-77380952D01*
X85952380Y-77428571D01*
X85619047Y-77428571D01*
X86523809Y-76952380D02*
X87142857Y-76952380D01*
X86809523Y-77333333D01*
X86952380Y-77333333D01*
X87047619Y-77380952D01*
X87095238Y-77428571D01*
X87142857Y-77523809D01*
X87142857Y-77761904D01*
X87095238Y-77857142D01*
X87047619Y-77904761D01*
X86952380Y-77952380D01*
X86666666Y-77952380D01*
X86571428Y-77904761D01*
X86523809Y-77857142D01*
X215780714Y-64492380D02*
X215780714Y-63492380D01*
X216018809Y-63492380D01*
X216161666Y-63540000D01*
X216256904Y-63635238D01*
X216304523Y-63730476D01*
X216352142Y-63920952D01*
X216352142Y-64063809D01*
X216304523Y-64254285D01*
X216256904Y-64349523D01*
X216161666Y-64444761D01*
X216018809Y-64492380D01*
X215780714Y-64492380D01*
X216733095Y-63587619D02*
X216780714Y-63540000D01*
X216875952Y-63492380D01*
X217114047Y-63492380D01*
X217209285Y-63540000D01*
X217256904Y-63587619D01*
X217304523Y-63682857D01*
X217304523Y-63778095D01*
X217256904Y-63920952D01*
X216685476Y-64492380D01*
X217304523Y-64492380D01*
X218256904Y-64492380D02*
X217685476Y-64492380D01*
X217971190Y-64492380D02*
X217971190Y-63492380D01*
X217875952Y-63635238D01*
X217780714Y-63730476D01*
X217685476Y-63778095D01*
X127835714Y-134047619D02*
X127835714Y-133666666D01*
X128502380Y-133904761D02*
X127645238Y-133904761D01*
X127550000Y-133857142D01*
X127502380Y-133761904D01*
X127502380Y-133666666D01*
X128502380Y-133333333D02*
X127502380Y-133333333D01*
X127883333Y-133333333D02*
X127835714Y-133238095D01*
X127835714Y-133047619D01*
X127883333Y-132952380D01*
X127930952Y-132904761D01*
X128026190Y-132857142D01*
X128311904Y-132857142D01*
X128407142Y-132904761D01*
X128454761Y-132952380D01*
X128502380Y-133047619D01*
X128502380Y-133238095D01*
X128454761Y-133333333D01*
X128454761Y-132000000D02*
X128502380Y-132095238D01*
X128502380Y-132285714D01*
X128454761Y-132380952D01*
X128407142Y-132428571D01*
X128311904Y-132476190D01*
X128026190Y-132476190D01*
X127930952Y-132428571D01*
X127883333Y-132380952D01*
X127835714Y-132285714D01*
X127835714Y-132095238D01*
X127883333Y-132000000D01*
X127597619Y-131619047D02*
X127550000Y-131571428D01*
X127502380Y-131476190D01*
X127502380Y-131238095D01*
X127550000Y-131142857D01*
X127597619Y-131095238D01*
X127692857Y-131047619D01*
X127788095Y-131047619D01*
X127930952Y-131095238D01*
X128502380Y-131666666D01*
X128502380Y-131047619D01*
X68582380Y-49666666D02*
X68106190Y-50000000D01*
X68582380Y-50238095D02*
X67582380Y-50238095D01*
X67582380Y-49857142D01*
X67630000Y-49761904D01*
X67677619Y-49714285D01*
X67772857Y-49666666D01*
X67915714Y-49666666D01*
X68010952Y-49714285D01*
X68058571Y-49761904D01*
X68106190Y-49857142D01*
X68106190Y-50238095D01*
X67915714Y-48809523D02*
X68582380Y-48809523D01*
X67534761Y-49047619D02*
X68249047Y-49285714D01*
X68249047Y-48666666D01*
X178280714Y-112992380D02*
X178280714Y-111992380D01*
X178518809Y-111992380D01*
X178661666Y-112040000D01*
X178756904Y-112135238D01*
X178804523Y-112230476D01*
X178852142Y-112420952D01*
X178852142Y-112563809D01*
X178804523Y-112754285D01*
X178756904Y-112849523D01*
X178661666Y-112944761D01*
X178518809Y-112992380D01*
X178280714Y-112992380D01*
X179709285Y-112325714D02*
X179709285Y-112992380D01*
X179471190Y-111944761D02*
X179233095Y-112659047D01*
X179852142Y-112659047D01*
X180185476Y-112087619D02*
X180233095Y-112040000D01*
X180328333Y-111992380D01*
X180566428Y-111992380D01*
X180661666Y-112040000D01*
X180709285Y-112087619D01*
X180756904Y-112182857D01*
X180756904Y-112278095D01*
X180709285Y-112420952D01*
X180137857Y-112992380D01*
X180756904Y-112992380D01*
X108344761Y-52500000D02*
X108392380Y-52595238D01*
X108392380Y-52785714D01*
X108344761Y-52880952D01*
X108297142Y-52928571D01*
X108201904Y-52976190D01*
X107916190Y-52976190D01*
X107820952Y-52928571D01*
X107773333Y-52880952D01*
X107725714Y-52785714D01*
X107725714Y-52595238D01*
X107773333Y-52500000D01*
X108392380Y-51928571D02*
X108344761Y-52023809D01*
X108297142Y-52071428D01*
X108201904Y-52119047D01*
X107916190Y-52119047D01*
X107820952Y-52071428D01*
X107773333Y-52023809D01*
X107725714Y-51928571D01*
X107725714Y-51785714D01*
X107773333Y-51690476D01*
X107820952Y-51642857D01*
X107916190Y-51595238D01*
X108201904Y-51595238D01*
X108297142Y-51642857D01*
X108344761Y-51690476D01*
X108392380Y-51785714D01*
X108392380Y-51928571D01*
X107725714Y-51166666D02*
X108392380Y-51166666D01*
X107820952Y-51166666D02*
X107773333Y-51119047D01*
X107725714Y-51023809D01*
X107725714Y-50880952D01*
X107773333Y-50785714D01*
X107868571Y-50738095D01*
X108392380Y-50738095D01*
X107868571Y-49928571D02*
X107868571Y-50261904D01*
X108392380Y-50261904D02*
X107392380Y-50261904D01*
X107392380Y-49785714D01*
X108344761Y-49023809D02*
X108392380Y-49119047D01*
X108392380Y-49309523D01*
X108344761Y-49404761D01*
X108249523Y-49452380D01*
X107868571Y-49452380D01*
X107773333Y-49404761D01*
X107725714Y-49309523D01*
X107725714Y-49119047D01*
X107773333Y-49023809D01*
X107868571Y-48976190D01*
X107963809Y-48976190D01*
X108059047Y-49452380D01*
X107487619Y-48595238D02*
X107440000Y-48547619D01*
X107392380Y-48452380D01*
X107392380Y-48214285D01*
X107440000Y-48119047D01*
X107487619Y-48071428D01*
X107582857Y-48023809D01*
X107678095Y-48023809D01*
X107820952Y-48071428D01*
X108392380Y-48642857D01*
X108392380Y-48023809D01*
X36806666Y-80214285D02*
X36806666Y-79738095D01*
X37092380Y-80309523D02*
X36092380Y-79976190D01*
X37092380Y-79642857D01*
X36092380Y-79404761D02*
X36092380Y-78785714D01*
X36473333Y-79119047D01*
X36473333Y-78976190D01*
X36520952Y-78880952D01*
X36568571Y-78833333D01*
X36663809Y-78785714D01*
X36901904Y-78785714D01*
X36997142Y-78833333D01*
X37044761Y-78880952D01*
X37092380Y-78976190D01*
X37092380Y-79261904D01*
X37044761Y-79357142D01*
X36997142Y-79404761D01*
X165780714Y-112992380D02*
X165780714Y-111992380D01*
X166018809Y-111992380D01*
X166161666Y-112040000D01*
X166256904Y-112135238D01*
X166304523Y-112230476D01*
X166352142Y-112420952D01*
X166352142Y-112563809D01*
X166304523Y-112754285D01*
X166256904Y-112849523D01*
X166161666Y-112944761D01*
X166018809Y-112992380D01*
X165780714Y-112992380D01*
X167209285Y-112325714D02*
X167209285Y-112992380D01*
X166971190Y-111944761D02*
X166733095Y-112659047D01*
X167352142Y-112659047D01*
X168256904Y-112992380D02*
X167685476Y-112992380D01*
X167971190Y-112992380D02*
X167971190Y-111992380D01*
X167875952Y-112135238D01*
X167780714Y-112230476D01*
X167685476Y-112278095D01*
X60134761Y-135057619D02*
X60182380Y-134914761D01*
X60182380Y-134676666D01*
X60134761Y-134581428D01*
X60087142Y-134533809D01*
X59991904Y-134486190D01*
X59896666Y-134486190D01*
X59801428Y-134533809D01*
X59753809Y-134581428D01*
X59706190Y-134676666D01*
X59658571Y-134867142D01*
X59610952Y-134962380D01*
X59563333Y-135010000D01*
X59468095Y-135057619D01*
X59372857Y-135057619D01*
X59277619Y-135010000D01*
X59230000Y-134962380D01*
X59182380Y-134867142D01*
X59182380Y-134629047D01*
X59230000Y-134486190D01*
X60277619Y-133390952D02*
X60230000Y-133486190D01*
X60134761Y-133581428D01*
X59991904Y-133724285D01*
X59944285Y-133819523D01*
X59944285Y-133914761D01*
X60182380Y-133867142D02*
X60134761Y-133962380D01*
X60039523Y-134057619D01*
X59849047Y-134105238D01*
X59515714Y-134105238D01*
X59325238Y-134057619D01*
X59230000Y-133962380D01*
X59182380Y-133867142D01*
X59182380Y-133676666D01*
X59230000Y-133581428D01*
X59325238Y-133486190D01*
X59515714Y-133438571D01*
X59849047Y-133438571D01*
X60039523Y-133486190D01*
X60134761Y-133581428D01*
X60182380Y-133676666D01*
X60182380Y-133867142D01*
X60182380Y-132486190D02*
X60182380Y-133057619D01*
X60182380Y-132771904D02*
X59182380Y-132771904D01*
X59325238Y-132867142D01*
X59420476Y-132962380D01*
X59468095Y-133057619D01*
X60182380Y-131581428D02*
X60182380Y-132057619D01*
X59182380Y-132057619D01*
X60134761Y-130867142D02*
X60182380Y-130962380D01*
X60182380Y-131152857D01*
X60134761Y-131248095D01*
X60039523Y-131295714D01*
X59658571Y-131295714D01*
X59563333Y-131248095D01*
X59515714Y-131152857D01*
X59515714Y-130962380D01*
X59563333Y-130867142D01*
X59658571Y-130819523D01*
X59753809Y-130819523D01*
X59849047Y-131295714D01*
X60182380Y-129962380D02*
X59182380Y-129962380D01*
X60134761Y-129962380D02*
X60182380Y-130057619D01*
X60182380Y-130248095D01*
X60134761Y-130343333D01*
X60087142Y-130390952D01*
X59991904Y-130438571D01*
X59706190Y-130438571D01*
X59610952Y-130390952D01*
X59563333Y-130343333D01*
X59515714Y-130248095D01*
X59515714Y-130057619D01*
X59563333Y-129962380D01*
X60182380Y-128962380D02*
X60182380Y-129533809D01*
X60182380Y-129248095D02*
X59182380Y-129248095D01*
X59325238Y-129343333D01*
X59420476Y-129438571D01*
X59468095Y-129533809D01*
X111252380Y-108363333D02*
X111966666Y-108363333D01*
X112109523Y-108410952D01*
X112204761Y-108506190D01*
X112252380Y-108649047D01*
X112252380Y-108744285D01*
X111585714Y-107458571D02*
X112252380Y-107458571D01*
X111204761Y-107696666D02*
X111919047Y-107934761D01*
X111919047Y-107315714D01*
X202780714Y-125492380D02*
X202780714Y-124492380D01*
X203018809Y-124492380D01*
X203161666Y-124540000D01*
X203256904Y-124635238D01*
X203304523Y-124730476D01*
X203352142Y-124920952D01*
X203352142Y-125063809D01*
X203304523Y-125254285D01*
X203256904Y-125349523D01*
X203161666Y-125444761D01*
X203018809Y-125492380D01*
X202780714Y-125492380D01*
X204256904Y-124492380D02*
X203780714Y-124492380D01*
X203733095Y-124968571D01*
X203780714Y-124920952D01*
X203875952Y-124873333D01*
X204114047Y-124873333D01*
X204209285Y-124920952D01*
X204256904Y-124968571D01*
X204304523Y-125063809D01*
X204304523Y-125301904D01*
X204256904Y-125397142D01*
X204209285Y-125444761D01*
X204114047Y-125492380D01*
X203875952Y-125492380D01*
X203780714Y-125444761D01*
X203733095Y-125397142D01*
X204923571Y-124492380D02*
X205018809Y-124492380D01*
X205114047Y-124540000D01*
X205161666Y-124587619D01*
X205209285Y-124682857D01*
X205256904Y-124873333D01*
X205256904Y-125111428D01*
X205209285Y-125301904D01*
X205161666Y-125397142D01*
X205114047Y-125444761D01*
X205018809Y-125492380D01*
X204923571Y-125492380D01*
X204828333Y-125444761D01*
X204780714Y-125397142D01*
X204733095Y-125301904D01*
X204685476Y-125111428D01*
X204685476Y-124873333D01*
X204733095Y-124682857D01*
X204780714Y-124587619D01*
X204828333Y-124540000D01*
X204923571Y-124492380D01*
X83380952Y-94177380D02*
X82904761Y-94177380D01*
X82904761Y-93177380D01*
X83714285Y-93653571D02*
X84047619Y-93653571D01*
X84190476Y-94177380D02*
X83714285Y-94177380D01*
X83714285Y-93177380D01*
X84190476Y-93177380D01*
X84619047Y-94177380D02*
X84619047Y-93177380D01*
X84857142Y-93177380D01*
X85000000Y-93225000D01*
X85095238Y-93320238D01*
X85142857Y-93415476D01*
X85190476Y-93605952D01*
X85190476Y-93748809D01*
X85142857Y-93939285D01*
X85095238Y-94034523D01*
X85000000Y-94129761D01*
X84857142Y-94177380D01*
X84619047Y-94177380D01*
X85952380Y-93653571D02*
X86095238Y-93701190D01*
X86142857Y-93748809D01*
X86190476Y-93844047D01*
X86190476Y-93986904D01*
X86142857Y-94082142D01*
X86095238Y-94129761D01*
X86000000Y-94177380D01*
X85619047Y-94177380D01*
X85619047Y-93177380D01*
X85952380Y-93177380D01*
X86047619Y-93225000D01*
X86095238Y-93272619D01*
X86142857Y-93367857D01*
X86142857Y-93463095D01*
X86095238Y-93558333D01*
X86047619Y-93605952D01*
X85952380Y-93653571D01*
X85619047Y-93653571D01*
X87095238Y-93177380D02*
X86619047Y-93177380D01*
X86571428Y-93653571D01*
X86619047Y-93605952D01*
X86714285Y-93558333D01*
X86952380Y-93558333D01*
X87047619Y-93605952D01*
X87095238Y-93653571D01*
X87142857Y-93748809D01*
X87142857Y-93986904D01*
X87095238Y-94082142D01*
X87047619Y-94129761D01*
X86952380Y-94177380D01*
X86714285Y-94177380D01*
X86619047Y-94129761D01*
X86571428Y-94082142D01*
X111252380Y-97363333D02*
X111966666Y-97363333D01*
X112109523Y-97410952D01*
X112204761Y-97506190D01*
X112252380Y-97649047D01*
X112252380Y-97744285D01*
X111252380Y-96982380D02*
X111252380Y-96363333D01*
X111633333Y-96696666D01*
X111633333Y-96553809D01*
X111680952Y-96458571D01*
X111728571Y-96410952D01*
X111823809Y-96363333D01*
X112061904Y-96363333D01*
X112157142Y-96410952D01*
X112204761Y-96458571D01*
X112252380Y-96553809D01*
X112252380Y-96839523D01*
X112204761Y-96934761D01*
X112157142Y-96982380D01*
X36806666Y-111214285D02*
X36806666Y-110738095D01*
X37092380Y-111309523D02*
X36092380Y-110976190D01*
X37092380Y-110642857D01*
X36092380Y-110404761D02*
X36092380Y-109738095D01*
X37092380Y-110166666D01*
X136166666Y-102404761D02*
X136309523Y-102452380D01*
X136547619Y-102452380D01*
X136642857Y-102404761D01*
X136690476Y-102357142D01*
X136738095Y-102261904D01*
X136738095Y-102166666D01*
X136690476Y-102071428D01*
X136642857Y-102023809D01*
X136547619Y-101976190D01*
X136357142Y-101928571D01*
X136261904Y-101880952D01*
X136214285Y-101833333D01*
X136166666Y-101738095D01*
X136166666Y-101642857D01*
X136214285Y-101547619D01*
X136261904Y-101500000D01*
X136357142Y-101452380D01*
X136595238Y-101452380D01*
X136738095Y-101500000D01*
X137071428Y-101452380D02*
X137309523Y-102452380D01*
X137500000Y-101738095D01*
X137690476Y-102452380D01*
X137928571Y-101452380D01*
X138214285Y-101452380D02*
X138833333Y-101452380D01*
X138500000Y-101833333D01*
X138642857Y-101833333D01*
X138738095Y-101880952D01*
X138785714Y-101928571D01*
X138833333Y-102023809D01*
X138833333Y-102261904D01*
X138785714Y-102357142D01*
X138738095Y-102404761D01*
X138642857Y-102452380D01*
X138357142Y-102452380D01*
X138261904Y-102404761D01*
X138214285Y-102357142D01*
X216005714Y-88992380D02*
X216005714Y-87992380D01*
X216243809Y-87992380D01*
X216386666Y-88040000D01*
X216481904Y-88135238D01*
X216529523Y-88230476D01*
X216577142Y-88420952D01*
X216577142Y-88563809D01*
X216529523Y-88754285D01*
X216481904Y-88849523D01*
X216386666Y-88944761D01*
X216243809Y-88992380D01*
X216005714Y-88992380D01*
X216910476Y-87992380D02*
X217529523Y-87992380D01*
X217196190Y-88373333D01*
X217339047Y-88373333D01*
X217434285Y-88420952D01*
X217481904Y-88468571D01*
X217529523Y-88563809D01*
X217529523Y-88801904D01*
X217481904Y-88897142D01*
X217434285Y-88944761D01*
X217339047Y-88992380D01*
X217053333Y-88992380D01*
X216958095Y-88944761D01*
X216910476Y-88897142D01*
X217862857Y-87992380D02*
X218481904Y-87992380D01*
X218148571Y-88373333D01*
X218291428Y-88373333D01*
X218386666Y-88420952D01*
X218434285Y-88468571D01*
X218481904Y-88563809D01*
X218481904Y-88801904D01*
X218434285Y-88897142D01*
X218386666Y-88944761D01*
X218291428Y-88992380D01*
X218005714Y-88992380D01*
X217910476Y-88944761D01*
X217862857Y-88897142D01*
X190515714Y-101492380D02*
X190515714Y-100492380D01*
X190753809Y-100492380D01*
X190896666Y-100540000D01*
X190991904Y-100635238D01*
X191039523Y-100730476D01*
X191087142Y-100920952D01*
X191087142Y-101063809D01*
X191039523Y-101254285D01*
X190991904Y-101349523D01*
X190896666Y-101444761D01*
X190753809Y-101492380D01*
X190515714Y-101492380D01*
X191420476Y-100492380D02*
X192039523Y-100492380D01*
X191706190Y-100873333D01*
X191849047Y-100873333D01*
X191944285Y-100920952D01*
X191991904Y-100968571D01*
X192039523Y-101063809D01*
X192039523Y-101301904D01*
X191991904Y-101397142D01*
X191944285Y-101444761D01*
X191849047Y-101492380D01*
X191563333Y-101492380D01*
X191468095Y-101444761D01*
X191420476Y-101397142D01*
X192372857Y-100492380D02*
X193039523Y-100492380D01*
X192610952Y-101492380D01*
X136166666Y-90404761D02*
X136309523Y-90452380D01*
X136547619Y-90452380D01*
X136642857Y-90404761D01*
X136690476Y-90357142D01*
X136738095Y-90261904D01*
X136738095Y-90166666D01*
X136690476Y-90071428D01*
X136642857Y-90023809D01*
X136547619Y-89976190D01*
X136357142Y-89928571D01*
X136261904Y-89880952D01*
X136214285Y-89833333D01*
X136166666Y-89738095D01*
X136166666Y-89642857D01*
X136214285Y-89547619D01*
X136261904Y-89500000D01*
X136357142Y-89452380D01*
X136595238Y-89452380D01*
X136738095Y-89500000D01*
X137071428Y-89452380D02*
X137309523Y-90452380D01*
X137500000Y-89738095D01*
X137690476Y-90452380D01*
X137928571Y-89452380D01*
X138261904Y-89547619D02*
X138309523Y-89500000D01*
X138404761Y-89452380D01*
X138642857Y-89452380D01*
X138738095Y-89500000D01*
X138785714Y-89547619D01*
X138833333Y-89642857D01*
X138833333Y-89738095D01*
X138785714Y-89880952D01*
X138214285Y-90452380D01*
X138833333Y-90452380D01*
X165740476Y-46196122D02*
X166407142Y-47196122D01*
X166407142Y-46196122D02*
X165740476Y-47196122D01*
X167311904Y-47196122D02*
X166740476Y-47196122D01*
X167026190Y-47196122D02*
X167026190Y-46196122D01*
X166930952Y-46338980D01*
X166835714Y-46434218D01*
X166740476Y-46481837D01*
X178190476Y-45952380D02*
X178857142Y-46952380D01*
X178857142Y-45952380D02*
X178190476Y-46952380D01*
X179190476Y-46047619D02*
X179238095Y-46000000D01*
X179333333Y-45952380D01*
X179571428Y-45952380D01*
X179666666Y-46000000D01*
X179714285Y-46047619D01*
X179761904Y-46142857D01*
X179761904Y-46238095D01*
X179714285Y-46380952D01*
X179142857Y-46952380D01*
X179761904Y-46952380D01*
X228240714Y-101492380D02*
X228240714Y-100492380D01*
X228478809Y-100492380D01*
X228621666Y-100540000D01*
X228716904Y-100635238D01*
X228764523Y-100730476D01*
X228812142Y-100920952D01*
X228812142Y-101063809D01*
X228764523Y-101254285D01*
X228716904Y-101349523D01*
X228621666Y-101444761D01*
X228478809Y-101492380D01*
X228240714Y-101492380D01*
X229669285Y-100825714D02*
X229669285Y-101492380D01*
X229431190Y-100444761D02*
X229193095Y-101159047D01*
X229812142Y-101159047D01*
X230383571Y-100492380D02*
X230478809Y-100492380D01*
X230574047Y-100540000D01*
X230621666Y-100587619D01*
X230669285Y-100682857D01*
X230716904Y-100873333D01*
X230716904Y-101111428D01*
X230669285Y-101301904D01*
X230621666Y-101397142D01*
X230574047Y-101444761D01*
X230478809Y-101492380D01*
X230383571Y-101492380D01*
X230288333Y-101444761D01*
X230240714Y-101397142D01*
X230193095Y-101301904D01*
X230145476Y-101111428D01*
X230145476Y-100873333D01*
X230193095Y-100682857D01*
X230240714Y-100587619D01*
X230288333Y-100540000D01*
X230383571Y-100492380D01*
X178280714Y-125492380D02*
X178280714Y-124492380D01*
X178518809Y-124492380D01*
X178661666Y-124540000D01*
X178756904Y-124635238D01*
X178804523Y-124730476D01*
X178852142Y-124920952D01*
X178852142Y-125063809D01*
X178804523Y-125254285D01*
X178756904Y-125349523D01*
X178661666Y-125444761D01*
X178518809Y-125492380D01*
X178280714Y-125492380D01*
X179709285Y-124825714D02*
X179709285Y-125492380D01*
X179471190Y-124444761D02*
X179233095Y-125159047D01*
X179852142Y-125159047D01*
X180375952Y-124920952D02*
X180280714Y-124873333D01*
X180233095Y-124825714D01*
X180185476Y-124730476D01*
X180185476Y-124682857D01*
X180233095Y-124587619D01*
X180280714Y-124540000D01*
X180375952Y-124492380D01*
X180566428Y-124492380D01*
X180661666Y-124540000D01*
X180709285Y-124587619D01*
X180756904Y-124682857D01*
X180756904Y-124730476D01*
X180709285Y-124825714D01*
X180661666Y-124873333D01*
X180566428Y-124920952D01*
X180375952Y-124920952D01*
X180280714Y-124968571D01*
X180233095Y-125016190D01*
X180185476Y-125111428D01*
X180185476Y-125301904D01*
X180233095Y-125397142D01*
X180280714Y-125444761D01*
X180375952Y-125492380D01*
X180566428Y-125492380D01*
X180661666Y-125444761D01*
X180709285Y-125397142D01*
X180756904Y-125301904D01*
X180756904Y-125111428D01*
X180709285Y-125016190D01*
X180661666Y-124968571D01*
X180566428Y-124920952D01*
X99082380Y-132166666D02*
X98606190Y-132500000D01*
X99082380Y-132738095D02*
X98082380Y-132738095D01*
X98082380Y-132357142D01*
X98130000Y-132261904D01*
X98177619Y-132214285D01*
X98272857Y-132166666D01*
X98415714Y-132166666D01*
X98510952Y-132214285D01*
X98558571Y-132261904D01*
X98606190Y-132357142D01*
X98606190Y-132738095D01*
X98177619Y-131785714D02*
X98130000Y-131738095D01*
X98082380Y-131642857D01*
X98082380Y-131404761D01*
X98130000Y-131309523D01*
X98177619Y-131261904D01*
X98272857Y-131214285D01*
X98368095Y-131214285D01*
X98510952Y-131261904D01*
X99082380Y-131833333D01*
X99082380Y-131214285D01*
X131822380Y-132976666D02*
X131346190Y-133310000D01*
X131822380Y-133548095D02*
X130822380Y-133548095D01*
X130822380Y-133167142D01*
X130870000Y-133071904D01*
X130917619Y-133024285D01*
X131012857Y-132976666D01*
X131155714Y-132976666D01*
X131250952Y-133024285D01*
X131298571Y-133071904D01*
X131346190Y-133167142D01*
X131346190Y-133548095D01*
X131822380Y-132500476D02*
X131822380Y-132310000D01*
X131774761Y-132214761D01*
X131727142Y-132167142D01*
X131584285Y-132071904D01*
X131393809Y-132024285D01*
X131012857Y-132024285D01*
X130917619Y-132071904D01*
X130870000Y-132119523D01*
X130822380Y-132214761D01*
X130822380Y-132405238D01*
X130870000Y-132500476D01*
X130917619Y-132548095D01*
X131012857Y-132595714D01*
X131250952Y-132595714D01*
X131346190Y-132548095D01*
X131393809Y-132500476D01*
X131441428Y-132405238D01*
X131441428Y-132214761D01*
X131393809Y-132119523D01*
X131346190Y-132071904D01*
X131250952Y-132024285D01*
X165555714Y-88992380D02*
X165555714Y-87992380D01*
X165793809Y-87992380D01*
X165936666Y-88040000D01*
X166031904Y-88135238D01*
X166079523Y-88230476D01*
X166127142Y-88420952D01*
X166127142Y-88563809D01*
X166079523Y-88754285D01*
X166031904Y-88849523D01*
X165936666Y-88944761D01*
X165793809Y-88992380D01*
X165555714Y-88992380D01*
X166508095Y-88087619D02*
X166555714Y-88040000D01*
X166650952Y-87992380D01*
X166889047Y-87992380D01*
X166984285Y-88040000D01*
X167031904Y-88087619D01*
X167079523Y-88182857D01*
X167079523Y-88278095D01*
X167031904Y-88420952D01*
X166460476Y-88992380D01*
X167079523Y-88992380D01*
X167555714Y-88992380D02*
X167746190Y-88992380D01*
X167841428Y-88944761D01*
X167889047Y-88897142D01*
X167984285Y-88754285D01*
X168031904Y-88563809D01*
X168031904Y-88182857D01*
X167984285Y-88087619D01*
X167936666Y-88040000D01*
X167841428Y-87992380D01*
X167650952Y-87992380D01*
X167555714Y-88040000D01*
X167508095Y-88087619D01*
X167460476Y-88182857D01*
X167460476Y-88420952D01*
X167508095Y-88516190D01*
X167555714Y-88563809D01*
X167650952Y-88611428D01*
X167841428Y-88611428D01*
X167936666Y-88563809D01*
X167984285Y-88516190D01*
X168031904Y-88420952D01*
X63952380Y-78802380D02*
X63476190Y-78802380D01*
X63476190Y-77802380D01*
X64285714Y-78278571D02*
X64619047Y-78278571D01*
X64761904Y-78802380D02*
X64285714Y-78802380D01*
X64285714Y-77802380D01*
X64761904Y-77802380D01*
X65190476Y-78802380D02*
X65190476Y-77802380D01*
X65428571Y-77802380D01*
X65571428Y-77850000D01*
X65666666Y-77945238D01*
X65714285Y-78040476D01*
X65761904Y-78230952D01*
X65761904Y-78373809D01*
X65714285Y-78564285D01*
X65666666Y-78659523D01*
X65571428Y-78754761D01*
X65428571Y-78802380D01*
X65190476Y-78802380D01*
X66142857Y-78516666D02*
X66619047Y-78516666D01*
X66047619Y-78802380D02*
X66380952Y-77802380D01*
X66714285Y-78802380D01*
X67476190Y-78135714D02*
X67476190Y-78802380D01*
X67238095Y-77754761D02*
X67000000Y-78469047D01*
X67619047Y-78469047D01*
X228240714Y-112992380D02*
X228240714Y-111992380D01*
X228478809Y-111992380D01*
X228621666Y-112040000D01*
X228716904Y-112135238D01*
X228764523Y-112230476D01*
X228812142Y-112420952D01*
X228812142Y-112563809D01*
X228764523Y-112754285D01*
X228716904Y-112849523D01*
X228621666Y-112944761D01*
X228478809Y-112992380D01*
X228240714Y-112992380D01*
X229669285Y-112325714D02*
X229669285Y-112992380D01*
X229431190Y-111944761D02*
X229193095Y-112659047D01*
X229812142Y-112659047D01*
X230621666Y-111992380D02*
X230431190Y-111992380D01*
X230335952Y-112040000D01*
X230288333Y-112087619D01*
X230193095Y-112230476D01*
X230145476Y-112420952D01*
X230145476Y-112801904D01*
X230193095Y-112897142D01*
X230240714Y-112944761D01*
X230335952Y-112992380D01*
X230526428Y-112992380D01*
X230621666Y-112944761D01*
X230669285Y-112897142D01*
X230716904Y-112801904D01*
X230716904Y-112563809D01*
X230669285Y-112468571D01*
X230621666Y-112420952D01*
X230526428Y-112373333D01*
X230335952Y-112373333D01*
X230240714Y-112420952D01*
X230193095Y-112468571D01*
X230145476Y-112563809D01*
X154023809Y-75976190D02*
X154023809Y-76452380D01*
X153690476Y-75452380D02*
X154023809Y-75976190D01*
X154357142Y-75452380D01*
X154642857Y-75547619D02*
X154690476Y-75500000D01*
X154785714Y-75452380D01*
X155023809Y-75452380D01*
X155119047Y-75500000D01*
X155166666Y-75547619D01*
X155214285Y-75642857D01*
X155214285Y-75738095D01*
X155166666Y-75880952D01*
X154595238Y-76452380D01*
X155214285Y-76452380D01*
X190515714Y-64492380D02*
X190515714Y-63492380D01*
X190753809Y-63492380D01*
X190896666Y-63540000D01*
X190991904Y-63635238D01*
X191039523Y-63730476D01*
X191087142Y-63920952D01*
X191087142Y-64063809D01*
X191039523Y-64254285D01*
X190991904Y-64349523D01*
X190896666Y-64444761D01*
X190753809Y-64492380D01*
X190515714Y-64492380D01*
X192039523Y-64492380D02*
X191468095Y-64492380D01*
X191753809Y-64492380D02*
X191753809Y-63492380D01*
X191658571Y-63635238D01*
X191563333Y-63730476D01*
X191468095Y-63778095D01*
X192515714Y-64492380D02*
X192706190Y-64492380D01*
X192801428Y-64444761D01*
X192849047Y-64397142D01*
X192944285Y-64254285D01*
X192991904Y-64063809D01*
X192991904Y-63682857D01*
X192944285Y-63587619D01*
X192896666Y-63540000D01*
X192801428Y-63492380D01*
X192610952Y-63492380D01*
X192515714Y-63540000D01*
X192468095Y-63587619D01*
X192420476Y-63682857D01*
X192420476Y-63920952D01*
X192468095Y-64016190D01*
X192515714Y-64063809D01*
X192610952Y-64111428D01*
X192801428Y-64111428D01*
X192896666Y-64063809D01*
X192944285Y-64016190D01*
X192991904Y-63920952D01*
X123735714Y-122547619D02*
X123735714Y-122166666D01*
X124402380Y-122404761D02*
X123545238Y-122404761D01*
X123450000Y-122357142D01*
X123402380Y-122261904D01*
X123402380Y-122166666D01*
X124402380Y-121833333D02*
X123402380Y-121833333D01*
X123783333Y-121833333D02*
X123735714Y-121738095D01*
X123735714Y-121547619D01*
X123783333Y-121452380D01*
X123830952Y-121404761D01*
X123926190Y-121357142D01*
X124211904Y-121357142D01*
X124307142Y-121404761D01*
X124354761Y-121452380D01*
X124402380Y-121547619D01*
X124402380Y-121738095D01*
X124354761Y-121833333D01*
X124354761Y-120500000D02*
X124402380Y-120595238D01*
X124402380Y-120785714D01*
X124354761Y-120880952D01*
X124307142Y-120928571D01*
X124211904Y-120976190D01*
X123926190Y-120976190D01*
X123830952Y-120928571D01*
X123783333Y-120880952D01*
X123735714Y-120785714D01*
X123735714Y-120595238D01*
X123783333Y-120500000D01*
X124402380Y-119547619D02*
X124402380Y-120119047D01*
X124402380Y-119833333D02*
X123402380Y-119833333D01*
X123545238Y-119928571D01*
X123640476Y-120023809D01*
X123688095Y-120119047D01*
X202780714Y-101492380D02*
X202780714Y-100492380D01*
X203018809Y-100492380D01*
X203161666Y-100540000D01*
X203256904Y-100635238D01*
X203304523Y-100730476D01*
X203352142Y-100920952D01*
X203352142Y-101063809D01*
X203304523Y-101254285D01*
X203256904Y-101349523D01*
X203161666Y-101444761D01*
X203018809Y-101492380D01*
X202780714Y-101492380D01*
X203685476Y-100492380D02*
X204304523Y-100492380D01*
X203971190Y-100873333D01*
X204114047Y-100873333D01*
X204209285Y-100920952D01*
X204256904Y-100968571D01*
X204304523Y-101063809D01*
X204304523Y-101301904D01*
X204256904Y-101397142D01*
X204209285Y-101444761D01*
X204114047Y-101492380D01*
X203828333Y-101492380D01*
X203733095Y-101444761D01*
X203685476Y-101397142D01*
X204875952Y-100920952D02*
X204780714Y-100873333D01*
X204733095Y-100825714D01*
X204685476Y-100730476D01*
X204685476Y-100682857D01*
X204733095Y-100587619D01*
X204780714Y-100540000D01*
X204875952Y-100492380D01*
X205066428Y-100492380D01*
X205161666Y-100540000D01*
X205209285Y-100587619D01*
X205256904Y-100682857D01*
X205256904Y-100730476D01*
X205209285Y-100825714D01*
X205161666Y-100873333D01*
X205066428Y-100920952D01*
X204875952Y-100920952D01*
X204780714Y-100968571D01*
X204733095Y-101016190D01*
X204685476Y-101111428D01*
X204685476Y-101301904D01*
X204733095Y-101397142D01*
X204780714Y-101444761D01*
X204875952Y-101492380D01*
X205066428Y-101492380D01*
X205161666Y-101444761D01*
X205209285Y-101397142D01*
X205256904Y-101301904D01*
X205256904Y-101111428D01*
X205209285Y-101016190D01*
X205161666Y-100968571D01*
X205066428Y-100920952D01*
X165515714Y-64492380D02*
X165515714Y-63492380D01*
X165753809Y-63492380D01*
X165896666Y-63540000D01*
X165991904Y-63635238D01*
X166039523Y-63730476D01*
X166087142Y-63920952D01*
X166087142Y-64063809D01*
X166039523Y-64254285D01*
X165991904Y-64349523D01*
X165896666Y-64444761D01*
X165753809Y-64492380D01*
X165515714Y-64492380D01*
X167039523Y-64492380D02*
X166468095Y-64492380D01*
X166753809Y-64492380D02*
X166753809Y-63492380D01*
X166658571Y-63635238D01*
X166563333Y-63730476D01*
X166468095Y-63778095D01*
X167372857Y-63492380D02*
X168039523Y-63492380D01*
X167610952Y-64492380D01*
X228190476Y-45452380D02*
X228857142Y-46452380D01*
X228857142Y-45452380D02*
X228190476Y-46452380D01*
X229666666Y-45452380D02*
X229476190Y-45452380D01*
X229380952Y-45500000D01*
X229333333Y-45547619D01*
X229238095Y-45690476D01*
X229190476Y-45880952D01*
X229190476Y-46261904D01*
X229238095Y-46357142D01*
X229285714Y-46404761D01*
X229380952Y-46452380D01*
X229571428Y-46452380D01*
X229666666Y-46404761D01*
X229714285Y-46357142D01*
X229761904Y-46261904D01*
X229761904Y-46023809D01*
X229714285Y-45928571D01*
X229666666Y-45880952D01*
X229571428Y-45833333D01*
X229380952Y-45833333D01*
X229285714Y-45880952D01*
X229238095Y-45928571D01*
X229190476Y-46023809D01*
X178280714Y-101492380D02*
X178280714Y-100492380D01*
X178518809Y-100492380D01*
X178661666Y-100540000D01*
X178756904Y-100635238D01*
X178804523Y-100730476D01*
X178852142Y-100920952D01*
X178852142Y-101063809D01*
X178804523Y-101254285D01*
X178756904Y-101349523D01*
X178661666Y-101444761D01*
X178518809Y-101492380D01*
X178280714Y-101492380D01*
X179185476Y-100492380D02*
X179804523Y-100492380D01*
X179471190Y-100873333D01*
X179614047Y-100873333D01*
X179709285Y-100920952D01*
X179756904Y-100968571D01*
X179804523Y-101063809D01*
X179804523Y-101301904D01*
X179756904Y-101397142D01*
X179709285Y-101444761D01*
X179614047Y-101492380D01*
X179328333Y-101492380D01*
X179233095Y-101444761D01*
X179185476Y-101397142D01*
X180661666Y-100492380D02*
X180471190Y-100492380D01*
X180375952Y-100540000D01*
X180328333Y-100587619D01*
X180233095Y-100730476D01*
X180185476Y-100920952D01*
X180185476Y-101301904D01*
X180233095Y-101397142D01*
X180280714Y-101444761D01*
X180375952Y-101492380D01*
X180566428Y-101492380D01*
X180661666Y-101444761D01*
X180709285Y-101397142D01*
X180756904Y-101301904D01*
X180756904Y-101063809D01*
X180709285Y-100968571D01*
X180661666Y-100920952D01*
X180566428Y-100873333D01*
X180375952Y-100873333D01*
X180280714Y-100920952D01*
X180233095Y-100968571D01*
X180185476Y-101063809D01*
X54666666Y-78989285D02*
X54666666Y-78513095D01*
X54952380Y-79084523D02*
X53952380Y-78751190D01*
X54952380Y-78417857D01*
X54285714Y-77655952D02*
X54952380Y-77655952D01*
X53904761Y-77894047D02*
X54619047Y-78132142D01*
X54619047Y-77513095D01*
X99380952Y-61942380D02*
X98904761Y-61942380D01*
X98904761Y-60942380D01*
X99714285Y-61418571D02*
X100047619Y-61418571D01*
X100190476Y-61942380D02*
X99714285Y-61942380D01*
X99714285Y-60942380D01*
X100190476Y-60942380D01*
X100619047Y-61942380D02*
X100619047Y-60942380D01*
X100857142Y-60942380D01*
X101000000Y-60990000D01*
X101095238Y-61085238D01*
X101142857Y-61180476D01*
X101190476Y-61370952D01*
X101190476Y-61513809D01*
X101142857Y-61704285D01*
X101095238Y-61799523D01*
X101000000Y-61894761D01*
X100857142Y-61942380D01*
X100619047Y-61942380D01*
X101952380Y-61418571D02*
X102095238Y-61466190D01*
X102142857Y-61513809D01*
X102190476Y-61609047D01*
X102190476Y-61751904D01*
X102142857Y-61847142D01*
X102095238Y-61894761D01*
X102000000Y-61942380D01*
X101619047Y-61942380D01*
X101619047Y-60942380D01*
X101952380Y-60942380D01*
X102047619Y-60990000D01*
X102095238Y-61037619D01*
X102142857Y-61132857D01*
X102142857Y-61228095D01*
X102095238Y-61323333D01*
X102047619Y-61370952D01*
X101952380Y-61418571D01*
X101619047Y-61418571D01*
X102571428Y-61037619D02*
X102619047Y-60990000D01*
X102714285Y-60942380D01*
X102952380Y-60942380D01*
X103047619Y-60990000D01*
X103095238Y-61037619D01*
X103142857Y-61132857D01*
X103142857Y-61228095D01*
X103095238Y-61370952D01*
X102523809Y-61942380D01*
X103142857Y-61942380D01*
X228015714Y-64492380D02*
X228015714Y-63492380D01*
X228253809Y-63492380D01*
X228396666Y-63540000D01*
X228491904Y-63635238D01*
X228539523Y-63730476D01*
X228587142Y-63920952D01*
X228587142Y-64063809D01*
X228539523Y-64254285D01*
X228491904Y-64349523D01*
X228396666Y-64444761D01*
X228253809Y-64492380D01*
X228015714Y-64492380D01*
X228968095Y-63587619D02*
X229015714Y-63540000D01*
X229110952Y-63492380D01*
X229349047Y-63492380D01*
X229444285Y-63540000D01*
X229491904Y-63587619D01*
X229539523Y-63682857D01*
X229539523Y-63778095D01*
X229491904Y-63920952D01*
X228920476Y-64492380D01*
X229539523Y-64492380D01*
X229920476Y-63587619D02*
X229968095Y-63540000D01*
X230063333Y-63492380D01*
X230301428Y-63492380D01*
X230396666Y-63540000D01*
X230444285Y-63587619D01*
X230491904Y-63682857D01*
X230491904Y-63778095D01*
X230444285Y-63920952D01*
X229872857Y-64492380D01*
X230491904Y-64492380D01*
X90788571Y-98694761D02*
X90836190Y-98551904D01*
X90883809Y-98504285D01*
X90979047Y-98456666D01*
X91121904Y-98456666D01*
X91217142Y-98504285D01*
X91264761Y-98551904D01*
X91312380Y-98647142D01*
X91312380Y-99028095D01*
X90312380Y-99028095D01*
X90312380Y-98694761D01*
X90360000Y-98599523D01*
X90407619Y-98551904D01*
X90502857Y-98504285D01*
X90598095Y-98504285D01*
X90693333Y-98551904D01*
X90740952Y-98599523D01*
X90788571Y-98694761D01*
X90788571Y-99028095D01*
X90312380Y-97599523D02*
X90312380Y-97790000D01*
X90360000Y-97885238D01*
X90407619Y-97932857D01*
X90550476Y-98028095D01*
X90740952Y-98075714D01*
X91121904Y-98075714D01*
X91217142Y-98028095D01*
X91264761Y-97980476D01*
X91312380Y-97885238D01*
X91312380Y-97694761D01*
X91264761Y-97599523D01*
X91217142Y-97551904D01*
X91121904Y-97504285D01*
X90883809Y-97504285D01*
X90788571Y-97551904D01*
X90740952Y-97599523D01*
X90693333Y-97694761D01*
X90693333Y-97885238D01*
X90740952Y-97980476D01*
X90788571Y-98028095D01*
X90883809Y-98075714D01*
X90788571Y-62679761D02*
X90836190Y-62536904D01*
X90883809Y-62489285D01*
X90979047Y-62441666D01*
X91121904Y-62441666D01*
X91217142Y-62489285D01*
X91264761Y-62536904D01*
X91312380Y-62632142D01*
X91312380Y-63013095D01*
X90312380Y-63013095D01*
X90312380Y-62679761D01*
X90360000Y-62584523D01*
X90407619Y-62536904D01*
X90502857Y-62489285D01*
X90598095Y-62489285D01*
X90693333Y-62536904D01*
X90740952Y-62584523D01*
X90788571Y-62679761D01*
X90788571Y-63013095D01*
X90407619Y-62060714D02*
X90360000Y-62013095D01*
X90312380Y-61917857D01*
X90312380Y-61679761D01*
X90360000Y-61584523D01*
X90407619Y-61536904D01*
X90502857Y-61489285D01*
X90598095Y-61489285D01*
X90740952Y-61536904D01*
X91312380Y-62108333D01*
X91312380Y-61489285D01*
X154023809Y-88476190D02*
X154023809Y-88952380D01*
X153690476Y-87952380D02*
X154023809Y-88476190D01*
X154357142Y-87952380D01*
X154595238Y-87952380D02*
X155214285Y-87952380D01*
X154880952Y-88333333D01*
X155023809Y-88333333D01*
X155119047Y-88380952D01*
X155166666Y-88428571D01*
X155214285Y-88523809D01*
X155214285Y-88761904D01*
X155166666Y-88857142D01*
X155119047Y-88904761D01*
X155023809Y-88952380D01*
X154738095Y-88952380D01*
X154642857Y-88904761D01*
X154595238Y-88857142D01*
X74428571Y-63179761D02*
X74476190Y-63036904D01*
X74523809Y-62989285D01*
X74619047Y-62941666D01*
X74761904Y-62941666D01*
X74857142Y-62989285D01*
X74904761Y-63036904D01*
X74952380Y-63132142D01*
X74952380Y-63513095D01*
X73952380Y-63513095D01*
X73952380Y-63179761D01*
X74000000Y-63084523D01*
X74047619Y-63036904D01*
X74142857Y-62989285D01*
X74238095Y-62989285D01*
X74333333Y-63036904D01*
X74380952Y-63084523D01*
X74428571Y-63179761D01*
X74428571Y-63513095D01*
X74952380Y-61989285D02*
X74952380Y-62560714D01*
X74952380Y-62275000D02*
X73952380Y-62275000D01*
X74095238Y-62370238D01*
X74190476Y-62465476D01*
X74238095Y-62560714D01*
X216005714Y-76992380D02*
X216005714Y-75992380D01*
X216243809Y-75992380D01*
X216386666Y-76040000D01*
X216481904Y-76135238D01*
X216529523Y-76230476D01*
X216577142Y-76420952D01*
X216577142Y-76563809D01*
X216529523Y-76754285D01*
X216481904Y-76849523D01*
X216386666Y-76944761D01*
X216243809Y-76992380D01*
X216005714Y-76992380D01*
X216958095Y-76087619D02*
X217005714Y-76040000D01*
X217100952Y-75992380D01*
X217339047Y-75992380D01*
X217434285Y-76040000D01*
X217481904Y-76087619D01*
X217529523Y-76182857D01*
X217529523Y-76278095D01*
X217481904Y-76420952D01*
X216910476Y-76992380D01*
X217529523Y-76992380D01*
X217862857Y-75992380D02*
X218529523Y-75992380D01*
X218100952Y-76992380D01*
X154023809Y-63476190D02*
X154023809Y-63952380D01*
X153690476Y-62952380D02*
X154023809Y-63476190D01*
X154357142Y-62952380D01*
X155214285Y-63952380D02*
X154642857Y-63952380D01*
X154928571Y-63952380D02*
X154928571Y-62952380D01*
X154833333Y-63095238D01*
X154738095Y-63190476D01*
X154642857Y-63238095D01*
X111252380Y-83363333D02*
X111966666Y-83363333D01*
X112109523Y-83410952D01*
X112204761Y-83506190D01*
X112252380Y-83649047D01*
X112252380Y-83744285D01*
X112252380Y-82363333D02*
X112252380Y-82934761D01*
X112252380Y-82649047D02*
X111252380Y-82649047D01*
X111395238Y-82744285D01*
X111490476Y-82839523D01*
X111538095Y-82934761D01*
X90788571Y-114694761D02*
X90836190Y-114551904D01*
X90883809Y-114504285D01*
X90979047Y-114456666D01*
X91121904Y-114456666D01*
X91217142Y-114504285D01*
X91264761Y-114551904D01*
X91312380Y-114647142D01*
X91312380Y-115028095D01*
X90312380Y-115028095D01*
X90312380Y-114694761D01*
X90360000Y-114599523D01*
X90407619Y-114551904D01*
X90502857Y-114504285D01*
X90598095Y-114504285D01*
X90693333Y-114551904D01*
X90740952Y-114599523D01*
X90788571Y-114694761D01*
X90788571Y-115028095D01*
X90740952Y-113885238D02*
X90693333Y-113980476D01*
X90645714Y-114028095D01*
X90550476Y-114075714D01*
X90502857Y-114075714D01*
X90407619Y-114028095D01*
X90360000Y-113980476D01*
X90312380Y-113885238D01*
X90312380Y-113694761D01*
X90360000Y-113599523D01*
X90407619Y-113551904D01*
X90502857Y-113504285D01*
X90550476Y-113504285D01*
X90645714Y-113551904D01*
X90693333Y-113599523D01*
X90740952Y-113694761D01*
X90740952Y-113885238D01*
X90788571Y-113980476D01*
X90836190Y-114028095D01*
X90931428Y-114075714D01*
X91121904Y-114075714D01*
X91217142Y-114028095D01*
X91264761Y-113980476D01*
X91312380Y-113885238D01*
X91312380Y-113694761D01*
X91264761Y-113599523D01*
X91217142Y-113551904D01*
X91121904Y-113504285D01*
X90931428Y-113504285D01*
X90836190Y-113551904D01*
X90788571Y-113599523D01*
X90740952Y-113694761D01*
X178015714Y-64492380D02*
X178015714Y-63492380D01*
X178253809Y-63492380D01*
X178396666Y-63540000D01*
X178491904Y-63635238D01*
X178539523Y-63730476D01*
X178587142Y-63920952D01*
X178587142Y-64063809D01*
X178539523Y-64254285D01*
X178491904Y-64349523D01*
X178396666Y-64444761D01*
X178253809Y-64492380D01*
X178015714Y-64492380D01*
X179539523Y-64492380D02*
X178968095Y-64492380D01*
X179253809Y-64492380D02*
X179253809Y-63492380D01*
X179158571Y-63635238D01*
X179063333Y-63730476D01*
X178968095Y-63778095D01*
X180110952Y-63920952D02*
X180015714Y-63873333D01*
X179968095Y-63825714D01*
X179920476Y-63730476D01*
X179920476Y-63682857D01*
X179968095Y-63587619D01*
X180015714Y-63540000D01*
X180110952Y-63492380D01*
X180301428Y-63492380D01*
X180396666Y-63540000D01*
X180444285Y-63587619D01*
X180491904Y-63682857D01*
X180491904Y-63730476D01*
X180444285Y-63825714D01*
X180396666Y-63873333D01*
X180301428Y-63920952D01*
X180110952Y-63920952D01*
X180015714Y-63968571D01*
X179968095Y-64016190D01*
X179920476Y-64111428D01*
X179920476Y-64301904D01*
X179968095Y-64397142D01*
X180015714Y-64444761D01*
X180110952Y-64492380D01*
X180301428Y-64492380D01*
X180396666Y-64444761D01*
X180444285Y-64397142D01*
X180491904Y-64301904D01*
X180491904Y-64111428D01*
X180444285Y-64016190D01*
X180396666Y-63968571D01*
X180301428Y-63920952D01*
X136166666Y-77804761D02*
X136309523Y-77852380D01*
X136547619Y-77852380D01*
X136642857Y-77804761D01*
X136690476Y-77757142D01*
X136738095Y-77661904D01*
X136738095Y-77566666D01*
X136690476Y-77471428D01*
X136642857Y-77423809D01*
X136547619Y-77376190D01*
X136357142Y-77328571D01*
X136261904Y-77280952D01*
X136214285Y-77233333D01*
X136166666Y-77138095D01*
X136166666Y-77042857D01*
X136214285Y-76947619D01*
X136261904Y-76900000D01*
X136357142Y-76852380D01*
X136595238Y-76852380D01*
X136738095Y-76900000D01*
X137071428Y-76852380D02*
X137309523Y-77852380D01*
X137500000Y-77138095D01*
X137690476Y-77852380D01*
X137928571Y-76852380D01*
X138833333Y-77852380D02*
X138261904Y-77852380D01*
X138547619Y-77852380D02*
X138547619Y-76852380D01*
X138452380Y-76995238D01*
X138357142Y-77090476D01*
X138261904Y-77138095D01*
X216005714Y-112992380D02*
X216005714Y-111992380D01*
X216243809Y-111992380D01*
X216386666Y-112040000D01*
X216481904Y-112135238D01*
X216529523Y-112230476D01*
X216577142Y-112420952D01*
X216577142Y-112563809D01*
X216529523Y-112754285D01*
X216481904Y-112849523D01*
X216386666Y-112944761D01*
X216243809Y-112992380D01*
X216005714Y-112992380D01*
X217434285Y-112325714D02*
X217434285Y-112992380D01*
X217196190Y-111944761D02*
X216958095Y-112659047D01*
X217577142Y-112659047D01*
X218434285Y-111992380D02*
X217958095Y-111992380D01*
X217910476Y-112468571D01*
X217958095Y-112420952D01*
X218053333Y-112373333D01*
X218291428Y-112373333D01*
X218386666Y-112420952D01*
X218434285Y-112468571D01*
X218481904Y-112563809D01*
X218481904Y-112801904D01*
X218434285Y-112897142D01*
X218386666Y-112944761D01*
X218291428Y-112992380D01*
X218053333Y-112992380D01*
X217958095Y-112944761D01*
X217910476Y-112897142D01*
X216005714Y-101492380D02*
X216005714Y-100492380D01*
X216243809Y-100492380D01*
X216386666Y-100540000D01*
X216481904Y-100635238D01*
X216529523Y-100730476D01*
X216577142Y-100920952D01*
X216577142Y-101063809D01*
X216529523Y-101254285D01*
X216481904Y-101349523D01*
X216386666Y-101444761D01*
X216243809Y-101492380D01*
X216005714Y-101492380D01*
X216910476Y-100492380D02*
X217529523Y-100492380D01*
X217196190Y-100873333D01*
X217339047Y-100873333D01*
X217434285Y-100920952D01*
X217481904Y-100968571D01*
X217529523Y-101063809D01*
X217529523Y-101301904D01*
X217481904Y-101397142D01*
X217434285Y-101444761D01*
X217339047Y-101492380D01*
X217053333Y-101492380D01*
X216958095Y-101444761D01*
X216910476Y-101397142D01*
X218005714Y-101492380D02*
X218196190Y-101492380D01*
X218291428Y-101444761D01*
X218339047Y-101397142D01*
X218434285Y-101254285D01*
X218481904Y-101063809D01*
X218481904Y-100682857D01*
X218434285Y-100587619D01*
X218386666Y-100540000D01*
X218291428Y-100492380D01*
X218100952Y-100492380D01*
X218005714Y-100540000D01*
X217958095Y-100587619D01*
X217910476Y-100682857D01*
X217910476Y-100920952D01*
X217958095Y-101016190D01*
X218005714Y-101063809D01*
X218100952Y-101111428D01*
X218291428Y-101111428D01*
X218386666Y-101063809D01*
X218434285Y-101016190D01*
X218481904Y-100920952D01*
X74428571Y-79679761D02*
X74476190Y-79536904D01*
X74523809Y-79489285D01*
X74619047Y-79441666D01*
X74761904Y-79441666D01*
X74857142Y-79489285D01*
X74904761Y-79536904D01*
X74952380Y-79632142D01*
X74952380Y-80013095D01*
X73952380Y-80013095D01*
X73952380Y-79679761D01*
X74000000Y-79584523D01*
X74047619Y-79536904D01*
X74142857Y-79489285D01*
X74238095Y-79489285D01*
X74333333Y-79536904D01*
X74380952Y-79584523D01*
X74428571Y-79679761D01*
X74428571Y-80013095D01*
X73952380Y-79108333D02*
X73952380Y-78489285D01*
X74333333Y-78822619D01*
X74333333Y-78679761D01*
X74380952Y-78584523D01*
X74428571Y-78536904D01*
X74523809Y-78489285D01*
X74761904Y-78489285D01*
X74857142Y-78536904D01*
X74904761Y-78584523D01*
X74952380Y-78679761D01*
X74952380Y-78965476D01*
X74904761Y-79060714D01*
X74857142Y-79108333D01*
X190515714Y-76992380D02*
X190515714Y-75992380D01*
X190753809Y-75992380D01*
X190896666Y-76040000D01*
X190991904Y-76135238D01*
X191039523Y-76230476D01*
X191087142Y-76420952D01*
X191087142Y-76563809D01*
X191039523Y-76754285D01*
X190991904Y-76849523D01*
X190896666Y-76944761D01*
X190753809Y-76992380D01*
X190515714Y-76992380D01*
X191468095Y-76087619D02*
X191515714Y-76040000D01*
X191610952Y-75992380D01*
X191849047Y-75992380D01*
X191944285Y-76040000D01*
X191991904Y-76087619D01*
X192039523Y-76182857D01*
X192039523Y-76278095D01*
X191991904Y-76420952D01*
X191420476Y-76992380D01*
X192039523Y-76992380D01*
X192944285Y-75992380D02*
X192468095Y-75992380D01*
X192420476Y-76468571D01*
X192468095Y-76420952D01*
X192563333Y-76373333D01*
X192801428Y-76373333D01*
X192896666Y-76420952D01*
X192944285Y-76468571D01*
X192991904Y-76563809D01*
X192991904Y-76801904D01*
X192944285Y-76897142D01*
X192896666Y-76944761D01*
X192801428Y-76992380D01*
X192563333Y-76992380D01*
X192468095Y-76944761D01*
X192420476Y-76897142D01*
X99380952Y-93902380D02*
X98904761Y-93902380D01*
X98904761Y-92902380D01*
X99714285Y-93378571D02*
X100047619Y-93378571D01*
X100190476Y-93902380D02*
X99714285Y-93902380D01*
X99714285Y-92902380D01*
X100190476Y-92902380D01*
X100619047Y-93902380D02*
X100619047Y-92902380D01*
X100857142Y-92902380D01*
X101000000Y-92950000D01*
X101095238Y-93045238D01*
X101142857Y-93140476D01*
X101190476Y-93330952D01*
X101190476Y-93473809D01*
X101142857Y-93664285D01*
X101095238Y-93759523D01*
X101000000Y-93854761D01*
X100857142Y-93902380D01*
X100619047Y-93902380D01*
X101952380Y-93378571D02*
X102095238Y-93426190D01*
X102142857Y-93473809D01*
X102190476Y-93569047D01*
X102190476Y-93711904D01*
X102142857Y-93807142D01*
X102095238Y-93854761D01*
X102000000Y-93902380D01*
X101619047Y-93902380D01*
X101619047Y-92902380D01*
X101952380Y-92902380D01*
X102047619Y-92950000D01*
X102095238Y-92997619D01*
X102142857Y-93092857D01*
X102142857Y-93188095D01*
X102095238Y-93283333D01*
X102047619Y-93330952D01*
X101952380Y-93378571D01*
X101619047Y-93378571D01*
X103047619Y-92902380D02*
X102857142Y-92902380D01*
X102761904Y-92950000D01*
X102714285Y-92997619D01*
X102619047Y-93140476D01*
X102571428Y-93330952D01*
X102571428Y-93711904D01*
X102619047Y-93807142D01*
X102666666Y-93854761D01*
X102761904Y-93902380D01*
X102952380Y-93902380D01*
X103047619Y-93854761D01*
X103095238Y-93807142D01*
X103142857Y-93711904D01*
X103142857Y-93473809D01*
X103095238Y-93378571D01*
X103047619Y-93330952D01*
X102952380Y-93283333D01*
X102761904Y-93283333D01*
X102666666Y-93330952D01*
X102619047Y-93378571D01*
X102571428Y-93473809D01*
X215690476Y-45452380D02*
X216357142Y-46452380D01*
X216357142Y-45452380D02*
X215690476Y-46452380D01*
X217214285Y-45452380D02*
X216738095Y-45452380D01*
X216690476Y-45928571D01*
X216738095Y-45880952D01*
X216833333Y-45833333D01*
X217071428Y-45833333D01*
X217166666Y-45880952D01*
X217214285Y-45928571D01*
X217261904Y-46023809D01*
X217261904Y-46261904D01*
X217214285Y-46357142D01*
X217166666Y-46404761D01*
X217071428Y-46452380D01*
X216833333Y-46452380D01*
X216738095Y-46404761D01*
X216690476Y-46357142D01*
X117357142Y-125322380D02*
X117023809Y-124846190D01*
X116785714Y-125322380D02*
X116785714Y-124322380D01*
X117166666Y-124322380D01*
X117261904Y-124370000D01*
X117309523Y-124417619D01*
X117357142Y-124512857D01*
X117357142Y-124655714D01*
X117309523Y-124750952D01*
X117261904Y-124798571D01*
X117166666Y-124846190D01*
X116785714Y-124846190D01*
X118309523Y-125322380D02*
X117738095Y-125322380D01*
X118023809Y-125322380D02*
X118023809Y-124322380D01*
X117928571Y-124465238D01*
X117833333Y-124560476D01*
X117738095Y-124608095D01*
X118928571Y-124322380D02*
X119023809Y-124322380D01*
X119119047Y-124370000D01*
X119166666Y-124417619D01*
X119214285Y-124512857D01*
X119261904Y-124703333D01*
X119261904Y-124941428D01*
X119214285Y-125131904D01*
X119166666Y-125227142D01*
X119119047Y-125274761D01*
X119023809Y-125322380D01*
X118928571Y-125322380D01*
X118833333Y-125274761D01*
X118785714Y-125227142D01*
X118738095Y-125131904D01*
X118690476Y-124941428D01*
X118690476Y-124703333D01*
X118738095Y-124512857D01*
X118785714Y-124417619D01*
X118833333Y-124370000D01*
X118928571Y-124322380D01*
X74428571Y-110679761D02*
X74476190Y-110536904D01*
X74523809Y-110489285D01*
X74619047Y-110441666D01*
X74761904Y-110441666D01*
X74857142Y-110489285D01*
X74904761Y-110536904D01*
X74952380Y-110632142D01*
X74952380Y-111013095D01*
X73952380Y-111013095D01*
X73952380Y-110679761D01*
X74000000Y-110584523D01*
X74047619Y-110536904D01*
X74142857Y-110489285D01*
X74238095Y-110489285D01*
X74333333Y-110536904D01*
X74380952Y-110584523D01*
X74428571Y-110679761D01*
X74428571Y-111013095D01*
X73952380Y-110108333D02*
X73952380Y-109441666D01*
X74952380Y-109870238D01*
X124082380Y-104666666D02*
X123606190Y-105000000D01*
X124082380Y-105238095D02*
X123082380Y-105238095D01*
X123082380Y-104857142D01*
X123130000Y-104761904D01*
X123177619Y-104714285D01*
X123272857Y-104666666D01*
X123415714Y-104666666D01*
X123510952Y-104714285D01*
X123558571Y-104761904D01*
X123606190Y-104857142D01*
X123606190Y-105238095D01*
X123082380Y-104333333D02*
X123082380Y-103666666D01*
X124082380Y-104095238D01*
X202780714Y-64492380D02*
X202780714Y-63492380D01*
X203018809Y-63492380D01*
X203161666Y-63540000D01*
X203256904Y-63635238D01*
X203304523Y-63730476D01*
X203352142Y-63920952D01*
X203352142Y-64063809D01*
X203304523Y-64254285D01*
X203256904Y-64349523D01*
X203161666Y-64444761D01*
X203018809Y-64492380D01*
X202780714Y-64492380D01*
X203733095Y-63587619D02*
X203780714Y-63540000D01*
X203875952Y-63492380D01*
X204114047Y-63492380D01*
X204209285Y-63540000D01*
X204256904Y-63587619D01*
X204304523Y-63682857D01*
X204304523Y-63778095D01*
X204256904Y-63920952D01*
X203685476Y-64492380D01*
X204304523Y-64492380D01*
X204923571Y-63492380D02*
X205018809Y-63492380D01*
X205114047Y-63540000D01*
X205161666Y-63587619D01*
X205209285Y-63682857D01*
X205256904Y-63873333D01*
X205256904Y-64111428D01*
X205209285Y-64301904D01*
X205161666Y-64397142D01*
X205114047Y-64444761D01*
X205018809Y-64492380D01*
X204923571Y-64492380D01*
X204828333Y-64444761D01*
X204780714Y-64397142D01*
X204733095Y-64301904D01*
X204685476Y-64111428D01*
X204685476Y-63873333D01*
X204733095Y-63682857D01*
X204780714Y-63587619D01*
X204828333Y-63540000D01*
X204923571Y-63492380D01*
X36806666Y-95214285D02*
X36806666Y-94738095D01*
X37092380Y-95309523D02*
X36092380Y-94976190D01*
X37092380Y-94642857D01*
X36092380Y-93833333D02*
X36092380Y-94309523D01*
X36568571Y-94357142D01*
X36520952Y-94309523D01*
X36473333Y-94214285D01*
X36473333Y-93976190D01*
X36520952Y-93880952D01*
X36568571Y-93833333D01*
X36663809Y-93785714D01*
X36901904Y-93785714D01*
X36997142Y-93833333D01*
X37044761Y-93880952D01*
X37092380Y-93976190D01*
X37092380Y-94214285D01*
X37044761Y-94309523D01*
X36997142Y-94357142D01*
X165555714Y-125492380D02*
X165555714Y-124492380D01*
X165793809Y-124492380D01*
X165936666Y-124540000D01*
X166031904Y-124635238D01*
X166079523Y-124730476D01*
X166127142Y-124920952D01*
X166127142Y-125063809D01*
X166079523Y-125254285D01*
X166031904Y-125349523D01*
X165936666Y-125444761D01*
X165793809Y-125492380D01*
X165555714Y-125492380D01*
X166984285Y-124825714D02*
X166984285Y-125492380D01*
X166746190Y-124444761D02*
X166508095Y-125159047D01*
X167127142Y-125159047D01*
X167412857Y-124492380D02*
X168079523Y-124492380D01*
X167650952Y-125492380D01*
D11*
X177935000Y-80580000D02*
X177935000Y-80736000D01*
X177935000Y-78264000D02*
X177935000Y-78420000D01*
X178454039Y-80580000D02*
G75*
G03*
X180536130Y-80579837I1040961J1080000D01*
G01*
X177935000Y-80735516D02*
G75*
G03*
X181167335Y-80578608I1560000J1235516D01*
G01*
X181167335Y-78421392D02*
G75*
G03*
X177935000Y-78264484I-1672335J-1078608D01*
G01*
X180536130Y-78420163D02*
G75*
G03*
X178454039Y-78420000I-1041130J-1079837D01*
G01*
X62460000Y-135270000D02*
X62130000Y-135270000D01*
X62130000Y-135270000D02*
X62130000Y-128730000D01*
X64540000Y-135270000D02*
X64870000Y-135270000D01*
X62130000Y-128730000D02*
X62460000Y-128730000D01*
X64870000Y-128730000D02*
X64540000Y-128730000D01*
X64870000Y-135270000D02*
X64870000Y-128730000D01*
X58730000Y-48360000D02*
X38290000Y-48360000D01*
X58730000Y-50010000D02*
X58730000Y-48360000D01*
X38290000Y-53660000D02*
X58730000Y-53660000D01*
X38230000Y-56150000D02*
X58790000Y-56150000D01*
X58790000Y-45870000D02*
X38230000Y-45870000D01*
X38290000Y-48360000D02*
X38290000Y-53660000D01*
X58730000Y-53660000D02*
X58730000Y-52010000D01*
X38230000Y-45870000D02*
X38230000Y-56150000D01*
X58790000Y-56150000D02*
X58790000Y-45870000D01*
X58730000Y-50010000D02*
G75*
G03*
X58730000Y-52010000I0J-1000000D01*
G01*
X202210000Y-78264000D02*
X202210000Y-78420000D01*
X202210000Y-80580000D02*
X202210000Y-80736000D01*
X202729039Y-80580000D02*
G75*
G03*
X204811130Y-80579837I1040961J1080000D01*
G01*
X205442335Y-78421392D02*
G75*
G03*
X202210000Y-78264484I-1672335J-1078608D01*
G01*
X202210000Y-80735516D02*
G75*
G03*
X205442335Y-80578608I1560000J1235516D01*
G01*
X204811130Y-78420163D02*
G75*
G03*
X202729039Y-78420000I-1041130J-1079837D01*
G01*
X143500000Y-110000000D02*
G75*
G03*
X143500000Y-110000000I-6000000J0D01*
G01*
X65370000Y-52770000D02*
X65370000Y-46230000D01*
X65370000Y-46230000D02*
X65040000Y-46230000D01*
X62630000Y-52770000D02*
X62630000Y-46230000D01*
X65040000Y-52770000D02*
X65370000Y-52770000D01*
X62630000Y-46230000D02*
X62960000Y-46230000D01*
X62960000Y-52770000D02*
X62630000Y-52770000D01*
X45580000Y-67715000D02*
X45736000Y-67715000D01*
X43264000Y-67715000D02*
X43420000Y-67715000D01*
X45735516Y-67715000D02*
G75*
G03*
X45578608Y-64482665I-1235516J1560000D01*
G01*
X43421392Y-64482665D02*
G75*
G03*
X43264484Y-67715000I1078608J-1672335D01*
G01*
X43420163Y-65113870D02*
G75*
G03*
X43420000Y-67195961I1079837J-1041130D01*
G01*
X45580000Y-67195961D02*
G75*
G03*
X45579837Y-65113870I-1080000J1040961D01*
G01*
X227895000Y-80580000D02*
X227895000Y-80736000D01*
X227895000Y-78264000D02*
X227895000Y-78420000D01*
X231127335Y-78421392D02*
G75*
G03*
X227895000Y-78264484I-1672335J-1078608D01*
G01*
X228414039Y-80580000D02*
G75*
G03*
X230496130Y-80579837I1040961J1080000D01*
G01*
X227895000Y-80735516D02*
G75*
G03*
X231127335Y-80578608I1560000J1235516D01*
G01*
X230496130Y-78420163D02*
G75*
G03*
X228414039Y-78420000I-1041130J-1079837D01*
G01*
X110185000Y-131695000D02*
X110185000Y-131608276D01*
X110185000Y-131695000D02*
X122060000Y-131695000D01*
X110185000Y-130391724D02*
X110185000Y-130305000D01*
X110185000Y-130305000D02*
X122060000Y-130305000D01*
X109500000Y-131695000D02*
X108815000Y-131695000D01*
X108815000Y-131695000D02*
X108815000Y-131000000D01*
X122060000Y-130605507D02*
X122060000Y-130305000D01*
X122060000Y-131695000D02*
X122060000Y-131394493D01*
X45580000Y-99290000D02*
X45736000Y-99290000D01*
X43264000Y-99290000D02*
X43420000Y-99290000D01*
X45580000Y-98770961D02*
G75*
G03*
X45579837Y-96688870I-1080000J1040961D01*
G01*
X45735516Y-99290000D02*
G75*
G03*
X45578608Y-96057665I-1235516J1560000D01*
G01*
X43421392Y-96057665D02*
G75*
G03*
X43264484Y-99290000I1078608J-1672335D01*
G01*
X43420163Y-96688870D02*
G75*
G03*
X43420000Y-98770961I1079837J-1041130D01*
G01*
X134840000Y-119555000D02*
X134840000Y-137455000D01*
X142630000Y-119495000D02*
X132350000Y-119495000D01*
X132350000Y-137515000D02*
X142630000Y-137515000D01*
X140140000Y-119555000D02*
X134840000Y-119555000D01*
X142630000Y-137515000D02*
X142630000Y-119495000D01*
X140140000Y-137455000D02*
X140140000Y-119555000D01*
X132350000Y-119495000D02*
X132350000Y-137515000D01*
X134840000Y-137455000D02*
X136490000Y-137455000D01*
X138490000Y-137455000D02*
X140140000Y-137455000D01*
X138490000Y-137455000D02*
G75*
G03*
X136490000Y-137455000I-1000000J0D01*
G01*
X165435000Y-78264000D02*
X165435000Y-78420000D01*
X165435000Y-80580000D02*
X165435000Y-80736000D01*
X168667335Y-78421392D02*
G75*
G03*
X165435000Y-78264484I-1672335J-1078608D01*
G01*
X165435000Y-80735516D02*
G75*
G03*
X168667335Y-80578608I1560000J1235516D01*
G01*
X168036130Y-78420163D02*
G75*
G03*
X165954039Y-78420000I-1041130J-1079837D01*
G01*
X165954039Y-80580000D02*
G75*
G03*
X168036130Y-80579837I1040961J1080000D01*
G01*
X60764000Y-67565000D02*
X60920000Y-67565000D01*
X63080000Y-67565000D02*
X63236000Y-67565000D01*
X60921392Y-64332665D02*
G75*
G03*
X60764484Y-67565000I1078608J-1672335D01*
G01*
X63235516Y-67565000D02*
G75*
G03*
X63078608Y-64332665I-1235516J1560000D01*
G01*
X60920163Y-64963870D02*
G75*
G03*
X60920000Y-67045961I1079837J-1041130D01*
G01*
X63080000Y-67045961D02*
G75*
G03*
X63079837Y-64963870I-1080000J1040961D01*
G01*
X197500000Y-53500000D02*
G75*
G03*
X197500000Y-53500000I-6000000J0D01*
G01*
X93130000Y-79365000D02*
X93130000Y-76305000D01*
X102870000Y-87895000D02*
X102870000Y-83175000D01*
X102870000Y-76305000D02*
X93130000Y-76305000D01*
X99660000Y-87895000D02*
X98830000Y-87895000D01*
X102870000Y-87895000D02*
X101380000Y-87895000D01*
X102870000Y-79365000D02*
X102870000Y-76305000D01*
X97210000Y-87895000D02*
X96680000Y-87895000D01*
X93120000Y-87895000D02*
X93120000Y-83175000D01*
X94310000Y-87895000D02*
X93130000Y-87895000D01*
X57120000Y-104620000D02*
X57120000Y-99900000D01*
X66870000Y-104620000D02*
X65380000Y-104620000D01*
X66870000Y-93030000D02*
X57130000Y-93030000D01*
X66870000Y-96090000D02*
X66870000Y-93030000D01*
X57130000Y-96090000D02*
X57130000Y-93030000D01*
X61210000Y-104620000D02*
X60680000Y-104620000D01*
X63660000Y-104620000D02*
X62830000Y-104620000D01*
X58310000Y-104620000D02*
X57130000Y-104620000D01*
X66870000Y-104620000D02*
X66870000Y-99900000D01*
X190170000Y-114264000D02*
X190170000Y-114420000D01*
X190170000Y-116580000D02*
X190170000Y-116736000D01*
X190689039Y-116580000D02*
G75*
G03*
X192771130Y-116579837I1040961J1080000D01*
G01*
X193402335Y-114421392D02*
G75*
G03*
X190170000Y-114264484I-1672335J-1078608D01*
G01*
X190170000Y-116735516D02*
G75*
G03*
X193402335Y-116578608I1560000J1235516D01*
G01*
X192771130Y-114420163D02*
G75*
G03*
X190689039Y-114420000I-1041130J-1079837D01*
G01*
X227895000Y-90264000D02*
X227895000Y-90420000D01*
X227895000Y-92580000D02*
X227895000Y-92736000D01*
X231127335Y-90421392D02*
G75*
G03*
X227895000Y-90264484I-1672335J-1078608D01*
G01*
X228414039Y-92580000D02*
G75*
G03*
X230496130Y-92579837I1040961J1080000D01*
G01*
X227895000Y-92735516D02*
G75*
G03*
X231127335Y-92578608I1560000J1235516D01*
G01*
X230496130Y-90420163D02*
G75*
G03*
X228414039Y-90420000I-1041130J-1079837D01*
G01*
X202435000Y-92580000D02*
X202435000Y-92736000D01*
X202435000Y-90264000D02*
X202435000Y-90420000D01*
X205667335Y-90421392D02*
G75*
G03*
X202435000Y-90264484I-1672335J-1078608D01*
G01*
X202954039Y-92580000D02*
G75*
G03*
X205036130Y-92579837I1040961J1080000D01*
G01*
X202435000Y-92735516D02*
G75*
G03*
X205667335Y-92578608I1560000J1235516D01*
G01*
X205036130Y-90420163D02*
G75*
G03*
X202954039Y-90420000I-1041130J-1079837D01*
G01*
X99080000Y-82565000D02*
X99236000Y-82565000D01*
X96764000Y-82565000D02*
X96920000Y-82565000D01*
X96921392Y-79332665D02*
G75*
G03*
X96764484Y-82565000I1078608J-1672335D01*
G01*
X99080000Y-82045961D02*
G75*
G03*
X99079837Y-79963870I-1080000J1040961D01*
G01*
X96920163Y-79963870D02*
G75*
G03*
X96920000Y-82045961I1079837J-1041130D01*
G01*
X99235516Y-82565000D02*
G75*
G03*
X99078608Y-79332665I-1235516J1560000D01*
G01*
X83660000Y-104395000D02*
X82830000Y-104395000D01*
X86870000Y-104395000D02*
X86870000Y-99675000D01*
X81210000Y-104395000D02*
X80680000Y-104395000D01*
X86870000Y-95865000D02*
X86870000Y-92805000D01*
X86870000Y-104395000D02*
X85380000Y-104395000D01*
X86870000Y-92805000D02*
X77130000Y-92805000D01*
X77120000Y-104395000D02*
X77120000Y-99675000D01*
X78310000Y-104395000D02*
X77130000Y-104395000D01*
X77130000Y-95865000D02*
X77130000Y-92805000D01*
X99080000Y-115065000D02*
X99236000Y-115065000D01*
X96764000Y-115065000D02*
X96920000Y-115065000D01*
X99235516Y-115065000D02*
G75*
G03*
X99078608Y-111832665I-1235516J1560000D01*
G01*
X96920163Y-112463870D02*
G75*
G03*
X96920000Y-114545961I1079837J-1041130D01*
G01*
X96921392Y-111832665D02*
G75*
G03*
X96764484Y-115065000I1078608J-1672335D01*
G01*
X99080000Y-114545961D02*
G75*
G03*
X99079837Y-112463870I-1080000J1040961D01*
G01*
X66870000Y-108530000D02*
X57130000Y-108530000D01*
X58310000Y-120120000D02*
X57130000Y-120120000D01*
X66870000Y-120120000D02*
X66870000Y-115400000D01*
X57130000Y-111590000D02*
X57130000Y-108530000D01*
X61210000Y-120120000D02*
X60680000Y-120120000D01*
X63660000Y-120120000D02*
X62830000Y-120120000D01*
X57120000Y-120120000D02*
X57120000Y-115400000D01*
X66870000Y-120120000D02*
X65380000Y-120120000D01*
X66870000Y-111590000D02*
X66870000Y-108530000D01*
X161000000Y-116500000D02*
G75*
G03*
X161000000Y-116500000I-6000000J0D01*
G01*
X190170000Y-129080000D02*
X190170000Y-129236000D01*
X190170000Y-126764000D02*
X190170000Y-126920000D01*
X192771130Y-126920163D02*
G75*
G03*
X190689039Y-126920000I-1041130J-1079837D01*
G01*
X190170000Y-129235516D02*
G75*
G03*
X193402335Y-129078608I1560000J1235516D01*
G01*
X193402335Y-126921392D02*
G75*
G03*
X190170000Y-126764484I-1672335J-1078608D01*
G01*
X190689039Y-129080000D02*
G75*
G03*
X192771130Y-129079837I1040961J1080000D01*
G01*
X43264000Y-83565000D02*
X43420000Y-83565000D01*
X45580000Y-83565000D02*
X45736000Y-83565000D01*
X43420163Y-80963870D02*
G75*
G03*
X43420000Y-83045961I1079837J-1041130D01*
G01*
X45580000Y-83045961D02*
G75*
G03*
X45579837Y-80963870I-1080000J1040961D01*
G01*
X43421392Y-80332665D02*
G75*
G03*
X43264484Y-83565000I1078608J-1672335D01*
G01*
X45735516Y-83565000D02*
G75*
G03*
X45578608Y-80332665I-1235516J1560000D01*
G01*
X215660000Y-129080000D02*
X215660000Y-129236000D01*
X215660000Y-126764000D02*
X215660000Y-126920000D01*
X218892335Y-126921392D02*
G75*
G03*
X215660000Y-126764484I-1672335J-1078608D01*
G01*
X215660000Y-129235516D02*
G75*
G03*
X218892335Y-129078608I1560000J1235516D01*
G01*
X218261130Y-126920163D02*
G75*
G03*
X216179039Y-126920000I-1041130J-1079837D01*
G01*
X216179039Y-129080000D02*
G75*
G03*
X218261130Y-129079837I1040961J1080000D01*
G01*
X66870000Y-61530000D02*
X57130000Y-61530000D01*
X57120000Y-73120000D02*
X57120000Y-68400000D01*
X66870000Y-73120000D02*
X66870000Y-68400000D01*
X57130000Y-64590000D02*
X57130000Y-61530000D01*
X63660000Y-73120000D02*
X62830000Y-73120000D01*
X58310000Y-73120000D02*
X57130000Y-73120000D01*
X66870000Y-73120000D02*
X65380000Y-73120000D01*
X61210000Y-73120000D02*
X60680000Y-73120000D01*
X66870000Y-64590000D02*
X66870000Y-61530000D01*
X80764000Y-67340000D02*
X80920000Y-67340000D01*
X83080000Y-67340000D02*
X83236000Y-67340000D01*
X80921392Y-64107665D02*
G75*
G03*
X80764484Y-67340000I1078608J-1672335D01*
G01*
X83235516Y-67340000D02*
G75*
G03*
X83078608Y-64107665I-1235516J1560000D01*
G01*
X83080000Y-66820961D02*
G75*
G03*
X83079837Y-64738870I-1080000J1040961D01*
G01*
X80920163Y-64738870D02*
G75*
G03*
X80920000Y-66820961I1079837J-1041130D01*
G01*
X75790000Y-129360000D02*
X75790000Y-134660000D01*
X96230000Y-129360000D02*
X75790000Y-129360000D01*
X75730000Y-137150000D02*
X96290000Y-137150000D01*
X96230000Y-131010000D02*
X96230000Y-129360000D01*
X96230000Y-134660000D02*
X96230000Y-133010000D01*
X75790000Y-134660000D02*
X96230000Y-134660000D01*
X96290000Y-126870000D02*
X75730000Y-126870000D01*
X75730000Y-126870000D02*
X75730000Y-137150000D01*
X96290000Y-137150000D02*
X96290000Y-126870000D01*
X96230000Y-131010000D02*
G75*
G03*
X96230000Y-133010000I0J-1000000D01*
G01*
X227895000Y-126764000D02*
X227895000Y-126920000D01*
X227895000Y-129080000D02*
X227895000Y-129236000D01*
X230496130Y-126920163D02*
G75*
G03*
X228414039Y-126920000I-1041130J-1079837D01*
G01*
X228414039Y-129080000D02*
G75*
G03*
X230496130Y-129079837I1040961J1080000D01*
G01*
X231127335Y-126921392D02*
G75*
G03*
X227895000Y-126764484I-1672335J-1078608D01*
G01*
X227895000Y-129235516D02*
G75*
G03*
X231127335Y-129078608I1560000J1235516D01*
G01*
X45580000Y-114565000D02*
X45736000Y-114565000D01*
X43264000Y-114565000D02*
X43420000Y-114565000D01*
X43421392Y-111332665D02*
G75*
G03*
X43264484Y-114565000I1078608J-1672335D01*
G01*
X45735516Y-114565000D02*
G75*
G03*
X45578608Y-111332665I-1235516J1560000D01*
G01*
X45580000Y-114045961D02*
G75*
G03*
X45579837Y-111963870I-1080000J1040961D01*
G01*
X43420163Y-111963870D02*
G75*
G03*
X43420000Y-114045961I1079837J-1041130D01*
G01*
X177935000Y-92580000D02*
X177935000Y-92736000D01*
X177935000Y-90264000D02*
X177935000Y-90420000D01*
X177935000Y-92735516D02*
G75*
G03*
X181167335Y-92578608I1560000J1235516D01*
G01*
X178454039Y-92580000D02*
G75*
G03*
X180536130Y-92579837I1040961J1080000D01*
G01*
X180536130Y-90420163D02*
G75*
G03*
X178454039Y-90420000I-1041130J-1079837D01*
G01*
X181167335Y-90421392D02*
G75*
G03*
X177935000Y-90264484I-1672335J-1078608D01*
G01*
X202435000Y-116580000D02*
X202435000Y-116736000D01*
X202435000Y-114264000D02*
X202435000Y-114420000D01*
X202435000Y-116735516D02*
G75*
G03*
X205667335Y-116578608I1560000J1235516D01*
G01*
X205036130Y-114420163D02*
G75*
G03*
X202954039Y-114420000I-1041130J-1079837D01*
G01*
X205667335Y-114421392D02*
G75*
G03*
X202435000Y-114264484I-1672335J-1078608D01*
G01*
X202954039Y-116580000D02*
G75*
G03*
X205036130Y-116579837I1040961J1080000D01*
G01*
X46160000Y-73230000D02*
X45330000Y-73230000D01*
X39630000Y-64700000D02*
X39630000Y-61640000D01*
X49370000Y-73230000D02*
X49370000Y-68510000D01*
X40810000Y-73230000D02*
X39630000Y-73230000D01*
X49370000Y-73230000D02*
X47880000Y-73230000D01*
X49370000Y-61640000D02*
X39630000Y-61640000D01*
X49370000Y-64700000D02*
X49370000Y-61640000D01*
X43710000Y-73230000D02*
X43180000Y-73230000D01*
X39620000Y-73230000D02*
X39620000Y-68510000D01*
X210000000Y-53000000D02*
G75*
G03*
X210000000Y-53000000I-6000000J0D01*
G01*
X161000000Y-129000000D02*
G75*
G03*
X161000000Y-129000000I-6000000J0D01*
G01*
X63080000Y-99065000D02*
X63236000Y-99065000D01*
X60764000Y-99065000D02*
X60920000Y-99065000D01*
X63080000Y-98545961D02*
G75*
G03*
X63079837Y-96463870I-1080000J1040961D01*
G01*
X60921392Y-95832665D02*
G75*
G03*
X60764484Y-99065000I1078608J-1672335D01*
G01*
X60920163Y-96463870D02*
G75*
G03*
X60920000Y-98545961I1079837J-1041130D01*
G01*
X63235516Y-99065000D02*
G75*
G03*
X63078608Y-95832665I-1235516J1560000D01*
G01*
X190170000Y-92580000D02*
X190170000Y-92736000D01*
X190170000Y-90264000D02*
X190170000Y-90420000D01*
X190689039Y-92580000D02*
G75*
G03*
X192771130Y-92579837I1040961J1080000D01*
G01*
X193402335Y-90421392D02*
G75*
G03*
X190170000Y-90264484I-1672335J-1078608D01*
G01*
X190170000Y-92735516D02*
G75*
G03*
X193402335Y-92578608I1560000J1235516D01*
G01*
X192771130Y-90420163D02*
G75*
G03*
X190689039Y-90420000I-1041130J-1079837D01*
G01*
X109550000Y-116230000D02*
X110350000Y-116230000D01*
X112700000Y-110500000D02*
X112700000Y-114280000D01*
X112700000Y-115720000D02*
X112700000Y-119500000D01*
X112700000Y-110500000D02*
X123200000Y-110500000D01*
X109550000Y-116230000D02*
X109550000Y-115370000D01*
X112700000Y-119500000D02*
X123200000Y-119500000D01*
X123200000Y-115800000D02*
X123200000Y-119500000D01*
X123200000Y-110500000D02*
X123200000Y-114200000D01*
X119000000Y-115000000D02*
G75*
G03*
X119000000Y-115000000I-1800000J0D01*
G01*
X83080000Y-115065000D02*
X83236000Y-115065000D01*
X80764000Y-115065000D02*
X80920000Y-115065000D01*
X83080000Y-114545961D02*
G75*
G03*
X83079837Y-112463870I-1080000J1040961D01*
G01*
X80921392Y-111832665D02*
G75*
G03*
X80764484Y-115065000I1078608J-1672335D01*
G01*
X80920163Y-112463870D02*
G75*
G03*
X80920000Y-114545961I1079837J-1041130D01*
G01*
X83235516Y-115065000D02*
G75*
G03*
X83078608Y-111832665I-1235516J1560000D01*
G01*
X124770000Y-128370000D02*
X118230000Y-128370000D01*
X118230000Y-125630000D02*
X118230000Y-125960000D01*
X118230000Y-128370000D02*
X118230000Y-128040000D01*
X124770000Y-128040000D02*
X124770000Y-128370000D01*
X124770000Y-125630000D02*
X118230000Y-125630000D01*
X124770000Y-125960000D02*
X124770000Y-125630000D01*
X165435000Y-105080000D02*
X165435000Y-105236000D01*
X165435000Y-102764000D02*
X165435000Y-102920000D01*
X168036130Y-102920163D02*
G75*
G03*
X165954039Y-102920000I-1041130J-1079837D01*
G01*
X165435000Y-105235516D02*
G75*
G03*
X168667335Y-105078608I1560000J1235516D01*
G01*
X168667335Y-102921392D02*
G75*
G03*
X165435000Y-102764484I-1672335J-1078608D01*
G01*
X165954039Y-105080000D02*
G75*
G03*
X168036130Y-105079837I1040961J1080000D01*
G01*
X247140000Y-83705000D02*
X241840000Y-83705000D01*
X247140000Y-114305000D02*
X247140000Y-83705000D01*
X241840000Y-83705000D02*
X241840000Y-114305000D01*
X245490000Y-114305000D02*
X247140000Y-114305000D01*
X241840000Y-114305000D02*
X243490000Y-114305000D01*
X245490000Y-114305000D02*
G75*
G03*
X243490000Y-114305000I-1000000J0D01*
G01*
X124630000Y-89730000D02*
X124960000Y-89730000D01*
X127370000Y-89730000D02*
X127040000Y-89730000D01*
X124630000Y-96270000D02*
X124630000Y-89730000D01*
X127040000Y-96270000D02*
X127370000Y-96270000D01*
X127370000Y-96270000D02*
X127370000Y-89730000D01*
X124960000Y-96270000D02*
X124630000Y-96270000D01*
X161000000Y-104000000D02*
G75*
G03*
X161000000Y-104000000I-6000000J0D01*
G01*
X123200000Y-68300000D02*
X123200000Y-72000000D01*
X112700000Y-68220000D02*
X112700000Y-72000000D01*
X109550000Y-68730000D02*
X109550000Y-67870000D01*
X112700000Y-63000000D02*
X123200000Y-63000000D01*
X112700000Y-63000000D02*
X112700000Y-66780000D01*
X109550000Y-68730000D02*
X110350000Y-68730000D01*
X112700000Y-72000000D02*
X123200000Y-72000000D01*
X123200000Y-63000000D02*
X123200000Y-66700000D01*
X119000000Y-67500000D02*
G75*
G03*
X119000000Y-67500000I-1800000J0D01*
G01*
X63080000Y-114840000D02*
X63236000Y-114840000D01*
X60764000Y-114840000D02*
X60920000Y-114840000D01*
X63235516Y-114840000D02*
G75*
G03*
X63078608Y-111607665I-1235516J1560000D01*
G01*
X60920163Y-112238870D02*
G75*
G03*
X60920000Y-114320961I1079837J-1041130D01*
G01*
X60921392Y-111607665D02*
G75*
G03*
X60764484Y-114840000I1078608J-1672335D01*
G01*
X63080000Y-114320961D02*
G75*
G03*
X63079837Y-112238870I-1080000J1040961D01*
G01*
X96230000Y-49510000D02*
X96230000Y-47860000D01*
X75790000Y-53160000D02*
X96230000Y-53160000D01*
X96290000Y-45370000D02*
X75730000Y-45370000D01*
X75730000Y-45370000D02*
X75730000Y-55650000D01*
X75790000Y-47860000D02*
X75790000Y-53160000D01*
X75730000Y-55650000D02*
X96290000Y-55650000D01*
X96230000Y-47860000D02*
X75790000Y-47860000D01*
X96290000Y-55650000D02*
X96290000Y-45370000D01*
X96230000Y-53160000D02*
X96230000Y-51510000D01*
X96230000Y-49510000D02*
G75*
G03*
X96230000Y-51510000I0J-1000000D01*
G01*
X130370000Y-118230000D02*
X130040000Y-118230000D01*
X130040000Y-124770000D02*
X130370000Y-124770000D01*
X127960000Y-124770000D02*
X127630000Y-124770000D01*
X127630000Y-118230000D02*
X127960000Y-118230000D01*
X127630000Y-124770000D02*
X127630000Y-118230000D01*
X130370000Y-124770000D02*
X130370000Y-118230000D01*
X80764000Y-83065000D02*
X80920000Y-83065000D01*
X83080000Y-83065000D02*
X83236000Y-83065000D01*
X83080000Y-82545961D02*
G75*
G03*
X83079837Y-80463870I-1080000J1040961D01*
G01*
X80921392Y-79832665D02*
G75*
G03*
X80764484Y-83065000I1078608J-1672335D01*
G01*
X80920163Y-80463870D02*
G75*
G03*
X80920000Y-82545961I1079837J-1041130D01*
G01*
X83235516Y-83065000D02*
G75*
G03*
X83078608Y-79832665I-1235516J1560000D01*
G01*
X215435000Y-65764000D02*
X215435000Y-65920000D01*
X215435000Y-68080000D02*
X215435000Y-68236000D01*
X218036130Y-65920163D02*
G75*
G03*
X215954039Y-65920000I-1041130J-1079837D01*
G01*
X215435000Y-68235516D02*
G75*
G03*
X218667335Y-68078608I1560000J1235516D01*
G01*
X215954039Y-68080000D02*
G75*
G03*
X218036130Y-68079837I1040961J1080000D01*
G01*
X218667335Y-65921392D02*
G75*
G03*
X215435000Y-65764484I-1672335J-1078608D01*
G01*
X126920000Y-131871000D02*
X126920000Y-133129000D01*
X125080000Y-131871000D02*
X125080000Y-133129000D01*
X71870000Y-52770000D02*
X71870000Y-46230000D01*
X69130000Y-52770000D02*
X69130000Y-46230000D01*
X69130000Y-46230000D02*
X69460000Y-46230000D01*
X71870000Y-46230000D02*
X71540000Y-46230000D01*
X71540000Y-52770000D02*
X71870000Y-52770000D01*
X69460000Y-52770000D02*
X69130000Y-52770000D01*
X177935000Y-116580000D02*
X177935000Y-116736000D01*
X177935000Y-114264000D02*
X177935000Y-114420000D01*
X180536130Y-114420163D02*
G75*
G03*
X178454039Y-114420000I-1041130J-1079837D01*
G01*
X177935000Y-116735516D02*
G75*
G03*
X181167335Y-116578608I1560000J1235516D01*
G01*
X181167335Y-114421392D02*
G75*
G03*
X177935000Y-114264484I-1672335J-1078608D01*
G01*
X178454039Y-116580000D02*
G75*
G03*
X180536130Y-116579837I1040961J1080000D01*
G01*
X110185000Y-51195000D02*
X127060000Y-51195000D01*
X110185000Y-51195000D02*
X110185000Y-51108276D01*
X127060000Y-50105507D02*
X127060000Y-49805000D01*
X127060000Y-51195000D02*
X127060000Y-50894493D01*
X110185000Y-49805000D02*
X127060000Y-49805000D01*
X108815000Y-51195000D02*
X108815000Y-50500000D01*
X110185000Y-49891724D02*
X110185000Y-49805000D01*
X109500000Y-51195000D02*
X108815000Y-51195000D01*
X49370000Y-89260000D02*
X47880000Y-89260000D01*
X49370000Y-89260000D02*
X49370000Y-84540000D01*
X39620000Y-89260000D02*
X39620000Y-84540000D01*
X46160000Y-89260000D02*
X45330000Y-89260000D01*
X40810000Y-89260000D02*
X39630000Y-89260000D01*
X49370000Y-77670000D02*
X39630000Y-77670000D01*
X49370000Y-80730000D02*
X49370000Y-77670000D01*
X39630000Y-80730000D02*
X39630000Y-77670000D01*
X43710000Y-89260000D02*
X43180000Y-89260000D01*
X165435000Y-116580000D02*
X165435000Y-116736000D01*
X165435000Y-114264000D02*
X165435000Y-114420000D01*
X168036130Y-114420163D02*
G75*
G03*
X165954039Y-114420000I-1041130J-1079837D01*
G01*
X165954039Y-116580000D02*
G75*
G03*
X168036130Y-116579837I1040961J1080000D01*
G01*
X165435000Y-116735516D02*
G75*
G03*
X168667335Y-116578608I1560000J1235516D01*
G01*
X168667335Y-114421392D02*
G75*
G03*
X165435000Y-114264484I-1672335J-1078608D01*
G01*
X58730000Y-131010000D02*
X58730000Y-129360000D01*
X58790000Y-137150000D02*
X58790000Y-126870000D01*
X38230000Y-126870000D02*
X38230000Y-137150000D01*
X58790000Y-126870000D02*
X38230000Y-126870000D01*
X58730000Y-129360000D02*
X38290000Y-129360000D01*
X38290000Y-129360000D02*
X38290000Y-134660000D01*
X58730000Y-134660000D02*
X58730000Y-133010000D01*
X38230000Y-137150000D02*
X58790000Y-137150000D01*
X38290000Y-134660000D02*
X58730000Y-134660000D01*
X58730000Y-131010000D02*
G75*
G03*
X58730000Y-133010000I0J-1000000D01*
G01*
X123200000Y-104800000D02*
X123200000Y-108500000D01*
X112700000Y-99500000D02*
X123200000Y-99500000D01*
X112700000Y-104720000D02*
X112700000Y-108500000D01*
X109550000Y-105230000D02*
X110350000Y-105230000D01*
X109550000Y-105230000D02*
X109550000Y-104370000D01*
X112700000Y-108500000D02*
X123200000Y-108500000D01*
X123200000Y-99500000D02*
X123200000Y-103200000D01*
X112700000Y-99500000D02*
X112700000Y-103280000D01*
X119000000Y-104000000D02*
G75*
G03*
X119000000Y-104000000I-1800000J0D01*
G01*
X202435000Y-126764000D02*
X202435000Y-126920000D01*
X202435000Y-129080000D02*
X202435000Y-129236000D01*
X205667335Y-126921392D02*
G75*
G03*
X202435000Y-126764484I-1672335J-1078608D01*
G01*
X205036130Y-126920163D02*
G75*
G03*
X202954039Y-126920000I-1041130J-1079837D01*
G01*
X202435000Y-129235516D02*
G75*
G03*
X205667335Y-129078608I1560000J1235516D01*
G01*
X202954039Y-129080000D02*
G75*
G03*
X205036130Y-129079837I1040961J1080000D01*
G01*
X80764000Y-99290000D02*
X80920000Y-99290000D01*
X83080000Y-99290000D02*
X83236000Y-99290000D01*
X80920163Y-96688870D02*
G75*
G03*
X80920000Y-98770961I1079837J-1041130D01*
G01*
X80921392Y-96057665D02*
G75*
G03*
X80764484Y-99290000I1078608J-1672335D01*
G01*
X83235516Y-99290000D02*
G75*
G03*
X83078608Y-96057665I-1235516J1560000D01*
G01*
X83080000Y-98770961D02*
G75*
G03*
X83079837Y-96688870I-1080000J1040961D01*
G01*
X112700000Y-88500000D02*
X123200000Y-88500000D01*
X112700000Y-88500000D02*
X112700000Y-92280000D01*
X112700000Y-97500000D02*
X123200000Y-97500000D01*
X109550000Y-94230000D02*
X109550000Y-93370000D01*
X123200000Y-93800000D02*
X123200000Y-97500000D01*
X109550000Y-94230000D02*
X110350000Y-94230000D01*
X123200000Y-88500000D02*
X123200000Y-92200000D01*
X112700000Y-93720000D02*
X112700000Y-97500000D01*
X119000000Y-93000000D02*
G75*
G03*
X119000000Y-93000000I-1800000J0D01*
G01*
X43710000Y-120270000D02*
X43180000Y-120270000D01*
X39620000Y-120270000D02*
X39620000Y-115550000D01*
X49370000Y-111740000D02*
X49370000Y-108680000D01*
X49370000Y-120270000D02*
X49370000Y-115550000D01*
X39630000Y-111740000D02*
X39630000Y-108680000D01*
X49370000Y-120270000D02*
X47880000Y-120270000D01*
X49370000Y-108680000D02*
X39630000Y-108680000D01*
X46160000Y-120270000D02*
X45330000Y-120270000D01*
X40810000Y-120270000D02*
X39630000Y-120270000D01*
X143500000Y-97500000D02*
G75*
G03*
X143500000Y-97500000I-6000000J0D01*
G01*
X215660000Y-92580000D02*
X215660000Y-92736000D01*
X215660000Y-90264000D02*
X215660000Y-90420000D01*
X218261130Y-90420163D02*
G75*
G03*
X216179039Y-90420000I-1041130J-1079837D01*
G01*
X215660000Y-92735516D02*
G75*
G03*
X218892335Y-92578608I1560000J1235516D01*
G01*
X216179039Y-92580000D02*
G75*
G03*
X218261130Y-92579837I1040961J1080000D01*
G01*
X218892335Y-90421392D02*
G75*
G03*
X215660000Y-90264484I-1672335J-1078608D01*
G01*
X190170000Y-102764000D02*
X190170000Y-102920000D01*
X190170000Y-105080000D02*
X190170000Y-105236000D01*
X192771130Y-102920163D02*
G75*
G03*
X190689039Y-102920000I-1041130J-1079837D01*
G01*
X190689039Y-105080000D02*
G75*
G03*
X192771130Y-105079837I1040961J1080000D01*
G01*
X190170000Y-105235516D02*
G75*
G03*
X193402335Y-105078608I1560000J1235516D01*
G01*
X193402335Y-102921392D02*
G75*
G03*
X190170000Y-102764484I-1672335J-1078608D01*
G01*
X143500000Y-85000000D02*
G75*
G03*
X143500000Y-85000000I-6000000J0D01*
G01*
X172500000Y-53500000D02*
G75*
G03*
X172500000Y-53500000I-6000000J0D01*
G01*
X185000000Y-53500000D02*
G75*
G03*
X185000000Y-53500000I-6000000J0D01*
G01*
X227895000Y-102764000D02*
X227895000Y-102920000D01*
X227895000Y-105080000D02*
X227895000Y-105236000D01*
X231127335Y-102921392D02*
G75*
G03*
X227895000Y-102764484I-1672335J-1078608D01*
G01*
X227895000Y-105235516D02*
G75*
G03*
X231127335Y-105078608I1560000J1235516D01*
G01*
X230496130Y-102920163D02*
G75*
G03*
X228414039Y-102920000I-1041130J-1079837D01*
G01*
X228414039Y-105080000D02*
G75*
G03*
X230496130Y-105079837I1040961J1080000D01*
G01*
X177935000Y-129080000D02*
X177935000Y-129236000D01*
X177935000Y-126764000D02*
X177935000Y-126920000D01*
X181167335Y-126921392D02*
G75*
G03*
X177935000Y-126764484I-1672335J-1078608D01*
G01*
X177935000Y-129235516D02*
G75*
G03*
X181167335Y-129078608I1560000J1235516D01*
G01*
X178454039Y-129080000D02*
G75*
G03*
X180536130Y-129079837I1040961J1080000D01*
G01*
X180536130Y-126920163D02*
G75*
G03*
X178454039Y-126920000I-1041130J-1079837D01*
G01*
X102040000Y-135270000D02*
X102370000Y-135270000D01*
X102370000Y-128730000D02*
X102040000Y-128730000D01*
X99630000Y-135270000D02*
X99630000Y-128730000D01*
X99630000Y-128730000D02*
X99960000Y-128730000D01*
X102370000Y-135270000D02*
X102370000Y-128730000D01*
X99960000Y-135270000D02*
X99630000Y-135270000D01*
X130040000Y-129540000D02*
X130370000Y-129540000D01*
X130370000Y-129540000D02*
X130370000Y-136080000D01*
X127960000Y-129540000D02*
X127630000Y-129540000D01*
X127630000Y-129540000D02*
X127630000Y-136080000D01*
X127630000Y-136080000D02*
X127960000Y-136080000D01*
X130370000Y-136080000D02*
X130040000Y-136080000D01*
X165210000Y-90264000D02*
X165210000Y-90420000D01*
X165210000Y-92580000D02*
X165210000Y-92736000D01*
X168442335Y-90421392D02*
G75*
G03*
X165210000Y-90264484I-1672335J-1078608D01*
G01*
X167811130Y-90420163D02*
G75*
G03*
X165729039Y-90420000I-1041130J-1079837D01*
G01*
X165729039Y-92580000D02*
G75*
G03*
X167811130Y-92579837I1040961J1080000D01*
G01*
X165210000Y-92735516D02*
G75*
G03*
X168442335Y-92578608I1560000J1235516D01*
G01*
X63080000Y-83565000D02*
X63236000Y-83565000D01*
X60764000Y-83565000D02*
X60920000Y-83565000D01*
X63080000Y-83045961D02*
G75*
G03*
X63079837Y-80963870I-1080000J1040961D01*
G01*
X60921392Y-80332665D02*
G75*
G03*
X60764484Y-83565000I1078608J-1672335D01*
G01*
X63235516Y-83565000D02*
G75*
G03*
X63078608Y-80332665I-1235516J1560000D01*
G01*
X60920163Y-80963870D02*
G75*
G03*
X60920000Y-83045961I1079837J-1041130D01*
G01*
X227895000Y-114264000D02*
X227895000Y-114420000D01*
X227895000Y-116580000D02*
X227895000Y-116736000D01*
X230496130Y-114420163D02*
G75*
G03*
X228414039Y-114420000I-1041130J-1079837D01*
G01*
X227895000Y-116735516D02*
G75*
G03*
X231127335Y-116578608I1560000J1235516D01*
G01*
X231127335Y-114421392D02*
G75*
G03*
X227895000Y-114264484I-1672335J-1078608D01*
G01*
X228414039Y-116580000D02*
G75*
G03*
X230496130Y-116579837I1040961J1080000D01*
G01*
X160500000Y-79000000D02*
G75*
G03*
X160500000Y-79000000I-6000000J0D01*
G01*
X190170000Y-68080000D02*
X190170000Y-68236000D01*
X190170000Y-65764000D02*
X190170000Y-65920000D01*
X192771130Y-65920163D02*
G75*
G03*
X190689039Y-65920000I-1041130J-1079837D01*
G01*
X190170000Y-68235516D02*
G75*
G03*
X193402335Y-68078608I1560000J1235516D01*
G01*
X190689039Y-68080000D02*
G75*
G03*
X192771130Y-68079837I1040961J1080000D01*
G01*
X193402335Y-65921392D02*
G75*
G03*
X190170000Y-65764484I-1672335J-1078608D01*
G01*
X126920000Y-121629000D02*
X126920000Y-120371000D01*
X125080000Y-121629000D02*
X125080000Y-120371000D01*
X202435000Y-102764000D02*
X202435000Y-102920000D01*
X202435000Y-105080000D02*
X202435000Y-105236000D01*
X202954039Y-105080000D02*
G75*
G03*
X205036130Y-105079837I1040961J1080000D01*
G01*
X205036130Y-102920163D02*
G75*
G03*
X202954039Y-102920000I-1041130J-1079837D01*
G01*
X205667335Y-102921392D02*
G75*
G03*
X202435000Y-102764484I-1672335J-1078608D01*
G01*
X202435000Y-105235516D02*
G75*
G03*
X205667335Y-105078608I1560000J1235516D01*
G01*
X165170000Y-65764000D02*
X165170000Y-65920000D01*
X165170000Y-68080000D02*
X165170000Y-68236000D01*
X168402335Y-65921392D02*
G75*
G03*
X165170000Y-65764484I-1672335J-1078608D01*
G01*
X165170000Y-68235516D02*
G75*
G03*
X168402335Y-68078608I1560000J1235516D01*
G01*
X167771130Y-65920163D02*
G75*
G03*
X165689039Y-65920000I-1041130J-1079837D01*
G01*
X165689039Y-68080000D02*
G75*
G03*
X167771130Y-68079837I1040961J1080000D01*
G01*
X235000000Y-53000000D02*
G75*
G03*
X235000000Y-53000000I-6000000J0D01*
G01*
X177935000Y-105080000D02*
X177935000Y-105236000D01*
X177935000Y-102764000D02*
X177935000Y-102920000D01*
X178454039Y-105080000D02*
G75*
G03*
X180536130Y-105079837I1040961J1080000D01*
G01*
X180536130Y-102920163D02*
G75*
G03*
X178454039Y-102920000I-1041130J-1079837D01*
G01*
X181167335Y-102921392D02*
G75*
G03*
X177935000Y-102764484I-1672335J-1078608D01*
G01*
X177935000Y-105235516D02*
G75*
G03*
X181167335Y-105078608I1560000J1235516D01*
G01*
X61210000Y-89120000D02*
X60680000Y-89120000D01*
X63660000Y-89120000D02*
X62830000Y-89120000D01*
X57120000Y-89120000D02*
X57120000Y-84400000D01*
X66870000Y-77530000D02*
X57130000Y-77530000D01*
X66870000Y-89120000D02*
X66870000Y-84400000D01*
X57130000Y-80590000D02*
X57130000Y-77530000D01*
X66870000Y-89120000D02*
X65380000Y-89120000D01*
X66870000Y-80590000D02*
X66870000Y-77530000D01*
X58310000Y-89120000D02*
X57130000Y-89120000D01*
X99080000Y-66830000D02*
X99236000Y-66830000D01*
X96764000Y-66830000D02*
X96920000Y-66830000D01*
X96920163Y-64228870D02*
G75*
G03*
X96920000Y-66310961I1079837J-1041130D01*
G01*
X99235516Y-66830000D02*
G75*
G03*
X99078608Y-63597665I-1235516J1560000D01*
G01*
X96921392Y-63597665D02*
G75*
G03*
X96764484Y-66830000I1078608J-1672335D01*
G01*
X99080000Y-66310961D02*
G75*
G03*
X99079837Y-64228870I-1080000J1040961D01*
G01*
X227670000Y-65764000D02*
X227670000Y-65920000D01*
X227670000Y-68080000D02*
X227670000Y-68236000D01*
X230271130Y-65920163D02*
G75*
G03*
X228189039Y-65920000I-1041130J-1079837D01*
G01*
X227670000Y-68235516D02*
G75*
G03*
X230902335Y-68078608I1560000J1235516D01*
G01*
X230902335Y-65921392D02*
G75*
G03*
X227670000Y-65764484I-1672335J-1078608D01*
G01*
X228189039Y-68080000D02*
G75*
G03*
X230271130Y-68079837I1040961J1080000D01*
G01*
X102870000Y-95590000D02*
X102870000Y-92530000D01*
X102870000Y-92530000D02*
X93130000Y-92530000D01*
X99660000Y-104120000D02*
X98830000Y-104120000D01*
X102870000Y-104120000D02*
X101380000Y-104120000D01*
X93120000Y-104120000D02*
X93120000Y-99400000D01*
X97210000Y-104120000D02*
X96680000Y-104120000D01*
X94310000Y-104120000D02*
X93130000Y-104120000D01*
X102870000Y-104120000D02*
X102870000Y-99400000D01*
X93130000Y-95590000D02*
X93130000Y-92530000D01*
X94310000Y-72120000D02*
X93130000Y-72120000D01*
X102870000Y-72120000D02*
X102870000Y-67400000D01*
X99660000Y-72120000D02*
X98830000Y-72120000D01*
X102870000Y-72120000D02*
X101380000Y-72120000D01*
X102870000Y-60530000D02*
X93130000Y-60530000D01*
X93130000Y-63590000D02*
X93130000Y-60530000D01*
X102870000Y-63590000D02*
X102870000Y-60530000D01*
X93120000Y-72120000D02*
X93120000Y-67400000D01*
X97210000Y-72120000D02*
X96680000Y-72120000D01*
X160500000Y-91500000D02*
G75*
G03*
X160500000Y-91500000I-6000000J0D01*
G01*
X81210000Y-72395000D02*
X80680000Y-72395000D01*
X86870000Y-72395000D02*
X85380000Y-72395000D01*
X77130000Y-63865000D02*
X77130000Y-60805000D01*
X77120000Y-72395000D02*
X77120000Y-67675000D01*
X86870000Y-63865000D02*
X86870000Y-60805000D01*
X78310000Y-72395000D02*
X77130000Y-72395000D01*
X86870000Y-60805000D02*
X77130000Y-60805000D01*
X86870000Y-72395000D02*
X86870000Y-67675000D01*
X83660000Y-72395000D02*
X82830000Y-72395000D01*
X215660000Y-80580000D02*
X215660000Y-80736000D01*
X215660000Y-78264000D02*
X215660000Y-78420000D01*
X218892335Y-78421392D02*
G75*
G03*
X215660000Y-78264484I-1672335J-1078608D01*
G01*
X216179039Y-80580000D02*
G75*
G03*
X218261130Y-80579837I1040961J1080000D01*
G01*
X215660000Y-80735516D02*
G75*
G03*
X218892335Y-80578608I1560000J1235516D01*
G01*
X218261130Y-78420163D02*
G75*
G03*
X216179039Y-78420000I-1041130J-1079837D01*
G01*
X160500000Y-66500000D02*
G75*
G03*
X160500000Y-66500000I-6000000J0D01*
G01*
X112700000Y-79720000D02*
X112700000Y-83500000D01*
X112700000Y-83500000D02*
X123200000Y-83500000D01*
X123200000Y-79800000D02*
X123200000Y-83500000D01*
X112700000Y-74500000D02*
X112700000Y-78280000D01*
X123200000Y-74500000D02*
X123200000Y-78200000D01*
X109550000Y-80230000D02*
X110350000Y-80230000D01*
X109550000Y-80230000D02*
X109550000Y-79370000D01*
X112700000Y-74500000D02*
X123200000Y-74500000D01*
X119000000Y-79000000D02*
G75*
G03*
X119000000Y-79000000I-1800000J0D01*
G01*
X94310000Y-120120000D02*
X93130000Y-120120000D01*
X102870000Y-111590000D02*
X102870000Y-108530000D01*
X99660000Y-120120000D02*
X98830000Y-120120000D01*
X97210000Y-120120000D02*
X96680000Y-120120000D01*
X102870000Y-120120000D02*
X102870000Y-115400000D01*
X102870000Y-108530000D02*
X93130000Y-108530000D01*
X102870000Y-120120000D02*
X101380000Y-120120000D01*
X93130000Y-111590000D02*
X93130000Y-108530000D01*
X93120000Y-120120000D02*
X93120000Y-115400000D01*
X177670000Y-65764000D02*
X177670000Y-65920000D01*
X177670000Y-68080000D02*
X177670000Y-68236000D01*
X180902335Y-65921392D02*
G75*
G03*
X177670000Y-65764484I-1672335J-1078608D01*
G01*
X177670000Y-68235516D02*
G75*
G03*
X180902335Y-68078608I1560000J1235516D01*
G01*
X180271130Y-65920163D02*
G75*
G03*
X178189039Y-65920000I-1041130J-1079837D01*
G01*
X178189039Y-68080000D02*
G75*
G03*
X180271130Y-68079837I1040961J1080000D01*
G01*
X143500000Y-72400000D02*
G75*
G03*
X143500000Y-72400000I-6000000J0D01*
G01*
X215660000Y-114264000D02*
X215660000Y-114420000D01*
X215660000Y-116580000D02*
X215660000Y-116736000D01*
X215660000Y-116735516D02*
G75*
G03*
X218892335Y-116578608I1560000J1235516D01*
G01*
X218892335Y-114421392D02*
G75*
G03*
X215660000Y-114264484I-1672335J-1078608D01*
G01*
X216179039Y-116580000D02*
G75*
G03*
X218261130Y-116579837I1040961J1080000D01*
G01*
X218261130Y-114420163D02*
G75*
G03*
X216179039Y-114420000I-1041130J-1079837D01*
G01*
X215660000Y-105080000D02*
X215660000Y-105236000D01*
X215660000Y-102764000D02*
X215660000Y-102920000D01*
X218261130Y-102920163D02*
G75*
G03*
X216179039Y-102920000I-1041130J-1079837D01*
G01*
X218892335Y-102921392D02*
G75*
G03*
X215660000Y-102764484I-1672335J-1078608D01*
G01*
X216179039Y-105080000D02*
G75*
G03*
X218261130Y-105079837I1040961J1080000D01*
G01*
X215660000Y-105235516D02*
G75*
G03*
X218892335Y-105078608I1560000J1235516D01*
G01*
X83660000Y-88395000D02*
X82830000Y-88395000D01*
X86870000Y-88395000D02*
X86870000Y-83675000D01*
X77120000Y-88395000D02*
X77120000Y-83675000D01*
X86870000Y-88395000D02*
X85380000Y-88395000D01*
X78310000Y-88395000D02*
X77130000Y-88395000D01*
X81210000Y-88395000D02*
X80680000Y-88395000D01*
X77130000Y-79865000D02*
X77130000Y-76805000D01*
X86870000Y-79865000D02*
X86870000Y-76805000D01*
X86870000Y-76805000D02*
X77130000Y-76805000D01*
X190170000Y-80580000D02*
X190170000Y-80736000D01*
X190170000Y-78264000D02*
X190170000Y-78420000D01*
X190170000Y-80735516D02*
G75*
G03*
X193402335Y-80578608I1560000J1235516D01*
G01*
X190689039Y-80580000D02*
G75*
G03*
X192771130Y-80579837I1040961J1080000D01*
G01*
X193402335Y-78421392D02*
G75*
G03*
X190170000Y-78264484I-1672335J-1078608D01*
G01*
X192771130Y-78420163D02*
G75*
G03*
X190689039Y-78420000I-1041130J-1079837D01*
G01*
X99080000Y-98790000D02*
X99236000Y-98790000D01*
X96764000Y-98790000D02*
X96920000Y-98790000D01*
X96921392Y-95557665D02*
G75*
G03*
X96764484Y-98790000I1078608J-1672335D01*
G01*
X96920163Y-96188870D02*
G75*
G03*
X96920000Y-98270961I1079837J-1041130D01*
G01*
X99080000Y-98270961D02*
G75*
G03*
X99079837Y-96188870I-1080000J1040961D01*
G01*
X99235516Y-98790000D02*
G75*
G03*
X99078608Y-95557665I-1235516J1560000D01*
G01*
X222500000Y-53000000D02*
G75*
G03*
X222500000Y-53000000I-6000000J0D01*
G01*
X121270000Y-121130000D02*
X114730000Y-121130000D01*
X121270000Y-123870000D02*
X114730000Y-123870000D01*
X114730000Y-121130000D02*
X114730000Y-121460000D01*
X121270000Y-121460000D02*
X121270000Y-121130000D01*
X121270000Y-123540000D02*
X121270000Y-123870000D01*
X114730000Y-123870000D02*
X114730000Y-123540000D01*
X86870000Y-120120000D02*
X86870000Y-115400000D01*
X77120000Y-120120000D02*
X77120000Y-115400000D01*
X81210000Y-120120000D02*
X80680000Y-120120000D01*
X86870000Y-108530000D02*
X77130000Y-108530000D01*
X86870000Y-111590000D02*
X86870000Y-108530000D01*
X86870000Y-120120000D02*
X85380000Y-120120000D01*
X83660000Y-120120000D02*
X82830000Y-120120000D01*
X78310000Y-120120000D02*
X77130000Y-120120000D01*
X77130000Y-111590000D02*
X77130000Y-108530000D01*
X124630000Y-101230000D02*
X124960000Y-101230000D01*
X127370000Y-101230000D02*
X127040000Y-101230000D01*
X127040000Y-107770000D02*
X127370000Y-107770000D01*
X127370000Y-107770000D02*
X127370000Y-101230000D01*
X124960000Y-107770000D02*
X124630000Y-107770000D01*
X124630000Y-107770000D02*
X124630000Y-101230000D01*
X202435000Y-65764000D02*
X202435000Y-65920000D01*
X202435000Y-68080000D02*
X202435000Y-68236000D01*
X202435000Y-68235516D02*
G75*
G03*
X205667335Y-68078608I1560000J1235516D01*
G01*
X202954039Y-68080000D02*
G75*
G03*
X205036130Y-68079837I1040961J1080000D01*
G01*
X205667335Y-65921392D02*
G75*
G03*
X202435000Y-65764484I-1672335J-1078608D01*
G01*
X205036130Y-65920163D02*
G75*
G03*
X202954039Y-65920000I-1041130J-1079837D01*
G01*
X49370000Y-104770000D02*
X49370000Y-100050000D01*
X49370000Y-104770000D02*
X47880000Y-104770000D01*
X39630000Y-96240000D02*
X39630000Y-93180000D01*
X49370000Y-96240000D02*
X49370000Y-93180000D01*
X40810000Y-104770000D02*
X39630000Y-104770000D01*
X43710000Y-104770000D02*
X43180000Y-104770000D01*
X39620000Y-104770000D02*
X39620000Y-100050000D01*
X46160000Y-104770000D02*
X45330000Y-104770000D01*
X49370000Y-93180000D02*
X39630000Y-93180000D01*
X165210000Y-126764000D02*
X165210000Y-126920000D01*
X165210000Y-129080000D02*
X165210000Y-129236000D01*
X165210000Y-129235516D02*
G75*
G03*
X168442335Y-129078608I1560000J1235516D01*
G01*
X167811130Y-126920163D02*
G75*
G03*
X165729039Y-126920000I-1041130J-1079837D01*
G01*
X168442335Y-126921392D02*
G75*
G03*
X165210000Y-126764484I-1672335J-1078608D01*
G01*
X165729039Y-129080000D02*
G75*
G03*
X167811130Y-129079837I1040961J1080000D01*
G01*
%LPC*%
D12*
X178225000Y-79500000D03*
D13*
X180765000Y-79500000D03*
D14*
X63500000Y-135810000D03*
D15*
X63500000Y-128190000D03*
D16*
X57400000Y-47200000D03*
D15*
X54860000Y-47200000D03*
X52320000Y-47200000D03*
X49780000Y-47200000D03*
X47240000Y-47200000D03*
X44700000Y-47200000D03*
X42160000Y-47200000D03*
X39620000Y-47200000D03*
X39620000Y-54820000D03*
X42160000Y-54820000D03*
X44700000Y-54820000D03*
X47240000Y-54820000D03*
X49780000Y-54820000D03*
X52320000Y-54820000D03*
X54860000Y-54820000D03*
X57400000Y-54820000D03*
D12*
X202500000Y-79500000D03*
D13*
X205040000Y-79500000D03*
D17*
X134960000Y-110000000D03*
X140040000Y-110000000D03*
D14*
X64000000Y-53310000D03*
D15*
X64000000Y-45690000D03*
D12*
X44500000Y-67425000D03*
D13*
X44500000Y-64885000D03*
D12*
X228185000Y-79500000D03*
D13*
X230725000Y-79500000D03*
D18*
X109500000Y-131000000D03*
D19*
X110500000Y-131000000D03*
X111500000Y-131000000D03*
X112500000Y-131000000D03*
X113500000Y-131000000D03*
X114500000Y-131000000D03*
X115500000Y-131000000D03*
X116500000Y-131000000D03*
X117500000Y-131000000D03*
X118500000Y-131000000D03*
X119500000Y-131000000D03*
X120500000Y-131000000D03*
X121500000Y-131000000D03*
D12*
X44500000Y-99000000D03*
D13*
X44500000Y-96460000D03*
D16*
X141300000Y-136125000D03*
D15*
X141300000Y-133585000D03*
X141300000Y-131045000D03*
X141300000Y-128505000D03*
X141300000Y-125965000D03*
X141300000Y-123425000D03*
X141300000Y-120885000D03*
X133680000Y-120885000D03*
X133680000Y-123425000D03*
X133680000Y-125965000D03*
X133680000Y-128505000D03*
X133680000Y-131045000D03*
X133680000Y-133585000D03*
X133680000Y-136125000D03*
D12*
X165725000Y-79500000D03*
D13*
X168265000Y-79500000D03*
D12*
X62000000Y-67275000D03*
D13*
X62000000Y-64735000D03*
D20*
X191500000Y-50960000D03*
X191500000Y-56040000D03*
D21*
X93200000Y-81275000D03*
X102800000Y-81275000D03*
D12*
X95500000Y-88775000D03*
D13*
X98000000Y-88775000D03*
X100500000Y-88775000D03*
D21*
X57200000Y-98000000D03*
X66800000Y-98000000D03*
D12*
X59500000Y-105500000D03*
D13*
X62000000Y-105500000D03*
X64500000Y-105500000D03*
D12*
X190460000Y-115500000D03*
D13*
X193000000Y-115500000D03*
D12*
X228185000Y-91500000D03*
D13*
X230725000Y-91500000D03*
D12*
X202725000Y-91500000D03*
D13*
X205265000Y-91500000D03*
D12*
X98000000Y-82275000D03*
D13*
X98000000Y-79735000D03*
D21*
X86800000Y-97775000D03*
X77200000Y-97775000D03*
D12*
X79500000Y-105275000D03*
D13*
X82000000Y-105275000D03*
X84500000Y-105275000D03*
D12*
X98000000Y-114775000D03*
D13*
X98000000Y-112235000D03*
D21*
X57200000Y-113500000D03*
X66800000Y-113500000D03*
D12*
X59500000Y-121000000D03*
D13*
X62000000Y-121000000D03*
X64500000Y-121000000D03*
D17*
X157540000Y-116500000D03*
X152460000Y-116500000D03*
D12*
X190460000Y-128000000D03*
D13*
X193000000Y-128000000D03*
D12*
X44500000Y-83275000D03*
D13*
X44500000Y-80735000D03*
D12*
X215950000Y-128000000D03*
D13*
X218490000Y-128000000D03*
D21*
X66800000Y-66500000D03*
X57200000Y-66500000D03*
D12*
X59500000Y-74000000D03*
D13*
X62000000Y-74000000D03*
X64500000Y-74000000D03*
D12*
X82000000Y-67050000D03*
D13*
X82000000Y-64510000D03*
D16*
X94900000Y-128200000D03*
D15*
X92360000Y-128200000D03*
X89820000Y-128200000D03*
X87280000Y-128200000D03*
X84740000Y-128200000D03*
X82200000Y-128200000D03*
X79660000Y-128200000D03*
X77120000Y-128200000D03*
X77120000Y-135820000D03*
X79660000Y-135820000D03*
X82200000Y-135820000D03*
X84740000Y-135820000D03*
X87280000Y-135820000D03*
X89820000Y-135820000D03*
X92360000Y-135820000D03*
X94900000Y-135820000D03*
D12*
X228185000Y-128000000D03*
D13*
X230725000Y-128000000D03*
D12*
X44500000Y-114275000D03*
D13*
X44500000Y-111735000D03*
D12*
X178225000Y-91500000D03*
D13*
X180765000Y-91500000D03*
D12*
X202725000Y-115500000D03*
D13*
X205265000Y-115500000D03*
D21*
X39700000Y-66610000D03*
X49300000Y-66610000D03*
D12*
X42000000Y-74110000D03*
D13*
X44500000Y-74110000D03*
X47000000Y-74110000D03*
D20*
X204000000Y-50460000D03*
X204000000Y-55540000D03*
D17*
X157540000Y-129000000D03*
X152460000Y-129000000D03*
D12*
X62000000Y-98775000D03*
D13*
X62000000Y-96235000D03*
D12*
X190460000Y-91500000D03*
D13*
X193000000Y-91500000D03*
D22*
X110720000Y-115000000D03*
D23*
X122120000Y-115000000D03*
X113820000Y-115000000D03*
D12*
X82000000Y-114775000D03*
D13*
X82000000Y-112235000D03*
D14*
X125310000Y-127000000D03*
D15*
X117690000Y-127000000D03*
D12*
X165725000Y-104000000D03*
D13*
X168265000Y-104000000D03*
D16*
X248300000Y-112975000D03*
D15*
X248300000Y-110435000D03*
X248300000Y-107895000D03*
X248300000Y-105355000D03*
X248300000Y-102815000D03*
X248300000Y-100275000D03*
X248300000Y-97735000D03*
X248300000Y-95195000D03*
X248300000Y-92655000D03*
X248300000Y-90115000D03*
X248300000Y-87575000D03*
X248300000Y-85035000D03*
X240680000Y-85035000D03*
X240680000Y-87575000D03*
X240680000Y-90115000D03*
X240680000Y-92655000D03*
X240680000Y-95195000D03*
X240680000Y-97735000D03*
X240680000Y-100275000D03*
X240680000Y-102815000D03*
X240680000Y-105355000D03*
X240680000Y-107895000D03*
X240680000Y-110435000D03*
X240680000Y-112975000D03*
D14*
X126000000Y-96810000D03*
D15*
X126000000Y-89190000D03*
D17*
X157540000Y-104000000D03*
X152460000Y-104000000D03*
D22*
X110720000Y-67500000D03*
D23*
X122120000Y-67500000D03*
X113820000Y-67500000D03*
D12*
X62000000Y-114550000D03*
D13*
X62000000Y-112010000D03*
D16*
X94900000Y-46700000D03*
D15*
X92360000Y-46700000D03*
X89820000Y-46700000D03*
X87280000Y-46700000D03*
X84740000Y-46700000D03*
X82200000Y-46700000D03*
X79660000Y-46700000D03*
X77120000Y-46700000D03*
X77120000Y-54320000D03*
X79660000Y-54320000D03*
X82200000Y-54320000D03*
X84740000Y-54320000D03*
X87280000Y-54320000D03*
X89820000Y-54320000D03*
X92360000Y-54320000D03*
X94900000Y-54320000D03*
D14*
X129000000Y-125310000D03*
D15*
X129000000Y-117690000D03*
D12*
X82000000Y-82775000D03*
D13*
X82000000Y-80235000D03*
D12*
X215725000Y-67000000D03*
D13*
X218265000Y-67000000D03*
D14*
X126000000Y-131250000D03*
X126000000Y-133750000D03*
X70500000Y-53310000D03*
D15*
X70500000Y-45690000D03*
D12*
X178225000Y-115500000D03*
D13*
X180765000Y-115500000D03*
D18*
X109500000Y-50500000D03*
D19*
X110500000Y-50500000D03*
X111500000Y-50500000D03*
X112500000Y-50500000D03*
X113500000Y-50500000D03*
X114500000Y-50500000D03*
X115500000Y-50500000D03*
X116500000Y-50500000D03*
X117500000Y-50500000D03*
X118500000Y-50500000D03*
X119500000Y-50500000D03*
X120500000Y-50500000D03*
X121500000Y-50500000D03*
X122500000Y-50500000D03*
X123500000Y-50500000D03*
X124500000Y-50500000D03*
X125500000Y-50500000D03*
X126500000Y-50500000D03*
D21*
X39700000Y-82640000D03*
X49300000Y-82640000D03*
D12*
X42000000Y-90140000D03*
D13*
X44500000Y-90140000D03*
X47000000Y-90140000D03*
D12*
X165725000Y-115500000D03*
D13*
X168265000Y-115500000D03*
D16*
X57400000Y-128200000D03*
D15*
X54860000Y-128200000D03*
X52320000Y-128200000D03*
X49780000Y-128200000D03*
X47240000Y-128200000D03*
X44700000Y-128200000D03*
X42160000Y-128200000D03*
X39620000Y-128200000D03*
X39620000Y-135820000D03*
X42160000Y-135820000D03*
X44700000Y-135820000D03*
X47240000Y-135820000D03*
X49780000Y-135820000D03*
X52320000Y-135820000D03*
X54860000Y-135820000D03*
X57400000Y-135820000D03*
D22*
X110720000Y-104000000D03*
D23*
X122120000Y-104000000D03*
X113820000Y-104000000D03*
D12*
X202725000Y-128000000D03*
D13*
X205265000Y-128000000D03*
D12*
X82000000Y-99000000D03*
D13*
X82000000Y-96460000D03*
D22*
X110720000Y-93000000D03*
D23*
X122120000Y-93000000D03*
X113820000Y-93000000D03*
D21*
X49300000Y-113650000D03*
X39700000Y-113650000D03*
D12*
X42000000Y-121150000D03*
D13*
X44500000Y-121150000D03*
X47000000Y-121150000D03*
D17*
X134960000Y-97500000D03*
X140040000Y-97500000D03*
D12*
X215950000Y-91500000D03*
D13*
X218490000Y-91500000D03*
D12*
X190460000Y-104000000D03*
D13*
X193000000Y-104000000D03*
D17*
X134960000Y-85000000D03*
X140040000Y-85000000D03*
D20*
X166500000Y-50960000D03*
X166500000Y-56040000D03*
X179000000Y-50960000D03*
X179000000Y-56040000D03*
D12*
X228185000Y-104000000D03*
D13*
X230725000Y-104000000D03*
D12*
X178225000Y-128000000D03*
D13*
X180765000Y-128000000D03*
D14*
X101000000Y-135810000D03*
D15*
X101000000Y-128190000D03*
D14*
X129000000Y-129000000D03*
D15*
X129000000Y-136620000D03*
D12*
X165500000Y-91500000D03*
D13*
X168040000Y-91500000D03*
D12*
X62000000Y-83275000D03*
D13*
X62000000Y-80735000D03*
D12*
X228185000Y-115500000D03*
D13*
X230725000Y-115500000D03*
D17*
X157040000Y-79000000D03*
X151960000Y-79000000D03*
D12*
X190460000Y-67000000D03*
D13*
X193000000Y-67000000D03*
D14*
X126000000Y-122250000D03*
X126000000Y-119750000D03*
D12*
X202725000Y-104000000D03*
D13*
X205265000Y-104000000D03*
D12*
X165460000Y-67000000D03*
D13*
X168000000Y-67000000D03*
D20*
X229000000Y-50460000D03*
X229000000Y-55540000D03*
D12*
X178225000Y-104000000D03*
D13*
X180765000Y-104000000D03*
D21*
X57200000Y-82500000D03*
X66800000Y-82500000D03*
D12*
X59500000Y-90000000D03*
D13*
X62000000Y-90000000D03*
X64500000Y-90000000D03*
D12*
X98000000Y-66540000D03*
D13*
X98000000Y-64000000D03*
D12*
X227960000Y-67000000D03*
D13*
X230500000Y-67000000D03*
D21*
X102800000Y-97500000D03*
X93200000Y-97500000D03*
D12*
X95500000Y-105000000D03*
D13*
X98000000Y-105000000D03*
X100500000Y-105000000D03*
D21*
X102800000Y-65500000D03*
X93200000Y-65500000D03*
D12*
X95500000Y-73000000D03*
D13*
X98000000Y-73000000D03*
X100500000Y-73000000D03*
D17*
X157040000Y-91500000D03*
X151960000Y-91500000D03*
D21*
X77200000Y-65775000D03*
X86800000Y-65775000D03*
D12*
X79500000Y-73275000D03*
D13*
X82000000Y-73275000D03*
X84500000Y-73275000D03*
D12*
X215950000Y-79500000D03*
D13*
X218490000Y-79500000D03*
D17*
X157040000Y-66500000D03*
X151960000Y-66500000D03*
D22*
X110720000Y-79000000D03*
D23*
X122120000Y-79000000D03*
X113820000Y-79000000D03*
D21*
X102800000Y-113500000D03*
X93200000Y-113500000D03*
D12*
X95500000Y-121000000D03*
D13*
X98000000Y-121000000D03*
X100500000Y-121000000D03*
D12*
X177960000Y-67000000D03*
D13*
X180500000Y-67000000D03*
D17*
X134960000Y-72400000D03*
X140040000Y-72400000D03*
D12*
X215950000Y-115500000D03*
D13*
X218490000Y-115500000D03*
D12*
X215950000Y-104000000D03*
D13*
X218490000Y-104000000D03*
D21*
X86800000Y-81775000D03*
X77200000Y-81775000D03*
D12*
X79500000Y-89275000D03*
D13*
X82000000Y-89275000D03*
X84500000Y-89275000D03*
D12*
X190460000Y-79500000D03*
D13*
X193000000Y-79500000D03*
D12*
X98000000Y-98500000D03*
D13*
X98000000Y-95960000D03*
D20*
X216500000Y-50460000D03*
X216500000Y-55540000D03*
D14*
X121810000Y-122500000D03*
D15*
X114190000Y-122500000D03*
D21*
X77200000Y-113500000D03*
X86800000Y-113500000D03*
D12*
X79500000Y-121000000D03*
D13*
X82000000Y-121000000D03*
X84500000Y-121000000D03*
D14*
X126000000Y-108310000D03*
D15*
X126000000Y-100690000D03*
D12*
X202725000Y-67000000D03*
D13*
X205265000Y-67000000D03*
D21*
X39700000Y-98150000D03*
X49300000Y-98150000D03*
D12*
X42000000Y-105650000D03*
D13*
X44500000Y-105650000D03*
X47000000Y-105650000D03*
D12*
X165500000Y-128000000D03*
D13*
X168040000Y-128000000D03*
M02*
