G04 #@! TF.GenerationSoftware,KiCad,Pcbnew,6.0.5-2.fc35*
G04 #@! TF.CreationDate,2022-07-06T14:43:39+02:00*
G04 #@! TF.ProjectId,front,66726f6e-742e-46b6-9963-61645f706362,rev?*
G04 #@! TF.SameCoordinates,Original*
G04 #@! TF.FileFunction,Legend,Top*
G04 #@! TF.FilePolarity,Positive*
%FSLAX46Y46*%
G04 Gerber Fmt 4.6, Leading zero omitted, Abs format (unit mm)*
G04 Created by KiCad (PCBNEW 6.0.5-2.fc35) date 2022-07-06 14:43:39*
%MOMM*%
%LPD*%
G01*
G04 APERTURE LIST*
%ADD10C,0.100000*%
%ADD11C,0.650000*%
%ADD12C,0.300000*%
%ADD13C,0.150000*%
%ADD14C,0.120000*%
%ADD15R,1.800000X1.800000*%
%ADD16C,1.800000*%
%ADD17C,1.600000*%
%ADD18O,1.600000X1.600000*%
%ADD19R,1.600000X1.600000*%
%ADD20O,2.000000X3.000000*%
%ADD21R,0.850000X0.850000*%
%ADD22O,0.850000X0.850000*%
%ADD23O,3.000000X2.000000*%
%ADD24O,2.720000X3.240000*%
%ADD25R,1.830000X1.930000*%
%ADD26C,2.130000*%
G04 APERTURE END LIST*
D10*
G36*
X207991666Y-136749815D02*
G01*
X207191666Y-136049815D01*
X208891666Y-136049815D01*
X207991666Y-136749815D01*
G37*
X207991666Y-136749815D02*
X207191666Y-136049815D01*
X208891666Y-136049815D01*
X207991666Y-136749815D01*
D11*
X207975000Y-135660000D02*
G75*
G03*
X207975000Y-135660000I-325000J0D01*
G01*
X208785000Y-135640000D02*
G75*
G03*
X208785000Y-135640000I-325000J0D01*
G01*
D12*
X187211428Y-136528571D02*
X187211428Y-135028571D01*
X187711428Y-136100000D01*
X188211428Y-135028571D01*
X188211428Y-136528571D01*
X189568571Y-136528571D02*
X189568571Y-135742857D01*
X189497142Y-135600000D01*
X189354285Y-135528571D01*
X189068571Y-135528571D01*
X188925714Y-135600000D01*
X189568571Y-136457142D02*
X189425714Y-136528571D01*
X189068571Y-136528571D01*
X188925714Y-136457142D01*
X188854285Y-136314285D01*
X188854285Y-136171428D01*
X188925714Y-136028571D01*
X189068571Y-135957142D01*
X189425714Y-135957142D01*
X189568571Y-135885714D01*
X190068571Y-135528571D02*
X190640000Y-135528571D01*
X190282857Y-135028571D02*
X190282857Y-136314285D01*
X190354285Y-136457142D01*
X190497142Y-136528571D01*
X190640000Y-136528571D01*
X191140000Y-136528571D02*
X191140000Y-135528571D01*
X191140000Y-135814285D02*
X191211428Y-135671428D01*
X191282857Y-135600000D01*
X191425714Y-135528571D01*
X191568571Y-135528571D01*
X192068571Y-136528571D02*
X192068571Y-135528571D01*
X192068571Y-135028571D02*
X191997142Y-135100000D01*
X192068571Y-135171428D01*
X192140000Y-135100000D01*
X192068571Y-135028571D01*
X192068571Y-135171428D01*
X192640000Y-136528571D02*
X193425714Y-135528571D01*
X192640000Y-135528571D02*
X193425714Y-136528571D01*
X195140000Y-135957142D02*
X196282857Y-135957142D01*
X198068571Y-136457142D02*
X198282857Y-136528571D01*
X198640000Y-136528571D01*
X198782857Y-136457142D01*
X198854285Y-136385714D01*
X198925714Y-136242857D01*
X198925714Y-136100000D01*
X198854285Y-135957142D01*
X198782857Y-135885714D01*
X198640000Y-135814285D01*
X198354285Y-135742857D01*
X198211428Y-135671428D01*
X198140000Y-135600000D01*
X198068571Y-135457142D01*
X198068571Y-135314285D01*
X198140000Y-135171428D01*
X198211428Y-135100000D01*
X198354285Y-135028571D01*
X198711428Y-135028571D01*
X198925714Y-135100000D01*
X200568571Y-136671428D02*
X200425714Y-136600000D01*
X200282857Y-136457142D01*
X200068571Y-136242857D01*
X199925714Y-136171428D01*
X199782857Y-136171428D01*
X199854285Y-136528571D02*
X199711428Y-136457142D01*
X199568571Y-136314285D01*
X199497142Y-136028571D01*
X199497142Y-135528571D01*
X199568571Y-135242857D01*
X199711428Y-135100000D01*
X199854285Y-135028571D01*
X200140000Y-135028571D01*
X200282857Y-135100000D01*
X200425714Y-135242857D01*
X200497142Y-135528571D01*
X200497142Y-136028571D01*
X200425714Y-136314285D01*
X200282857Y-136457142D01*
X200140000Y-136528571D01*
X199854285Y-136528571D01*
X202140000Y-135528571D02*
X202425714Y-136528571D01*
X202711428Y-135814285D01*
X202997142Y-136528571D01*
X203282857Y-135528571D01*
X203854285Y-136528571D02*
X203854285Y-135528571D01*
X203854285Y-135028571D02*
X203782857Y-135100000D01*
X203854285Y-135171428D01*
X203925714Y-135100000D01*
X203854285Y-135028571D01*
X203854285Y-135171428D01*
X204354285Y-135528571D02*
X204925714Y-135528571D01*
X204568571Y-135028571D02*
X204568571Y-136314285D01*
X204640000Y-136457142D01*
X204782857Y-136528571D01*
X204925714Y-136528571D01*
X205425714Y-136528571D02*
X205425714Y-135028571D01*
X206068571Y-136528571D02*
X206068571Y-135742857D01*
X205997142Y-135600000D01*
X205854285Y-135528571D01*
X205640000Y-135528571D01*
X205497142Y-135600000D01*
X205425714Y-135671428D01*
X210211428Y-136528571D02*
X210211428Y-135028571D01*
X210211428Y-135600000D02*
X210354285Y-135528571D01*
X210640000Y-135528571D01*
X210782857Y-135600000D01*
X210854285Y-135671428D01*
X210925714Y-135814285D01*
X210925714Y-136242857D01*
X210854285Y-136385714D01*
X210782857Y-136457142D01*
X210640000Y-136528571D01*
X210354285Y-136528571D01*
X210211428Y-136457142D01*
X211425714Y-135528571D02*
X211782857Y-136528571D01*
X212140000Y-135528571D02*
X211782857Y-136528571D01*
X211640000Y-136885714D01*
X211568571Y-136957142D01*
X211425714Y-137028571D01*
X214711428Y-136385714D02*
X214639999Y-136457142D01*
X214425714Y-136528571D01*
X214282857Y-136528571D01*
X214068571Y-136457142D01*
X213925714Y-136314285D01*
X213854285Y-136171428D01*
X213782857Y-135885714D01*
X213782857Y-135671428D01*
X213854285Y-135385714D01*
X213925714Y-135242857D01*
X214068571Y-135100000D01*
X214282857Y-135028571D01*
X214425714Y-135028571D01*
X214639999Y-135100000D01*
X214711428Y-135171428D01*
X215354285Y-136528571D02*
X215354285Y-135028571D01*
X215997142Y-136528571D02*
X215997142Y-135742857D01*
X215925714Y-135600000D01*
X215782857Y-135528571D01*
X215568571Y-135528571D01*
X215425714Y-135600000D01*
X215354285Y-135671428D01*
X216711428Y-136528571D02*
X216711428Y-135528571D01*
X216711428Y-135814285D02*
X216782857Y-135671428D01*
X216854285Y-135600000D01*
X216997142Y-135528571D01*
X217140000Y-135528571D01*
X217640000Y-136528571D02*
X217640000Y-135528571D01*
X217640000Y-135028571D02*
X217568571Y-135100000D01*
X217640000Y-135171428D01*
X217711428Y-135100000D01*
X217640000Y-135028571D01*
X217640000Y-135171428D01*
X218282857Y-136457142D02*
X218425714Y-136528571D01*
X218711428Y-136528571D01*
X218854285Y-136457142D01*
X218925714Y-136314285D01*
X218925714Y-136242857D01*
X218854285Y-136100000D01*
X218711428Y-136028571D01*
X218497142Y-136028571D01*
X218354285Y-135957142D01*
X218282857Y-135814285D01*
X218282857Y-135742857D01*
X218354285Y-135600000D01*
X218497142Y-135528571D01*
X218711428Y-135528571D01*
X218854285Y-135600000D01*
X219354285Y-135528571D02*
X219925714Y-135528571D01*
X219568571Y-135028571D02*
X219568571Y-136314285D01*
X219639999Y-136457142D01*
X219782857Y-136528571D01*
X219925714Y-136528571D01*
X220425714Y-136528571D02*
X220425714Y-135528571D01*
X220425714Y-135028571D02*
X220354285Y-135100000D01*
X220425714Y-135171428D01*
X220497142Y-135100000D01*
X220425714Y-135028571D01*
X220425714Y-135171428D01*
X221782857Y-136528571D02*
X221782857Y-135742857D01*
X221711428Y-135600000D01*
X221568571Y-135528571D01*
X221282857Y-135528571D01*
X221140000Y-135600000D01*
X221782857Y-136457142D02*
X221640000Y-136528571D01*
X221282857Y-136528571D01*
X221140000Y-136457142D01*
X221068571Y-136314285D01*
X221068571Y-136171428D01*
X221140000Y-136028571D01*
X221282857Y-135957142D01*
X221640000Y-135957142D01*
X221782857Y-135885714D01*
X222497142Y-135528571D02*
X222497142Y-136528571D01*
X222497142Y-135671428D02*
X222568571Y-135600000D01*
X222711428Y-135528571D01*
X222925714Y-135528571D01*
X223068571Y-135600000D01*
X223140000Y-135742857D01*
X223140000Y-136528571D01*
X225782857Y-135100000D02*
X225640000Y-135028571D01*
X225425714Y-135028571D01*
X225211428Y-135100000D01*
X225068571Y-135242857D01*
X224997142Y-135385714D01*
X224925714Y-135671428D01*
X224925714Y-135885714D01*
X224997142Y-136171428D01*
X225068571Y-136314285D01*
X225211428Y-136457142D01*
X225425714Y-136528571D01*
X225568571Y-136528571D01*
X225782857Y-136457142D01*
X225854285Y-136385714D01*
X225854285Y-135885714D01*
X225568571Y-135885714D01*
X226497142Y-136528571D02*
X226497142Y-135528571D01*
X226497142Y-135814285D02*
X226568571Y-135671428D01*
X226640000Y-135600000D01*
X226782857Y-135528571D01*
X226925714Y-135528571D01*
X227640000Y-136528571D02*
X227497142Y-136457142D01*
X227425714Y-136385714D01*
X227354285Y-136242857D01*
X227354285Y-135814285D01*
X227425714Y-135671428D01*
X227497142Y-135600000D01*
X227640000Y-135528571D01*
X227854285Y-135528571D01*
X227997142Y-135600000D01*
X228068571Y-135671428D01*
X228140000Y-135814285D01*
X228140000Y-136242857D01*
X228068571Y-136385714D01*
X227997142Y-136457142D01*
X227854285Y-136528571D01*
X227640000Y-136528571D01*
X228568571Y-135528571D02*
X229140000Y-135528571D01*
X228782857Y-135028571D02*
X228782857Y-136314285D01*
X228854285Y-136457142D01*
X228997142Y-136528571D01*
X229140000Y-136528571D01*
X229640000Y-136528571D02*
X229640000Y-135028571D01*
X230282857Y-136528571D02*
X230282857Y-135742857D01*
X230211428Y-135600000D01*
X230068571Y-135528571D01*
X229854285Y-135528571D01*
X229711428Y-135600000D01*
X229640000Y-135671428D01*
X231568571Y-136457142D02*
X231425714Y-136528571D01*
X231140000Y-136528571D01*
X230997142Y-136457142D01*
X230925714Y-136314285D01*
X230925714Y-135742857D01*
X230997142Y-135600000D01*
X231140000Y-135528571D01*
X231425714Y-135528571D01*
X231568571Y-135600000D01*
X231640000Y-135742857D01*
X231640000Y-135885714D01*
X230925714Y-136028571D01*
D13*
X184580714Y-78492380D02*
X184580714Y-77492380D01*
X184818809Y-77492380D01*
X184961666Y-77540000D01*
X185056904Y-77635238D01*
X185104523Y-77730476D01*
X185152142Y-77920952D01*
X185152142Y-78063809D01*
X185104523Y-78254285D01*
X185056904Y-78349523D01*
X184961666Y-78444761D01*
X184818809Y-78492380D01*
X184580714Y-78492380D01*
X185533095Y-77587619D02*
X185580714Y-77540000D01*
X185675952Y-77492380D01*
X185914047Y-77492380D01*
X186009285Y-77540000D01*
X186056904Y-77587619D01*
X186104523Y-77682857D01*
X186104523Y-77778095D01*
X186056904Y-77920952D01*
X185485476Y-78492380D01*
X186104523Y-78492380D01*
X186961666Y-77825714D02*
X186961666Y-78492380D01*
X186723571Y-77444761D02*
X186485476Y-78159047D01*
X187104523Y-78159047D01*
X67882380Y-133666666D02*
X67406190Y-134000000D01*
X67882380Y-134238095D02*
X66882380Y-134238095D01*
X66882380Y-133857142D01*
X66930000Y-133761904D01*
X66977619Y-133714285D01*
X67072857Y-133666666D01*
X67215714Y-133666666D01*
X67310952Y-133714285D01*
X67358571Y-133761904D01*
X67406190Y-133857142D01*
X67406190Y-134238095D01*
X67882380Y-132714285D02*
X67882380Y-133285714D01*
X67882380Y-133000000D02*
X66882380Y-133000000D01*
X67025238Y-133095238D01*
X67120476Y-133190476D01*
X67168095Y-133285714D01*
X66434761Y-55914761D02*
X66482380Y-55771904D01*
X66482380Y-55533809D01*
X66434761Y-55438571D01*
X66387142Y-55390952D01*
X66291904Y-55343333D01*
X66196666Y-55343333D01*
X66101428Y-55390952D01*
X66053809Y-55438571D01*
X66006190Y-55533809D01*
X65958571Y-55724285D01*
X65910952Y-55819523D01*
X65863333Y-55867142D01*
X65768095Y-55914761D01*
X65672857Y-55914761D01*
X65577619Y-55867142D01*
X65530000Y-55819523D01*
X65482380Y-55724285D01*
X65482380Y-55486190D01*
X65530000Y-55343333D01*
X66577619Y-54248095D02*
X66530000Y-54343333D01*
X66434761Y-54438571D01*
X66291904Y-54581428D01*
X66244285Y-54676666D01*
X66244285Y-54771904D01*
X66482380Y-54724285D02*
X66434761Y-54819523D01*
X66339523Y-54914761D01*
X66149047Y-54962380D01*
X65815714Y-54962380D01*
X65625238Y-54914761D01*
X65530000Y-54819523D01*
X65482380Y-54724285D01*
X65482380Y-54533809D01*
X65530000Y-54438571D01*
X65625238Y-54343333D01*
X65815714Y-54295714D01*
X66149047Y-54295714D01*
X66339523Y-54343333D01*
X66434761Y-54438571D01*
X66482380Y-54533809D01*
X66482380Y-54724285D01*
X66482380Y-53343333D02*
X66482380Y-53914761D01*
X66482380Y-53629047D02*
X65482380Y-53629047D01*
X65625238Y-53724285D01*
X65720476Y-53819523D01*
X65768095Y-53914761D01*
X66482380Y-52914761D02*
X65482380Y-52914761D01*
X65482380Y-52533809D01*
X65530000Y-52438571D01*
X65577619Y-52390952D01*
X65672857Y-52343333D01*
X65815714Y-52343333D01*
X65910952Y-52390952D01*
X65958571Y-52438571D01*
X66006190Y-52533809D01*
X66006190Y-52914761D01*
X66482380Y-51771904D02*
X66434761Y-51867142D01*
X66387142Y-51914761D01*
X66291904Y-51962380D01*
X66006190Y-51962380D01*
X65910952Y-51914761D01*
X65863333Y-51867142D01*
X65815714Y-51771904D01*
X65815714Y-51629047D01*
X65863333Y-51533809D01*
X65910952Y-51486190D01*
X66006190Y-51438571D01*
X66291904Y-51438571D01*
X66387142Y-51486190D01*
X66434761Y-51533809D01*
X66482380Y-51629047D01*
X66482380Y-51771904D01*
X65815714Y-51152857D02*
X65815714Y-50771904D01*
X65482380Y-51010000D02*
X66339523Y-51010000D01*
X66434761Y-50962380D01*
X66482380Y-50867142D01*
X66482380Y-50771904D01*
X66434761Y-50486190D02*
X66482380Y-50390952D01*
X66482380Y-50200476D01*
X66434761Y-50105238D01*
X66339523Y-50057619D01*
X66291904Y-50057619D01*
X66196666Y-50105238D01*
X66149047Y-50200476D01*
X66149047Y-50343333D01*
X66101428Y-50438571D01*
X66006190Y-50486190D01*
X65958571Y-50486190D01*
X65863333Y-50438571D01*
X65815714Y-50343333D01*
X65815714Y-50200476D01*
X65863333Y-50105238D01*
X66482380Y-49105238D02*
X66482380Y-49676666D01*
X66482380Y-49390952D02*
X65482380Y-49390952D01*
X65625238Y-49486190D01*
X65720476Y-49581428D01*
X65768095Y-49676666D01*
X208855714Y-78492380D02*
X208855714Y-77492380D01*
X209093809Y-77492380D01*
X209236666Y-77540000D01*
X209331904Y-77635238D01*
X209379523Y-77730476D01*
X209427142Y-77920952D01*
X209427142Y-78063809D01*
X209379523Y-78254285D01*
X209331904Y-78349523D01*
X209236666Y-78444761D01*
X209093809Y-78492380D01*
X208855714Y-78492380D01*
X209808095Y-77587619D02*
X209855714Y-77540000D01*
X209950952Y-77492380D01*
X210189047Y-77492380D01*
X210284285Y-77540000D01*
X210331904Y-77587619D01*
X210379523Y-77682857D01*
X210379523Y-77778095D01*
X210331904Y-77920952D01*
X209760476Y-78492380D01*
X210379523Y-78492380D01*
X211236666Y-77492380D02*
X211046190Y-77492380D01*
X210950952Y-77540000D01*
X210903333Y-77587619D01*
X210808095Y-77730476D01*
X210760476Y-77920952D01*
X210760476Y-78301904D01*
X210808095Y-78397142D01*
X210855714Y-78444761D01*
X210950952Y-78492380D01*
X211141428Y-78492380D01*
X211236666Y-78444761D01*
X211284285Y-78397142D01*
X211331904Y-78301904D01*
X211331904Y-78063809D01*
X211284285Y-77968571D01*
X211236666Y-77920952D01*
X211141428Y-77873333D01*
X210950952Y-77873333D01*
X210855714Y-77920952D01*
X210808095Y-77968571D01*
X210760476Y-78063809D01*
X142466666Y-116904761D02*
X142609523Y-116952380D01*
X142847619Y-116952380D01*
X142942857Y-116904761D01*
X142990476Y-116857142D01*
X143038095Y-116761904D01*
X143038095Y-116666666D01*
X142990476Y-116571428D01*
X142942857Y-116523809D01*
X142847619Y-116476190D01*
X142657142Y-116428571D01*
X142561904Y-116380952D01*
X142514285Y-116333333D01*
X142466666Y-116238095D01*
X142466666Y-116142857D01*
X142514285Y-116047619D01*
X142561904Y-116000000D01*
X142657142Y-115952380D01*
X142895238Y-115952380D01*
X143038095Y-116000000D01*
X143371428Y-115952380D02*
X143609523Y-116952380D01*
X143800000Y-116238095D01*
X143990476Y-116952380D01*
X144228571Y-115952380D01*
X145038095Y-116285714D02*
X145038095Y-116952380D01*
X144800000Y-115904761D02*
X144561904Y-116619047D01*
X145180952Y-116619047D01*
X68382380Y-51166666D02*
X67906190Y-51500000D01*
X68382380Y-51738095D02*
X67382380Y-51738095D01*
X67382380Y-51357142D01*
X67430000Y-51261904D01*
X67477619Y-51214285D01*
X67572857Y-51166666D01*
X67715714Y-51166666D01*
X67810952Y-51214285D01*
X67858571Y-51261904D01*
X67906190Y-51357142D01*
X67906190Y-51738095D01*
X67382380Y-50833333D02*
X67382380Y-50214285D01*
X67763333Y-50547619D01*
X67763333Y-50404761D01*
X67810952Y-50309523D01*
X67858571Y-50261904D01*
X67953809Y-50214285D01*
X68191904Y-50214285D01*
X68287142Y-50261904D01*
X68334761Y-50309523D01*
X68382380Y-50404761D01*
X68382380Y-50690476D01*
X68334761Y-50785714D01*
X68287142Y-50833333D01*
X49202380Y-71452380D02*
X48726190Y-71452380D01*
X48726190Y-70452380D01*
X49535714Y-70928571D02*
X49869047Y-70928571D01*
X50011904Y-71452380D02*
X49535714Y-71452380D01*
X49535714Y-70452380D01*
X50011904Y-70452380D01*
X50440476Y-71452380D02*
X50440476Y-70452380D01*
X50678571Y-70452380D01*
X50821428Y-70500000D01*
X50916666Y-70595238D01*
X50964285Y-70690476D01*
X51011904Y-70880952D01*
X51011904Y-71023809D01*
X50964285Y-71214285D01*
X50916666Y-71309523D01*
X50821428Y-71404761D01*
X50678571Y-71452380D01*
X50440476Y-71452380D01*
X51392857Y-71166666D02*
X51869047Y-71166666D01*
X51297619Y-71452380D02*
X51630952Y-70452380D01*
X51964285Y-71452380D01*
X52821428Y-71452380D02*
X52250000Y-71452380D01*
X52535714Y-71452380D02*
X52535714Y-70452380D01*
X52440476Y-70595238D01*
X52345238Y-70690476D01*
X52250000Y-70738095D01*
X234540714Y-78492380D02*
X234540714Y-77492380D01*
X234778809Y-77492380D01*
X234921666Y-77540000D01*
X235016904Y-77635238D01*
X235064523Y-77730476D01*
X235112142Y-77920952D01*
X235112142Y-78063809D01*
X235064523Y-78254285D01*
X235016904Y-78349523D01*
X234921666Y-78444761D01*
X234778809Y-78492380D01*
X234540714Y-78492380D01*
X235493095Y-77587619D02*
X235540714Y-77540000D01*
X235635952Y-77492380D01*
X235874047Y-77492380D01*
X235969285Y-77540000D01*
X236016904Y-77587619D01*
X236064523Y-77682857D01*
X236064523Y-77778095D01*
X236016904Y-77920952D01*
X235445476Y-78492380D01*
X236064523Y-78492380D01*
X236635952Y-77920952D02*
X236540714Y-77873333D01*
X236493095Y-77825714D01*
X236445476Y-77730476D01*
X236445476Y-77682857D01*
X236493095Y-77587619D01*
X236540714Y-77540000D01*
X236635952Y-77492380D01*
X236826428Y-77492380D01*
X236921666Y-77540000D01*
X236969285Y-77587619D01*
X237016904Y-77682857D01*
X237016904Y-77730476D01*
X236969285Y-77825714D01*
X236921666Y-77873333D01*
X236826428Y-77920952D01*
X236635952Y-77920952D01*
X236540714Y-77968571D01*
X236493095Y-78016190D01*
X236445476Y-78111428D01*
X236445476Y-78301904D01*
X236493095Y-78397142D01*
X236540714Y-78444761D01*
X236635952Y-78492380D01*
X236826428Y-78492380D01*
X236921666Y-78444761D01*
X236969285Y-78397142D01*
X237016904Y-78301904D01*
X237016904Y-78111428D01*
X236969285Y-78016190D01*
X236921666Y-77968571D01*
X236826428Y-77920952D01*
X113960000Y-130984761D02*
X113864761Y-131032380D01*
X113674285Y-131032380D01*
X113579047Y-130984761D01*
X113531428Y-130937142D01*
X113483809Y-130841904D01*
X113483809Y-130556190D01*
X113531428Y-130460952D01*
X113579047Y-130413333D01*
X113674285Y-130365714D01*
X113864761Y-130365714D01*
X113960000Y-130413333D01*
X114531428Y-131032380D02*
X114436190Y-130984761D01*
X114388571Y-130937142D01*
X114340952Y-130841904D01*
X114340952Y-130556190D01*
X114388571Y-130460952D01*
X114436190Y-130413333D01*
X114531428Y-130365714D01*
X114674285Y-130365714D01*
X114769523Y-130413333D01*
X114817142Y-130460952D01*
X114864761Y-130556190D01*
X114864761Y-130841904D01*
X114817142Y-130937142D01*
X114769523Y-130984761D01*
X114674285Y-131032380D01*
X114531428Y-131032380D01*
X115293333Y-130365714D02*
X115293333Y-131032380D01*
X115293333Y-130460952D02*
X115340952Y-130413333D01*
X115436190Y-130365714D01*
X115579047Y-130365714D01*
X115674285Y-130413333D01*
X115721904Y-130508571D01*
X115721904Y-131032380D01*
X116531428Y-130508571D02*
X116198095Y-130508571D01*
X116198095Y-131032380D02*
X116198095Y-130032380D01*
X116674285Y-130032380D01*
X117436190Y-130984761D02*
X117340952Y-131032380D01*
X117150476Y-131032380D01*
X117055238Y-130984761D01*
X117007619Y-130889523D01*
X117007619Y-130508571D01*
X117055238Y-130413333D01*
X117150476Y-130365714D01*
X117340952Y-130365714D01*
X117436190Y-130413333D01*
X117483809Y-130508571D01*
X117483809Y-130603809D01*
X117007619Y-130699047D01*
X118436190Y-131032380D02*
X117864761Y-131032380D01*
X118150476Y-131032380D02*
X118150476Y-130032380D01*
X118055238Y-130175238D01*
X117960000Y-130270476D01*
X117864761Y-130318095D01*
X49282380Y-103272380D02*
X48806190Y-103272380D01*
X48806190Y-102272380D01*
X49615714Y-102748571D02*
X49949047Y-102748571D01*
X50091904Y-103272380D02*
X49615714Y-103272380D01*
X49615714Y-102272380D01*
X50091904Y-102272380D01*
X50520476Y-103272380D02*
X50520476Y-102272380D01*
X50758571Y-102272380D01*
X50901428Y-102320000D01*
X50996666Y-102415238D01*
X51044285Y-102510476D01*
X51091904Y-102700952D01*
X51091904Y-102843809D01*
X51044285Y-103034285D01*
X50996666Y-103129523D01*
X50901428Y-103224761D01*
X50758571Y-103272380D01*
X50520476Y-103272380D01*
X51472857Y-102986666D02*
X51949047Y-102986666D01*
X51377619Y-103272380D02*
X51710952Y-102272380D01*
X52044285Y-103272380D01*
X52853809Y-102272380D02*
X52377619Y-102272380D01*
X52330000Y-102748571D01*
X52377619Y-102700952D01*
X52472857Y-102653333D01*
X52710952Y-102653333D01*
X52806190Y-102700952D01*
X52853809Y-102748571D01*
X52901428Y-102843809D01*
X52901428Y-103081904D01*
X52853809Y-103177142D01*
X52806190Y-103224761D01*
X52710952Y-103272380D01*
X52472857Y-103272380D01*
X52377619Y-103224761D01*
X52330000Y-103177142D01*
X143088095Y-136652380D02*
X143088095Y-137461904D01*
X143135714Y-137557142D01*
X143183333Y-137604761D01*
X143278571Y-137652380D01*
X143469047Y-137652380D01*
X143564285Y-137604761D01*
X143611904Y-137557142D01*
X143659523Y-137461904D01*
X143659523Y-136652380D01*
X144659523Y-137652380D02*
X144088095Y-137652380D01*
X144373809Y-137652380D02*
X144373809Y-136652380D01*
X144278571Y-136795238D01*
X144183333Y-136890476D01*
X144088095Y-136938095D01*
X172080714Y-78492380D02*
X172080714Y-77492380D01*
X172318809Y-77492380D01*
X172461666Y-77540000D01*
X172556904Y-77635238D01*
X172604523Y-77730476D01*
X172652142Y-77920952D01*
X172652142Y-78063809D01*
X172604523Y-78254285D01*
X172556904Y-78349523D01*
X172461666Y-78444761D01*
X172318809Y-78492380D01*
X172080714Y-78492380D01*
X173033095Y-77587619D02*
X173080714Y-77540000D01*
X173175952Y-77492380D01*
X173414047Y-77492380D01*
X173509285Y-77540000D01*
X173556904Y-77587619D01*
X173604523Y-77682857D01*
X173604523Y-77778095D01*
X173556904Y-77920952D01*
X172985476Y-78492380D01*
X173604523Y-78492380D01*
X173937857Y-77492380D02*
X174556904Y-77492380D01*
X174223571Y-77873333D01*
X174366428Y-77873333D01*
X174461666Y-77920952D01*
X174509285Y-77968571D01*
X174556904Y-78063809D01*
X174556904Y-78301904D01*
X174509285Y-78397142D01*
X174461666Y-78444761D01*
X174366428Y-78492380D01*
X174080714Y-78492380D01*
X173985476Y-78444761D01*
X173937857Y-78397142D01*
X65726190Y-71572380D02*
X65726190Y-70572380D01*
X65964285Y-70572380D01*
X66107142Y-70620000D01*
X66202380Y-70715238D01*
X66250000Y-70810476D01*
X66297619Y-71000952D01*
X66297619Y-71143809D01*
X66250000Y-71334285D01*
X66202380Y-71429523D01*
X66107142Y-71524761D01*
X65964285Y-71572380D01*
X65726190Y-71572380D01*
X67202380Y-71572380D02*
X66726190Y-71572380D01*
X66726190Y-70572380D01*
X67535714Y-71048571D02*
X67869047Y-71048571D01*
X68011904Y-71572380D02*
X67535714Y-71572380D01*
X67535714Y-70572380D01*
X68011904Y-70572380D01*
X68440476Y-71572380D02*
X68440476Y-70572380D01*
X68678571Y-70572380D01*
X68821428Y-70620000D01*
X68916666Y-70715238D01*
X68964285Y-70810476D01*
X69011904Y-71000952D01*
X69011904Y-71143809D01*
X68964285Y-71334285D01*
X68916666Y-71429523D01*
X68821428Y-71524761D01*
X68678571Y-71572380D01*
X68440476Y-71572380D01*
X69392857Y-71286666D02*
X69869047Y-71286666D01*
X69297619Y-71572380D02*
X69630952Y-70572380D01*
X69964285Y-71572380D01*
X70250000Y-70667619D02*
X70297619Y-70620000D01*
X70392857Y-70572380D01*
X70630952Y-70572380D01*
X70726190Y-70620000D01*
X70773809Y-70667619D01*
X70821428Y-70762857D01*
X70821428Y-70858095D01*
X70773809Y-71000952D01*
X70202380Y-71572380D01*
X70821428Y-71572380D01*
X196990476Y-47452380D02*
X197657142Y-48452380D01*
X197657142Y-47452380D02*
X196990476Y-48452380D01*
X197942857Y-47452380D02*
X198561904Y-47452380D01*
X198228571Y-47833333D01*
X198371428Y-47833333D01*
X198466666Y-47880952D01*
X198514285Y-47928571D01*
X198561904Y-48023809D01*
X198561904Y-48261904D01*
X198514285Y-48357142D01*
X198466666Y-48404761D01*
X198371428Y-48452380D01*
X198085714Y-48452380D01*
X197990476Y-48404761D01*
X197942857Y-48357142D01*
X97088571Y-83969761D02*
X97136190Y-83826904D01*
X97183809Y-83779285D01*
X97279047Y-83731666D01*
X97421904Y-83731666D01*
X97517142Y-83779285D01*
X97564761Y-83826904D01*
X97612380Y-83922142D01*
X97612380Y-84303095D01*
X96612380Y-84303095D01*
X96612380Y-83969761D01*
X96660000Y-83874523D01*
X96707619Y-83826904D01*
X96802857Y-83779285D01*
X96898095Y-83779285D01*
X96993333Y-83826904D01*
X97040952Y-83874523D01*
X97088571Y-83969761D01*
X97088571Y-84303095D01*
X96945714Y-82874523D02*
X97612380Y-82874523D01*
X96564761Y-83112619D02*
X97279047Y-83350714D01*
X97279047Y-82731666D01*
X60966666Y-95989285D02*
X60966666Y-95513095D01*
X61252380Y-96084523D02*
X60252380Y-95751190D01*
X61252380Y-95417857D01*
X60252380Y-94655952D02*
X60252380Y-94846428D01*
X60300000Y-94941666D01*
X60347619Y-94989285D01*
X60490476Y-95084523D01*
X60680952Y-95132142D01*
X61061904Y-95132142D01*
X61157142Y-95084523D01*
X61204761Y-95036904D01*
X61252380Y-94941666D01*
X61252380Y-94751190D01*
X61204761Y-94655952D01*
X61157142Y-94608333D01*
X61061904Y-94560714D01*
X60823809Y-94560714D01*
X60728571Y-94608333D01*
X60680952Y-94655952D01*
X60633333Y-94751190D01*
X60633333Y-94941666D01*
X60680952Y-95036904D01*
X60728571Y-95084523D01*
X60823809Y-95132142D01*
X196815714Y-114492380D02*
X196815714Y-113492380D01*
X197053809Y-113492380D01*
X197196666Y-113540000D01*
X197291904Y-113635238D01*
X197339523Y-113730476D01*
X197387142Y-113920952D01*
X197387142Y-114063809D01*
X197339523Y-114254285D01*
X197291904Y-114349523D01*
X197196666Y-114444761D01*
X197053809Y-114492380D01*
X196815714Y-114492380D01*
X198244285Y-113825714D02*
X198244285Y-114492380D01*
X198006190Y-113444761D02*
X197768095Y-114159047D01*
X198387142Y-114159047D01*
X198672857Y-113492380D02*
X199291904Y-113492380D01*
X198958571Y-113873333D01*
X199101428Y-113873333D01*
X199196666Y-113920952D01*
X199244285Y-113968571D01*
X199291904Y-114063809D01*
X199291904Y-114301904D01*
X199244285Y-114397142D01*
X199196666Y-114444761D01*
X199101428Y-114492380D01*
X198815714Y-114492380D01*
X198720476Y-114444761D01*
X198672857Y-114397142D01*
X234545714Y-90452380D02*
X234545714Y-89452380D01*
X234783809Y-89452380D01*
X234926666Y-89500000D01*
X235021904Y-89595238D01*
X235069523Y-89690476D01*
X235117142Y-89880952D01*
X235117142Y-90023809D01*
X235069523Y-90214285D01*
X235021904Y-90309523D01*
X234926666Y-90404761D01*
X234783809Y-90452380D01*
X234545714Y-90452380D01*
X235450476Y-89452380D02*
X236069523Y-89452380D01*
X235736190Y-89833333D01*
X235879047Y-89833333D01*
X235974285Y-89880952D01*
X236021904Y-89928571D01*
X236069523Y-90023809D01*
X236069523Y-90261904D01*
X236021904Y-90357142D01*
X235974285Y-90404761D01*
X235879047Y-90452380D01*
X235593333Y-90452380D01*
X235498095Y-90404761D01*
X235450476Y-90357142D01*
X236926666Y-89785714D02*
X236926666Y-90452380D01*
X236688571Y-89404761D02*
X236450476Y-90119047D01*
X237069523Y-90119047D01*
X209080714Y-90492380D02*
X209080714Y-89492380D01*
X209318809Y-89492380D01*
X209461666Y-89540000D01*
X209556904Y-89635238D01*
X209604523Y-89730476D01*
X209652142Y-89920952D01*
X209652142Y-90063809D01*
X209604523Y-90254285D01*
X209556904Y-90349523D01*
X209461666Y-90444761D01*
X209318809Y-90492380D01*
X209080714Y-90492380D01*
X209985476Y-89492380D02*
X210604523Y-89492380D01*
X210271190Y-89873333D01*
X210414047Y-89873333D01*
X210509285Y-89920952D01*
X210556904Y-89968571D01*
X210604523Y-90063809D01*
X210604523Y-90301904D01*
X210556904Y-90397142D01*
X210509285Y-90444761D01*
X210414047Y-90492380D01*
X210128333Y-90492380D01*
X210033095Y-90444761D01*
X209985476Y-90397142D01*
X210985476Y-89587619D02*
X211033095Y-89540000D01*
X211128333Y-89492380D01*
X211366428Y-89492380D01*
X211461666Y-89540000D01*
X211509285Y-89587619D01*
X211556904Y-89682857D01*
X211556904Y-89778095D01*
X211509285Y-89920952D01*
X210937857Y-90492380D01*
X211556904Y-90492380D01*
X102780952Y-86637380D02*
X102304761Y-86637380D01*
X102304761Y-85637380D01*
X103114285Y-86113571D02*
X103447619Y-86113571D01*
X103590476Y-86637380D02*
X103114285Y-86637380D01*
X103114285Y-85637380D01*
X103590476Y-85637380D01*
X104019047Y-86637380D02*
X104019047Y-85637380D01*
X104257142Y-85637380D01*
X104400000Y-85685000D01*
X104495238Y-85780238D01*
X104542857Y-85875476D01*
X104590476Y-86065952D01*
X104590476Y-86208809D01*
X104542857Y-86399285D01*
X104495238Y-86494523D01*
X104400000Y-86589761D01*
X104257142Y-86637380D01*
X104019047Y-86637380D01*
X105352380Y-86113571D02*
X105495238Y-86161190D01*
X105542857Y-86208809D01*
X105590476Y-86304047D01*
X105590476Y-86446904D01*
X105542857Y-86542142D01*
X105495238Y-86589761D01*
X105400000Y-86637380D01*
X105019047Y-86637380D01*
X105019047Y-85637380D01*
X105352380Y-85637380D01*
X105447619Y-85685000D01*
X105495238Y-85732619D01*
X105542857Y-85827857D01*
X105542857Y-85923095D01*
X105495238Y-86018333D01*
X105447619Y-86065952D01*
X105352380Y-86113571D01*
X105019047Y-86113571D01*
X106447619Y-85970714D02*
X106447619Y-86637380D01*
X106209523Y-85589761D02*
X105971428Y-86304047D01*
X106590476Y-86304047D01*
X80728571Y-96679761D02*
X80776190Y-96536904D01*
X80823809Y-96489285D01*
X80919047Y-96441666D01*
X81061904Y-96441666D01*
X81157142Y-96489285D01*
X81204761Y-96536904D01*
X81252380Y-96632142D01*
X81252380Y-97013095D01*
X80252380Y-97013095D01*
X80252380Y-96679761D01*
X80300000Y-96584523D01*
X80347619Y-96536904D01*
X80442857Y-96489285D01*
X80538095Y-96489285D01*
X80633333Y-96536904D01*
X80680952Y-96584523D01*
X80728571Y-96679761D01*
X80728571Y-97013095D01*
X80252380Y-95536904D02*
X80252380Y-96013095D01*
X80728571Y-96060714D01*
X80680952Y-96013095D01*
X80633333Y-95917857D01*
X80633333Y-95679761D01*
X80680952Y-95584523D01*
X80728571Y-95536904D01*
X80823809Y-95489285D01*
X81061904Y-95489285D01*
X81157142Y-95536904D01*
X81204761Y-95584523D01*
X81252380Y-95679761D01*
X81252380Y-95917857D01*
X81204761Y-96013095D01*
X81157142Y-96060714D01*
X102780952Y-118912380D02*
X102304761Y-118912380D01*
X102304761Y-117912380D01*
X103114285Y-118388571D02*
X103447619Y-118388571D01*
X103590476Y-118912380D02*
X103114285Y-118912380D01*
X103114285Y-117912380D01*
X103590476Y-117912380D01*
X104019047Y-118912380D02*
X104019047Y-117912380D01*
X104257142Y-117912380D01*
X104400000Y-117960000D01*
X104495238Y-118055238D01*
X104542857Y-118150476D01*
X104590476Y-118340952D01*
X104590476Y-118483809D01*
X104542857Y-118674285D01*
X104495238Y-118769523D01*
X104400000Y-118864761D01*
X104257142Y-118912380D01*
X104019047Y-118912380D01*
X105352380Y-118388571D02*
X105495238Y-118436190D01*
X105542857Y-118483809D01*
X105590476Y-118579047D01*
X105590476Y-118721904D01*
X105542857Y-118817142D01*
X105495238Y-118864761D01*
X105400000Y-118912380D01*
X105019047Y-118912380D01*
X105019047Y-117912380D01*
X105352380Y-117912380D01*
X105447619Y-117960000D01*
X105495238Y-118007619D01*
X105542857Y-118102857D01*
X105542857Y-118198095D01*
X105495238Y-118293333D01*
X105447619Y-118340952D01*
X105352380Y-118388571D01*
X105019047Y-118388571D01*
X106161904Y-118340952D02*
X106066666Y-118293333D01*
X106019047Y-118245714D01*
X105971428Y-118150476D01*
X105971428Y-118102857D01*
X106019047Y-118007619D01*
X106066666Y-117960000D01*
X106161904Y-117912380D01*
X106352380Y-117912380D01*
X106447619Y-117960000D01*
X106495238Y-118007619D01*
X106542857Y-118102857D01*
X106542857Y-118150476D01*
X106495238Y-118245714D01*
X106447619Y-118293333D01*
X106352380Y-118340952D01*
X106161904Y-118340952D01*
X106066666Y-118388571D01*
X106019047Y-118436190D01*
X105971428Y-118531428D01*
X105971428Y-118721904D01*
X106019047Y-118817142D01*
X106066666Y-118864761D01*
X106161904Y-118912380D01*
X106352380Y-118912380D01*
X106447619Y-118864761D01*
X106495238Y-118817142D01*
X106542857Y-118721904D01*
X106542857Y-118531428D01*
X106495238Y-118436190D01*
X106447619Y-118388571D01*
X106352380Y-118340952D01*
X60966666Y-111989285D02*
X60966666Y-111513095D01*
X61252380Y-112084523D02*
X60252380Y-111751190D01*
X61252380Y-111417857D01*
X60680952Y-110941666D02*
X60633333Y-111036904D01*
X60585714Y-111084523D01*
X60490476Y-111132142D01*
X60442857Y-111132142D01*
X60347619Y-111084523D01*
X60300000Y-111036904D01*
X60252380Y-110941666D01*
X60252380Y-110751190D01*
X60300000Y-110655952D01*
X60347619Y-110608333D01*
X60442857Y-110560714D01*
X60490476Y-110560714D01*
X60585714Y-110608333D01*
X60633333Y-110655952D01*
X60680952Y-110751190D01*
X60680952Y-110941666D01*
X60728571Y-111036904D01*
X60776190Y-111084523D01*
X60871428Y-111132142D01*
X61061904Y-111132142D01*
X61157142Y-111084523D01*
X61204761Y-111036904D01*
X61252380Y-110941666D01*
X61252380Y-110751190D01*
X61204761Y-110655952D01*
X61157142Y-110608333D01*
X61061904Y-110560714D01*
X60871428Y-110560714D01*
X60776190Y-110608333D01*
X60728571Y-110655952D01*
X60680952Y-110751190D01*
X160823809Y-114976190D02*
X160823809Y-115452380D01*
X160490476Y-114452380D02*
X160823809Y-114976190D01*
X161157142Y-114452380D01*
X161966666Y-114452380D02*
X161490476Y-114452380D01*
X161442857Y-114928571D01*
X161490476Y-114880952D01*
X161585714Y-114833333D01*
X161823809Y-114833333D01*
X161919047Y-114880952D01*
X161966666Y-114928571D01*
X162014285Y-115023809D01*
X162014285Y-115261904D01*
X161966666Y-115357142D01*
X161919047Y-115404761D01*
X161823809Y-115452380D01*
X161585714Y-115452380D01*
X161490476Y-115404761D01*
X161442857Y-115357142D01*
X196815714Y-126992380D02*
X196815714Y-125992380D01*
X197053809Y-125992380D01*
X197196666Y-126040000D01*
X197291904Y-126135238D01*
X197339523Y-126230476D01*
X197387142Y-126420952D01*
X197387142Y-126563809D01*
X197339523Y-126754285D01*
X197291904Y-126849523D01*
X197196666Y-126944761D01*
X197053809Y-126992380D01*
X196815714Y-126992380D01*
X198244285Y-126325714D02*
X198244285Y-126992380D01*
X198006190Y-125944761D02*
X197768095Y-126659047D01*
X198387142Y-126659047D01*
X198815714Y-126992380D02*
X199006190Y-126992380D01*
X199101428Y-126944761D01*
X199149047Y-126897142D01*
X199244285Y-126754285D01*
X199291904Y-126563809D01*
X199291904Y-126182857D01*
X199244285Y-126087619D01*
X199196666Y-126040000D01*
X199101428Y-125992380D01*
X198910952Y-125992380D01*
X198815714Y-126040000D01*
X198768095Y-126087619D01*
X198720476Y-126182857D01*
X198720476Y-126420952D01*
X198768095Y-126516190D01*
X198815714Y-126563809D01*
X198910952Y-126611428D01*
X199101428Y-126611428D01*
X199196666Y-126563809D01*
X199244285Y-126516190D01*
X199291904Y-126420952D01*
X48172380Y-87777380D02*
X47696190Y-87777380D01*
X47696190Y-86777380D01*
X48505714Y-87253571D02*
X48839047Y-87253571D01*
X48981904Y-87777380D02*
X48505714Y-87777380D01*
X48505714Y-86777380D01*
X48981904Y-86777380D01*
X49410476Y-87777380D02*
X49410476Y-86777380D01*
X49648571Y-86777380D01*
X49791428Y-86825000D01*
X49886666Y-86920238D01*
X49934285Y-87015476D01*
X49981904Y-87205952D01*
X49981904Y-87348809D01*
X49934285Y-87539285D01*
X49886666Y-87634523D01*
X49791428Y-87729761D01*
X49648571Y-87777380D01*
X49410476Y-87777380D01*
X50362857Y-87491666D02*
X50839047Y-87491666D01*
X50267619Y-87777380D02*
X50600952Y-86777380D01*
X50934285Y-87777380D01*
X51172380Y-86777380D02*
X51791428Y-86777380D01*
X51458095Y-87158333D01*
X51600952Y-87158333D01*
X51696190Y-87205952D01*
X51743809Y-87253571D01*
X51791428Y-87348809D01*
X51791428Y-87586904D01*
X51743809Y-87682142D01*
X51696190Y-87729761D01*
X51600952Y-87777380D01*
X51315238Y-87777380D01*
X51220000Y-87729761D01*
X51172380Y-87682142D01*
X222305714Y-126992380D02*
X222305714Y-125992380D01*
X222543809Y-125992380D01*
X222686666Y-126040000D01*
X222781904Y-126135238D01*
X222829523Y-126230476D01*
X222877142Y-126420952D01*
X222877142Y-126563809D01*
X222829523Y-126754285D01*
X222781904Y-126849523D01*
X222686666Y-126944761D01*
X222543809Y-126992380D01*
X222305714Y-126992380D01*
X223781904Y-125992380D02*
X223305714Y-125992380D01*
X223258095Y-126468571D01*
X223305714Y-126420952D01*
X223400952Y-126373333D01*
X223639047Y-126373333D01*
X223734285Y-126420952D01*
X223781904Y-126468571D01*
X223829523Y-126563809D01*
X223829523Y-126801904D01*
X223781904Y-126897142D01*
X223734285Y-126944761D01*
X223639047Y-126992380D01*
X223400952Y-126992380D01*
X223305714Y-126944761D01*
X223258095Y-126897142D01*
X224781904Y-126992380D02*
X224210476Y-126992380D01*
X224496190Y-126992380D02*
X224496190Y-125992380D01*
X224400952Y-126135238D01*
X224305714Y-126230476D01*
X224210476Y-126278095D01*
X60966666Y-65714285D02*
X60966666Y-65238095D01*
X61252380Y-65809523D02*
X60252380Y-65476190D01*
X61252380Y-65142857D01*
X60347619Y-64857142D02*
X60300000Y-64809523D01*
X60252380Y-64714285D01*
X60252380Y-64476190D01*
X60300000Y-64380952D01*
X60347619Y-64333333D01*
X60442857Y-64285714D01*
X60538095Y-64285714D01*
X60680952Y-64333333D01*
X61252380Y-64904761D01*
X61252380Y-64285714D01*
X87280952Y-70912380D02*
X86804761Y-70912380D01*
X86804761Y-69912380D01*
X87614285Y-70388571D02*
X87947619Y-70388571D01*
X88090476Y-70912380D02*
X87614285Y-70912380D01*
X87614285Y-69912380D01*
X88090476Y-69912380D01*
X88519047Y-70912380D02*
X88519047Y-69912380D01*
X88757142Y-69912380D01*
X88900000Y-69960000D01*
X88995238Y-70055238D01*
X89042857Y-70150476D01*
X89090476Y-70340952D01*
X89090476Y-70483809D01*
X89042857Y-70674285D01*
X88995238Y-70769523D01*
X88900000Y-70864761D01*
X88757142Y-70912380D01*
X88519047Y-70912380D01*
X89852380Y-70388571D02*
X89995238Y-70436190D01*
X90042857Y-70483809D01*
X90090476Y-70579047D01*
X90090476Y-70721904D01*
X90042857Y-70817142D01*
X89995238Y-70864761D01*
X89900000Y-70912380D01*
X89519047Y-70912380D01*
X89519047Y-69912380D01*
X89852380Y-69912380D01*
X89947619Y-69960000D01*
X89995238Y-70007619D01*
X90042857Y-70102857D01*
X90042857Y-70198095D01*
X89995238Y-70293333D01*
X89947619Y-70340952D01*
X89852380Y-70388571D01*
X89519047Y-70388571D01*
X91042857Y-70912380D02*
X90471428Y-70912380D01*
X90757142Y-70912380D02*
X90757142Y-69912380D01*
X90661904Y-70055238D01*
X90566666Y-70150476D01*
X90471428Y-70198095D01*
X103934761Y-136557619D02*
X103982380Y-136414761D01*
X103982380Y-136176666D01*
X103934761Y-136081428D01*
X103887142Y-136033809D01*
X103791904Y-135986190D01*
X103696666Y-135986190D01*
X103601428Y-136033809D01*
X103553809Y-136081428D01*
X103506190Y-136176666D01*
X103458571Y-136367142D01*
X103410952Y-136462380D01*
X103363333Y-136510000D01*
X103268095Y-136557619D01*
X103172857Y-136557619D01*
X103077619Y-136510000D01*
X103030000Y-136462380D01*
X102982380Y-136367142D01*
X102982380Y-136129047D01*
X103030000Y-135986190D01*
X104077619Y-134890952D02*
X104030000Y-134986190D01*
X103934761Y-135081428D01*
X103791904Y-135224285D01*
X103744285Y-135319523D01*
X103744285Y-135414761D01*
X103982380Y-135367142D02*
X103934761Y-135462380D01*
X103839523Y-135557619D01*
X103649047Y-135605238D01*
X103315714Y-135605238D01*
X103125238Y-135557619D01*
X103030000Y-135462380D01*
X102982380Y-135367142D01*
X102982380Y-135176666D01*
X103030000Y-135081428D01*
X103125238Y-134986190D01*
X103315714Y-134938571D01*
X103649047Y-134938571D01*
X103839523Y-134986190D01*
X103934761Y-135081428D01*
X103982380Y-135176666D01*
X103982380Y-135367142D01*
X103077619Y-134557619D02*
X103030000Y-134510000D01*
X102982380Y-134414761D01*
X102982380Y-134176666D01*
X103030000Y-134081428D01*
X103077619Y-134033809D01*
X103172857Y-133986190D01*
X103268095Y-133986190D01*
X103410952Y-134033809D01*
X103982380Y-134605238D01*
X103982380Y-133986190D01*
X103982380Y-133081428D02*
X103982380Y-133557619D01*
X102982380Y-133557619D01*
X103934761Y-132367142D02*
X103982380Y-132462380D01*
X103982380Y-132652857D01*
X103934761Y-132748095D01*
X103839523Y-132795714D01*
X103458571Y-132795714D01*
X103363333Y-132748095D01*
X103315714Y-132652857D01*
X103315714Y-132462380D01*
X103363333Y-132367142D01*
X103458571Y-132319523D01*
X103553809Y-132319523D01*
X103649047Y-132795714D01*
X103982380Y-131462380D02*
X102982380Y-131462380D01*
X103934761Y-131462380D02*
X103982380Y-131557619D01*
X103982380Y-131748095D01*
X103934761Y-131843333D01*
X103887142Y-131890952D01*
X103791904Y-131938571D01*
X103506190Y-131938571D01*
X103410952Y-131890952D01*
X103363333Y-131843333D01*
X103315714Y-131748095D01*
X103315714Y-131557619D01*
X103363333Y-131462380D01*
X103982380Y-130462380D02*
X103982380Y-131033809D01*
X103982380Y-130748095D02*
X102982380Y-130748095D01*
X103125238Y-130843333D01*
X103220476Y-130938571D01*
X103268095Y-131033809D01*
X234540714Y-126992380D02*
X234540714Y-125992380D01*
X234778809Y-125992380D01*
X234921666Y-126040000D01*
X235016904Y-126135238D01*
X235064523Y-126230476D01*
X235112142Y-126420952D01*
X235112142Y-126563809D01*
X235064523Y-126754285D01*
X235016904Y-126849523D01*
X234921666Y-126944761D01*
X234778809Y-126992380D01*
X234540714Y-126992380D01*
X236016904Y-125992380D02*
X235540714Y-125992380D01*
X235493095Y-126468571D01*
X235540714Y-126420952D01*
X235635952Y-126373333D01*
X235874047Y-126373333D01*
X235969285Y-126420952D01*
X236016904Y-126468571D01*
X236064523Y-126563809D01*
X236064523Y-126801904D01*
X236016904Y-126897142D01*
X235969285Y-126944761D01*
X235874047Y-126992380D01*
X235635952Y-126992380D01*
X235540714Y-126944761D01*
X235493095Y-126897142D01*
X236445476Y-126087619D02*
X236493095Y-126040000D01*
X236588333Y-125992380D01*
X236826428Y-125992380D01*
X236921666Y-126040000D01*
X236969285Y-126087619D01*
X237016904Y-126182857D01*
X237016904Y-126278095D01*
X236969285Y-126420952D01*
X236397857Y-126992380D01*
X237016904Y-126992380D01*
X49282380Y-118272380D02*
X48806190Y-118272380D01*
X48806190Y-117272380D01*
X49615714Y-117748571D02*
X49949047Y-117748571D01*
X50091904Y-118272380D02*
X49615714Y-118272380D01*
X49615714Y-117272380D01*
X50091904Y-117272380D01*
X50520476Y-118272380D02*
X50520476Y-117272380D01*
X50758571Y-117272380D01*
X50901428Y-117320000D01*
X50996666Y-117415238D01*
X51044285Y-117510476D01*
X51091904Y-117700952D01*
X51091904Y-117843809D01*
X51044285Y-118034285D01*
X50996666Y-118129523D01*
X50901428Y-118224761D01*
X50758571Y-118272380D01*
X50520476Y-118272380D01*
X51472857Y-117986666D02*
X51949047Y-117986666D01*
X51377619Y-118272380D02*
X51710952Y-117272380D01*
X52044285Y-118272380D01*
X52282380Y-117272380D02*
X52949047Y-117272380D01*
X52520476Y-118272380D01*
X184580714Y-90492380D02*
X184580714Y-89492380D01*
X184818809Y-89492380D01*
X184961666Y-89540000D01*
X185056904Y-89635238D01*
X185104523Y-89730476D01*
X185152142Y-89920952D01*
X185152142Y-90063809D01*
X185104523Y-90254285D01*
X185056904Y-90349523D01*
X184961666Y-90444761D01*
X184818809Y-90492380D01*
X184580714Y-90492380D01*
X185485476Y-89492380D02*
X186104523Y-89492380D01*
X185771190Y-89873333D01*
X185914047Y-89873333D01*
X186009285Y-89920952D01*
X186056904Y-89968571D01*
X186104523Y-90063809D01*
X186104523Y-90301904D01*
X186056904Y-90397142D01*
X186009285Y-90444761D01*
X185914047Y-90492380D01*
X185628333Y-90492380D01*
X185533095Y-90444761D01*
X185485476Y-90397142D01*
X186723571Y-89492380D02*
X186818809Y-89492380D01*
X186914047Y-89540000D01*
X186961666Y-89587619D01*
X187009285Y-89682857D01*
X187056904Y-89873333D01*
X187056904Y-90111428D01*
X187009285Y-90301904D01*
X186961666Y-90397142D01*
X186914047Y-90444761D01*
X186818809Y-90492380D01*
X186723571Y-90492380D01*
X186628333Y-90444761D01*
X186580714Y-90397142D01*
X186533095Y-90301904D01*
X186485476Y-90111428D01*
X186485476Y-89873333D01*
X186533095Y-89682857D01*
X186580714Y-89587619D01*
X186628333Y-89540000D01*
X186723571Y-89492380D01*
X209080714Y-114492380D02*
X209080714Y-113492380D01*
X209318809Y-113492380D01*
X209461666Y-113540000D01*
X209556904Y-113635238D01*
X209604523Y-113730476D01*
X209652142Y-113920952D01*
X209652142Y-114063809D01*
X209604523Y-114254285D01*
X209556904Y-114349523D01*
X209461666Y-114444761D01*
X209318809Y-114492380D01*
X209080714Y-114492380D01*
X210509285Y-113825714D02*
X210509285Y-114492380D01*
X210271190Y-113444761D02*
X210033095Y-114159047D01*
X210652142Y-114159047D01*
X211461666Y-113825714D02*
X211461666Y-114492380D01*
X211223571Y-113444761D02*
X210985476Y-114159047D01*
X211604523Y-114159047D01*
X43106666Y-65714285D02*
X43106666Y-65238095D01*
X43392380Y-65809523D02*
X42392380Y-65476190D01*
X43392380Y-65142857D01*
X43392380Y-64285714D02*
X43392380Y-64857142D01*
X43392380Y-64571428D02*
X42392380Y-64571428D01*
X42535238Y-64666666D01*
X42630476Y-64761904D01*
X42678095Y-64857142D01*
X209490476Y-46952380D02*
X210157142Y-47952380D01*
X210157142Y-46952380D02*
X209490476Y-47952380D01*
X210966666Y-47285714D02*
X210966666Y-47952380D01*
X210728571Y-46904761D02*
X210490476Y-47619047D01*
X211109523Y-47619047D01*
X160823809Y-127976190D02*
X160823809Y-128452380D01*
X160490476Y-127452380D02*
X160823809Y-127976190D01*
X161157142Y-127452380D01*
X161919047Y-127452380D02*
X161728571Y-127452380D01*
X161633333Y-127500000D01*
X161585714Y-127547619D01*
X161490476Y-127690476D01*
X161442857Y-127880952D01*
X161442857Y-128261904D01*
X161490476Y-128357142D01*
X161538095Y-128404761D01*
X161633333Y-128452380D01*
X161823809Y-128452380D01*
X161919047Y-128404761D01*
X161966666Y-128357142D01*
X162014285Y-128261904D01*
X162014285Y-128023809D01*
X161966666Y-127928571D01*
X161919047Y-127880952D01*
X161823809Y-127833333D01*
X161633333Y-127833333D01*
X161538095Y-127880952D01*
X161490476Y-127928571D01*
X161442857Y-128023809D01*
X66782380Y-103047380D02*
X66306190Y-103047380D01*
X66306190Y-102047380D01*
X67115714Y-102523571D02*
X67449047Y-102523571D01*
X67591904Y-103047380D02*
X67115714Y-103047380D01*
X67115714Y-102047380D01*
X67591904Y-102047380D01*
X68020476Y-103047380D02*
X68020476Y-102047380D01*
X68258571Y-102047380D01*
X68401428Y-102095000D01*
X68496666Y-102190238D01*
X68544285Y-102285476D01*
X68591904Y-102475952D01*
X68591904Y-102618809D01*
X68544285Y-102809285D01*
X68496666Y-102904523D01*
X68401428Y-102999761D01*
X68258571Y-103047380D01*
X68020476Y-103047380D01*
X68972857Y-102761666D02*
X69449047Y-102761666D01*
X68877619Y-103047380D02*
X69210952Y-102047380D01*
X69544285Y-103047380D01*
X70306190Y-102047380D02*
X70115714Y-102047380D01*
X70020476Y-102095000D01*
X69972857Y-102142619D01*
X69877619Y-102285476D01*
X69830000Y-102475952D01*
X69830000Y-102856904D01*
X69877619Y-102952142D01*
X69925238Y-102999761D01*
X70020476Y-103047380D01*
X70210952Y-103047380D01*
X70306190Y-102999761D01*
X70353809Y-102952142D01*
X70401428Y-102856904D01*
X70401428Y-102618809D01*
X70353809Y-102523571D01*
X70306190Y-102475952D01*
X70210952Y-102428333D01*
X70020476Y-102428333D01*
X69925238Y-102475952D01*
X69877619Y-102523571D01*
X69830000Y-102618809D01*
X196815714Y-90492380D02*
X196815714Y-89492380D01*
X197053809Y-89492380D01*
X197196666Y-89540000D01*
X197291904Y-89635238D01*
X197339523Y-89730476D01*
X197387142Y-89920952D01*
X197387142Y-90063809D01*
X197339523Y-90254285D01*
X197291904Y-90349523D01*
X197196666Y-90444761D01*
X197053809Y-90492380D01*
X196815714Y-90492380D01*
X197720476Y-89492380D02*
X198339523Y-89492380D01*
X198006190Y-89873333D01*
X198149047Y-89873333D01*
X198244285Y-89920952D01*
X198291904Y-89968571D01*
X198339523Y-90063809D01*
X198339523Y-90301904D01*
X198291904Y-90397142D01*
X198244285Y-90444761D01*
X198149047Y-90492380D01*
X197863333Y-90492380D01*
X197768095Y-90444761D01*
X197720476Y-90397142D01*
X199291904Y-90492380D02*
X198720476Y-90492380D01*
X199006190Y-90492380D02*
X199006190Y-89492380D01*
X198910952Y-89635238D01*
X198815714Y-89730476D01*
X198720476Y-89778095D01*
X117552380Y-120863333D02*
X118266666Y-120863333D01*
X118409523Y-120910952D01*
X118504761Y-121006190D01*
X118552380Y-121149047D01*
X118552380Y-121244285D01*
X117552380Y-119910952D02*
X117552380Y-120387142D01*
X118028571Y-120434761D01*
X117980952Y-120387142D01*
X117933333Y-120291904D01*
X117933333Y-120053809D01*
X117980952Y-119958571D01*
X118028571Y-119910952D01*
X118123809Y-119863333D01*
X118361904Y-119863333D01*
X118457142Y-119910952D01*
X118504761Y-119958571D01*
X118552380Y-120053809D01*
X118552380Y-120291904D01*
X118504761Y-120387142D01*
X118457142Y-120434761D01*
X86780952Y-118912380D02*
X86304761Y-118912380D01*
X86304761Y-117912380D01*
X87114285Y-118388571D02*
X87447619Y-118388571D01*
X87590476Y-118912380D02*
X87114285Y-118912380D01*
X87114285Y-117912380D01*
X87590476Y-117912380D01*
X88019047Y-118912380D02*
X88019047Y-117912380D01*
X88257142Y-117912380D01*
X88400000Y-117960000D01*
X88495238Y-118055238D01*
X88542857Y-118150476D01*
X88590476Y-118340952D01*
X88590476Y-118483809D01*
X88542857Y-118674285D01*
X88495238Y-118769523D01*
X88400000Y-118864761D01*
X88257142Y-118912380D01*
X88019047Y-118912380D01*
X89352380Y-118388571D02*
X89495238Y-118436190D01*
X89542857Y-118483809D01*
X89590476Y-118579047D01*
X89590476Y-118721904D01*
X89542857Y-118817142D01*
X89495238Y-118864761D01*
X89400000Y-118912380D01*
X89019047Y-118912380D01*
X89019047Y-117912380D01*
X89352380Y-117912380D01*
X89447619Y-117960000D01*
X89495238Y-118007619D01*
X89542857Y-118102857D01*
X89542857Y-118198095D01*
X89495238Y-118293333D01*
X89447619Y-118340952D01*
X89352380Y-118388571D01*
X89019047Y-118388571D01*
X89923809Y-117912380D02*
X90590476Y-117912380D01*
X90161904Y-118912380D01*
X125913333Y-126862380D02*
X125580000Y-126386190D01*
X125341904Y-126862380D02*
X125341904Y-125862380D01*
X125722857Y-125862380D01*
X125818095Y-125910000D01*
X125865714Y-125957619D01*
X125913333Y-126052857D01*
X125913333Y-126195714D01*
X125865714Y-126290952D01*
X125818095Y-126338571D01*
X125722857Y-126386190D01*
X125341904Y-126386190D01*
X126484761Y-126290952D02*
X126389523Y-126243333D01*
X126341904Y-126195714D01*
X126294285Y-126100476D01*
X126294285Y-126052857D01*
X126341904Y-125957619D01*
X126389523Y-125910000D01*
X126484761Y-125862380D01*
X126675238Y-125862380D01*
X126770476Y-125910000D01*
X126818095Y-125957619D01*
X126865714Y-126052857D01*
X126865714Y-126100476D01*
X126818095Y-126195714D01*
X126770476Y-126243333D01*
X126675238Y-126290952D01*
X126484761Y-126290952D01*
X126389523Y-126338571D01*
X126341904Y-126386190D01*
X126294285Y-126481428D01*
X126294285Y-126671904D01*
X126341904Y-126767142D01*
X126389523Y-126814761D01*
X126484761Y-126862380D01*
X126675238Y-126862380D01*
X126770476Y-126814761D01*
X126818095Y-126767142D01*
X126865714Y-126671904D01*
X126865714Y-126481428D01*
X126818095Y-126386190D01*
X126770476Y-126338571D01*
X126675238Y-126290952D01*
X172080714Y-102992380D02*
X172080714Y-101992380D01*
X172318809Y-101992380D01*
X172461666Y-102040000D01*
X172556904Y-102135238D01*
X172604523Y-102230476D01*
X172652142Y-102420952D01*
X172652142Y-102563809D01*
X172604523Y-102754285D01*
X172556904Y-102849523D01*
X172461666Y-102944761D01*
X172318809Y-102992380D01*
X172080714Y-102992380D01*
X172985476Y-101992380D02*
X173604523Y-101992380D01*
X173271190Y-102373333D01*
X173414047Y-102373333D01*
X173509285Y-102420952D01*
X173556904Y-102468571D01*
X173604523Y-102563809D01*
X173604523Y-102801904D01*
X173556904Y-102897142D01*
X173509285Y-102944761D01*
X173414047Y-102992380D01*
X173128333Y-102992380D01*
X173033095Y-102944761D01*
X172985476Y-102897142D01*
X174509285Y-101992380D02*
X174033095Y-101992380D01*
X173985476Y-102468571D01*
X174033095Y-102420952D01*
X174128333Y-102373333D01*
X174366428Y-102373333D01*
X174461666Y-102420952D01*
X174509285Y-102468571D01*
X174556904Y-102563809D01*
X174556904Y-102801904D01*
X174509285Y-102897142D01*
X174461666Y-102944761D01*
X174366428Y-102992380D01*
X174128333Y-102992380D01*
X174033095Y-102944761D01*
X173985476Y-102897142D01*
X249123333Y-117257380D02*
X249123333Y-116257380D01*
X249456666Y-116971666D01*
X249790000Y-116257380D01*
X249790000Y-117257380D01*
X250694761Y-117257380D02*
X250694761Y-116733571D01*
X250647142Y-116638333D01*
X250551904Y-116590714D01*
X250361428Y-116590714D01*
X250266190Y-116638333D01*
X250694761Y-117209761D02*
X250599523Y-117257380D01*
X250361428Y-117257380D01*
X250266190Y-117209761D01*
X250218571Y-117114523D01*
X250218571Y-117019285D01*
X250266190Y-116924047D01*
X250361428Y-116876428D01*
X250599523Y-116876428D01*
X250694761Y-116828809D01*
X251075714Y-117257380D02*
X251599523Y-116590714D01*
X251075714Y-116590714D02*
X251599523Y-117257380D01*
X252504285Y-117257380D02*
X251932857Y-117257380D01*
X252218571Y-117257380D02*
X252218571Y-116257380D01*
X252123333Y-116400238D01*
X252028095Y-116495476D01*
X251932857Y-116543095D01*
X130382380Y-94666666D02*
X129906190Y-95000000D01*
X130382380Y-95238095D02*
X129382380Y-95238095D01*
X129382380Y-94857142D01*
X129430000Y-94761904D01*
X129477619Y-94714285D01*
X129572857Y-94666666D01*
X129715714Y-94666666D01*
X129810952Y-94714285D01*
X129858571Y-94761904D01*
X129906190Y-94857142D01*
X129906190Y-95238095D01*
X129382380Y-93809523D02*
X129382380Y-94000000D01*
X129430000Y-94095238D01*
X129477619Y-94142857D01*
X129620476Y-94238095D01*
X129810952Y-94285714D01*
X130191904Y-94285714D01*
X130287142Y-94238095D01*
X130334761Y-94190476D01*
X130382380Y-94095238D01*
X130382380Y-93904761D01*
X130334761Y-93809523D01*
X130287142Y-93761904D01*
X130191904Y-93714285D01*
X129953809Y-93714285D01*
X129858571Y-93761904D01*
X129810952Y-93809523D01*
X129763333Y-93904761D01*
X129763333Y-94095238D01*
X129810952Y-94190476D01*
X129858571Y-94238095D01*
X129953809Y-94285714D01*
X160823809Y-102476190D02*
X160823809Y-102952380D01*
X160490476Y-101952380D02*
X160823809Y-102476190D01*
X161157142Y-101952380D01*
X161919047Y-102285714D02*
X161919047Y-102952380D01*
X161680952Y-101904761D02*
X161442857Y-102619047D01*
X162061904Y-102619047D01*
X117552380Y-73363333D02*
X118266666Y-73363333D01*
X118409523Y-73410952D01*
X118504761Y-73506190D01*
X118552380Y-73649047D01*
X118552380Y-73744285D01*
X117647619Y-72934761D02*
X117600000Y-72887142D01*
X117552380Y-72791904D01*
X117552380Y-72553809D01*
X117600000Y-72458571D01*
X117647619Y-72410952D01*
X117742857Y-72363333D01*
X117838095Y-72363333D01*
X117980952Y-72410952D01*
X118552380Y-72982380D01*
X118552380Y-72363333D01*
X66782380Y-118547380D02*
X66306190Y-118547380D01*
X66306190Y-117547380D01*
X67115714Y-118023571D02*
X67449047Y-118023571D01*
X67591904Y-118547380D02*
X67115714Y-118547380D01*
X67115714Y-117547380D01*
X67591904Y-117547380D01*
X68020476Y-118547380D02*
X68020476Y-117547380D01*
X68258571Y-117547380D01*
X68401428Y-117595000D01*
X68496666Y-117690238D01*
X68544285Y-117785476D01*
X68591904Y-117975952D01*
X68591904Y-118118809D01*
X68544285Y-118309285D01*
X68496666Y-118404523D01*
X68401428Y-118499761D01*
X68258571Y-118547380D01*
X68020476Y-118547380D01*
X68972857Y-118261666D02*
X69449047Y-118261666D01*
X68877619Y-118547380D02*
X69210952Y-117547380D01*
X69544285Y-118547380D01*
X70020476Y-117975952D02*
X69925238Y-117928333D01*
X69877619Y-117880714D01*
X69830000Y-117785476D01*
X69830000Y-117737857D01*
X69877619Y-117642619D01*
X69925238Y-117595000D01*
X70020476Y-117547380D01*
X70210952Y-117547380D01*
X70306190Y-117595000D01*
X70353809Y-117642619D01*
X70401428Y-117737857D01*
X70401428Y-117785476D01*
X70353809Y-117880714D01*
X70306190Y-117928333D01*
X70210952Y-117975952D01*
X70020476Y-117975952D01*
X69925238Y-118023571D01*
X69877619Y-118071190D01*
X69830000Y-118166428D01*
X69830000Y-118356904D01*
X69877619Y-118452142D01*
X69925238Y-118499761D01*
X70020476Y-118547380D01*
X70210952Y-118547380D01*
X70306190Y-118499761D01*
X70353809Y-118452142D01*
X70401428Y-118356904D01*
X70401428Y-118166428D01*
X70353809Y-118071190D01*
X70306190Y-118023571D01*
X70210952Y-117975952D01*
X103934761Y-55414761D02*
X103982380Y-55271904D01*
X103982380Y-55033809D01*
X103934761Y-54938571D01*
X103887142Y-54890952D01*
X103791904Y-54843333D01*
X103696666Y-54843333D01*
X103601428Y-54890952D01*
X103553809Y-54938571D01*
X103506190Y-55033809D01*
X103458571Y-55224285D01*
X103410952Y-55319523D01*
X103363333Y-55367142D01*
X103268095Y-55414761D01*
X103172857Y-55414761D01*
X103077619Y-55367142D01*
X103030000Y-55319523D01*
X102982380Y-55224285D01*
X102982380Y-54986190D01*
X103030000Y-54843333D01*
X104077619Y-53748095D02*
X104030000Y-53843333D01*
X103934761Y-53938571D01*
X103791904Y-54081428D01*
X103744285Y-54176666D01*
X103744285Y-54271904D01*
X103982380Y-54224285D02*
X103934761Y-54319523D01*
X103839523Y-54414761D01*
X103649047Y-54462380D01*
X103315714Y-54462380D01*
X103125238Y-54414761D01*
X103030000Y-54319523D01*
X102982380Y-54224285D01*
X102982380Y-54033809D01*
X103030000Y-53938571D01*
X103125238Y-53843333D01*
X103315714Y-53795714D01*
X103649047Y-53795714D01*
X103839523Y-53843333D01*
X103934761Y-53938571D01*
X103982380Y-54033809D01*
X103982380Y-54224285D01*
X103077619Y-53414761D02*
X103030000Y-53367142D01*
X102982380Y-53271904D01*
X102982380Y-53033809D01*
X103030000Y-52938571D01*
X103077619Y-52890952D01*
X103172857Y-52843333D01*
X103268095Y-52843333D01*
X103410952Y-52890952D01*
X103982380Y-53462380D01*
X103982380Y-52843333D01*
X103982380Y-52414761D02*
X102982380Y-52414761D01*
X102982380Y-52033809D01*
X103030000Y-51938571D01*
X103077619Y-51890952D01*
X103172857Y-51843333D01*
X103315714Y-51843333D01*
X103410952Y-51890952D01*
X103458571Y-51938571D01*
X103506190Y-52033809D01*
X103506190Y-52414761D01*
X103982380Y-51271904D02*
X103934761Y-51367142D01*
X103887142Y-51414761D01*
X103791904Y-51462380D01*
X103506190Y-51462380D01*
X103410952Y-51414761D01*
X103363333Y-51367142D01*
X103315714Y-51271904D01*
X103315714Y-51129047D01*
X103363333Y-51033809D01*
X103410952Y-50986190D01*
X103506190Y-50938571D01*
X103791904Y-50938571D01*
X103887142Y-50986190D01*
X103934761Y-51033809D01*
X103982380Y-51129047D01*
X103982380Y-51271904D01*
X103315714Y-50652857D02*
X103315714Y-50271904D01*
X102982380Y-50510000D02*
X103839523Y-50510000D01*
X103934761Y-50462380D01*
X103982380Y-50367142D01*
X103982380Y-50271904D01*
X103934761Y-49986190D02*
X103982380Y-49890952D01*
X103982380Y-49700476D01*
X103934761Y-49605238D01*
X103839523Y-49557619D01*
X103791904Y-49557619D01*
X103696666Y-49605238D01*
X103649047Y-49700476D01*
X103649047Y-49843333D01*
X103601428Y-49938571D01*
X103506190Y-49986190D01*
X103458571Y-49986190D01*
X103363333Y-49938571D01*
X103315714Y-49843333D01*
X103315714Y-49700476D01*
X103363333Y-49605238D01*
X103982380Y-48605238D02*
X103982380Y-49176666D01*
X103982380Y-48890952D02*
X102982380Y-48890952D01*
X103125238Y-48986190D01*
X103220476Y-49081428D01*
X103268095Y-49176666D01*
X138022380Y-123456666D02*
X137546190Y-123790000D01*
X138022380Y-124028095D02*
X137022380Y-124028095D01*
X137022380Y-123647142D01*
X137070000Y-123551904D01*
X137117619Y-123504285D01*
X137212857Y-123456666D01*
X137355714Y-123456666D01*
X137450952Y-123504285D01*
X137498571Y-123551904D01*
X137546190Y-123647142D01*
X137546190Y-124028095D01*
X137022380Y-122551904D02*
X137022380Y-123028095D01*
X137498571Y-123075714D01*
X137450952Y-123028095D01*
X137403333Y-122932857D01*
X137403333Y-122694761D01*
X137450952Y-122599523D01*
X137498571Y-122551904D01*
X137593809Y-122504285D01*
X137831904Y-122504285D01*
X137927142Y-122551904D01*
X137974761Y-122599523D01*
X138022380Y-122694761D01*
X138022380Y-122932857D01*
X137974761Y-123028095D01*
X137927142Y-123075714D01*
X86780952Y-86637380D02*
X86304761Y-86637380D01*
X86304761Y-85637380D01*
X87114285Y-86113571D02*
X87447619Y-86113571D01*
X87590476Y-86637380D02*
X87114285Y-86637380D01*
X87114285Y-85637380D01*
X87590476Y-85637380D01*
X88019047Y-86637380D02*
X88019047Y-85637380D01*
X88257142Y-85637380D01*
X88400000Y-85685000D01*
X88495238Y-85780238D01*
X88542857Y-85875476D01*
X88590476Y-86065952D01*
X88590476Y-86208809D01*
X88542857Y-86399285D01*
X88495238Y-86494523D01*
X88400000Y-86589761D01*
X88257142Y-86637380D01*
X88019047Y-86637380D01*
X89352380Y-86113571D02*
X89495238Y-86161190D01*
X89542857Y-86208809D01*
X89590476Y-86304047D01*
X89590476Y-86446904D01*
X89542857Y-86542142D01*
X89495238Y-86589761D01*
X89400000Y-86637380D01*
X89019047Y-86637380D01*
X89019047Y-85637380D01*
X89352380Y-85637380D01*
X89447619Y-85685000D01*
X89495238Y-85732619D01*
X89542857Y-85827857D01*
X89542857Y-85923095D01*
X89495238Y-86018333D01*
X89447619Y-86065952D01*
X89352380Y-86113571D01*
X89019047Y-86113571D01*
X89923809Y-85637380D02*
X90542857Y-85637380D01*
X90209523Y-86018333D01*
X90352380Y-86018333D01*
X90447619Y-86065952D01*
X90495238Y-86113571D01*
X90542857Y-86208809D01*
X90542857Y-86446904D01*
X90495238Y-86542142D01*
X90447619Y-86589761D01*
X90352380Y-86637380D01*
X90066666Y-86637380D01*
X89971428Y-86589761D01*
X89923809Y-86542142D01*
X222080714Y-65992380D02*
X222080714Y-64992380D01*
X222318809Y-64992380D01*
X222461666Y-65040000D01*
X222556904Y-65135238D01*
X222604523Y-65230476D01*
X222652142Y-65420952D01*
X222652142Y-65563809D01*
X222604523Y-65754285D01*
X222556904Y-65849523D01*
X222461666Y-65944761D01*
X222318809Y-65992380D01*
X222080714Y-65992380D01*
X223033095Y-65087619D02*
X223080714Y-65040000D01*
X223175952Y-64992380D01*
X223414047Y-64992380D01*
X223509285Y-65040000D01*
X223556904Y-65087619D01*
X223604523Y-65182857D01*
X223604523Y-65278095D01*
X223556904Y-65420952D01*
X222985476Y-65992380D01*
X223604523Y-65992380D01*
X224556904Y-65992380D02*
X223985476Y-65992380D01*
X224271190Y-65992380D02*
X224271190Y-64992380D01*
X224175952Y-65135238D01*
X224080714Y-65230476D01*
X223985476Y-65278095D01*
X130452380Y-130775714D02*
X130833333Y-130775714D01*
X130595238Y-131442380D02*
X130595238Y-130585238D01*
X130642857Y-130490000D01*
X130738095Y-130442380D01*
X130833333Y-130442380D01*
X131166666Y-131442380D02*
X131166666Y-130442380D01*
X131166666Y-130823333D02*
X131261904Y-130775714D01*
X131452380Y-130775714D01*
X131547619Y-130823333D01*
X131595238Y-130870952D01*
X131642857Y-130966190D01*
X131642857Y-131251904D01*
X131595238Y-131347142D01*
X131547619Y-131394761D01*
X131452380Y-131442380D01*
X131261904Y-131442380D01*
X131166666Y-131394761D01*
X132500000Y-131394761D02*
X132404761Y-131442380D01*
X132214285Y-131442380D01*
X132119047Y-131394761D01*
X132071428Y-131347142D01*
X132023809Y-131251904D01*
X132023809Y-130966190D01*
X132071428Y-130870952D01*
X132119047Y-130823333D01*
X132214285Y-130775714D01*
X132404761Y-130775714D01*
X132500000Y-130823333D01*
X132880952Y-130537619D02*
X132928571Y-130490000D01*
X133023809Y-130442380D01*
X133261904Y-130442380D01*
X133357142Y-130490000D01*
X133404761Y-130537619D01*
X133452380Y-130632857D01*
X133452380Y-130728095D01*
X133404761Y-130870952D01*
X132833333Y-131442380D01*
X133452380Y-131442380D01*
X74882380Y-51166666D02*
X74406190Y-51500000D01*
X74882380Y-51738095D02*
X73882380Y-51738095D01*
X73882380Y-51357142D01*
X73930000Y-51261904D01*
X73977619Y-51214285D01*
X74072857Y-51166666D01*
X74215714Y-51166666D01*
X74310952Y-51214285D01*
X74358571Y-51261904D01*
X74406190Y-51357142D01*
X74406190Y-51738095D01*
X74215714Y-50309523D02*
X74882380Y-50309523D01*
X73834761Y-50547619D02*
X74549047Y-50785714D01*
X74549047Y-50166666D01*
X184580714Y-114492380D02*
X184580714Y-113492380D01*
X184818809Y-113492380D01*
X184961666Y-113540000D01*
X185056904Y-113635238D01*
X185104523Y-113730476D01*
X185152142Y-113920952D01*
X185152142Y-114063809D01*
X185104523Y-114254285D01*
X185056904Y-114349523D01*
X184961666Y-114444761D01*
X184818809Y-114492380D01*
X184580714Y-114492380D01*
X186009285Y-113825714D02*
X186009285Y-114492380D01*
X185771190Y-113444761D02*
X185533095Y-114159047D01*
X186152142Y-114159047D01*
X186485476Y-113587619D02*
X186533095Y-113540000D01*
X186628333Y-113492380D01*
X186866428Y-113492380D01*
X186961666Y-113540000D01*
X187009285Y-113587619D01*
X187056904Y-113682857D01*
X187056904Y-113778095D01*
X187009285Y-113920952D01*
X186437857Y-114492380D01*
X187056904Y-114492380D01*
X114040000Y-50254761D02*
X113944761Y-50302380D01*
X113754285Y-50302380D01*
X113659047Y-50254761D01*
X113611428Y-50207142D01*
X113563809Y-50111904D01*
X113563809Y-49826190D01*
X113611428Y-49730952D01*
X113659047Y-49683333D01*
X113754285Y-49635714D01*
X113944761Y-49635714D01*
X114040000Y-49683333D01*
X114611428Y-50302380D02*
X114516190Y-50254761D01*
X114468571Y-50207142D01*
X114420952Y-50111904D01*
X114420952Y-49826190D01*
X114468571Y-49730952D01*
X114516190Y-49683333D01*
X114611428Y-49635714D01*
X114754285Y-49635714D01*
X114849523Y-49683333D01*
X114897142Y-49730952D01*
X114944761Y-49826190D01*
X114944761Y-50111904D01*
X114897142Y-50207142D01*
X114849523Y-50254761D01*
X114754285Y-50302380D01*
X114611428Y-50302380D01*
X115373333Y-49635714D02*
X115373333Y-50302380D01*
X115373333Y-49730952D02*
X115420952Y-49683333D01*
X115516190Y-49635714D01*
X115659047Y-49635714D01*
X115754285Y-49683333D01*
X115801904Y-49778571D01*
X115801904Y-50302380D01*
X116611428Y-49778571D02*
X116278095Y-49778571D01*
X116278095Y-50302380D02*
X116278095Y-49302380D01*
X116754285Y-49302380D01*
X117516190Y-50254761D02*
X117420952Y-50302380D01*
X117230476Y-50302380D01*
X117135238Y-50254761D01*
X117087619Y-50159523D01*
X117087619Y-49778571D01*
X117135238Y-49683333D01*
X117230476Y-49635714D01*
X117420952Y-49635714D01*
X117516190Y-49683333D01*
X117563809Y-49778571D01*
X117563809Y-49873809D01*
X117087619Y-49969047D01*
X117944761Y-49397619D02*
X117992380Y-49350000D01*
X118087619Y-49302380D01*
X118325714Y-49302380D01*
X118420952Y-49350000D01*
X118468571Y-49397619D01*
X118516190Y-49492857D01*
X118516190Y-49588095D01*
X118468571Y-49730952D01*
X117897142Y-50302380D01*
X118516190Y-50302380D01*
X43106666Y-81714285D02*
X43106666Y-81238095D01*
X43392380Y-81809523D02*
X42392380Y-81476190D01*
X43392380Y-81142857D01*
X42392380Y-80904761D02*
X42392380Y-80285714D01*
X42773333Y-80619047D01*
X42773333Y-80476190D01*
X42820952Y-80380952D01*
X42868571Y-80333333D01*
X42963809Y-80285714D01*
X43201904Y-80285714D01*
X43297142Y-80333333D01*
X43344761Y-80380952D01*
X43392380Y-80476190D01*
X43392380Y-80761904D01*
X43344761Y-80857142D01*
X43297142Y-80904761D01*
X172080714Y-114492380D02*
X172080714Y-113492380D01*
X172318809Y-113492380D01*
X172461666Y-113540000D01*
X172556904Y-113635238D01*
X172604523Y-113730476D01*
X172652142Y-113920952D01*
X172652142Y-114063809D01*
X172604523Y-114254285D01*
X172556904Y-114349523D01*
X172461666Y-114444761D01*
X172318809Y-114492380D01*
X172080714Y-114492380D01*
X173509285Y-113825714D02*
X173509285Y-114492380D01*
X173271190Y-113444761D02*
X173033095Y-114159047D01*
X173652142Y-114159047D01*
X174556904Y-114492380D02*
X173985476Y-114492380D01*
X174271190Y-114492380D02*
X174271190Y-113492380D01*
X174175952Y-113635238D01*
X174080714Y-113730476D01*
X173985476Y-113778095D01*
X66434761Y-136557619D02*
X66482380Y-136414761D01*
X66482380Y-136176666D01*
X66434761Y-136081428D01*
X66387142Y-136033809D01*
X66291904Y-135986190D01*
X66196666Y-135986190D01*
X66101428Y-136033809D01*
X66053809Y-136081428D01*
X66006190Y-136176666D01*
X65958571Y-136367142D01*
X65910952Y-136462380D01*
X65863333Y-136510000D01*
X65768095Y-136557619D01*
X65672857Y-136557619D01*
X65577619Y-136510000D01*
X65530000Y-136462380D01*
X65482380Y-136367142D01*
X65482380Y-136129047D01*
X65530000Y-135986190D01*
X66577619Y-134890952D02*
X66530000Y-134986190D01*
X66434761Y-135081428D01*
X66291904Y-135224285D01*
X66244285Y-135319523D01*
X66244285Y-135414761D01*
X66482380Y-135367142D02*
X66434761Y-135462380D01*
X66339523Y-135557619D01*
X66149047Y-135605238D01*
X65815714Y-135605238D01*
X65625238Y-135557619D01*
X65530000Y-135462380D01*
X65482380Y-135367142D01*
X65482380Y-135176666D01*
X65530000Y-135081428D01*
X65625238Y-134986190D01*
X65815714Y-134938571D01*
X66149047Y-134938571D01*
X66339523Y-134986190D01*
X66434761Y-135081428D01*
X66482380Y-135176666D01*
X66482380Y-135367142D01*
X66482380Y-133986190D02*
X66482380Y-134557619D01*
X66482380Y-134271904D02*
X65482380Y-134271904D01*
X65625238Y-134367142D01*
X65720476Y-134462380D01*
X65768095Y-134557619D01*
X66482380Y-133081428D02*
X66482380Y-133557619D01*
X65482380Y-133557619D01*
X66434761Y-132367142D02*
X66482380Y-132462380D01*
X66482380Y-132652857D01*
X66434761Y-132748095D01*
X66339523Y-132795714D01*
X65958571Y-132795714D01*
X65863333Y-132748095D01*
X65815714Y-132652857D01*
X65815714Y-132462380D01*
X65863333Y-132367142D01*
X65958571Y-132319523D01*
X66053809Y-132319523D01*
X66149047Y-132795714D01*
X66482380Y-131462380D02*
X65482380Y-131462380D01*
X66434761Y-131462380D02*
X66482380Y-131557619D01*
X66482380Y-131748095D01*
X66434761Y-131843333D01*
X66387142Y-131890952D01*
X66291904Y-131938571D01*
X66006190Y-131938571D01*
X65910952Y-131890952D01*
X65863333Y-131843333D01*
X65815714Y-131748095D01*
X65815714Y-131557619D01*
X65863333Y-131462380D01*
X66482380Y-130462380D02*
X66482380Y-131033809D01*
X66482380Y-130748095D02*
X65482380Y-130748095D01*
X65625238Y-130843333D01*
X65720476Y-130938571D01*
X65768095Y-131033809D01*
X117552380Y-109863333D02*
X118266666Y-109863333D01*
X118409523Y-109910952D01*
X118504761Y-110006190D01*
X118552380Y-110149047D01*
X118552380Y-110244285D01*
X117885714Y-108958571D02*
X118552380Y-108958571D01*
X117504761Y-109196666D02*
X118219047Y-109434761D01*
X118219047Y-108815714D01*
X209080714Y-126992380D02*
X209080714Y-125992380D01*
X209318809Y-125992380D01*
X209461666Y-126040000D01*
X209556904Y-126135238D01*
X209604523Y-126230476D01*
X209652142Y-126420952D01*
X209652142Y-126563809D01*
X209604523Y-126754285D01*
X209556904Y-126849523D01*
X209461666Y-126944761D01*
X209318809Y-126992380D01*
X209080714Y-126992380D01*
X210556904Y-125992380D02*
X210080714Y-125992380D01*
X210033095Y-126468571D01*
X210080714Y-126420952D01*
X210175952Y-126373333D01*
X210414047Y-126373333D01*
X210509285Y-126420952D01*
X210556904Y-126468571D01*
X210604523Y-126563809D01*
X210604523Y-126801904D01*
X210556904Y-126897142D01*
X210509285Y-126944761D01*
X210414047Y-126992380D01*
X210175952Y-126992380D01*
X210080714Y-126944761D01*
X210033095Y-126897142D01*
X211223571Y-125992380D02*
X211318809Y-125992380D01*
X211414047Y-126040000D01*
X211461666Y-126087619D01*
X211509285Y-126182857D01*
X211556904Y-126373333D01*
X211556904Y-126611428D01*
X211509285Y-126801904D01*
X211461666Y-126897142D01*
X211414047Y-126944761D01*
X211318809Y-126992380D01*
X211223571Y-126992380D01*
X211128333Y-126944761D01*
X211080714Y-126897142D01*
X211033095Y-126801904D01*
X210985476Y-126611428D01*
X210985476Y-126373333D01*
X211033095Y-126182857D01*
X211080714Y-126087619D01*
X211128333Y-126040000D01*
X211223571Y-125992380D01*
X86780952Y-102862380D02*
X86304761Y-102862380D01*
X86304761Y-101862380D01*
X87114285Y-102338571D02*
X87447619Y-102338571D01*
X87590476Y-102862380D02*
X87114285Y-102862380D01*
X87114285Y-101862380D01*
X87590476Y-101862380D01*
X88019047Y-102862380D02*
X88019047Y-101862380D01*
X88257142Y-101862380D01*
X88400000Y-101910000D01*
X88495238Y-102005238D01*
X88542857Y-102100476D01*
X88590476Y-102290952D01*
X88590476Y-102433809D01*
X88542857Y-102624285D01*
X88495238Y-102719523D01*
X88400000Y-102814761D01*
X88257142Y-102862380D01*
X88019047Y-102862380D01*
X89352380Y-102338571D02*
X89495238Y-102386190D01*
X89542857Y-102433809D01*
X89590476Y-102529047D01*
X89590476Y-102671904D01*
X89542857Y-102767142D01*
X89495238Y-102814761D01*
X89400000Y-102862380D01*
X89019047Y-102862380D01*
X89019047Y-101862380D01*
X89352380Y-101862380D01*
X89447619Y-101910000D01*
X89495238Y-101957619D01*
X89542857Y-102052857D01*
X89542857Y-102148095D01*
X89495238Y-102243333D01*
X89447619Y-102290952D01*
X89352380Y-102338571D01*
X89019047Y-102338571D01*
X90495238Y-101862380D02*
X90019047Y-101862380D01*
X89971428Y-102338571D01*
X90019047Y-102290952D01*
X90114285Y-102243333D01*
X90352380Y-102243333D01*
X90447619Y-102290952D01*
X90495238Y-102338571D01*
X90542857Y-102433809D01*
X90542857Y-102671904D01*
X90495238Y-102767142D01*
X90447619Y-102814761D01*
X90352380Y-102862380D01*
X90114285Y-102862380D01*
X90019047Y-102814761D01*
X89971428Y-102767142D01*
X117552380Y-98863333D02*
X118266666Y-98863333D01*
X118409523Y-98910952D01*
X118504761Y-99006190D01*
X118552380Y-99149047D01*
X118552380Y-99244285D01*
X117552380Y-98482380D02*
X117552380Y-97863333D01*
X117933333Y-98196666D01*
X117933333Y-98053809D01*
X117980952Y-97958571D01*
X118028571Y-97910952D01*
X118123809Y-97863333D01*
X118361904Y-97863333D01*
X118457142Y-97910952D01*
X118504761Y-97958571D01*
X118552380Y-98053809D01*
X118552380Y-98339523D01*
X118504761Y-98434761D01*
X118457142Y-98482380D01*
X43106666Y-112714285D02*
X43106666Y-112238095D01*
X43392380Y-112809523D02*
X42392380Y-112476190D01*
X43392380Y-112142857D01*
X42392380Y-111904761D02*
X42392380Y-111238095D01*
X43392380Y-111666666D01*
X142466666Y-103904761D02*
X142609523Y-103952380D01*
X142847619Y-103952380D01*
X142942857Y-103904761D01*
X142990476Y-103857142D01*
X143038095Y-103761904D01*
X143038095Y-103666666D01*
X142990476Y-103571428D01*
X142942857Y-103523809D01*
X142847619Y-103476190D01*
X142657142Y-103428571D01*
X142561904Y-103380952D01*
X142514285Y-103333333D01*
X142466666Y-103238095D01*
X142466666Y-103142857D01*
X142514285Y-103047619D01*
X142561904Y-103000000D01*
X142657142Y-102952380D01*
X142895238Y-102952380D01*
X143038095Y-103000000D01*
X143371428Y-102952380D02*
X143609523Y-103952380D01*
X143800000Y-103238095D01*
X143990476Y-103952380D01*
X144228571Y-102952380D01*
X144514285Y-102952380D02*
X145133333Y-102952380D01*
X144800000Y-103333333D01*
X144942857Y-103333333D01*
X145038095Y-103380952D01*
X145085714Y-103428571D01*
X145133333Y-103523809D01*
X145133333Y-103761904D01*
X145085714Y-103857142D01*
X145038095Y-103904761D01*
X144942857Y-103952380D01*
X144657142Y-103952380D01*
X144561904Y-103904761D01*
X144514285Y-103857142D01*
X222305714Y-90492380D02*
X222305714Y-89492380D01*
X222543809Y-89492380D01*
X222686666Y-89540000D01*
X222781904Y-89635238D01*
X222829523Y-89730476D01*
X222877142Y-89920952D01*
X222877142Y-90063809D01*
X222829523Y-90254285D01*
X222781904Y-90349523D01*
X222686666Y-90444761D01*
X222543809Y-90492380D01*
X222305714Y-90492380D01*
X223210476Y-89492380D02*
X223829523Y-89492380D01*
X223496190Y-89873333D01*
X223639047Y-89873333D01*
X223734285Y-89920952D01*
X223781904Y-89968571D01*
X223829523Y-90063809D01*
X223829523Y-90301904D01*
X223781904Y-90397142D01*
X223734285Y-90444761D01*
X223639047Y-90492380D01*
X223353333Y-90492380D01*
X223258095Y-90444761D01*
X223210476Y-90397142D01*
X224162857Y-89492380D02*
X224781904Y-89492380D01*
X224448571Y-89873333D01*
X224591428Y-89873333D01*
X224686666Y-89920952D01*
X224734285Y-89968571D01*
X224781904Y-90063809D01*
X224781904Y-90301904D01*
X224734285Y-90397142D01*
X224686666Y-90444761D01*
X224591428Y-90492380D01*
X224305714Y-90492380D01*
X224210476Y-90444761D01*
X224162857Y-90397142D01*
X196815714Y-102992380D02*
X196815714Y-101992380D01*
X197053809Y-101992380D01*
X197196666Y-102040000D01*
X197291904Y-102135238D01*
X197339523Y-102230476D01*
X197387142Y-102420952D01*
X197387142Y-102563809D01*
X197339523Y-102754285D01*
X197291904Y-102849523D01*
X197196666Y-102944761D01*
X197053809Y-102992380D01*
X196815714Y-102992380D01*
X197720476Y-101992380D02*
X198339523Y-101992380D01*
X198006190Y-102373333D01*
X198149047Y-102373333D01*
X198244285Y-102420952D01*
X198291904Y-102468571D01*
X198339523Y-102563809D01*
X198339523Y-102801904D01*
X198291904Y-102897142D01*
X198244285Y-102944761D01*
X198149047Y-102992380D01*
X197863333Y-102992380D01*
X197768095Y-102944761D01*
X197720476Y-102897142D01*
X198672857Y-101992380D02*
X199339523Y-101992380D01*
X198910952Y-102992380D01*
X142466666Y-91904761D02*
X142609523Y-91952380D01*
X142847619Y-91952380D01*
X142942857Y-91904761D01*
X142990476Y-91857142D01*
X143038095Y-91761904D01*
X143038095Y-91666666D01*
X142990476Y-91571428D01*
X142942857Y-91523809D01*
X142847619Y-91476190D01*
X142657142Y-91428571D01*
X142561904Y-91380952D01*
X142514285Y-91333333D01*
X142466666Y-91238095D01*
X142466666Y-91142857D01*
X142514285Y-91047619D01*
X142561904Y-91000000D01*
X142657142Y-90952380D01*
X142895238Y-90952380D01*
X143038095Y-91000000D01*
X143371428Y-90952380D02*
X143609523Y-91952380D01*
X143800000Y-91238095D01*
X143990476Y-91952380D01*
X144228571Y-90952380D01*
X144561904Y-91047619D02*
X144609523Y-91000000D01*
X144704761Y-90952380D01*
X144942857Y-90952380D01*
X145038095Y-91000000D01*
X145085714Y-91047619D01*
X145133333Y-91142857D01*
X145133333Y-91238095D01*
X145085714Y-91380952D01*
X144514285Y-91952380D01*
X145133333Y-91952380D01*
X172040476Y-47696122D02*
X172707142Y-48696122D01*
X172707142Y-47696122D02*
X172040476Y-48696122D01*
X173611904Y-48696122D02*
X173040476Y-48696122D01*
X173326190Y-48696122D02*
X173326190Y-47696122D01*
X173230952Y-47838980D01*
X173135714Y-47934218D01*
X173040476Y-47981837D01*
X184490476Y-47452380D02*
X185157142Y-48452380D01*
X185157142Y-47452380D02*
X184490476Y-48452380D01*
X185490476Y-47547619D02*
X185538095Y-47500000D01*
X185633333Y-47452380D01*
X185871428Y-47452380D01*
X185966666Y-47500000D01*
X186014285Y-47547619D01*
X186061904Y-47642857D01*
X186061904Y-47738095D01*
X186014285Y-47880952D01*
X185442857Y-48452380D01*
X186061904Y-48452380D01*
X234540714Y-102992380D02*
X234540714Y-101992380D01*
X234778809Y-101992380D01*
X234921666Y-102040000D01*
X235016904Y-102135238D01*
X235064523Y-102230476D01*
X235112142Y-102420952D01*
X235112142Y-102563809D01*
X235064523Y-102754285D01*
X235016904Y-102849523D01*
X234921666Y-102944761D01*
X234778809Y-102992380D01*
X234540714Y-102992380D01*
X235969285Y-102325714D02*
X235969285Y-102992380D01*
X235731190Y-101944761D02*
X235493095Y-102659047D01*
X236112142Y-102659047D01*
X236683571Y-101992380D02*
X236778809Y-101992380D01*
X236874047Y-102040000D01*
X236921666Y-102087619D01*
X236969285Y-102182857D01*
X237016904Y-102373333D01*
X237016904Y-102611428D01*
X236969285Y-102801904D01*
X236921666Y-102897142D01*
X236874047Y-102944761D01*
X236778809Y-102992380D01*
X236683571Y-102992380D01*
X236588333Y-102944761D01*
X236540714Y-102897142D01*
X236493095Y-102801904D01*
X236445476Y-102611428D01*
X236445476Y-102373333D01*
X236493095Y-102182857D01*
X236540714Y-102087619D01*
X236588333Y-102040000D01*
X236683571Y-101992380D01*
X184580714Y-126992380D02*
X184580714Y-125992380D01*
X184818809Y-125992380D01*
X184961666Y-126040000D01*
X185056904Y-126135238D01*
X185104523Y-126230476D01*
X185152142Y-126420952D01*
X185152142Y-126563809D01*
X185104523Y-126754285D01*
X185056904Y-126849523D01*
X184961666Y-126944761D01*
X184818809Y-126992380D01*
X184580714Y-126992380D01*
X186009285Y-126325714D02*
X186009285Y-126992380D01*
X185771190Y-125944761D02*
X185533095Y-126659047D01*
X186152142Y-126659047D01*
X186675952Y-126420952D02*
X186580714Y-126373333D01*
X186533095Y-126325714D01*
X186485476Y-126230476D01*
X186485476Y-126182857D01*
X186533095Y-126087619D01*
X186580714Y-126040000D01*
X186675952Y-125992380D01*
X186866428Y-125992380D01*
X186961666Y-126040000D01*
X187009285Y-126087619D01*
X187056904Y-126182857D01*
X187056904Y-126230476D01*
X187009285Y-126325714D01*
X186961666Y-126373333D01*
X186866428Y-126420952D01*
X186675952Y-126420952D01*
X186580714Y-126468571D01*
X186533095Y-126516190D01*
X186485476Y-126611428D01*
X186485476Y-126801904D01*
X186533095Y-126897142D01*
X186580714Y-126944761D01*
X186675952Y-126992380D01*
X186866428Y-126992380D01*
X186961666Y-126944761D01*
X187009285Y-126897142D01*
X187056904Y-126801904D01*
X187056904Y-126611428D01*
X187009285Y-126516190D01*
X186961666Y-126468571D01*
X186866428Y-126420952D01*
X105382380Y-133666666D02*
X104906190Y-134000000D01*
X105382380Y-134238095D02*
X104382380Y-134238095D01*
X104382380Y-133857142D01*
X104430000Y-133761904D01*
X104477619Y-133714285D01*
X104572857Y-133666666D01*
X104715714Y-133666666D01*
X104810952Y-133714285D01*
X104858571Y-133761904D01*
X104906190Y-133857142D01*
X104906190Y-134238095D01*
X104477619Y-133285714D02*
X104430000Y-133238095D01*
X104382380Y-133142857D01*
X104382380Y-132904761D01*
X104430000Y-132809523D01*
X104477619Y-132761904D01*
X104572857Y-132714285D01*
X104668095Y-132714285D01*
X104810952Y-132761904D01*
X105382380Y-133333333D01*
X105382380Y-132714285D01*
X137992380Y-134696666D02*
X137516190Y-135030000D01*
X137992380Y-135268095D02*
X136992380Y-135268095D01*
X136992380Y-134887142D01*
X137040000Y-134791904D01*
X137087619Y-134744285D01*
X137182857Y-134696666D01*
X137325714Y-134696666D01*
X137420952Y-134744285D01*
X137468571Y-134791904D01*
X137516190Y-134887142D01*
X137516190Y-135268095D01*
X137992380Y-134220476D02*
X137992380Y-134030000D01*
X137944761Y-133934761D01*
X137897142Y-133887142D01*
X137754285Y-133791904D01*
X137563809Y-133744285D01*
X137182857Y-133744285D01*
X137087619Y-133791904D01*
X137040000Y-133839523D01*
X136992380Y-133934761D01*
X136992380Y-134125238D01*
X137040000Y-134220476D01*
X137087619Y-134268095D01*
X137182857Y-134315714D01*
X137420952Y-134315714D01*
X137516190Y-134268095D01*
X137563809Y-134220476D01*
X137611428Y-134125238D01*
X137611428Y-133934761D01*
X137563809Y-133839523D01*
X137516190Y-133791904D01*
X137420952Y-133744285D01*
X171855714Y-90492380D02*
X171855714Y-89492380D01*
X172093809Y-89492380D01*
X172236666Y-89540000D01*
X172331904Y-89635238D01*
X172379523Y-89730476D01*
X172427142Y-89920952D01*
X172427142Y-90063809D01*
X172379523Y-90254285D01*
X172331904Y-90349523D01*
X172236666Y-90444761D01*
X172093809Y-90492380D01*
X171855714Y-90492380D01*
X172808095Y-89587619D02*
X172855714Y-89540000D01*
X172950952Y-89492380D01*
X173189047Y-89492380D01*
X173284285Y-89540000D01*
X173331904Y-89587619D01*
X173379523Y-89682857D01*
X173379523Y-89778095D01*
X173331904Y-89920952D01*
X172760476Y-90492380D01*
X173379523Y-90492380D01*
X173855714Y-90492380D02*
X174046190Y-90492380D01*
X174141428Y-90444761D01*
X174189047Y-90397142D01*
X174284285Y-90254285D01*
X174331904Y-90063809D01*
X174331904Y-89682857D01*
X174284285Y-89587619D01*
X174236666Y-89540000D01*
X174141428Y-89492380D01*
X173950952Y-89492380D01*
X173855714Y-89540000D01*
X173808095Y-89587619D01*
X173760476Y-89682857D01*
X173760476Y-89920952D01*
X173808095Y-90016190D01*
X173855714Y-90063809D01*
X173950952Y-90111428D01*
X174141428Y-90111428D01*
X174236666Y-90063809D01*
X174284285Y-90016190D01*
X174331904Y-89920952D01*
X66782380Y-87397380D02*
X66306190Y-87397380D01*
X66306190Y-86397380D01*
X67115714Y-86873571D02*
X67449047Y-86873571D01*
X67591904Y-87397380D02*
X67115714Y-87397380D01*
X67115714Y-86397380D01*
X67591904Y-86397380D01*
X68020476Y-87397380D02*
X68020476Y-86397380D01*
X68258571Y-86397380D01*
X68401428Y-86445000D01*
X68496666Y-86540238D01*
X68544285Y-86635476D01*
X68591904Y-86825952D01*
X68591904Y-86968809D01*
X68544285Y-87159285D01*
X68496666Y-87254523D01*
X68401428Y-87349761D01*
X68258571Y-87397380D01*
X68020476Y-87397380D01*
X68972857Y-87111666D02*
X69449047Y-87111666D01*
X68877619Y-87397380D02*
X69210952Y-86397380D01*
X69544285Y-87397380D01*
X70306190Y-86730714D02*
X70306190Y-87397380D01*
X70068095Y-86349761D02*
X69830000Y-87064047D01*
X70449047Y-87064047D01*
X234540714Y-114492380D02*
X234540714Y-113492380D01*
X234778809Y-113492380D01*
X234921666Y-113540000D01*
X235016904Y-113635238D01*
X235064523Y-113730476D01*
X235112142Y-113920952D01*
X235112142Y-114063809D01*
X235064523Y-114254285D01*
X235016904Y-114349523D01*
X234921666Y-114444761D01*
X234778809Y-114492380D01*
X234540714Y-114492380D01*
X235969285Y-113825714D02*
X235969285Y-114492380D01*
X235731190Y-113444761D02*
X235493095Y-114159047D01*
X236112142Y-114159047D01*
X236921666Y-113492380D02*
X236731190Y-113492380D01*
X236635952Y-113540000D01*
X236588333Y-113587619D01*
X236493095Y-113730476D01*
X236445476Y-113920952D01*
X236445476Y-114301904D01*
X236493095Y-114397142D01*
X236540714Y-114444761D01*
X236635952Y-114492380D01*
X236826428Y-114492380D01*
X236921666Y-114444761D01*
X236969285Y-114397142D01*
X237016904Y-114301904D01*
X237016904Y-114063809D01*
X236969285Y-113968571D01*
X236921666Y-113920952D01*
X236826428Y-113873333D01*
X236635952Y-113873333D01*
X236540714Y-113920952D01*
X236493095Y-113968571D01*
X236445476Y-114063809D01*
X160323809Y-77476190D02*
X160323809Y-77952380D01*
X159990476Y-76952380D02*
X160323809Y-77476190D01*
X160657142Y-76952380D01*
X160942857Y-77047619D02*
X160990476Y-77000000D01*
X161085714Y-76952380D01*
X161323809Y-76952380D01*
X161419047Y-77000000D01*
X161466666Y-77047619D01*
X161514285Y-77142857D01*
X161514285Y-77238095D01*
X161466666Y-77380952D01*
X160895238Y-77952380D01*
X161514285Y-77952380D01*
X196815714Y-65992380D02*
X196815714Y-64992380D01*
X197053809Y-64992380D01*
X197196666Y-65040000D01*
X197291904Y-65135238D01*
X197339523Y-65230476D01*
X197387142Y-65420952D01*
X197387142Y-65563809D01*
X197339523Y-65754285D01*
X197291904Y-65849523D01*
X197196666Y-65944761D01*
X197053809Y-65992380D01*
X196815714Y-65992380D01*
X198339523Y-65992380D02*
X197768095Y-65992380D01*
X198053809Y-65992380D02*
X198053809Y-64992380D01*
X197958571Y-65135238D01*
X197863333Y-65230476D01*
X197768095Y-65278095D01*
X198815714Y-65992380D02*
X199006190Y-65992380D01*
X199101428Y-65944761D01*
X199149047Y-65897142D01*
X199244285Y-65754285D01*
X199291904Y-65563809D01*
X199291904Y-65182857D01*
X199244285Y-65087619D01*
X199196666Y-65040000D01*
X199101428Y-64992380D01*
X198910952Y-64992380D01*
X198815714Y-65040000D01*
X198768095Y-65087619D01*
X198720476Y-65182857D01*
X198720476Y-65420952D01*
X198768095Y-65516190D01*
X198815714Y-65563809D01*
X198910952Y-65611428D01*
X199101428Y-65611428D01*
X199196666Y-65563809D01*
X199244285Y-65516190D01*
X199291904Y-65420952D01*
X130642380Y-119275714D02*
X131023333Y-119275714D01*
X130785238Y-119942380D02*
X130785238Y-119085238D01*
X130832857Y-118990000D01*
X130928095Y-118942380D01*
X131023333Y-118942380D01*
X131356666Y-119942380D02*
X131356666Y-118942380D01*
X131356666Y-119323333D02*
X131451904Y-119275714D01*
X131642380Y-119275714D01*
X131737619Y-119323333D01*
X131785238Y-119370952D01*
X131832857Y-119466190D01*
X131832857Y-119751904D01*
X131785238Y-119847142D01*
X131737619Y-119894761D01*
X131642380Y-119942380D01*
X131451904Y-119942380D01*
X131356666Y-119894761D01*
X132690000Y-119894761D02*
X132594761Y-119942380D01*
X132404285Y-119942380D01*
X132309047Y-119894761D01*
X132261428Y-119847142D01*
X132213809Y-119751904D01*
X132213809Y-119466190D01*
X132261428Y-119370952D01*
X132309047Y-119323333D01*
X132404285Y-119275714D01*
X132594761Y-119275714D01*
X132690000Y-119323333D01*
X133642380Y-119942380D02*
X133070952Y-119942380D01*
X133356666Y-119942380D02*
X133356666Y-118942380D01*
X133261428Y-119085238D01*
X133166190Y-119180476D01*
X133070952Y-119228095D01*
X209080714Y-102992380D02*
X209080714Y-101992380D01*
X209318809Y-101992380D01*
X209461666Y-102040000D01*
X209556904Y-102135238D01*
X209604523Y-102230476D01*
X209652142Y-102420952D01*
X209652142Y-102563809D01*
X209604523Y-102754285D01*
X209556904Y-102849523D01*
X209461666Y-102944761D01*
X209318809Y-102992380D01*
X209080714Y-102992380D01*
X209985476Y-101992380D02*
X210604523Y-101992380D01*
X210271190Y-102373333D01*
X210414047Y-102373333D01*
X210509285Y-102420952D01*
X210556904Y-102468571D01*
X210604523Y-102563809D01*
X210604523Y-102801904D01*
X210556904Y-102897142D01*
X210509285Y-102944761D01*
X210414047Y-102992380D01*
X210128333Y-102992380D01*
X210033095Y-102944761D01*
X209985476Y-102897142D01*
X211175952Y-102420952D02*
X211080714Y-102373333D01*
X211033095Y-102325714D01*
X210985476Y-102230476D01*
X210985476Y-102182857D01*
X211033095Y-102087619D01*
X211080714Y-102040000D01*
X211175952Y-101992380D01*
X211366428Y-101992380D01*
X211461666Y-102040000D01*
X211509285Y-102087619D01*
X211556904Y-102182857D01*
X211556904Y-102230476D01*
X211509285Y-102325714D01*
X211461666Y-102373333D01*
X211366428Y-102420952D01*
X211175952Y-102420952D01*
X211080714Y-102468571D01*
X211033095Y-102516190D01*
X210985476Y-102611428D01*
X210985476Y-102801904D01*
X211033095Y-102897142D01*
X211080714Y-102944761D01*
X211175952Y-102992380D01*
X211366428Y-102992380D01*
X211461666Y-102944761D01*
X211509285Y-102897142D01*
X211556904Y-102801904D01*
X211556904Y-102611428D01*
X211509285Y-102516190D01*
X211461666Y-102468571D01*
X211366428Y-102420952D01*
X171815714Y-65992380D02*
X171815714Y-64992380D01*
X172053809Y-64992380D01*
X172196666Y-65040000D01*
X172291904Y-65135238D01*
X172339523Y-65230476D01*
X172387142Y-65420952D01*
X172387142Y-65563809D01*
X172339523Y-65754285D01*
X172291904Y-65849523D01*
X172196666Y-65944761D01*
X172053809Y-65992380D01*
X171815714Y-65992380D01*
X173339523Y-65992380D02*
X172768095Y-65992380D01*
X173053809Y-65992380D02*
X173053809Y-64992380D01*
X172958571Y-65135238D01*
X172863333Y-65230476D01*
X172768095Y-65278095D01*
X173672857Y-64992380D02*
X174339523Y-64992380D01*
X173910952Y-65992380D01*
X234490476Y-46952380D02*
X235157142Y-47952380D01*
X235157142Y-46952380D02*
X234490476Y-47952380D01*
X235966666Y-46952380D02*
X235776190Y-46952380D01*
X235680952Y-47000000D01*
X235633333Y-47047619D01*
X235538095Y-47190476D01*
X235490476Y-47380952D01*
X235490476Y-47761904D01*
X235538095Y-47857142D01*
X235585714Y-47904761D01*
X235680952Y-47952380D01*
X235871428Y-47952380D01*
X235966666Y-47904761D01*
X236014285Y-47857142D01*
X236061904Y-47761904D01*
X236061904Y-47523809D01*
X236014285Y-47428571D01*
X235966666Y-47380952D01*
X235871428Y-47333333D01*
X235680952Y-47333333D01*
X235585714Y-47380952D01*
X235538095Y-47428571D01*
X235490476Y-47523809D01*
X184580714Y-102992380D02*
X184580714Y-101992380D01*
X184818809Y-101992380D01*
X184961666Y-102040000D01*
X185056904Y-102135238D01*
X185104523Y-102230476D01*
X185152142Y-102420952D01*
X185152142Y-102563809D01*
X185104523Y-102754285D01*
X185056904Y-102849523D01*
X184961666Y-102944761D01*
X184818809Y-102992380D01*
X184580714Y-102992380D01*
X185485476Y-101992380D02*
X186104523Y-101992380D01*
X185771190Y-102373333D01*
X185914047Y-102373333D01*
X186009285Y-102420952D01*
X186056904Y-102468571D01*
X186104523Y-102563809D01*
X186104523Y-102801904D01*
X186056904Y-102897142D01*
X186009285Y-102944761D01*
X185914047Y-102992380D01*
X185628333Y-102992380D01*
X185533095Y-102944761D01*
X185485476Y-102897142D01*
X186961666Y-101992380D02*
X186771190Y-101992380D01*
X186675952Y-102040000D01*
X186628333Y-102087619D01*
X186533095Y-102230476D01*
X186485476Y-102420952D01*
X186485476Y-102801904D01*
X186533095Y-102897142D01*
X186580714Y-102944761D01*
X186675952Y-102992380D01*
X186866428Y-102992380D01*
X186961666Y-102944761D01*
X187009285Y-102897142D01*
X187056904Y-102801904D01*
X187056904Y-102563809D01*
X187009285Y-102468571D01*
X186961666Y-102420952D01*
X186866428Y-102373333D01*
X186675952Y-102373333D01*
X186580714Y-102420952D01*
X186533095Y-102468571D01*
X186485476Y-102563809D01*
X60966666Y-80489285D02*
X60966666Y-80013095D01*
X61252380Y-80584523D02*
X60252380Y-80251190D01*
X61252380Y-79917857D01*
X60585714Y-79155952D02*
X61252380Y-79155952D01*
X60204761Y-79394047D02*
X60919047Y-79632142D01*
X60919047Y-79013095D01*
X102780952Y-70627380D02*
X102304761Y-70627380D01*
X102304761Y-69627380D01*
X103114285Y-70103571D02*
X103447619Y-70103571D01*
X103590476Y-70627380D02*
X103114285Y-70627380D01*
X103114285Y-69627380D01*
X103590476Y-69627380D01*
X104019047Y-70627380D02*
X104019047Y-69627380D01*
X104257142Y-69627380D01*
X104400000Y-69675000D01*
X104495238Y-69770238D01*
X104542857Y-69865476D01*
X104590476Y-70055952D01*
X104590476Y-70198809D01*
X104542857Y-70389285D01*
X104495238Y-70484523D01*
X104400000Y-70579761D01*
X104257142Y-70627380D01*
X104019047Y-70627380D01*
X105352380Y-70103571D02*
X105495238Y-70151190D01*
X105542857Y-70198809D01*
X105590476Y-70294047D01*
X105590476Y-70436904D01*
X105542857Y-70532142D01*
X105495238Y-70579761D01*
X105400000Y-70627380D01*
X105019047Y-70627380D01*
X105019047Y-69627380D01*
X105352380Y-69627380D01*
X105447619Y-69675000D01*
X105495238Y-69722619D01*
X105542857Y-69817857D01*
X105542857Y-69913095D01*
X105495238Y-70008333D01*
X105447619Y-70055952D01*
X105352380Y-70103571D01*
X105019047Y-70103571D01*
X105971428Y-69722619D02*
X106019047Y-69675000D01*
X106114285Y-69627380D01*
X106352380Y-69627380D01*
X106447619Y-69675000D01*
X106495238Y-69722619D01*
X106542857Y-69817857D01*
X106542857Y-69913095D01*
X106495238Y-70055952D01*
X105923809Y-70627380D01*
X106542857Y-70627380D01*
X234315714Y-65992380D02*
X234315714Y-64992380D01*
X234553809Y-64992380D01*
X234696666Y-65040000D01*
X234791904Y-65135238D01*
X234839523Y-65230476D01*
X234887142Y-65420952D01*
X234887142Y-65563809D01*
X234839523Y-65754285D01*
X234791904Y-65849523D01*
X234696666Y-65944761D01*
X234553809Y-65992380D01*
X234315714Y-65992380D01*
X235268095Y-65087619D02*
X235315714Y-65040000D01*
X235410952Y-64992380D01*
X235649047Y-64992380D01*
X235744285Y-65040000D01*
X235791904Y-65087619D01*
X235839523Y-65182857D01*
X235839523Y-65278095D01*
X235791904Y-65420952D01*
X235220476Y-65992380D01*
X235839523Y-65992380D01*
X236220476Y-65087619D02*
X236268095Y-65040000D01*
X236363333Y-64992380D01*
X236601428Y-64992380D01*
X236696666Y-65040000D01*
X236744285Y-65087619D01*
X236791904Y-65182857D01*
X236791904Y-65278095D01*
X236744285Y-65420952D01*
X236172857Y-65992380D01*
X236791904Y-65992380D01*
X97088571Y-100194761D02*
X97136190Y-100051904D01*
X97183809Y-100004285D01*
X97279047Y-99956666D01*
X97421904Y-99956666D01*
X97517142Y-100004285D01*
X97564761Y-100051904D01*
X97612380Y-100147142D01*
X97612380Y-100528095D01*
X96612380Y-100528095D01*
X96612380Y-100194761D01*
X96660000Y-100099523D01*
X96707619Y-100051904D01*
X96802857Y-100004285D01*
X96898095Y-100004285D01*
X96993333Y-100051904D01*
X97040952Y-100099523D01*
X97088571Y-100194761D01*
X97088571Y-100528095D01*
X96612380Y-99099523D02*
X96612380Y-99290000D01*
X96660000Y-99385238D01*
X96707619Y-99432857D01*
X96850476Y-99528095D01*
X97040952Y-99575714D01*
X97421904Y-99575714D01*
X97517142Y-99528095D01*
X97564761Y-99480476D01*
X97612380Y-99385238D01*
X97612380Y-99194761D01*
X97564761Y-99099523D01*
X97517142Y-99051904D01*
X97421904Y-99004285D01*
X97183809Y-99004285D01*
X97088571Y-99051904D01*
X97040952Y-99099523D01*
X96993333Y-99194761D01*
X96993333Y-99385238D01*
X97040952Y-99480476D01*
X97088571Y-99528095D01*
X97183809Y-99575714D01*
X97088571Y-64179761D02*
X97136190Y-64036904D01*
X97183809Y-63989285D01*
X97279047Y-63941666D01*
X97421904Y-63941666D01*
X97517142Y-63989285D01*
X97564761Y-64036904D01*
X97612380Y-64132142D01*
X97612380Y-64513095D01*
X96612380Y-64513095D01*
X96612380Y-64179761D01*
X96660000Y-64084523D01*
X96707619Y-64036904D01*
X96802857Y-63989285D01*
X96898095Y-63989285D01*
X96993333Y-64036904D01*
X97040952Y-64084523D01*
X97088571Y-64179761D01*
X97088571Y-64513095D01*
X96707619Y-63560714D02*
X96660000Y-63513095D01*
X96612380Y-63417857D01*
X96612380Y-63179761D01*
X96660000Y-63084523D01*
X96707619Y-63036904D01*
X96802857Y-62989285D01*
X96898095Y-62989285D01*
X97040952Y-63036904D01*
X97612380Y-63608333D01*
X97612380Y-62989285D01*
X160323809Y-89976190D02*
X160323809Y-90452380D01*
X159990476Y-89452380D02*
X160323809Y-89976190D01*
X160657142Y-89452380D01*
X160895238Y-89452380D02*
X161514285Y-89452380D01*
X161180952Y-89833333D01*
X161323809Y-89833333D01*
X161419047Y-89880952D01*
X161466666Y-89928571D01*
X161514285Y-90023809D01*
X161514285Y-90261904D01*
X161466666Y-90357142D01*
X161419047Y-90404761D01*
X161323809Y-90452380D01*
X161038095Y-90452380D01*
X160942857Y-90404761D01*
X160895238Y-90357142D01*
X80728571Y-64679761D02*
X80776190Y-64536904D01*
X80823809Y-64489285D01*
X80919047Y-64441666D01*
X81061904Y-64441666D01*
X81157142Y-64489285D01*
X81204761Y-64536904D01*
X81252380Y-64632142D01*
X81252380Y-65013095D01*
X80252380Y-65013095D01*
X80252380Y-64679761D01*
X80300000Y-64584523D01*
X80347619Y-64536904D01*
X80442857Y-64489285D01*
X80538095Y-64489285D01*
X80633333Y-64536904D01*
X80680952Y-64584523D01*
X80728571Y-64679761D01*
X80728571Y-65013095D01*
X81252380Y-63489285D02*
X81252380Y-64060714D01*
X81252380Y-63775000D02*
X80252380Y-63775000D01*
X80395238Y-63870238D01*
X80490476Y-63965476D01*
X80538095Y-64060714D01*
X222305714Y-78492380D02*
X222305714Y-77492380D01*
X222543809Y-77492380D01*
X222686666Y-77540000D01*
X222781904Y-77635238D01*
X222829523Y-77730476D01*
X222877142Y-77920952D01*
X222877142Y-78063809D01*
X222829523Y-78254285D01*
X222781904Y-78349523D01*
X222686666Y-78444761D01*
X222543809Y-78492380D01*
X222305714Y-78492380D01*
X223258095Y-77587619D02*
X223305714Y-77540000D01*
X223400952Y-77492380D01*
X223639047Y-77492380D01*
X223734285Y-77540000D01*
X223781904Y-77587619D01*
X223829523Y-77682857D01*
X223829523Y-77778095D01*
X223781904Y-77920952D01*
X223210476Y-78492380D01*
X223829523Y-78492380D01*
X224162857Y-77492380D02*
X224829523Y-77492380D01*
X224400952Y-78492380D01*
X160323809Y-64976190D02*
X160323809Y-65452380D01*
X159990476Y-64452380D02*
X160323809Y-64976190D01*
X160657142Y-64452380D01*
X161514285Y-65452380D02*
X160942857Y-65452380D01*
X161228571Y-65452380D02*
X161228571Y-64452380D01*
X161133333Y-64595238D01*
X161038095Y-64690476D01*
X160942857Y-64738095D01*
X117552380Y-84863333D02*
X118266666Y-84863333D01*
X118409523Y-84910952D01*
X118504761Y-85006190D01*
X118552380Y-85149047D01*
X118552380Y-85244285D01*
X118552380Y-83863333D02*
X118552380Y-84434761D01*
X118552380Y-84149047D02*
X117552380Y-84149047D01*
X117695238Y-84244285D01*
X117790476Y-84339523D01*
X117838095Y-84434761D01*
X97088571Y-116194761D02*
X97136190Y-116051904D01*
X97183809Y-116004285D01*
X97279047Y-115956666D01*
X97421904Y-115956666D01*
X97517142Y-116004285D01*
X97564761Y-116051904D01*
X97612380Y-116147142D01*
X97612380Y-116528095D01*
X96612380Y-116528095D01*
X96612380Y-116194761D01*
X96660000Y-116099523D01*
X96707619Y-116051904D01*
X96802857Y-116004285D01*
X96898095Y-116004285D01*
X96993333Y-116051904D01*
X97040952Y-116099523D01*
X97088571Y-116194761D01*
X97088571Y-116528095D01*
X97040952Y-115385238D02*
X96993333Y-115480476D01*
X96945714Y-115528095D01*
X96850476Y-115575714D01*
X96802857Y-115575714D01*
X96707619Y-115528095D01*
X96660000Y-115480476D01*
X96612380Y-115385238D01*
X96612380Y-115194761D01*
X96660000Y-115099523D01*
X96707619Y-115051904D01*
X96802857Y-115004285D01*
X96850476Y-115004285D01*
X96945714Y-115051904D01*
X96993333Y-115099523D01*
X97040952Y-115194761D01*
X97040952Y-115385238D01*
X97088571Y-115480476D01*
X97136190Y-115528095D01*
X97231428Y-115575714D01*
X97421904Y-115575714D01*
X97517142Y-115528095D01*
X97564761Y-115480476D01*
X97612380Y-115385238D01*
X97612380Y-115194761D01*
X97564761Y-115099523D01*
X97517142Y-115051904D01*
X97421904Y-115004285D01*
X97231428Y-115004285D01*
X97136190Y-115051904D01*
X97088571Y-115099523D01*
X97040952Y-115194761D01*
X184315714Y-65992380D02*
X184315714Y-64992380D01*
X184553809Y-64992380D01*
X184696666Y-65040000D01*
X184791904Y-65135238D01*
X184839523Y-65230476D01*
X184887142Y-65420952D01*
X184887142Y-65563809D01*
X184839523Y-65754285D01*
X184791904Y-65849523D01*
X184696666Y-65944761D01*
X184553809Y-65992380D01*
X184315714Y-65992380D01*
X185839523Y-65992380D02*
X185268095Y-65992380D01*
X185553809Y-65992380D02*
X185553809Y-64992380D01*
X185458571Y-65135238D01*
X185363333Y-65230476D01*
X185268095Y-65278095D01*
X186410952Y-65420952D02*
X186315714Y-65373333D01*
X186268095Y-65325714D01*
X186220476Y-65230476D01*
X186220476Y-65182857D01*
X186268095Y-65087619D01*
X186315714Y-65040000D01*
X186410952Y-64992380D01*
X186601428Y-64992380D01*
X186696666Y-65040000D01*
X186744285Y-65087619D01*
X186791904Y-65182857D01*
X186791904Y-65230476D01*
X186744285Y-65325714D01*
X186696666Y-65373333D01*
X186601428Y-65420952D01*
X186410952Y-65420952D01*
X186315714Y-65468571D01*
X186268095Y-65516190D01*
X186220476Y-65611428D01*
X186220476Y-65801904D01*
X186268095Y-65897142D01*
X186315714Y-65944761D01*
X186410952Y-65992380D01*
X186601428Y-65992380D01*
X186696666Y-65944761D01*
X186744285Y-65897142D01*
X186791904Y-65801904D01*
X186791904Y-65611428D01*
X186744285Y-65516190D01*
X186696666Y-65468571D01*
X186601428Y-65420952D01*
X142466666Y-79304761D02*
X142609523Y-79352380D01*
X142847619Y-79352380D01*
X142942857Y-79304761D01*
X142990476Y-79257142D01*
X143038095Y-79161904D01*
X143038095Y-79066666D01*
X142990476Y-78971428D01*
X142942857Y-78923809D01*
X142847619Y-78876190D01*
X142657142Y-78828571D01*
X142561904Y-78780952D01*
X142514285Y-78733333D01*
X142466666Y-78638095D01*
X142466666Y-78542857D01*
X142514285Y-78447619D01*
X142561904Y-78400000D01*
X142657142Y-78352380D01*
X142895238Y-78352380D01*
X143038095Y-78400000D01*
X143371428Y-78352380D02*
X143609523Y-79352380D01*
X143800000Y-78638095D01*
X143990476Y-79352380D01*
X144228571Y-78352380D01*
X145133333Y-79352380D02*
X144561904Y-79352380D01*
X144847619Y-79352380D02*
X144847619Y-78352380D01*
X144752380Y-78495238D01*
X144657142Y-78590476D01*
X144561904Y-78638095D01*
X222305714Y-114492380D02*
X222305714Y-113492380D01*
X222543809Y-113492380D01*
X222686666Y-113540000D01*
X222781904Y-113635238D01*
X222829523Y-113730476D01*
X222877142Y-113920952D01*
X222877142Y-114063809D01*
X222829523Y-114254285D01*
X222781904Y-114349523D01*
X222686666Y-114444761D01*
X222543809Y-114492380D01*
X222305714Y-114492380D01*
X223734285Y-113825714D02*
X223734285Y-114492380D01*
X223496190Y-113444761D02*
X223258095Y-114159047D01*
X223877142Y-114159047D01*
X224734285Y-113492380D02*
X224258095Y-113492380D01*
X224210476Y-113968571D01*
X224258095Y-113920952D01*
X224353333Y-113873333D01*
X224591428Y-113873333D01*
X224686666Y-113920952D01*
X224734285Y-113968571D01*
X224781904Y-114063809D01*
X224781904Y-114301904D01*
X224734285Y-114397142D01*
X224686666Y-114444761D01*
X224591428Y-114492380D01*
X224353333Y-114492380D01*
X224258095Y-114444761D01*
X224210476Y-114397142D01*
X222305714Y-102992380D02*
X222305714Y-101992380D01*
X222543809Y-101992380D01*
X222686666Y-102040000D01*
X222781904Y-102135238D01*
X222829523Y-102230476D01*
X222877142Y-102420952D01*
X222877142Y-102563809D01*
X222829523Y-102754285D01*
X222781904Y-102849523D01*
X222686666Y-102944761D01*
X222543809Y-102992380D01*
X222305714Y-102992380D01*
X223210476Y-101992380D02*
X223829523Y-101992380D01*
X223496190Y-102373333D01*
X223639047Y-102373333D01*
X223734285Y-102420952D01*
X223781904Y-102468571D01*
X223829523Y-102563809D01*
X223829523Y-102801904D01*
X223781904Y-102897142D01*
X223734285Y-102944761D01*
X223639047Y-102992380D01*
X223353333Y-102992380D01*
X223258095Y-102944761D01*
X223210476Y-102897142D01*
X224305714Y-102992380D02*
X224496190Y-102992380D01*
X224591428Y-102944761D01*
X224639047Y-102897142D01*
X224734285Y-102754285D01*
X224781904Y-102563809D01*
X224781904Y-102182857D01*
X224734285Y-102087619D01*
X224686666Y-102040000D01*
X224591428Y-101992380D01*
X224400952Y-101992380D01*
X224305714Y-102040000D01*
X224258095Y-102087619D01*
X224210476Y-102182857D01*
X224210476Y-102420952D01*
X224258095Y-102516190D01*
X224305714Y-102563809D01*
X224400952Y-102611428D01*
X224591428Y-102611428D01*
X224686666Y-102563809D01*
X224734285Y-102516190D01*
X224781904Y-102420952D01*
X80728571Y-81179761D02*
X80776190Y-81036904D01*
X80823809Y-80989285D01*
X80919047Y-80941666D01*
X81061904Y-80941666D01*
X81157142Y-80989285D01*
X81204761Y-81036904D01*
X81252380Y-81132142D01*
X81252380Y-81513095D01*
X80252380Y-81513095D01*
X80252380Y-81179761D01*
X80300000Y-81084523D01*
X80347619Y-81036904D01*
X80442857Y-80989285D01*
X80538095Y-80989285D01*
X80633333Y-81036904D01*
X80680952Y-81084523D01*
X80728571Y-81179761D01*
X80728571Y-81513095D01*
X80252380Y-80608333D02*
X80252380Y-79989285D01*
X80633333Y-80322619D01*
X80633333Y-80179761D01*
X80680952Y-80084523D01*
X80728571Y-80036904D01*
X80823809Y-79989285D01*
X81061904Y-79989285D01*
X81157142Y-80036904D01*
X81204761Y-80084523D01*
X81252380Y-80179761D01*
X81252380Y-80465476D01*
X81204761Y-80560714D01*
X81157142Y-80608333D01*
X196815714Y-78492380D02*
X196815714Y-77492380D01*
X197053809Y-77492380D01*
X197196666Y-77540000D01*
X197291904Y-77635238D01*
X197339523Y-77730476D01*
X197387142Y-77920952D01*
X197387142Y-78063809D01*
X197339523Y-78254285D01*
X197291904Y-78349523D01*
X197196666Y-78444761D01*
X197053809Y-78492380D01*
X196815714Y-78492380D01*
X197768095Y-77587619D02*
X197815714Y-77540000D01*
X197910952Y-77492380D01*
X198149047Y-77492380D01*
X198244285Y-77540000D01*
X198291904Y-77587619D01*
X198339523Y-77682857D01*
X198339523Y-77778095D01*
X198291904Y-77920952D01*
X197720476Y-78492380D01*
X198339523Y-78492380D01*
X199244285Y-77492380D02*
X198768095Y-77492380D01*
X198720476Y-77968571D01*
X198768095Y-77920952D01*
X198863333Y-77873333D01*
X199101428Y-77873333D01*
X199196666Y-77920952D01*
X199244285Y-77968571D01*
X199291904Y-78063809D01*
X199291904Y-78301904D01*
X199244285Y-78397142D01*
X199196666Y-78444761D01*
X199101428Y-78492380D01*
X198863333Y-78492380D01*
X198768095Y-78444761D01*
X198720476Y-78397142D01*
X102780952Y-102587380D02*
X102304761Y-102587380D01*
X102304761Y-101587380D01*
X103114285Y-102063571D02*
X103447619Y-102063571D01*
X103590476Y-102587380D02*
X103114285Y-102587380D01*
X103114285Y-101587380D01*
X103590476Y-101587380D01*
X104019047Y-102587380D02*
X104019047Y-101587380D01*
X104257142Y-101587380D01*
X104400000Y-101635000D01*
X104495238Y-101730238D01*
X104542857Y-101825476D01*
X104590476Y-102015952D01*
X104590476Y-102158809D01*
X104542857Y-102349285D01*
X104495238Y-102444523D01*
X104400000Y-102539761D01*
X104257142Y-102587380D01*
X104019047Y-102587380D01*
X105352380Y-102063571D02*
X105495238Y-102111190D01*
X105542857Y-102158809D01*
X105590476Y-102254047D01*
X105590476Y-102396904D01*
X105542857Y-102492142D01*
X105495238Y-102539761D01*
X105400000Y-102587380D01*
X105019047Y-102587380D01*
X105019047Y-101587380D01*
X105352380Y-101587380D01*
X105447619Y-101635000D01*
X105495238Y-101682619D01*
X105542857Y-101777857D01*
X105542857Y-101873095D01*
X105495238Y-101968333D01*
X105447619Y-102015952D01*
X105352380Y-102063571D01*
X105019047Y-102063571D01*
X106447619Y-101587380D02*
X106257142Y-101587380D01*
X106161904Y-101635000D01*
X106114285Y-101682619D01*
X106019047Y-101825476D01*
X105971428Y-102015952D01*
X105971428Y-102396904D01*
X106019047Y-102492142D01*
X106066666Y-102539761D01*
X106161904Y-102587380D01*
X106352380Y-102587380D01*
X106447619Y-102539761D01*
X106495238Y-102492142D01*
X106542857Y-102396904D01*
X106542857Y-102158809D01*
X106495238Y-102063571D01*
X106447619Y-102015952D01*
X106352380Y-101968333D01*
X106161904Y-101968333D01*
X106066666Y-102015952D01*
X106019047Y-102063571D01*
X105971428Y-102158809D01*
X221990476Y-46952380D02*
X222657142Y-47952380D01*
X222657142Y-46952380D02*
X221990476Y-47952380D01*
X223514285Y-46952380D02*
X223038095Y-46952380D01*
X222990476Y-47428571D01*
X223038095Y-47380952D01*
X223133333Y-47333333D01*
X223371428Y-47333333D01*
X223466666Y-47380952D01*
X223514285Y-47428571D01*
X223561904Y-47523809D01*
X223561904Y-47761904D01*
X223514285Y-47857142D01*
X223466666Y-47904761D01*
X223371428Y-47952380D01*
X223133333Y-47952380D01*
X223038095Y-47904761D01*
X222990476Y-47857142D01*
X123607142Y-122392380D02*
X123273809Y-121916190D01*
X123035714Y-122392380D02*
X123035714Y-121392380D01*
X123416666Y-121392380D01*
X123511904Y-121440000D01*
X123559523Y-121487619D01*
X123607142Y-121582857D01*
X123607142Y-121725714D01*
X123559523Y-121820952D01*
X123511904Y-121868571D01*
X123416666Y-121916190D01*
X123035714Y-121916190D01*
X124559523Y-122392380D02*
X123988095Y-122392380D01*
X124273809Y-122392380D02*
X124273809Y-121392380D01*
X124178571Y-121535238D01*
X124083333Y-121630476D01*
X123988095Y-121678095D01*
X125178571Y-121392380D02*
X125273809Y-121392380D01*
X125369047Y-121440000D01*
X125416666Y-121487619D01*
X125464285Y-121582857D01*
X125511904Y-121773333D01*
X125511904Y-122011428D01*
X125464285Y-122201904D01*
X125416666Y-122297142D01*
X125369047Y-122344761D01*
X125273809Y-122392380D01*
X125178571Y-122392380D01*
X125083333Y-122344761D01*
X125035714Y-122297142D01*
X124988095Y-122201904D01*
X124940476Y-122011428D01*
X124940476Y-121773333D01*
X124988095Y-121582857D01*
X125035714Y-121487619D01*
X125083333Y-121440000D01*
X125178571Y-121392380D01*
X80728571Y-112179761D02*
X80776190Y-112036904D01*
X80823809Y-111989285D01*
X80919047Y-111941666D01*
X81061904Y-111941666D01*
X81157142Y-111989285D01*
X81204761Y-112036904D01*
X81252380Y-112132142D01*
X81252380Y-112513095D01*
X80252380Y-112513095D01*
X80252380Y-112179761D01*
X80300000Y-112084523D01*
X80347619Y-112036904D01*
X80442857Y-111989285D01*
X80538095Y-111989285D01*
X80633333Y-112036904D01*
X80680952Y-112084523D01*
X80728571Y-112179761D01*
X80728571Y-112513095D01*
X80252380Y-111608333D02*
X80252380Y-110941666D01*
X81252380Y-111370238D01*
X130382380Y-106166666D02*
X129906190Y-106500000D01*
X130382380Y-106738095D02*
X129382380Y-106738095D01*
X129382380Y-106357142D01*
X129430000Y-106261904D01*
X129477619Y-106214285D01*
X129572857Y-106166666D01*
X129715714Y-106166666D01*
X129810952Y-106214285D01*
X129858571Y-106261904D01*
X129906190Y-106357142D01*
X129906190Y-106738095D01*
X129382380Y-105833333D02*
X129382380Y-105166666D01*
X130382380Y-105595238D01*
X209080714Y-65992380D02*
X209080714Y-64992380D01*
X209318809Y-64992380D01*
X209461666Y-65040000D01*
X209556904Y-65135238D01*
X209604523Y-65230476D01*
X209652142Y-65420952D01*
X209652142Y-65563809D01*
X209604523Y-65754285D01*
X209556904Y-65849523D01*
X209461666Y-65944761D01*
X209318809Y-65992380D01*
X209080714Y-65992380D01*
X210033095Y-65087619D02*
X210080714Y-65040000D01*
X210175952Y-64992380D01*
X210414047Y-64992380D01*
X210509285Y-65040000D01*
X210556904Y-65087619D01*
X210604523Y-65182857D01*
X210604523Y-65278095D01*
X210556904Y-65420952D01*
X209985476Y-65992380D01*
X210604523Y-65992380D01*
X211223571Y-64992380D02*
X211318809Y-64992380D01*
X211414047Y-65040000D01*
X211461666Y-65087619D01*
X211509285Y-65182857D01*
X211556904Y-65373333D01*
X211556904Y-65611428D01*
X211509285Y-65801904D01*
X211461666Y-65897142D01*
X211414047Y-65944761D01*
X211318809Y-65992380D01*
X211223571Y-65992380D01*
X211128333Y-65944761D01*
X211080714Y-65897142D01*
X211033095Y-65801904D01*
X210985476Y-65611428D01*
X210985476Y-65373333D01*
X211033095Y-65182857D01*
X211080714Y-65087619D01*
X211128333Y-65040000D01*
X211223571Y-64992380D01*
X43106666Y-96714285D02*
X43106666Y-96238095D01*
X43392380Y-96809523D02*
X42392380Y-96476190D01*
X43392380Y-96142857D01*
X42392380Y-95333333D02*
X42392380Y-95809523D01*
X42868571Y-95857142D01*
X42820952Y-95809523D01*
X42773333Y-95714285D01*
X42773333Y-95476190D01*
X42820952Y-95380952D01*
X42868571Y-95333333D01*
X42963809Y-95285714D01*
X43201904Y-95285714D01*
X43297142Y-95333333D01*
X43344761Y-95380952D01*
X43392380Y-95476190D01*
X43392380Y-95714285D01*
X43344761Y-95809523D01*
X43297142Y-95857142D01*
X171855714Y-126992380D02*
X171855714Y-125992380D01*
X172093809Y-125992380D01*
X172236666Y-126040000D01*
X172331904Y-126135238D01*
X172379523Y-126230476D01*
X172427142Y-126420952D01*
X172427142Y-126563809D01*
X172379523Y-126754285D01*
X172331904Y-126849523D01*
X172236666Y-126944761D01*
X172093809Y-126992380D01*
X171855714Y-126992380D01*
X173284285Y-126325714D02*
X173284285Y-126992380D01*
X173046190Y-125944761D02*
X172808095Y-126659047D01*
X173427142Y-126659047D01*
X173712857Y-125992380D02*
X174379523Y-125992380D01*
X173950952Y-126992380D01*
D14*
X184235000Y-82080000D02*
X184235000Y-82236000D01*
X184235000Y-79764000D02*
X184235000Y-79920000D01*
X184754039Y-82080000D02*
G75*
G03*
X186836130Y-82079837I1040961J1080000D01*
G01*
X184235000Y-82235516D02*
G75*
G03*
X187467335Y-82078608I1560000J1235516D01*
G01*
X187467335Y-79921392D02*
G75*
G03*
X184235000Y-79764484I-1672335J-1078608D01*
G01*
X186836130Y-79920163D02*
G75*
G03*
X184754039Y-79920000I-1041130J-1079837D01*
G01*
X68760000Y-136770000D02*
X68430000Y-136770000D01*
X68430000Y-136770000D02*
X68430000Y-130230000D01*
X70840000Y-136770000D02*
X71170000Y-136770000D01*
X68430000Y-130230000D02*
X68760000Y-130230000D01*
X71170000Y-130230000D02*
X70840000Y-130230000D01*
X71170000Y-136770000D02*
X71170000Y-130230000D01*
X65030000Y-49860000D02*
X44590000Y-49860000D01*
X65030000Y-51510000D02*
X65030000Y-49860000D01*
X44590000Y-55160000D02*
X65030000Y-55160000D01*
X44530000Y-57650000D02*
X65090000Y-57650000D01*
X65090000Y-47370000D02*
X44530000Y-47370000D01*
X44590000Y-49860000D02*
X44590000Y-55160000D01*
X65030000Y-55160000D02*
X65030000Y-53510000D01*
X44530000Y-47370000D02*
X44530000Y-57650000D01*
X65090000Y-57650000D02*
X65090000Y-47370000D01*
X65030000Y-51510000D02*
G75*
G03*
X65030000Y-53510000I0J-1000000D01*
G01*
X208510000Y-79764000D02*
X208510000Y-79920000D01*
X208510000Y-82080000D02*
X208510000Y-82236000D01*
X209029039Y-82080000D02*
G75*
G03*
X211111130Y-82079837I1040961J1080000D01*
G01*
X211742335Y-79921392D02*
G75*
G03*
X208510000Y-79764484I-1672335J-1078608D01*
G01*
X208510000Y-82235516D02*
G75*
G03*
X211742335Y-82078608I1560000J1235516D01*
G01*
X211111130Y-79920163D02*
G75*
G03*
X209029039Y-79920000I-1041130J-1079837D01*
G01*
X149800000Y-111500000D02*
G75*
G03*
X149800000Y-111500000I-6000000J0D01*
G01*
X71670000Y-54270000D02*
X71670000Y-47730000D01*
X71670000Y-47730000D02*
X71340000Y-47730000D01*
X68930000Y-54270000D02*
X68930000Y-47730000D01*
X71340000Y-54270000D02*
X71670000Y-54270000D01*
X68930000Y-47730000D02*
X69260000Y-47730000D01*
X69260000Y-54270000D02*
X68930000Y-54270000D01*
X51880000Y-69215000D02*
X52036000Y-69215000D01*
X49564000Y-69215000D02*
X49720000Y-69215000D01*
X52035516Y-69215000D02*
G75*
G03*
X51878608Y-65982665I-1235516J1560000D01*
G01*
X49721392Y-65982665D02*
G75*
G03*
X49564484Y-69215000I1078608J-1672335D01*
G01*
X49720163Y-66613870D02*
G75*
G03*
X49720000Y-68695961I1079837J-1041130D01*
G01*
X51880000Y-68695961D02*
G75*
G03*
X51879837Y-66613870I-1080000J1040961D01*
G01*
X234195000Y-82080000D02*
X234195000Y-82236000D01*
X234195000Y-79764000D02*
X234195000Y-79920000D01*
X237427335Y-79921392D02*
G75*
G03*
X234195000Y-79764484I-1672335J-1078608D01*
G01*
X234714039Y-82080000D02*
G75*
G03*
X236796130Y-82079837I1040961J1080000D01*
G01*
X234195000Y-82235516D02*
G75*
G03*
X237427335Y-82078608I1560000J1235516D01*
G01*
X236796130Y-79920163D02*
G75*
G03*
X234714039Y-79920000I-1041130J-1079837D01*
G01*
X116485000Y-133195000D02*
X116485000Y-133108276D01*
X116485000Y-133195000D02*
X128360000Y-133195000D01*
X116485000Y-131891724D02*
X116485000Y-131805000D01*
X116485000Y-131805000D02*
X128360000Y-131805000D01*
X115800000Y-133195000D02*
X115115000Y-133195000D01*
X115115000Y-133195000D02*
X115115000Y-132500000D01*
X128360000Y-132105507D02*
X128360000Y-131805000D01*
X128360000Y-133195000D02*
X128360000Y-132894493D01*
X51880000Y-100790000D02*
X52036000Y-100790000D01*
X49564000Y-100790000D02*
X49720000Y-100790000D01*
X51880000Y-100270961D02*
G75*
G03*
X51879837Y-98188870I-1080000J1040961D01*
G01*
X52035516Y-100790000D02*
G75*
G03*
X51878608Y-97557665I-1235516J1560000D01*
G01*
X49721392Y-97557665D02*
G75*
G03*
X49564484Y-100790000I1078608J-1672335D01*
G01*
X49720163Y-98188870D02*
G75*
G03*
X49720000Y-100270961I1079837J-1041130D01*
G01*
X141140000Y-121055000D02*
X141140000Y-138955000D01*
X148930000Y-120995000D02*
X138650000Y-120995000D01*
X138650000Y-139015000D02*
X148930000Y-139015000D01*
X146440000Y-121055000D02*
X141140000Y-121055000D01*
X148930000Y-139015000D02*
X148930000Y-120995000D01*
X146440000Y-138955000D02*
X146440000Y-121055000D01*
X138650000Y-120995000D02*
X138650000Y-139015000D01*
X141140000Y-138955000D02*
X142790000Y-138955000D01*
X144790000Y-138955000D02*
X146440000Y-138955000D01*
X144790000Y-138955000D02*
G75*
G03*
X142790000Y-138955000I-1000000J0D01*
G01*
X171735000Y-79764000D02*
X171735000Y-79920000D01*
X171735000Y-82080000D02*
X171735000Y-82236000D01*
X174967335Y-79921392D02*
G75*
G03*
X171735000Y-79764484I-1672335J-1078608D01*
G01*
X171735000Y-82235516D02*
G75*
G03*
X174967335Y-82078608I1560000J1235516D01*
G01*
X174336130Y-79920163D02*
G75*
G03*
X172254039Y-79920000I-1041130J-1079837D01*
G01*
X172254039Y-82080000D02*
G75*
G03*
X174336130Y-82079837I1040961J1080000D01*
G01*
X67064000Y-69065000D02*
X67220000Y-69065000D01*
X69380000Y-69065000D02*
X69536000Y-69065000D01*
X67221392Y-65832665D02*
G75*
G03*
X67064484Y-69065000I1078608J-1672335D01*
G01*
X69535516Y-69065000D02*
G75*
G03*
X69378608Y-65832665I-1235516J1560000D01*
G01*
X67220163Y-66463870D02*
G75*
G03*
X67220000Y-68545961I1079837J-1041130D01*
G01*
X69380000Y-68545961D02*
G75*
G03*
X69379837Y-66463870I-1080000J1040961D01*
G01*
X203800000Y-55000000D02*
G75*
G03*
X203800000Y-55000000I-6000000J0D01*
G01*
X99430000Y-80865000D02*
X99430000Y-77805000D01*
X109170000Y-89395000D02*
X109170000Y-84675000D01*
X109170000Y-77805000D02*
X99430000Y-77805000D01*
X105960000Y-89395000D02*
X105130000Y-89395000D01*
X109170000Y-89395000D02*
X107680000Y-89395000D01*
X109170000Y-80865000D02*
X109170000Y-77805000D01*
X103510000Y-89395000D02*
X102980000Y-89395000D01*
X99420000Y-89395000D02*
X99420000Y-84675000D01*
X100610000Y-89395000D02*
X99430000Y-89395000D01*
X63420000Y-106120000D02*
X63420000Y-101400000D01*
X73170000Y-106120000D02*
X71680000Y-106120000D01*
X73170000Y-94530000D02*
X63430000Y-94530000D01*
X73170000Y-97590000D02*
X73170000Y-94530000D01*
X63430000Y-97590000D02*
X63430000Y-94530000D01*
X67510000Y-106120000D02*
X66980000Y-106120000D01*
X69960000Y-106120000D02*
X69130000Y-106120000D01*
X64610000Y-106120000D02*
X63430000Y-106120000D01*
X73170000Y-106120000D02*
X73170000Y-101400000D01*
X196470000Y-115764000D02*
X196470000Y-115920000D01*
X196470000Y-118080000D02*
X196470000Y-118236000D01*
X196989039Y-118080000D02*
G75*
G03*
X199071130Y-118079837I1040961J1080000D01*
G01*
X199702335Y-115921392D02*
G75*
G03*
X196470000Y-115764484I-1672335J-1078608D01*
G01*
X196470000Y-118235516D02*
G75*
G03*
X199702335Y-118078608I1560000J1235516D01*
G01*
X199071130Y-115920163D02*
G75*
G03*
X196989039Y-115920000I-1041130J-1079837D01*
G01*
X234195000Y-91764000D02*
X234195000Y-91920000D01*
X234195000Y-94080000D02*
X234195000Y-94236000D01*
X237427335Y-91921392D02*
G75*
G03*
X234195000Y-91764484I-1672335J-1078608D01*
G01*
X234714039Y-94080000D02*
G75*
G03*
X236796130Y-94079837I1040961J1080000D01*
G01*
X234195000Y-94235516D02*
G75*
G03*
X237427335Y-94078608I1560000J1235516D01*
G01*
X236796130Y-91920163D02*
G75*
G03*
X234714039Y-91920000I-1041130J-1079837D01*
G01*
X208735000Y-94080000D02*
X208735000Y-94236000D01*
X208735000Y-91764000D02*
X208735000Y-91920000D01*
X211967335Y-91921392D02*
G75*
G03*
X208735000Y-91764484I-1672335J-1078608D01*
G01*
X209254039Y-94080000D02*
G75*
G03*
X211336130Y-94079837I1040961J1080000D01*
G01*
X208735000Y-94235516D02*
G75*
G03*
X211967335Y-94078608I1560000J1235516D01*
G01*
X211336130Y-91920163D02*
G75*
G03*
X209254039Y-91920000I-1041130J-1079837D01*
G01*
X105380000Y-84065000D02*
X105536000Y-84065000D01*
X103064000Y-84065000D02*
X103220000Y-84065000D01*
X103221392Y-80832665D02*
G75*
G03*
X103064484Y-84065000I1078608J-1672335D01*
G01*
X105380000Y-83545961D02*
G75*
G03*
X105379837Y-81463870I-1080000J1040961D01*
G01*
X103220163Y-81463870D02*
G75*
G03*
X103220000Y-83545961I1079837J-1041130D01*
G01*
X105535516Y-84065000D02*
G75*
G03*
X105378608Y-80832665I-1235516J1560000D01*
G01*
X89960000Y-105895000D02*
X89130000Y-105895000D01*
X93170000Y-105895000D02*
X93170000Y-101175000D01*
X87510000Y-105895000D02*
X86980000Y-105895000D01*
X93170000Y-97365000D02*
X93170000Y-94305000D01*
X93170000Y-105895000D02*
X91680000Y-105895000D01*
X93170000Y-94305000D02*
X83430000Y-94305000D01*
X83420000Y-105895000D02*
X83420000Y-101175000D01*
X84610000Y-105895000D02*
X83430000Y-105895000D01*
X83430000Y-97365000D02*
X83430000Y-94305000D01*
X105380000Y-116565000D02*
X105536000Y-116565000D01*
X103064000Y-116565000D02*
X103220000Y-116565000D01*
X105535516Y-116565000D02*
G75*
G03*
X105378608Y-113332665I-1235516J1560000D01*
G01*
X103220163Y-113963870D02*
G75*
G03*
X103220000Y-116045961I1079837J-1041130D01*
G01*
X103221392Y-113332665D02*
G75*
G03*
X103064484Y-116565000I1078608J-1672335D01*
G01*
X105380000Y-116045961D02*
G75*
G03*
X105379837Y-113963870I-1080000J1040961D01*
G01*
X73170000Y-110030000D02*
X63430000Y-110030000D01*
X64610000Y-121620000D02*
X63430000Y-121620000D01*
X73170000Y-121620000D02*
X73170000Y-116900000D01*
X63430000Y-113090000D02*
X63430000Y-110030000D01*
X67510000Y-121620000D02*
X66980000Y-121620000D01*
X69960000Y-121620000D02*
X69130000Y-121620000D01*
X63420000Y-121620000D02*
X63420000Y-116900000D01*
X73170000Y-121620000D02*
X71680000Y-121620000D01*
X73170000Y-113090000D02*
X73170000Y-110030000D01*
X167300000Y-118000000D02*
G75*
G03*
X167300000Y-118000000I-6000000J0D01*
G01*
X196470000Y-130580000D02*
X196470000Y-130736000D01*
X196470000Y-128264000D02*
X196470000Y-128420000D01*
X199071130Y-128420163D02*
G75*
G03*
X196989039Y-128420000I-1041130J-1079837D01*
G01*
X196470000Y-130735516D02*
G75*
G03*
X199702335Y-130578608I1560000J1235516D01*
G01*
X199702335Y-128421392D02*
G75*
G03*
X196470000Y-128264484I-1672335J-1078608D01*
G01*
X196989039Y-130580000D02*
G75*
G03*
X199071130Y-130579837I1040961J1080000D01*
G01*
X49564000Y-85065000D02*
X49720000Y-85065000D01*
X51880000Y-85065000D02*
X52036000Y-85065000D01*
X49720163Y-82463870D02*
G75*
G03*
X49720000Y-84545961I1079837J-1041130D01*
G01*
X51880000Y-84545961D02*
G75*
G03*
X51879837Y-82463870I-1080000J1040961D01*
G01*
X49721392Y-81832665D02*
G75*
G03*
X49564484Y-85065000I1078608J-1672335D01*
G01*
X52035516Y-85065000D02*
G75*
G03*
X51878608Y-81832665I-1235516J1560000D01*
G01*
X221960000Y-130580000D02*
X221960000Y-130736000D01*
X221960000Y-128264000D02*
X221960000Y-128420000D01*
X225192335Y-128421392D02*
G75*
G03*
X221960000Y-128264484I-1672335J-1078608D01*
G01*
X221960000Y-130735516D02*
G75*
G03*
X225192335Y-130578608I1560000J1235516D01*
G01*
X224561130Y-128420163D02*
G75*
G03*
X222479039Y-128420000I-1041130J-1079837D01*
G01*
X222479039Y-130580000D02*
G75*
G03*
X224561130Y-130579837I1040961J1080000D01*
G01*
X73170000Y-63030000D02*
X63430000Y-63030000D01*
X63420000Y-74620000D02*
X63420000Y-69900000D01*
X73170000Y-74620000D02*
X73170000Y-69900000D01*
X63430000Y-66090000D02*
X63430000Y-63030000D01*
X69960000Y-74620000D02*
X69130000Y-74620000D01*
X64610000Y-74620000D02*
X63430000Y-74620000D01*
X73170000Y-74620000D02*
X71680000Y-74620000D01*
X67510000Y-74620000D02*
X66980000Y-74620000D01*
X73170000Y-66090000D02*
X73170000Y-63030000D01*
X87064000Y-68840000D02*
X87220000Y-68840000D01*
X89380000Y-68840000D02*
X89536000Y-68840000D01*
X87221392Y-65607665D02*
G75*
G03*
X87064484Y-68840000I1078608J-1672335D01*
G01*
X89535516Y-68840000D02*
G75*
G03*
X89378608Y-65607665I-1235516J1560000D01*
G01*
X89380000Y-68320961D02*
G75*
G03*
X89379837Y-66238870I-1080000J1040961D01*
G01*
X87220163Y-66238870D02*
G75*
G03*
X87220000Y-68320961I1079837J-1041130D01*
G01*
X82090000Y-130860000D02*
X82090000Y-136160000D01*
X102530000Y-130860000D02*
X82090000Y-130860000D01*
X82030000Y-138650000D02*
X102590000Y-138650000D01*
X102530000Y-132510000D02*
X102530000Y-130860000D01*
X102530000Y-136160000D02*
X102530000Y-134510000D01*
X82090000Y-136160000D02*
X102530000Y-136160000D01*
X102590000Y-128370000D02*
X82030000Y-128370000D01*
X82030000Y-128370000D02*
X82030000Y-138650000D01*
X102590000Y-138650000D02*
X102590000Y-128370000D01*
X102530000Y-132510000D02*
G75*
G03*
X102530000Y-134510000I0J-1000000D01*
G01*
X234195000Y-128264000D02*
X234195000Y-128420000D01*
X234195000Y-130580000D02*
X234195000Y-130736000D01*
X236796130Y-128420163D02*
G75*
G03*
X234714039Y-128420000I-1041130J-1079837D01*
G01*
X234714039Y-130580000D02*
G75*
G03*
X236796130Y-130579837I1040961J1080000D01*
G01*
X237427335Y-128421392D02*
G75*
G03*
X234195000Y-128264484I-1672335J-1078608D01*
G01*
X234195000Y-130735516D02*
G75*
G03*
X237427335Y-130578608I1560000J1235516D01*
G01*
X51880000Y-116065000D02*
X52036000Y-116065000D01*
X49564000Y-116065000D02*
X49720000Y-116065000D01*
X49721392Y-112832665D02*
G75*
G03*
X49564484Y-116065000I1078608J-1672335D01*
G01*
X52035516Y-116065000D02*
G75*
G03*
X51878608Y-112832665I-1235516J1560000D01*
G01*
X51880000Y-115545961D02*
G75*
G03*
X51879837Y-113463870I-1080000J1040961D01*
G01*
X49720163Y-113463870D02*
G75*
G03*
X49720000Y-115545961I1079837J-1041130D01*
G01*
X184235000Y-94080000D02*
X184235000Y-94236000D01*
X184235000Y-91764000D02*
X184235000Y-91920000D01*
X184235000Y-94235516D02*
G75*
G03*
X187467335Y-94078608I1560000J1235516D01*
G01*
X184754039Y-94080000D02*
G75*
G03*
X186836130Y-94079837I1040961J1080000D01*
G01*
X186836130Y-91920163D02*
G75*
G03*
X184754039Y-91920000I-1041130J-1079837D01*
G01*
X187467335Y-91921392D02*
G75*
G03*
X184235000Y-91764484I-1672335J-1078608D01*
G01*
X208735000Y-118080000D02*
X208735000Y-118236000D01*
X208735000Y-115764000D02*
X208735000Y-115920000D01*
X208735000Y-118235516D02*
G75*
G03*
X211967335Y-118078608I1560000J1235516D01*
G01*
X211336130Y-115920163D02*
G75*
G03*
X209254039Y-115920000I-1041130J-1079837D01*
G01*
X211967335Y-115921392D02*
G75*
G03*
X208735000Y-115764484I-1672335J-1078608D01*
G01*
X209254039Y-118080000D02*
G75*
G03*
X211336130Y-118079837I1040961J1080000D01*
G01*
X52460000Y-74730000D02*
X51630000Y-74730000D01*
X45930000Y-66200000D02*
X45930000Y-63140000D01*
X55670000Y-74730000D02*
X55670000Y-70010000D01*
X47110000Y-74730000D02*
X45930000Y-74730000D01*
X55670000Y-74730000D02*
X54180000Y-74730000D01*
X55670000Y-63140000D02*
X45930000Y-63140000D01*
X55670000Y-66200000D02*
X55670000Y-63140000D01*
X50010000Y-74730000D02*
X49480000Y-74730000D01*
X45920000Y-74730000D02*
X45920000Y-70010000D01*
X216300000Y-54500000D02*
G75*
G03*
X216300000Y-54500000I-6000000J0D01*
G01*
X167300000Y-130500000D02*
G75*
G03*
X167300000Y-130500000I-6000000J0D01*
G01*
X69380000Y-100565000D02*
X69536000Y-100565000D01*
X67064000Y-100565000D02*
X67220000Y-100565000D01*
X69380000Y-100045961D02*
G75*
G03*
X69379837Y-97963870I-1080000J1040961D01*
G01*
X67221392Y-97332665D02*
G75*
G03*
X67064484Y-100565000I1078608J-1672335D01*
G01*
X67220163Y-97963870D02*
G75*
G03*
X67220000Y-100045961I1079837J-1041130D01*
G01*
X69535516Y-100565000D02*
G75*
G03*
X69378608Y-97332665I-1235516J1560000D01*
G01*
X196470000Y-94080000D02*
X196470000Y-94236000D01*
X196470000Y-91764000D02*
X196470000Y-91920000D01*
X196989039Y-94080000D02*
G75*
G03*
X199071130Y-94079837I1040961J1080000D01*
G01*
X199702335Y-91921392D02*
G75*
G03*
X196470000Y-91764484I-1672335J-1078608D01*
G01*
X196470000Y-94235516D02*
G75*
G03*
X199702335Y-94078608I1560000J1235516D01*
G01*
X199071130Y-91920163D02*
G75*
G03*
X196989039Y-91920000I-1041130J-1079837D01*
G01*
X115850000Y-117730000D02*
X116650000Y-117730000D01*
X119000000Y-112000000D02*
X119000000Y-115780000D01*
X119000000Y-117220000D02*
X119000000Y-121000000D01*
X119000000Y-112000000D02*
X129500000Y-112000000D01*
X115850000Y-117730000D02*
X115850000Y-116870000D01*
X119000000Y-121000000D02*
X129500000Y-121000000D01*
X129500000Y-117300000D02*
X129500000Y-121000000D01*
X129500000Y-112000000D02*
X129500000Y-115700000D01*
X125300000Y-116500000D02*
G75*
G03*
X125300000Y-116500000I-1800000J0D01*
G01*
X89380000Y-116565000D02*
X89536000Y-116565000D01*
X87064000Y-116565000D02*
X87220000Y-116565000D01*
X89380000Y-116045961D02*
G75*
G03*
X89379837Y-113963870I-1080000J1040961D01*
G01*
X87221392Y-113332665D02*
G75*
G03*
X87064484Y-116565000I1078608J-1672335D01*
G01*
X87220163Y-113963870D02*
G75*
G03*
X87220000Y-116045961I1079837J-1041130D01*
G01*
X89535516Y-116565000D02*
G75*
G03*
X89378608Y-113332665I-1235516J1560000D01*
G01*
X131070000Y-129870000D02*
X124530000Y-129870000D01*
X124530000Y-127130000D02*
X124530000Y-127460000D01*
X124530000Y-129870000D02*
X124530000Y-129540000D01*
X131070000Y-129540000D02*
X131070000Y-129870000D01*
X131070000Y-127130000D02*
X124530000Y-127130000D01*
X131070000Y-127460000D02*
X131070000Y-127130000D01*
X171735000Y-106580000D02*
X171735000Y-106736000D01*
X171735000Y-104264000D02*
X171735000Y-104420000D01*
X174336130Y-104420163D02*
G75*
G03*
X172254039Y-104420000I-1041130J-1079837D01*
G01*
X171735000Y-106735516D02*
G75*
G03*
X174967335Y-106578608I1560000J1235516D01*
G01*
X174967335Y-104421392D02*
G75*
G03*
X171735000Y-104264484I-1672335J-1078608D01*
G01*
X172254039Y-106580000D02*
G75*
G03*
X174336130Y-106579837I1040961J1080000D01*
G01*
X253440000Y-85205000D02*
X248140000Y-85205000D01*
X253440000Y-115805000D02*
X253440000Y-85205000D01*
X248140000Y-85205000D02*
X248140000Y-115805000D01*
X251790000Y-115805000D02*
X253440000Y-115805000D01*
X248140000Y-115805000D02*
X249790000Y-115805000D01*
X251790000Y-115805000D02*
G75*
G03*
X249790000Y-115805000I-1000000J0D01*
G01*
X130930000Y-91230000D02*
X131260000Y-91230000D01*
X133670000Y-91230000D02*
X133340000Y-91230000D01*
X130930000Y-97770000D02*
X130930000Y-91230000D01*
X133340000Y-97770000D02*
X133670000Y-97770000D01*
X133670000Y-97770000D02*
X133670000Y-91230000D01*
X131260000Y-97770000D02*
X130930000Y-97770000D01*
X167300000Y-105500000D02*
G75*
G03*
X167300000Y-105500000I-6000000J0D01*
G01*
X129500000Y-69800000D02*
X129500000Y-73500000D01*
X119000000Y-69720000D02*
X119000000Y-73500000D01*
X115850000Y-70230000D02*
X115850000Y-69370000D01*
X119000000Y-64500000D02*
X129500000Y-64500000D01*
X119000000Y-64500000D02*
X119000000Y-68280000D01*
X115850000Y-70230000D02*
X116650000Y-70230000D01*
X119000000Y-73500000D02*
X129500000Y-73500000D01*
X129500000Y-64500000D02*
X129500000Y-68200000D01*
X125300000Y-69000000D02*
G75*
G03*
X125300000Y-69000000I-1800000J0D01*
G01*
X69380000Y-116340000D02*
X69536000Y-116340000D01*
X67064000Y-116340000D02*
X67220000Y-116340000D01*
X69535516Y-116340000D02*
G75*
G03*
X69378608Y-113107665I-1235516J1560000D01*
G01*
X67220163Y-113738870D02*
G75*
G03*
X67220000Y-115820961I1079837J-1041130D01*
G01*
X67221392Y-113107665D02*
G75*
G03*
X67064484Y-116340000I1078608J-1672335D01*
G01*
X69380000Y-115820961D02*
G75*
G03*
X69379837Y-113738870I-1080000J1040961D01*
G01*
X102530000Y-51010000D02*
X102530000Y-49360000D01*
X82090000Y-54660000D02*
X102530000Y-54660000D01*
X102590000Y-46870000D02*
X82030000Y-46870000D01*
X82030000Y-46870000D02*
X82030000Y-57150000D01*
X82090000Y-49360000D02*
X82090000Y-54660000D01*
X82030000Y-57150000D02*
X102590000Y-57150000D01*
X102530000Y-49360000D02*
X82090000Y-49360000D01*
X102590000Y-57150000D02*
X102590000Y-46870000D01*
X102530000Y-54660000D02*
X102530000Y-53010000D01*
X102530000Y-51010000D02*
G75*
G03*
X102530000Y-53010000I0J-1000000D01*
G01*
X136670000Y-119730000D02*
X136340000Y-119730000D01*
X136340000Y-126270000D02*
X136670000Y-126270000D01*
X134260000Y-126270000D02*
X133930000Y-126270000D01*
X133930000Y-119730000D02*
X134260000Y-119730000D01*
X133930000Y-126270000D02*
X133930000Y-119730000D01*
X136670000Y-126270000D02*
X136670000Y-119730000D01*
X87064000Y-84565000D02*
X87220000Y-84565000D01*
X89380000Y-84565000D02*
X89536000Y-84565000D01*
X89380000Y-84045961D02*
G75*
G03*
X89379837Y-81963870I-1080000J1040961D01*
G01*
X87221392Y-81332665D02*
G75*
G03*
X87064484Y-84565000I1078608J-1672335D01*
G01*
X87220163Y-81963870D02*
G75*
G03*
X87220000Y-84045961I1079837J-1041130D01*
G01*
X89535516Y-84565000D02*
G75*
G03*
X89378608Y-81332665I-1235516J1560000D01*
G01*
X221735000Y-67264000D02*
X221735000Y-67420000D01*
X221735000Y-69580000D02*
X221735000Y-69736000D01*
X224336130Y-67420163D02*
G75*
G03*
X222254039Y-67420000I-1041130J-1079837D01*
G01*
X221735000Y-69735516D02*
G75*
G03*
X224967335Y-69578608I1560000J1235516D01*
G01*
X222254039Y-69580000D02*
G75*
G03*
X224336130Y-69579837I1040961J1080000D01*
G01*
X224967335Y-67421392D02*
G75*
G03*
X221735000Y-67264484I-1672335J-1078608D01*
G01*
X133220000Y-133371000D02*
X133220000Y-134629000D01*
X131380000Y-133371000D02*
X131380000Y-134629000D01*
X78170000Y-54270000D02*
X78170000Y-47730000D01*
X75430000Y-54270000D02*
X75430000Y-47730000D01*
X75430000Y-47730000D02*
X75760000Y-47730000D01*
X78170000Y-47730000D02*
X77840000Y-47730000D01*
X77840000Y-54270000D02*
X78170000Y-54270000D01*
X75760000Y-54270000D02*
X75430000Y-54270000D01*
X184235000Y-118080000D02*
X184235000Y-118236000D01*
X184235000Y-115764000D02*
X184235000Y-115920000D01*
X186836130Y-115920163D02*
G75*
G03*
X184754039Y-115920000I-1041130J-1079837D01*
G01*
X184235000Y-118235516D02*
G75*
G03*
X187467335Y-118078608I1560000J1235516D01*
G01*
X187467335Y-115921392D02*
G75*
G03*
X184235000Y-115764484I-1672335J-1078608D01*
G01*
X184754039Y-118080000D02*
G75*
G03*
X186836130Y-118079837I1040961J1080000D01*
G01*
X116485000Y-52695000D02*
X133360000Y-52695000D01*
X116485000Y-52695000D02*
X116485000Y-52608276D01*
X133360000Y-51605507D02*
X133360000Y-51305000D01*
X133360000Y-52695000D02*
X133360000Y-52394493D01*
X116485000Y-51305000D02*
X133360000Y-51305000D01*
X115115000Y-52695000D02*
X115115000Y-52000000D01*
X116485000Y-51391724D02*
X116485000Y-51305000D01*
X115800000Y-52695000D02*
X115115000Y-52695000D01*
X55670000Y-90760000D02*
X54180000Y-90760000D01*
X55670000Y-90760000D02*
X55670000Y-86040000D01*
X45920000Y-90760000D02*
X45920000Y-86040000D01*
X52460000Y-90760000D02*
X51630000Y-90760000D01*
X47110000Y-90760000D02*
X45930000Y-90760000D01*
X55670000Y-79170000D02*
X45930000Y-79170000D01*
X55670000Y-82230000D02*
X55670000Y-79170000D01*
X45930000Y-82230000D02*
X45930000Y-79170000D01*
X50010000Y-90760000D02*
X49480000Y-90760000D01*
X171735000Y-118080000D02*
X171735000Y-118236000D01*
X171735000Y-115764000D02*
X171735000Y-115920000D01*
X174336130Y-115920163D02*
G75*
G03*
X172254039Y-115920000I-1041130J-1079837D01*
G01*
X172254039Y-118080000D02*
G75*
G03*
X174336130Y-118079837I1040961J1080000D01*
G01*
X171735000Y-118235516D02*
G75*
G03*
X174967335Y-118078608I1560000J1235516D01*
G01*
X174967335Y-115921392D02*
G75*
G03*
X171735000Y-115764484I-1672335J-1078608D01*
G01*
X65030000Y-132510000D02*
X65030000Y-130860000D01*
X65090000Y-138650000D02*
X65090000Y-128370000D01*
X44530000Y-128370000D02*
X44530000Y-138650000D01*
X65090000Y-128370000D02*
X44530000Y-128370000D01*
X65030000Y-130860000D02*
X44590000Y-130860000D01*
X44590000Y-130860000D02*
X44590000Y-136160000D01*
X65030000Y-136160000D02*
X65030000Y-134510000D01*
X44530000Y-138650000D02*
X65090000Y-138650000D01*
X44590000Y-136160000D02*
X65030000Y-136160000D01*
X65030000Y-132510000D02*
G75*
G03*
X65030000Y-134510000I0J-1000000D01*
G01*
X129500000Y-106300000D02*
X129500000Y-110000000D01*
X119000000Y-101000000D02*
X129500000Y-101000000D01*
X119000000Y-106220000D02*
X119000000Y-110000000D01*
X115850000Y-106730000D02*
X116650000Y-106730000D01*
X115850000Y-106730000D02*
X115850000Y-105870000D01*
X119000000Y-110000000D02*
X129500000Y-110000000D01*
X129500000Y-101000000D02*
X129500000Y-104700000D01*
X119000000Y-101000000D02*
X119000000Y-104780000D01*
X125300000Y-105500000D02*
G75*
G03*
X125300000Y-105500000I-1800000J0D01*
G01*
X208735000Y-128264000D02*
X208735000Y-128420000D01*
X208735000Y-130580000D02*
X208735000Y-130736000D01*
X211967335Y-128421392D02*
G75*
G03*
X208735000Y-128264484I-1672335J-1078608D01*
G01*
X211336130Y-128420163D02*
G75*
G03*
X209254039Y-128420000I-1041130J-1079837D01*
G01*
X208735000Y-130735516D02*
G75*
G03*
X211967335Y-130578608I1560000J1235516D01*
G01*
X209254039Y-130580000D02*
G75*
G03*
X211336130Y-130579837I1040961J1080000D01*
G01*
X87064000Y-100790000D02*
X87220000Y-100790000D01*
X89380000Y-100790000D02*
X89536000Y-100790000D01*
X87220163Y-98188870D02*
G75*
G03*
X87220000Y-100270961I1079837J-1041130D01*
G01*
X87221392Y-97557665D02*
G75*
G03*
X87064484Y-100790000I1078608J-1672335D01*
G01*
X89535516Y-100790000D02*
G75*
G03*
X89378608Y-97557665I-1235516J1560000D01*
G01*
X89380000Y-100270961D02*
G75*
G03*
X89379837Y-98188870I-1080000J1040961D01*
G01*
X119000000Y-90000000D02*
X129500000Y-90000000D01*
X119000000Y-90000000D02*
X119000000Y-93780000D01*
X119000000Y-99000000D02*
X129500000Y-99000000D01*
X115850000Y-95730000D02*
X115850000Y-94870000D01*
X129500000Y-95300000D02*
X129500000Y-99000000D01*
X115850000Y-95730000D02*
X116650000Y-95730000D01*
X129500000Y-90000000D02*
X129500000Y-93700000D01*
X119000000Y-95220000D02*
X119000000Y-99000000D01*
X125300000Y-94500000D02*
G75*
G03*
X125300000Y-94500000I-1800000J0D01*
G01*
X50010000Y-121770000D02*
X49480000Y-121770000D01*
X45920000Y-121770000D02*
X45920000Y-117050000D01*
X55670000Y-113240000D02*
X55670000Y-110180000D01*
X55670000Y-121770000D02*
X55670000Y-117050000D01*
X45930000Y-113240000D02*
X45930000Y-110180000D01*
X55670000Y-121770000D02*
X54180000Y-121770000D01*
X55670000Y-110180000D02*
X45930000Y-110180000D01*
X52460000Y-121770000D02*
X51630000Y-121770000D01*
X47110000Y-121770000D02*
X45930000Y-121770000D01*
X149800000Y-99000000D02*
G75*
G03*
X149800000Y-99000000I-6000000J0D01*
G01*
X221960000Y-94080000D02*
X221960000Y-94236000D01*
X221960000Y-91764000D02*
X221960000Y-91920000D01*
X224561130Y-91920163D02*
G75*
G03*
X222479039Y-91920000I-1041130J-1079837D01*
G01*
X221960000Y-94235516D02*
G75*
G03*
X225192335Y-94078608I1560000J1235516D01*
G01*
X222479039Y-94080000D02*
G75*
G03*
X224561130Y-94079837I1040961J1080000D01*
G01*
X225192335Y-91921392D02*
G75*
G03*
X221960000Y-91764484I-1672335J-1078608D01*
G01*
X196470000Y-104264000D02*
X196470000Y-104420000D01*
X196470000Y-106580000D02*
X196470000Y-106736000D01*
X199071130Y-104420163D02*
G75*
G03*
X196989039Y-104420000I-1041130J-1079837D01*
G01*
X196989039Y-106580000D02*
G75*
G03*
X199071130Y-106579837I1040961J1080000D01*
G01*
X196470000Y-106735516D02*
G75*
G03*
X199702335Y-106578608I1560000J1235516D01*
G01*
X199702335Y-104421392D02*
G75*
G03*
X196470000Y-104264484I-1672335J-1078608D01*
G01*
X149800000Y-86500000D02*
G75*
G03*
X149800000Y-86500000I-6000000J0D01*
G01*
X178800000Y-55000000D02*
G75*
G03*
X178800000Y-55000000I-6000000J0D01*
G01*
X191300000Y-55000000D02*
G75*
G03*
X191300000Y-55000000I-6000000J0D01*
G01*
X234195000Y-104264000D02*
X234195000Y-104420000D01*
X234195000Y-106580000D02*
X234195000Y-106736000D01*
X237427335Y-104421392D02*
G75*
G03*
X234195000Y-104264484I-1672335J-1078608D01*
G01*
X234195000Y-106735516D02*
G75*
G03*
X237427335Y-106578608I1560000J1235516D01*
G01*
X236796130Y-104420163D02*
G75*
G03*
X234714039Y-104420000I-1041130J-1079837D01*
G01*
X234714039Y-106580000D02*
G75*
G03*
X236796130Y-106579837I1040961J1080000D01*
G01*
X184235000Y-130580000D02*
X184235000Y-130736000D01*
X184235000Y-128264000D02*
X184235000Y-128420000D01*
X187467335Y-128421392D02*
G75*
G03*
X184235000Y-128264484I-1672335J-1078608D01*
G01*
X184235000Y-130735516D02*
G75*
G03*
X187467335Y-130578608I1560000J1235516D01*
G01*
X184754039Y-130580000D02*
G75*
G03*
X186836130Y-130579837I1040961J1080000D01*
G01*
X186836130Y-128420163D02*
G75*
G03*
X184754039Y-128420000I-1041130J-1079837D01*
G01*
X108340000Y-136770000D02*
X108670000Y-136770000D01*
X108670000Y-130230000D02*
X108340000Y-130230000D01*
X105930000Y-136770000D02*
X105930000Y-130230000D01*
X105930000Y-130230000D02*
X106260000Y-130230000D01*
X108670000Y-136770000D02*
X108670000Y-130230000D01*
X106260000Y-136770000D02*
X105930000Y-136770000D01*
X136340000Y-131040000D02*
X136670000Y-131040000D01*
X136670000Y-131040000D02*
X136670000Y-137580000D01*
X134260000Y-131040000D02*
X133930000Y-131040000D01*
X133930000Y-131040000D02*
X133930000Y-137580000D01*
X133930000Y-137580000D02*
X134260000Y-137580000D01*
X136670000Y-137580000D02*
X136340000Y-137580000D01*
X171510000Y-91764000D02*
X171510000Y-91920000D01*
X171510000Y-94080000D02*
X171510000Y-94236000D01*
X174742335Y-91921392D02*
G75*
G03*
X171510000Y-91764484I-1672335J-1078608D01*
G01*
X174111130Y-91920163D02*
G75*
G03*
X172029039Y-91920000I-1041130J-1079837D01*
G01*
X172029039Y-94080000D02*
G75*
G03*
X174111130Y-94079837I1040961J1080000D01*
G01*
X171510000Y-94235516D02*
G75*
G03*
X174742335Y-94078608I1560000J1235516D01*
G01*
X69380000Y-85065000D02*
X69536000Y-85065000D01*
X67064000Y-85065000D02*
X67220000Y-85065000D01*
X69380000Y-84545961D02*
G75*
G03*
X69379837Y-82463870I-1080000J1040961D01*
G01*
X67221392Y-81832665D02*
G75*
G03*
X67064484Y-85065000I1078608J-1672335D01*
G01*
X69535516Y-85065000D02*
G75*
G03*
X69378608Y-81832665I-1235516J1560000D01*
G01*
X67220163Y-82463870D02*
G75*
G03*
X67220000Y-84545961I1079837J-1041130D01*
G01*
X234195000Y-115764000D02*
X234195000Y-115920000D01*
X234195000Y-118080000D02*
X234195000Y-118236000D01*
X236796130Y-115920163D02*
G75*
G03*
X234714039Y-115920000I-1041130J-1079837D01*
G01*
X234195000Y-118235516D02*
G75*
G03*
X237427335Y-118078608I1560000J1235516D01*
G01*
X237427335Y-115921392D02*
G75*
G03*
X234195000Y-115764484I-1672335J-1078608D01*
G01*
X234714039Y-118080000D02*
G75*
G03*
X236796130Y-118079837I1040961J1080000D01*
G01*
X166800000Y-80500000D02*
G75*
G03*
X166800000Y-80500000I-6000000J0D01*
G01*
X196470000Y-69580000D02*
X196470000Y-69736000D01*
X196470000Y-67264000D02*
X196470000Y-67420000D01*
X199071130Y-67420163D02*
G75*
G03*
X196989039Y-67420000I-1041130J-1079837D01*
G01*
X196470000Y-69735516D02*
G75*
G03*
X199702335Y-69578608I1560000J1235516D01*
G01*
X196989039Y-69580000D02*
G75*
G03*
X199071130Y-69579837I1040961J1080000D01*
G01*
X199702335Y-67421392D02*
G75*
G03*
X196470000Y-67264484I-1672335J-1078608D01*
G01*
X133220000Y-123129000D02*
X133220000Y-121871000D01*
X131380000Y-123129000D02*
X131380000Y-121871000D01*
X208735000Y-104264000D02*
X208735000Y-104420000D01*
X208735000Y-106580000D02*
X208735000Y-106736000D01*
X209254039Y-106580000D02*
G75*
G03*
X211336130Y-106579837I1040961J1080000D01*
G01*
X211336130Y-104420163D02*
G75*
G03*
X209254039Y-104420000I-1041130J-1079837D01*
G01*
X211967335Y-104421392D02*
G75*
G03*
X208735000Y-104264484I-1672335J-1078608D01*
G01*
X208735000Y-106735516D02*
G75*
G03*
X211967335Y-106578608I1560000J1235516D01*
G01*
X171470000Y-67264000D02*
X171470000Y-67420000D01*
X171470000Y-69580000D02*
X171470000Y-69736000D01*
X174702335Y-67421392D02*
G75*
G03*
X171470000Y-67264484I-1672335J-1078608D01*
G01*
X171470000Y-69735516D02*
G75*
G03*
X174702335Y-69578608I1560000J1235516D01*
G01*
X174071130Y-67420163D02*
G75*
G03*
X171989039Y-67420000I-1041130J-1079837D01*
G01*
X171989039Y-69580000D02*
G75*
G03*
X174071130Y-69579837I1040961J1080000D01*
G01*
X241300000Y-54500000D02*
G75*
G03*
X241300000Y-54500000I-6000000J0D01*
G01*
X184235000Y-106580000D02*
X184235000Y-106736000D01*
X184235000Y-104264000D02*
X184235000Y-104420000D01*
X184754039Y-106580000D02*
G75*
G03*
X186836130Y-106579837I1040961J1080000D01*
G01*
X186836130Y-104420163D02*
G75*
G03*
X184754039Y-104420000I-1041130J-1079837D01*
G01*
X187467335Y-104421392D02*
G75*
G03*
X184235000Y-104264484I-1672335J-1078608D01*
G01*
X184235000Y-106735516D02*
G75*
G03*
X187467335Y-106578608I1560000J1235516D01*
G01*
X67510000Y-90620000D02*
X66980000Y-90620000D01*
X69960000Y-90620000D02*
X69130000Y-90620000D01*
X63420000Y-90620000D02*
X63420000Y-85900000D01*
X73170000Y-79030000D02*
X63430000Y-79030000D01*
X73170000Y-90620000D02*
X73170000Y-85900000D01*
X63430000Y-82090000D02*
X63430000Y-79030000D01*
X73170000Y-90620000D02*
X71680000Y-90620000D01*
X73170000Y-82090000D02*
X73170000Y-79030000D01*
X64610000Y-90620000D02*
X63430000Y-90620000D01*
X105380000Y-68330000D02*
X105536000Y-68330000D01*
X103064000Y-68330000D02*
X103220000Y-68330000D01*
X103220163Y-65728870D02*
G75*
G03*
X103220000Y-67810961I1079837J-1041130D01*
G01*
X105535516Y-68330000D02*
G75*
G03*
X105378608Y-65097665I-1235516J1560000D01*
G01*
X103221392Y-65097665D02*
G75*
G03*
X103064484Y-68330000I1078608J-1672335D01*
G01*
X105380000Y-67810961D02*
G75*
G03*
X105379837Y-65728870I-1080000J1040961D01*
G01*
X233970000Y-67264000D02*
X233970000Y-67420000D01*
X233970000Y-69580000D02*
X233970000Y-69736000D01*
X236571130Y-67420163D02*
G75*
G03*
X234489039Y-67420000I-1041130J-1079837D01*
G01*
X233970000Y-69735516D02*
G75*
G03*
X237202335Y-69578608I1560000J1235516D01*
G01*
X237202335Y-67421392D02*
G75*
G03*
X233970000Y-67264484I-1672335J-1078608D01*
G01*
X234489039Y-69580000D02*
G75*
G03*
X236571130Y-69579837I1040961J1080000D01*
G01*
X109170000Y-97090000D02*
X109170000Y-94030000D01*
X109170000Y-94030000D02*
X99430000Y-94030000D01*
X105960000Y-105620000D02*
X105130000Y-105620000D01*
X109170000Y-105620000D02*
X107680000Y-105620000D01*
X99420000Y-105620000D02*
X99420000Y-100900000D01*
X103510000Y-105620000D02*
X102980000Y-105620000D01*
X100610000Y-105620000D02*
X99430000Y-105620000D01*
X109170000Y-105620000D02*
X109170000Y-100900000D01*
X99430000Y-97090000D02*
X99430000Y-94030000D01*
X100610000Y-73620000D02*
X99430000Y-73620000D01*
X109170000Y-73620000D02*
X109170000Y-68900000D01*
X105960000Y-73620000D02*
X105130000Y-73620000D01*
X109170000Y-73620000D02*
X107680000Y-73620000D01*
X109170000Y-62030000D02*
X99430000Y-62030000D01*
X99430000Y-65090000D02*
X99430000Y-62030000D01*
X109170000Y-65090000D02*
X109170000Y-62030000D01*
X99420000Y-73620000D02*
X99420000Y-68900000D01*
X103510000Y-73620000D02*
X102980000Y-73620000D01*
X166800000Y-93000000D02*
G75*
G03*
X166800000Y-93000000I-6000000J0D01*
G01*
X87510000Y-73895000D02*
X86980000Y-73895000D01*
X93170000Y-73895000D02*
X91680000Y-73895000D01*
X83430000Y-65365000D02*
X83430000Y-62305000D01*
X83420000Y-73895000D02*
X83420000Y-69175000D01*
X93170000Y-65365000D02*
X93170000Y-62305000D01*
X84610000Y-73895000D02*
X83430000Y-73895000D01*
X93170000Y-62305000D02*
X83430000Y-62305000D01*
X93170000Y-73895000D02*
X93170000Y-69175000D01*
X89960000Y-73895000D02*
X89130000Y-73895000D01*
X221960000Y-82080000D02*
X221960000Y-82236000D01*
X221960000Y-79764000D02*
X221960000Y-79920000D01*
X225192335Y-79921392D02*
G75*
G03*
X221960000Y-79764484I-1672335J-1078608D01*
G01*
X222479039Y-82080000D02*
G75*
G03*
X224561130Y-82079837I1040961J1080000D01*
G01*
X221960000Y-82235516D02*
G75*
G03*
X225192335Y-82078608I1560000J1235516D01*
G01*
X224561130Y-79920163D02*
G75*
G03*
X222479039Y-79920000I-1041130J-1079837D01*
G01*
X166800000Y-68000000D02*
G75*
G03*
X166800000Y-68000000I-6000000J0D01*
G01*
X119000000Y-81220000D02*
X119000000Y-85000000D01*
X119000000Y-85000000D02*
X129500000Y-85000000D01*
X129500000Y-81300000D02*
X129500000Y-85000000D01*
X119000000Y-76000000D02*
X119000000Y-79780000D01*
X129500000Y-76000000D02*
X129500000Y-79700000D01*
X115850000Y-81730000D02*
X116650000Y-81730000D01*
X115850000Y-81730000D02*
X115850000Y-80870000D01*
X119000000Y-76000000D02*
X129500000Y-76000000D01*
X125300000Y-80500000D02*
G75*
G03*
X125300000Y-80500000I-1800000J0D01*
G01*
X100610000Y-121620000D02*
X99430000Y-121620000D01*
X109170000Y-113090000D02*
X109170000Y-110030000D01*
X105960000Y-121620000D02*
X105130000Y-121620000D01*
X103510000Y-121620000D02*
X102980000Y-121620000D01*
X109170000Y-121620000D02*
X109170000Y-116900000D01*
X109170000Y-110030000D02*
X99430000Y-110030000D01*
X109170000Y-121620000D02*
X107680000Y-121620000D01*
X99430000Y-113090000D02*
X99430000Y-110030000D01*
X99420000Y-121620000D02*
X99420000Y-116900000D01*
X183970000Y-67264000D02*
X183970000Y-67420000D01*
X183970000Y-69580000D02*
X183970000Y-69736000D01*
X187202335Y-67421392D02*
G75*
G03*
X183970000Y-67264484I-1672335J-1078608D01*
G01*
X183970000Y-69735516D02*
G75*
G03*
X187202335Y-69578608I1560000J1235516D01*
G01*
X186571130Y-67420163D02*
G75*
G03*
X184489039Y-67420000I-1041130J-1079837D01*
G01*
X184489039Y-69580000D02*
G75*
G03*
X186571130Y-69579837I1040961J1080000D01*
G01*
X149800000Y-73900000D02*
G75*
G03*
X149800000Y-73900000I-6000000J0D01*
G01*
X221960000Y-115764000D02*
X221960000Y-115920000D01*
X221960000Y-118080000D02*
X221960000Y-118236000D01*
X221960000Y-118235516D02*
G75*
G03*
X225192335Y-118078608I1560000J1235516D01*
G01*
X225192335Y-115921392D02*
G75*
G03*
X221960000Y-115764484I-1672335J-1078608D01*
G01*
X222479039Y-118080000D02*
G75*
G03*
X224561130Y-118079837I1040961J1080000D01*
G01*
X224561130Y-115920163D02*
G75*
G03*
X222479039Y-115920000I-1041130J-1079837D01*
G01*
X221960000Y-106580000D02*
X221960000Y-106736000D01*
X221960000Y-104264000D02*
X221960000Y-104420000D01*
X224561130Y-104420163D02*
G75*
G03*
X222479039Y-104420000I-1041130J-1079837D01*
G01*
X225192335Y-104421392D02*
G75*
G03*
X221960000Y-104264484I-1672335J-1078608D01*
G01*
X222479039Y-106580000D02*
G75*
G03*
X224561130Y-106579837I1040961J1080000D01*
G01*
X221960000Y-106735516D02*
G75*
G03*
X225192335Y-106578608I1560000J1235516D01*
G01*
X89960000Y-89895000D02*
X89130000Y-89895000D01*
X93170000Y-89895000D02*
X93170000Y-85175000D01*
X83420000Y-89895000D02*
X83420000Y-85175000D01*
X93170000Y-89895000D02*
X91680000Y-89895000D01*
X84610000Y-89895000D02*
X83430000Y-89895000D01*
X87510000Y-89895000D02*
X86980000Y-89895000D01*
X83430000Y-81365000D02*
X83430000Y-78305000D01*
X93170000Y-81365000D02*
X93170000Y-78305000D01*
X93170000Y-78305000D02*
X83430000Y-78305000D01*
X196470000Y-82080000D02*
X196470000Y-82236000D01*
X196470000Y-79764000D02*
X196470000Y-79920000D01*
X196470000Y-82235516D02*
G75*
G03*
X199702335Y-82078608I1560000J1235516D01*
G01*
X196989039Y-82080000D02*
G75*
G03*
X199071130Y-82079837I1040961J1080000D01*
G01*
X199702335Y-79921392D02*
G75*
G03*
X196470000Y-79764484I-1672335J-1078608D01*
G01*
X199071130Y-79920163D02*
G75*
G03*
X196989039Y-79920000I-1041130J-1079837D01*
G01*
X105380000Y-100290000D02*
X105536000Y-100290000D01*
X103064000Y-100290000D02*
X103220000Y-100290000D01*
X103221392Y-97057665D02*
G75*
G03*
X103064484Y-100290000I1078608J-1672335D01*
G01*
X103220163Y-97688870D02*
G75*
G03*
X103220000Y-99770961I1079837J-1041130D01*
G01*
X105380000Y-99770961D02*
G75*
G03*
X105379837Y-97688870I-1080000J1040961D01*
G01*
X105535516Y-100290000D02*
G75*
G03*
X105378608Y-97057665I-1235516J1560000D01*
G01*
X228800000Y-54500000D02*
G75*
G03*
X228800000Y-54500000I-6000000J0D01*
G01*
X127570000Y-122630000D02*
X121030000Y-122630000D01*
X127570000Y-125370000D02*
X121030000Y-125370000D01*
X121030000Y-122630000D02*
X121030000Y-122960000D01*
X127570000Y-122960000D02*
X127570000Y-122630000D01*
X127570000Y-125040000D02*
X127570000Y-125370000D01*
X121030000Y-125370000D02*
X121030000Y-125040000D01*
X93170000Y-121620000D02*
X93170000Y-116900000D01*
X83420000Y-121620000D02*
X83420000Y-116900000D01*
X87510000Y-121620000D02*
X86980000Y-121620000D01*
X93170000Y-110030000D02*
X83430000Y-110030000D01*
X93170000Y-113090000D02*
X93170000Y-110030000D01*
X93170000Y-121620000D02*
X91680000Y-121620000D01*
X89960000Y-121620000D02*
X89130000Y-121620000D01*
X84610000Y-121620000D02*
X83430000Y-121620000D01*
X83430000Y-113090000D02*
X83430000Y-110030000D01*
X130930000Y-102730000D02*
X131260000Y-102730000D01*
X133670000Y-102730000D02*
X133340000Y-102730000D01*
X133340000Y-109270000D02*
X133670000Y-109270000D01*
X133670000Y-109270000D02*
X133670000Y-102730000D01*
X131260000Y-109270000D02*
X130930000Y-109270000D01*
X130930000Y-109270000D02*
X130930000Y-102730000D01*
X208735000Y-67264000D02*
X208735000Y-67420000D01*
X208735000Y-69580000D02*
X208735000Y-69736000D01*
X208735000Y-69735516D02*
G75*
G03*
X211967335Y-69578608I1560000J1235516D01*
G01*
X209254039Y-69580000D02*
G75*
G03*
X211336130Y-69579837I1040961J1080000D01*
G01*
X211967335Y-67421392D02*
G75*
G03*
X208735000Y-67264484I-1672335J-1078608D01*
G01*
X211336130Y-67420163D02*
G75*
G03*
X209254039Y-67420000I-1041130J-1079837D01*
G01*
X55670000Y-106270000D02*
X55670000Y-101550000D01*
X55670000Y-106270000D02*
X54180000Y-106270000D01*
X45930000Y-97740000D02*
X45930000Y-94680000D01*
X55670000Y-97740000D02*
X55670000Y-94680000D01*
X47110000Y-106270000D02*
X45930000Y-106270000D01*
X50010000Y-106270000D02*
X49480000Y-106270000D01*
X45920000Y-106270000D02*
X45920000Y-101550000D01*
X52460000Y-106270000D02*
X51630000Y-106270000D01*
X55670000Y-94680000D02*
X45930000Y-94680000D01*
X171510000Y-128264000D02*
X171510000Y-128420000D01*
X171510000Y-130580000D02*
X171510000Y-130736000D01*
X171510000Y-130735516D02*
G75*
G03*
X174742335Y-130578608I1560000J1235516D01*
G01*
X174111130Y-128420163D02*
G75*
G03*
X172029039Y-128420000I-1041130J-1079837D01*
G01*
X174742335Y-128421392D02*
G75*
G03*
X171510000Y-128264484I-1672335J-1078608D01*
G01*
X172029039Y-130580000D02*
G75*
G03*
X174111130Y-130579837I1040961J1080000D01*
G01*
%LPC*%
D15*
X184525000Y-81000000D03*
D16*
X187065000Y-81000000D03*
D17*
X69800000Y-137310000D03*
D18*
X69800000Y-129690000D03*
D19*
X63700000Y-48700000D03*
D18*
X61160000Y-48700000D03*
X58620000Y-48700000D03*
X56080000Y-48700000D03*
X53540000Y-48700000D03*
X51000000Y-48700000D03*
X48460000Y-48700000D03*
X45920000Y-48700000D03*
X45920000Y-56320000D03*
X48460000Y-56320000D03*
X51000000Y-56320000D03*
X53540000Y-56320000D03*
X56080000Y-56320000D03*
X58620000Y-56320000D03*
X61160000Y-56320000D03*
X63700000Y-56320000D03*
D15*
X208800000Y-81000000D03*
D16*
X211340000Y-81000000D03*
D20*
X141260000Y-111500000D03*
X146340000Y-111500000D03*
D17*
X70300000Y-54810000D03*
D18*
X70300000Y-47190000D03*
D15*
X50800000Y-68925000D03*
D16*
X50800000Y-66385000D03*
D15*
X234485000Y-81000000D03*
D16*
X237025000Y-81000000D03*
D21*
X115800000Y-132500000D03*
D22*
X116800000Y-132500000D03*
X117800000Y-132500000D03*
X118800000Y-132500000D03*
X119800000Y-132500000D03*
X120800000Y-132500000D03*
X121800000Y-132500000D03*
X122800000Y-132500000D03*
X123800000Y-132500000D03*
X124800000Y-132500000D03*
X125800000Y-132500000D03*
X126800000Y-132500000D03*
X127800000Y-132500000D03*
D15*
X50800000Y-100500000D03*
D16*
X50800000Y-97960000D03*
D19*
X147600000Y-137625000D03*
D18*
X147600000Y-135085000D03*
X147600000Y-132545000D03*
X147600000Y-130005000D03*
X147600000Y-127465000D03*
X147600000Y-124925000D03*
X147600000Y-122385000D03*
X139980000Y-122385000D03*
X139980000Y-124925000D03*
X139980000Y-127465000D03*
X139980000Y-130005000D03*
X139980000Y-132545000D03*
X139980000Y-135085000D03*
X139980000Y-137625000D03*
D15*
X172025000Y-81000000D03*
D16*
X174565000Y-81000000D03*
D15*
X68300000Y-68775000D03*
D16*
X68300000Y-66235000D03*
D23*
X197800000Y-52460000D03*
X197800000Y-57540000D03*
D24*
X99500000Y-82775000D03*
X109100000Y-82775000D03*
D15*
X101800000Y-90275000D03*
D16*
X104300000Y-90275000D03*
X106800000Y-90275000D03*
D24*
X63500000Y-99500000D03*
X73100000Y-99500000D03*
D15*
X65800000Y-107000000D03*
D16*
X68300000Y-107000000D03*
X70800000Y-107000000D03*
D15*
X196760000Y-117000000D03*
D16*
X199300000Y-117000000D03*
D15*
X234485000Y-93000000D03*
D16*
X237025000Y-93000000D03*
D15*
X209025000Y-93000000D03*
D16*
X211565000Y-93000000D03*
D15*
X104300000Y-83775000D03*
D16*
X104300000Y-81235000D03*
D24*
X93100000Y-99275000D03*
X83500000Y-99275000D03*
D15*
X85800000Y-106775000D03*
D16*
X88300000Y-106775000D03*
X90800000Y-106775000D03*
D15*
X104300000Y-116275000D03*
D16*
X104300000Y-113735000D03*
D24*
X63500000Y-115000000D03*
X73100000Y-115000000D03*
D15*
X65800000Y-122500000D03*
D16*
X68300000Y-122500000D03*
X70800000Y-122500000D03*
D20*
X163840000Y-118000000D03*
X158760000Y-118000000D03*
D15*
X196760000Y-129500000D03*
D16*
X199300000Y-129500000D03*
D15*
X50800000Y-84775000D03*
D16*
X50800000Y-82235000D03*
D15*
X222250000Y-129500000D03*
D16*
X224790000Y-129500000D03*
D24*
X73100000Y-68000000D03*
X63500000Y-68000000D03*
D15*
X65800000Y-75500000D03*
D16*
X68300000Y-75500000D03*
X70800000Y-75500000D03*
D15*
X88300000Y-68550000D03*
D16*
X88300000Y-66010000D03*
D19*
X101200000Y-129700000D03*
D18*
X98660000Y-129700000D03*
X96120000Y-129700000D03*
X93580000Y-129700000D03*
X91040000Y-129700000D03*
X88500000Y-129700000D03*
X85960000Y-129700000D03*
X83420000Y-129700000D03*
X83420000Y-137320000D03*
X85960000Y-137320000D03*
X88500000Y-137320000D03*
X91040000Y-137320000D03*
X93580000Y-137320000D03*
X96120000Y-137320000D03*
X98660000Y-137320000D03*
X101200000Y-137320000D03*
D15*
X234485000Y-129500000D03*
D16*
X237025000Y-129500000D03*
D15*
X50800000Y-115775000D03*
D16*
X50800000Y-113235000D03*
D15*
X184525000Y-93000000D03*
D16*
X187065000Y-93000000D03*
D15*
X209025000Y-117000000D03*
D16*
X211565000Y-117000000D03*
D24*
X46000000Y-68110000D03*
X55600000Y-68110000D03*
D15*
X48300000Y-75610000D03*
D16*
X50800000Y-75610000D03*
X53300000Y-75610000D03*
D23*
X210300000Y-51960000D03*
X210300000Y-57040000D03*
D20*
X163840000Y-130500000D03*
X158760000Y-130500000D03*
D15*
X68300000Y-100275000D03*
D16*
X68300000Y-97735000D03*
D15*
X196760000Y-93000000D03*
D16*
X199300000Y-93000000D03*
D25*
X117020000Y-116500000D03*
D26*
X128420000Y-116500000D03*
X120120000Y-116500000D03*
D15*
X88300000Y-116275000D03*
D16*
X88300000Y-113735000D03*
D17*
X131610000Y-128500000D03*
D18*
X123990000Y-128500000D03*
D15*
X172025000Y-105500000D03*
D16*
X174565000Y-105500000D03*
D19*
X254600000Y-114475000D03*
D18*
X254600000Y-111935000D03*
X254600000Y-109395000D03*
X254600000Y-106855000D03*
X254600000Y-104315000D03*
X254600000Y-101775000D03*
X254600000Y-99235000D03*
X254600000Y-96695000D03*
X254600000Y-94155000D03*
X254600000Y-91615000D03*
X254600000Y-89075000D03*
X254600000Y-86535000D03*
X246980000Y-86535000D03*
X246980000Y-89075000D03*
X246980000Y-91615000D03*
X246980000Y-94155000D03*
X246980000Y-96695000D03*
X246980000Y-99235000D03*
X246980000Y-101775000D03*
X246980000Y-104315000D03*
X246980000Y-106855000D03*
X246980000Y-109395000D03*
X246980000Y-111935000D03*
X246980000Y-114475000D03*
D17*
X132300000Y-98310000D03*
D18*
X132300000Y-90690000D03*
D20*
X163840000Y-105500000D03*
X158760000Y-105500000D03*
D25*
X117020000Y-69000000D03*
D26*
X128420000Y-69000000D03*
X120120000Y-69000000D03*
D15*
X68300000Y-116050000D03*
D16*
X68300000Y-113510000D03*
D19*
X101200000Y-48200000D03*
D18*
X98660000Y-48200000D03*
X96120000Y-48200000D03*
X93580000Y-48200000D03*
X91040000Y-48200000D03*
X88500000Y-48200000D03*
X85960000Y-48200000D03*
X83420000Y-48200000D03*
X83420000Y-55820000D03*
X85960000Y-55820000D03*
X88500000Y-55820000D03*
X91040000Y-55820000D03*
X93580000Y-55820000D03*
X96120000Y-55820000D03*
X98660000Y-55820000D03*
X101200000Y-55820000D03*
D17*
X135300000Y-126810000D03*
D18*
X135300000Y-119190000D03*
D15*
X88300000Y-84275000D03*
D16*
X88300000Y-81735000D03*
D15*
X222025000Y-68500000D03*
D16*
X224565000Y-68500000D03*
D17*
X132300000Y-132750000D03*
X132300000Y-135250000D03*
X76800000Y-54810000D03*
D18*
X76800000Y-47190000D03*
D15*
X184525000Y-117000000D03*
D16*
X187065000Y-117000000D03*
D21*
X115800000Y-52000000D03*
D22*
X116800000Y-52000000D03*
X117800000Y-52000000D03*
X118800000Y-52000000D03*
X119800000Y-52000000D03*
X120800000Y-52000000D03*
X121800000Y-52000000D03*
X122800000Y-52000000D03*
X123800000Y-52000000D03*
X124800000Y-52000000D03*
X125800000Y-52000000D03*
X126800000Y-52000000D03*
X127800000Y-52000000D03*
X128800000Y-52000000D03*
X129800000Y-52000000D03*
X130800000Y-52000000D03*
X131800000Y-52000000D03*
X132800000Y-52000000D03*
D24*
X46000000Y-84140000D03*
X55600000Y-84140000D03*
D15*
X48300000Y-91640000D03*
D16*
X50800000Y-91640000D03*
X53300000Y-91640000D03*
D15*
X172025000Y-117000000D03*
D16*
X174565000Y-117000000D03*
D19*
X63700000Y-129700000D03*
D18*
X61160000Y-129700000D03*
X58620000Y-129700000D03*
X56080000Y-129700000D03*
X53540000Y-129700000D03*
X51000000Y-129700000D03*
X48460000Y-129700000D03*
X45920000Y-129700000D03*
X45920000Y-137320000D03*
X48460000Y-137320000D03*
X51000000Y-137320000D03*
X53540000Y-137320000D03*
X56080000Y-137320000D03*
X58620000Y-137320000D03*
X61160000Y-137320000D03*
X63700000Y-137320000D03*
D25*
X117020000Y-105500000D03*
D26*
X128420000Y-105500000D03*
X120120000Y-105500000D03*
D15*
X209025000Y-129500000D03*
D16*
X211565000Y-129500000D03*
D15*
X88300000Y-100500000D03*
D16*
X88300000Y-97960000D03*
D25*
X117020000Y-94500000D03*
D26*
X128420000Y-94500000D03*
X120120000Y-94500000D03*
D24*
X55600000Y-115150000D03*
X46000000Y-115150000D03*
D15*
X48300000Y-122650000D03*
D16*
X50800000Y-122650000D03*
X53300000Y-122650000D03*
D20*
X141260000Y-99000000D03*
X146340000Y-99000000D03*
D15*
X222250000Y-93000000D03*
D16*
X224790000Y-93000000D03*
D15*
X196760000Y-105500000D03*
D16*
X199300000Y-105500000D03*
D20*
X141260000Y-86500000D03*
X146340000Y-86500000D03*
D23*
X172800000Y-52460000D03*
X172800000Y-57540000D03*
X185300000Y-52460000D03*
X185300000Y-57540000D03*
D15*
X234485000Y-105500000D03*
D16*
X237025000Y-105500000D03*
D15*
X184525000Y-129500000D03*
D16*
X187065000Y-129500000D03*
D17*
X107300000Y-137310000D03*
D18*
X107300000Y-129690000D03*
D17*
X135300000Y-130500000D03*
D18*
X135300000Y-138120000D03*
D15*
X171800000Y-93000000D03*
D16*
X174340000Y-93000000D03*
D15*
X68300000Y-84775000D03*
D16*
X68300000Y-82235000D03*
D15*
X234485000Y-117000000D03*
D16*
X237025000Y-117000000D03*
D20*
X163340000Y-80500000D03*
X158260000Y-80500000D03*
D15*
X196760000Y-68500000D03*
D16*
X199300000Y-68500000D03*
D17*
X132300000Y-123750000D03*
X132300000Y-121250000D03*
D15*
X209025000Y-105500000D03*
D16*
X211565000Y-105500000D03*
D15*
X171760000Y-68500000D03*
D16*
X174300000Y-68500000D03*
D23*
X235300000Y-51960000D03*
X235300000Y-57040000D03*
D15*
X184525000Y-105500000D03*
D16*
X187065000Y-105500000D03*
D24*
X63500000Y-84000000D03*
X73100000Y-84000000D03*
D15*
X65800000Y-91500000D03*
D16*
X68300000Y-91500000D03*
X70800000Y-91500000D03*
D15*
X104300000Y-68040000D03*
D16*
X104300000Y-65500000D03*
D15*
X234260000Y-68500000D03*
D16*
X236800000Y-68500000D03*
D24*
X109100000Y-99000000D03*
X99500000Y-99000000D03*
D15*
X101800000Y-106500000D03*
D16*
X104300000Y-106500000D03*
X106800000Y-106500000D03*
D24*
X109100000Y-67000000D03*
X99500000Y-67000000D03*
D15*
X101800000Y-74500000D03*
D16*
X104300000Y-74500000D03*
X106800000Y-74500000D03*
D20*
X163340000Y-93000000D03*
X158260000Y-93000000D03*
D24*
X83500000Y-67275000D03*
X93100000Y-67275000D03*
D15*
X85800000Y-74775000D03*
D16*
X88300000Y-74775000D03*
X90800000Y-74775000D03*
D15*
X222250000Y-81000000D03*
D16*
X224790000Y-81000000D03*
D20*
X163340000Y-68000000D03*
X158260000Y-68000000D03*
D25*
X117020000Y-80500000D03*
D26*
X128420000Y-80500000D03*
X120120000Y-80500000D03*
D24*
X109100000Y-115000000D03*
X99500000Y-115000000D03*
D15*
X101800000Y-122500000D03*
D16*
X104300000Y-122500000D03*
X106800000Y-122500000D03*
D15*
X184260000Y-68500000D03*
D16*
X186800000Y-68500000D03*
D20*
X141260000Y-73900000D03*
X146340000Y-73900000D03*
D15*
X222250000Y-117000000D03*
D16*
X224790000Y-117000000D03*
D15*
X222250000Y-105500000D03*
D16*
X224790000Y-105500000D03*
D24*
X93100000Y-83275000D03*
X83500000Y-83275000D03*
D15*
X85800000Y-90775000D03*
D16*
X88300000Y-90775000D03*
X90800000Y-90775000D03*
D15*
X196760000Y-81000000D03*
D16*
X199300000Y-81000000D03*
D15*
X104300000Y-100000000D03*
D16*
X104300000Y-97460000D03*
D23*
X222800000Y-51960000D03*
X222800000Y-57040000D03*
D17*
X128110000Y-124000000D03*
D18*
X120490000Y-124000000D03*
D24*
X83500000Y-115000000D03*
X93100000Y-115000000D03*
D15*
X85800000Y-122500000D03*
D16*
X88300000Y-122500000D03*
X90800000Y-122500000D03*
D17*
X132300000Y-109810000D03*
D18*
X132300000Y-102190000D03*
D15*
X209025000Y-68500000D03*
D16*
X211565000Y-68500000D03*
D24*
X46000000Y-99650000D03*
X55600000Y-99650000D03*
D15*
X48300000Y-107150000D03*
D16*
X50800000Y-107150000D03*
X53300000Y-107150000D03*
D15*
X171800000Y-129500000D03*
D16*
X174340000Y-129500000D03*
M02*
