M48
; DRILL file {KiCad 6.0.5-2.fc35} date Mi 06 Jul 2022 14:43:52 CEST
; FORMAT={-:-/ absolute / metric / decimal}
; #@! TF.CreationDate,2022-07-06T14:43:52+02:00
; #@! TF.GenerationSoftware,Kicad,Pcbnew,6.0.5-2.fc35
; #@! TF.FileFunction,Plated,1,2,PTH
FMAT,2
METRIC
; #@! TA.AperFunction,Plated,PTH,ViaDrill
T1C0.400
; #@! TA.AperFunction,Plated,PTH,ComponentDrill
T2C0.500
; #@! TA.AperFunction,Plated,PTH,ComponentDrill
T3C0.800
; #@! TA.AperFunction,Plated,PTH,ComponentDrill
T4C0.900
; #@! TA.AperFunction,Plated,PTH,ComponentDrill
T5C1.000
; #@! TA.AperFunction,Plated,PTH,ComponentDrill
T6C1.100
; #@! TA.AperFunction,Plated,PTH,ComponentDrill
T7C1.220
; #@! TA.AperFunction,Plated,PTH,ComponentDrill
T8C1.420
; #@! TA.AperFunction,Plated,PTH,ComponentDrill
T9C1.430
%
G90
G05
T1
X39.878Y-125.0
X40.3Y-104.5
X40.3Y-104.5
X59.745Y-125.125
X96.8Y-60.5
X97.8Y-59.04
X108.3Y-123.56
X109.296Y-123.477
X110.3Y-123.5
X110.3Y-129.5
X110.3Y-134.0
X112.3Y-129.5
X136.3Y-109.5
T2
X115.8Y-52.0
X115.8Y-132.5
X116.8Y-52.0
X116.8Y-132.5
X117.8Y-52.0
X117.8Y-132.5
X118.8Y-52.0
X118.8Y-132.5
X119.8Y-52.0
X119.8Y-132.5
X120.8Y-52.0
X120.8Y-132.5
X121.8Y-52.0
X121.8Y-132.5
X122.8Y-52.0
X122.8Y-132.5
X123.8Y-52.0
X123.8Y-132.5
X124.8Y-52.0
X124.8Y-132.5
X125.8Y-52.0
X125.8Y-132.5
X126.8Y-52.0
X126.8Y-132.5
X127.8Y-52.0
X127.8Y-132.5
X128.8Y-52.0
X129.8Y-52.0
X130.8Y-52.0
X131.8Y-52.0
X132.8Y-52.0
T3
X45.92Y-48.7
X45.92Y-56.32
X45.92Y-129.7
X45.92Y-137.32
X48.46Y-48.7
X48.46Y-56.32
X48.46Y-129.7
X48.46Y-137.32
X51.0Y-48.7
X51.0Y-56.32
X51.0Y-129.7
X51.0Y-137.32
X53.54Y-48.7
X53.54Y-56.32
X53.54Y-129.7
X53.54Y-137.32
X56.08Y-48.7
X56.08Y-56.32
X56.08Y-129.7
X56.08Y-137.32
X58.62Y-48.7
X58.62Y-56.32
X58.62Y-129.7
X58.62Y-137.32
X61.16Y-48.7
X61.16Y-56.32
X61.16Y-129.7
X61.16Y-137.32
X63.7Y-48.7
X63.7Y-56.32
X63.7Y-129.7
X63.7Y-137.32
X69.8Y-129.69
X69.8Y-137.31
X70.3Y-47.19
X70.3Y-54.81
X76.8Y-47.19
X76.8Y-54.81
X83.42Y-48.2
X83.42Y-55.82
X83.42Y-129.7
X83.42Y-137.32
X85.96Y-48.2
X85.96Y-55.82
X85.96Y-129.7
X85.96Y-137.32
X88.5Y-48.2
X88.5Y-55.82
X88.5Y-129.7
X88.5Y-137.32
X91.04Y-48.2
X91.04Y-55.82
X91.04Y-129.7
X91.04Y-137.32
X93.58Y-48.2
X93.58Y-55.82
X93.58Y-129.7
X93.58Y-137.32
X96.12Y-48.2
X96.12Y-55.82
X96.12Y-129.7
X96.12Y-137.32
X98.66Y-48.2
X98.66Y-55.82
X98.66Y-129.7
X98.66Y-137.32
X101.2Y-48.2
X101.2Y-55.82
X101.2Y-129.7
X101.2Y-137.32
X107.3Y-129.69
X107.3Y-137.31
X120.49Y-124.0
X123.99Y-128.5
X128.11Y-124.0
X131.61Y-128.5
X132.3Y-90.69
X132.3Y-98.31
X132.3Y-102.19
X132.3Y-109.81
X132.3Y-121.25
X132.3Y-123.75
X132.3Y-132.75
X132.3Y-135.25
X135.3Y-119.19
X135.3Y-126.81
X135.3Y-130.5
X135.3Y-138.12
X139.98Y-122.385
X139.98Y-124.925
X139.98Y-127.465
X139.98Y-130.005
X139.98Y-132.545
X139.98Y-135.085
X139.98Y-137.625
X147.6Y-122.385
X147.6Y-124.925
X147.6Y-127.465
X147.6Y-130.005
X147.6Y-132.545
X147.6Y-135.085
X147.6Y-137.625
X246.98Y-86.535
X246.98Y-89.075
X246.98Y-91.615
X246.98Y-94.155
X246.98Y-96.695
X246.98Y-99.235
X246.98Y-101.775
X246.98Y-104.315
X246.98Y-106.855
X246.98Y-109.395
X246.98Y-111.935
X246.98Y-114.475
X254.6Y-86.535
X254.6Y-89.075
X254.6Y-91.615
X254.6Y-94.155
X254.6Y-96.695
X254.6Y-99.235
X254.6Y-101.775
X254.6Y-104.315
X254.6Y-106.855
X254.6Y-109.395
X254.6Y-111.935
X254.6Y-114.475
T4
X50.8Y-66.385
X50.8Y-68.925
X50.8Y-82.235
X50.8Y-84.775
X50.8Y-97.96
X50.8Y-100.5
X50.8Y-113.235
X50.8Y-115.775
X68.3Y-66.235
X68.3Y-68.775
X68.3Y-82.235
X68.3Y-84.775
X68.3Y-97.735
X68.3Y-100.275
X68.3Y-113.51
X68.3Y-116.05
X88.3Y-66.01
X88.3Y-68.55
X88.3Y-81.735
X88.3Y-84.275
X88.3Y-97.96
X88.3Y-100.5
X88.3Y-113.735
X88.3Y-116.275
X104.3Y-65.5
X104.3Y-68.04
X104.3Y-81.235
X104.3Y-83.775
X104.3Y-97.46
X104.3Y-100.0
X104.3Y-113.735
X104.3Y-116.275
X171.76Y-68.5
X171.8Y-93.0
X171.8Y-129.5
X172.025Y-81.0
X172.025Y-105.5
X172.025Y-117.0
X174.3Y-68.5
X174.34Y-93.0
X174.34Y-129.5
X174.565Y-81.0
X174.565Y-105.5
X174.565Y-117.0
X184.26Y-68.5
X184.525Y-81.0
X184.525Y-93.0
X184.525Y-105.5
X184.525Y-117.0
X184.525Y-129.5
X186.8Y-68.5
X187.065Y-81.0
X187.065Y-93.0
X187.065Y-105.5
X187.065Y-117.0
X187.065Y-129.5
X196.76Y-68.5
X196.76Y-81.0
X196.76Y-93.0
X196.76Y-105.5
X196.76Y-117.0
X196.76Y-129.5
X199.3Y-68.5
X199.3Y-81.0
X199.3Y-93.0
X199.3Y-105.5
X199.3Y-117.0
X199.3Y-129.5
X208.8Y-81.0
X209.025Y-68.5
X209.025Y-93.0
X209.025Y-105.5
X209.025Y-117.0
X209.025Y-129.5
X211.34Y-81.0
X211.565Y-68.5
X211.565Y-93.0
X211.565Y-105.5
X211.565Y-117.0
X211.565Y-129.5
X222.025Y-68.5
X222.25Y-81.0
X222.25Y-93.0
X222.25Y-105.5
X222.25Y-117.0
X222.25Y-129.5
X224.565Y-68.5
X224.79Y-81.0
X224.79Y-93.0
X224.79Y-105.5
X224.79Y-117.0
X224.79Y-129.5
X234.26Y-68.5
X234.485Y-81.0
X234.485Y-93.0
X234.485Y-105.5
X234.485Y-117.0
X234.485Y-129.5
X236.8Y-68.5
X237.025Y-81.0
X237.025Y-93.0
X237.025Y-105.5
X237.025Y-117.0
X237.025Y-129.5
T5
X48.3Y-75.61
X48.3Y-91.64
X48.3Y-107.15
X48.3Y-122.65
X50.8Y-75.61
X50.8Y-91.64
X50.8Y-107.15
X50.8Y-122.65
X53.3Y-75.61
X53.3Y-91.64
X53.3Y-107.15
X53.3Y-122.65
X65.8Y-75.5
X65.8Y-91.5
X65.8Y-107.0
X65.8Y-122.5
X68.3Y-75.5
X68.3Y-91.5
X68.3Y-107.0
X68.3Y-122.5
X70.8Y-75.5
X70.8Y-91.5
X70.8Y-107.0
X70.8Y-122.5
X85.8Y-74.775
X85.8Y-90.775
X85.8Y-106.775
X85.8Y-122.5
X88.3Y-74.775
X88.3Y-90.775
X88.3Y-106.775
X88.3Y-122.5
X90.8Y-74.775
X90.8Y-90.775
X90.8Y-106.775
X90.8Y-122.5
X101.8Y-74.5
X101.8Y-90.275
X101.8Y-106.5
X101.8Y-122.5
X104.3Y-74.5
X104.3Y-90.275
X104.3Y-106.5
X104.3Y-122.5
X106.8Y-74.5
X106.8Y-90.275
X106.8Y-106.5
X106.8Y-122.5
T7
X117.02Y-69.0
X117.02Y-80.5
X117.02Y-94.5
X117.02Y-105.5
X117.02Y-116.5
T8
X120.12Y-69.0
X120.12Y-80.5
X120.12Y-94.5
X120.12Y-105.5
X120.12Y-116.5
T9
X128.42Y-69.0
X128.42Y-80.5
X128.42Y-94.5
X128.42Y-105.5
X128.42Y-116.5
T5
X141.26Y-74.4G85X141.26Y-73.4
G05
X141.26Y-87.0G85X141.26Y-86.0
G05
X141.26Y-99.5G85X141.26Y-98.5
G05
X141.26Y-112.0G85X141.26Y-111.0
G05
X146.34Y-74.4G85X146.34Y-73.4
G05
X146.34Y-87.0G85X146.34Y-86.0
G05
X146.34Y-99.5G85X146.34Y-98.5
G05
X146.34Y-112.0G85X146.34Y-111.0
G05
X158.26Y-67.5G85X158.26Y-68.5
G05
X158.26Y-80.0G85X158.26Y-81.0
G05
X158.26Y-92.5G85X158.26Y-93.5
G05
X158.76Y-105.0G85X158.76Y-106.0
G05
X158.76Y-117.5G85X158.76Y-118.5
G05
X158.76Y-130.0G85X158.76Y-131.0
G05
X163.34Y-67.5G85X163.34Y-68.5
G05
X163.34Y-80.0G85X163.34Y-81.0
G05
X163.34Y-92.5G85X163.34Y-93.5
G05
X163.84Y-105.0G85X163.84Y-106.0
G05
X163.84Y-117.5G85X163.84Y-118.5
G05
X163.84Y-130.0G85X163.84Y-131.0
G05
X172.3Y-52.46G85X173.3Y-52.46
G05
X172.3Y-57.54G85X173.3Y-57.54
G05
X184.8Y-52.46G85X185.8Y-52.46
G05
X184.8Y-57.54G85X185.8Y-57.54
G05
X197.3Y-52.46G85X198.3Y-52.46
G05
X197.3Y-57.54G85X198.3Y-57.54
G05
X209.8Y-51.96G85X210.8Y-51.96
G05
X209.8Y-57.04G85X210.8Y-57.04
G05
X222.3Y-51.96G85X223.3Y-51.96
G05
X222.3Y-57.04G85X223.3Y-57.04
G05
X234.8Y-51.96G85X235.8Y-51.96
G05
X234.8Y-57.04G85X235.8Y-57.04
G05
T6
X46.0Y-68.46G85X46.0Y-67.76
G05
X46.0Y-84.49G85X46.0Y-83.79
G05
X46.0Y-100.0G85X46.0Y-99.3
G05
X46.0Y-115.5G85X46.0Y-114.8
G05
X55.6Y-68.46G85X55.6Y-67.76
G05
X55.6Y-84.49G85X55.6Y-83.79
G05
X55.6Y-100.0G85X55.6Y-99.3
G05
X55.6Y-115.5G85X55.6Y-114.8
G05
X63.5Y-68.35G85X63.5Y-67.65
G05
X63.5Y-84.35G85X63.5Y-83.65
G05
X63.5Y-99.85G85X63.5Y-99.15
G05
X63.5Y-115.35G85X63.5Y-114.65
G05
X73.1Y-68.35G85X73.1Y-67.65
G05
X73.1Y-84.35G85X73.1Y-83.65
G05
X73.1Y-99.85G85X73.1Y-99.15
G05
X73.1Y-115.35G85X73.1Y-114.65
G05
X83.5Y-67.625G85X83.5Y-66.925
G05
X83.5Y-83.625G85X83.5Y-82.925
G05
X83.5Y-99.625G85X83.5Y-98.925
G05
X83.5Y-115.35G85X83.5Y-114.65
G05
X93.1Y-67.625G85X93.1Y-66.925
G05
X93.1Y-83.625G85X93.1Y-82.925
G05
X93.1Y-99.625G85X93.1Y-98.925
G05
X93.1Y-115.35G85X93.1Y-114.65
G05
X99.5Y-67.35G85X99.5Y-66.65
G05
X99.5Y-83.125G85X99.5Y-82.425
G05
X99.5Y-99.35G85X99.5Y-98.65
G05
X99.5Y-115.35G85X99.5Y-114.65
G05
X109.1Y-67.35G85X109.1Y-66.65
G05
X109.1Y-83.125G85X109.1Y-82.425
G05
X109.1Y-99.35G85X109.1Y-98.65
G05
X109.1Y-115.35G85X109.1Y-114.65
G05
T0
M30
