G04 #@! TF.GenerationSoftware,KiCad,Pcbnew,6.0.5-2.fc35*
G04 #@! TF.CreationDate,2022-07-06T14:43:39+02:00*
G04 #@! TF.ProjectId,front,66726f6e-742e-46b6-9963-61645f706362,rev?*
G04 #@! TF.SameCoordinates,Original*
G04 #@! TF.FileFunction,Soldermask,Top*
G04 #@! TF.FilePolarity,Negative*
%FSLAX46Y46*%
G04 Gerber Fmt 4.6, Leading zero omitted, Abs format (unit mm)*
G04 Created by KiCad (PCBNEW 6.0.5-2.fc35) date 2022-07-06 14:43:39*
%MOMM*%
%LPD*%
G01*
G04 APERTURE LIST*
%ADD10R,1.800000X1.800000*%
%ADD11C,1.800000*%
%ADD12C,1.600000*%
%ADD13O,1.600000X1.600000*%
%ADD14R,1.600000X1.600000*%
%ADD15O,2.000000X3.000000*%
%ADD16R,0.850000X0.850000*%
%ADD17O,0.850000X0.850000*%
%ADD18O,3.000000X2.000000*%
%ADD19O,2.720000X3.240000*%
%ADD20R,1.830000X1.930000*%
%ADD21C,2.130000*%
G04 APERTURE END LIST*
D10*
X184525000Y-81000000D03*
D11*
X187065000Y-81000000D03*
D12*
X69800000Y-137310000D03*
D13*
X69800000Y-129690000D03*
D14*
X63700000Y-48700000D03*
D13*
X61160000Y-48700000D03*
X58620000Y-48700000D03*
X56080000Y-48700000D03*
X53540000Y-48700000D03*
X51000000Y-48700000D03*
X48460000Y-48700000D03*
X45920000Y-48700000D03*
X45920000Y-56320000D03*
X48460000Y-56320000D03*
X51000000Y-56320000D03*
X53540000Y-56320000D03*
X56080000Y-56320000D03*
X58620000Y-56320000D03*
X61160000Y-56320000D03*
X63700000Y-56320000D03*
D10*
X208800000Y-81000000D03*
D11*
X211340000Y-81000000D03*
D15*
X141260000Y-111500000D03*
X146340000Y-111500000D03*
D12*
X70300000Y-54810000D03*
D13*
X70300000Y-47190000D03*
D10*
X50800000Y-68925000D03*
D11*
X50800000Y-66385000D03*
D10*
X234485000Y-81000000D03*
D11*
X237025000Y-81000000D03*
D16*
X115800000Y-132500000D03*
D17*
X116800000Y-132500000D03*
X117800000Y-132500000D03*
X118800000Y-132500000D03*
X119800000Y-132500000D03*
X120800000Y-132500000D03*
X121800000Y-132500000D03*
X122800000Y-132500000D03*
X123800000Y-132500000D03*
X124800000Y-132500000D03*
X125800000Y-132500000D03*
X126800000Y-132500000D03*
X127800000Y-132500000D03*
D10*
X50800000Y-100500000D03*
D11*
X50800000Y-97960000D03*
D14*
X147600000Y-137625000D03*
D13*
X147600000Y-135085000D03*
X147600000Y-132545000D03*
X147600000Y-130005000D03*
X147600000Y-127465000D03*
X147600000Y-124925000D03*
X147600000Y-122385000D03*
X139980000Y-122385000D03*
X139980000Y-124925000D03*
X139980000Y-127465000D03*
X139980000Y-130005000D03*
X139980000Y-132545000D03*
X139980000Y-135085000D03*
X139980000Y-137625000D03*
D10*
X172025000Y-81000000D03*
D11*
X174565000Y-81000000D03*
D10*
X68300000Y-68775000D03*
D11*
X68300000Y-66235000D03*
D18*
X197800000Y-52460000D03*
X197800000Y-57540000D03*
D19*
X99500000Y-82775000D03*
X109100000Y-82775000D03*
D10*
X101800000Y-90275000D03*
D11*
X104300000Y-90275000D03*
X106800000Y-90275000D03*
D19*
X63500000Y-99500000D03*
X73100000Y-99500000D03*
D10*
X65800000Y-107000000D03*
D11*
X68300000Y-107000000D03*
X70800000Y-107000000D03*
D10*
X196760000Y-117000000D03*
D11*
X199300000Y-117000000D03*
D10*
X234485000Y-93000000D03*
D11*
X237025000Y-93000000D03*
D10*
X209025000Y-93000000D03*
D11*
X211565000Y-93000000D03*
D10*
X104300000Y-83775000D03*
D11*
X104300000Y-81235000D03*
D19*
X93100000Y-99275000D03*
X83500000Y-99275000D03*
D10*
X85800000Y-106775000D03*
D11*
X88300000Y-106775000D03*
X90800000Y-106775000D03*
D10*
X104300000Y-116275000D03*
D11*
X104300000Y-113735000D03*
D19*
X63500000Y-115000000D03*
X73100000Y-115000000D03*
D10*
X65800000Y-122500000D03*
D11*
X68300000Y-122500000D03*
X70800000Y-122500000D03*
D15*
X163840000Y-118000000D03*
X158760000Y-118000000D03*
D10*
X196760000Y-129500000D03*
D11*
X199300000Y-129500000D03*
D10*
X50800000Y-84775000D03*
D11*
X50800000Y-82235000D03*
D10*
X222250000Y-129500000D03*
D11*
X224790000Y-129500000D03*
D19*
X73100000Y-68000000D03*
X63500000Y-68000000D03*
D10*
X65800000Y-75500000D03*
D11*
X68300000Y-75500000D03*
X70800000Y-75500000D03*
D10*
X88300000Y-68550000D03*
D11*
X88300000Y-66010000D03*
D14*
X101200000Y-129700000D03*
D13*
X98660000Y-129700000D03*
X96120000Y-129700000D03*
X93580000Y-129700000D03*
X91040000Y-129700000D03*
X88500000Y-129700000D03*
X85960000Y-129700000D03*
X83420000Y-129700000D03*
X83420000Y-137320000D03*
X85960000Y-137320000D03*
X88500000Y-137320000D03*
X91040000Y-137320000D03*
X93580000Y-137320000D03*
X96120000Y-137320000D03*
X98660000Y-137320000D03*
X101200000Y-137320000D03*
D10*
X234485000Y-129500000D03*
D11*
X237025000Y-129500000D03*
D10*
X50800000Y-115775000D03*
D11*
X50800000Y-113235000D03*
D10*
X184525000Y-93000000D03*
D11*
X187065000Y-93000000D03*
D10*
X209025000Y-117000000D03*
D11*
X211565000Y-117000000D03*
D19*
X46000000Y-68110000D03*
X55600000Y-68110000D03*
D10*
X48300000Y-75610000D03*
D11*
X50800000Y-75610000D03*
X53300000Y-75610000D03*
D18*
X210300000Y-51960000D03*
X210300000Y-57040000D03*
D15*
X163840000Y-130500000D03*
X158760000Y-130500000D03*
D10*
X68300000Y-100275000D03*
D11*
X68300000Y-97735000D03*
D10*
X196760000Y-93000000D03*
D11*
X199300000Y-93000000D03*
D20*
X117020000Y-116500000D03*
D21*
X128420000Y-116500000D03*
X120120000Y-116500000D03*
D10*
X88300000Y-116275000D03*
D11*
X88300000Y-113735000D03*
D12*
X131610000Y-128500000D03*
D13*
X123990000Y-128500000D03*
D10*
X172025000Y-105500000D03*
D11*
X174565000Y-105500000D03*
D14*
X254600000Y-114475000D03*
D13*
X254600000Y-111935000D03*
X254600000Y-109395000D03*
X254600000Y-106855000D03*
X254600000Y-104315000D03*
X254600000Y-101775000D03*
X254600000Y-99235000D03*
X254600000Y-96695000D03*
X254600000Y-94155000D03*
X254600000Y-91615000D03*
X254600000Y-89075000D03*
X254600000Y-86535000D03*
X246980000Y-86535000D03*
X246980000Y-89075000D03*
X246980000Y-91615000D03*
X246980000Y-94155000D03*
X246980000Y-96695000D03*
X246980000Y-99235000D03*
X246980000Y-101775000D03*
X246980000Y-104315000D03*
X246980000Y-106855000D03*
X246980000Y-109395000D03*
X246980000Y-111935000D03*
X246980000Y-114475000D03*
D12*
X132300000Y-98310000D03*
D13*
X132300000Y-90690000D03*
D15*
X163840000Y-105500000D03*
X158760000Y-105500000D03*
D20*
X117020000Y-69000000D03*
D21*
X128420000Y-69000000D03*
X120120000Y-69000000D03*
D10*
X68300000Y-116050000D03*
D11*
X68300000Y-113510000D03*
D14*
X101200000Y-48200000D03*
D13*
X98660000Y-48200000D03*
X96120000Y-48200000D03*
X93580000Y-48200000D03*
X91040000Y-48200000D03*
X88500000Y-48200000D03*
X85960000Y-48200000D03*
X83420000Y-48200000D03*
X83420000Y-55820000D03*
X85960000Y-55820000D03*
X88500000Y-55820000D03*
X91040000Y-55820000D03*
X93580000Y-55820000D03*
X96120000Y-55820000D03*
X98660000Y-55820000D03*
X101200000Y-55820000D03*
D12*
X135300000Y-126810000D03*
D13*
X135300000Y-119190000D03*
D10*
X88300000Y-84275000D03*
D11*
X88300000Y-81735000D03*
D10*
X222025000Y-68500000D03*
D11*
X224565000Y-68500000D03*
D12*
X132300000Y-132750000D03*
X132300000Y-135250000D03*
X76800000Y-54810000D03*
D13*
X76800000Y-47190000D03*
D10*
X184525000Y-117000000D03*
D11*
X187065000Y-117000000D03*
D16*
X115800000Y-52000000D03*
D17*
X116800000Y-52000000D03*
X117800000Y-52000000D03*
X118800000Y-52000000D03*
X119800000Y-52000000D03*
X120800000Y-52000000D03*
X121800000Y-52000000D03*
X122800000Y-52000000D03*
X123800000Y-52000000D03*
X124800000Y-52000000D03*
X125800000Y-52000000D03*
X126800000Y-52000000D03*
X127800000Y-52000000D03*
X128800000Y-52000000D03*
X129800000Y-52000000D03*
X130800000Y-52000000D03*
X131800000Y-52000000D03*
X132800000Y-52000000D03*
D19*
X46000000Y-84140000D03*
X55600000Y-84140000D03*
D10*
X48300000Y-91640000D03*
D11*
X50800000Y-91640000D03*
X53300000Y-91640000D03*
D10*
X172025000Y-117000000D03*
D11*
X174565000Y-117000000D03*
D14*
X63700000Y-129700000D03*
D13*
X61160000Y-129700000D03*
X58620000Y-129700000D03*
X56080000Y-129700000D03*
X53540000Y-129700000D03*
X51000000Y-129700000D03*
X48460000Y-129700000D03*
X45920000Y-129700000D03*
X45920000Y-137320000D03*
X48460000Y-137320000D03*
X51000000Y-137320000D03*
X53540000Y-137320000D03*
X56080000Y-137320000D03*
X58620000Y-137320000D03*
X61160000Y-137320000D03*
X63700000Y-137320000D03*
D20*
X117020000Y-105500000D03*
D21*
X128420000Y-105500000D03*
X120120000Y-105500000D03*
D10*
X209025000Y-129500000D03*
D11*
X211565000Y-129500000D03*
D10*
X88300000Y-100500000D03*
D11*
X88300000Y-97960000D03*
D20*
X117020000Y-94500000D03*
D21*
X128420000Y-94500000D03*
X120120000Y-94500000D03*
D19*
X55600000Y-115150000D03*
X46000000Y-115150000D03*
D10*
X48300000Y-122650000D03*
D11*
X50800000Y-122650000D03*
X53300000Y-122650000D03*
D15*
X141260000Y-99000000D03*
X146340000Y-99000000D03*
D10*
X222250000Y-93000000D03*
D11*
X224790000Y-93000000D03*
D10*
X196760000Y-105500000D03*
D11*
X199300000Y-105500000D03*
D15*
X141260000Y-86500000D03*
X146340000Y-86500000D03*
D18*
X172800000Y-52460000D03*
X172800000Y-57540000D03*
X185300000Y-52460000D03*
X185300000Y-57540000D03*
D10*
X234485000Y-105500000D03*
D11*
X237025000Y-105500000D03*
D10*
X184525000Y-129500000D03*
D11*
X187065000Y-129500000D03*
D12*
X107300000Y-137310000D03*
D13*
X107300000Y-129690000D03*
D12*
X135300000Y-130500000D03*
D13*
X135300000Y-138120000D03*
D10*
X171800000Y-93000000D03*
D11*
X174340000Y-93000000D03*
D10*
X68300000Y-84775000D03*
D11*
X68300000Y-82235000D03*
D10*
X234485000Y-117000000D03*
D11*
X237025000Y-117000000D03*
D15*
X163340000Y-80500000D03*
X158260000Y-80500000D03*
D10*
X196760000Y-68500000D03*
D11*
X199300000Y-68500000D03*
D12*
X132300000Y-123750000D03*
X132300000Y-121250000D03*
D10*
X209025000Y-105500000D03*
D11*
X211565000Y-105500000D03*
D10*
X171760000Y-68500000D03*
D11*
X174300000Y-68500000D03*
D18*
X235300000Y-51960000D03*
X235300000Y-57040000D03*
D10*
X184525000Y-105500000D03*
D11*
X187065000Y-105500000D03*
D19*
X63500000Y-84000000D03*
X73100000Y-84000000D03*
D10*
X65800000Y-91500000D03*
D11*
X68300000Y-91500000D03*
X70800000Y-91500000D03*
D10*
X104300000Y-68040000D03*
D11*
X104300000Y-65500000D03*
D10*
X234260000Y-68500000D03*
D11*
X236800000Y-68500000D03*
D19*
X109100000Y-99000000D03*
X99500000Y-99000000D03*
D10*
X101800000Y-106500000D03*
D11*
X104300000Y-106500000D03*
X106800000Y-106500000D03*
D19*
X109100000Y-67000000D03*
X99500000Y-67000000D03*
D10*
X101800000Y-74500000D03*
D11*
X104300000Y-74500000D03*
X106800000Y-74500000D03*
D15*
X163340000Y-93000000D03*
X158260000Y-93000000D03*
D19*
X83500000Y-67275000D03*
X93100000Y-67275000D03*
D10*
X85800000Y-74775000D03*
D11*
X88300000Y-74775000D03*
X90800000Y-74775000D03*
D10*
X222250000Y-81000000D03*
D11*
X224790000Y-81000000D03*
D15*
X163340000Y-68000000D03*
X158260000Y-68000000D03*
D20*
X117020000Y-80500000D03*
D21*
X128420000Y-80500000D03*
X120120000Y-80500000D03*
D19*
X109100000Y-115000000D03*
X99500000Y-115000000D03*
D10*
X101800000Y-122500000D03*
D11*
X104300000Y-122500000D03*
X106800000Y-122500000D03*
D10*
X184260000Y-68500000D03*
D11*
X186800000Y-68500000D03*
D15*
X141260000Y-73900000D03*
X146340000Y-73900000D03*
D10*
X222250000Y-117000000D03*
D11*
X224790000Y-117000000D03*
D10*
X222250000Y-105500000D03*
D11*
X224790000Y-105500000D03*
D19*
X93100000Y-83275000D03*
X83500000Y-83275000D03*
D10*
X85800000Y-90775000D03*
D11*
X88300000Y-90775000D03*
X90800000Y-90775000D03*
D10*
X196760000Y-81000000D03*
D11*
X199300000Y-81000000D03*
D10*
X104300000Y-100000000D03*
D11*
X104300000Y-97460000D03*
D18*
X222800000Y-51960000D03*
X222800000Y-57040000D03*
D12*
X128110000Y-124000000D03*
D13*
X120490000Y-124000000D03*
D19*
X83500000Y-115000000D03*
X93100000Y-115000000D03*
D10*
X85800000Y-122500000D03*
D11*
X88300000Y-122500000D03*
X90800000Y-122500000D03*
D12*
X132300000Y-109810000D03*
D13*
X132300000Y-102190000D03*
D10*
X209025000Y-68500000D03*
D11*
X211565000Y-68500000D03*
D19*
X46000000Y-99650000D03*
X55600000Y-99650000D03*
D10*
X48300000Y-107150000D03*
D11*
X50800000Y-107150000D03*
X53300000Y-107150000D03*
D10*
X171800000Y-129500000D03*
D11*
X174340000Y-129500000D03*
M02*
