G04 #@! TF.GenerationSoftware,KiCad,Pcbnew,6.0.5-2.fc35*
G04 #@! TF.CreationDate,2022-07-06T13:12:01+02:00*
G04 #@! TF.ProjectId,front,66726f6e-742e-46b6-9963-61645f706362,rev?*
G04 #@! TF.SameCoordinates,Original*
G04 #@! TF.FileFunction,Soldermask,Bot*
G04 #@! TF.FilePolarity,Negative*
%FSLAX46Y46*%
G04 Gerber Fmt 4.6, Leading zero omitted, Abs format (unit mm)*
G04 Created by KiCad (PCBNEW 6.0.5-2.fc35) date 2022-07-06 13:12:01*
%MOMM*%
%LPD*%
G01*
G04 APERTURE LIST*
%ADD10R,1.800000X1.800000*%
%ADD11C,1.800000*%
%ADD12C,1.600000*%
%ADD13O,1.600000X1.600000*%
%ADD14R,1.600000X1.600000*%
%ADD15O,2.000000X3.000000*%
%ADD16R,0.850000X0.850000*%
%ADD17O,0.850000X0.850000*%
%ADD18O,3.000000X2.000000*%
%ADD19O,2.720000X3.240000*%
%ADD20R,1.830000X1.930000*%
%ADD21C,2.130000*%
G04 APERTURE END LIST*
D10*
X178225000Y-79500000D03*
D11*
X180765000Y-79500000D03*
D12*
X63500000Y-135810000D03*
D13*
X63500000Y-128190000D03*
D14*
X57400000Y-47200000D03*
D13*
X54860000Y-47200000D03*
X52320000Y-47200000D03*
X49780000Y-47200000D03*
X47240000Y-47200000D03*
X44700000Y-47200000D03*
X42160000Y-47200000D03*
X39620000Y-47200000D03*
X39620000Y-54820000D03*
X42160000Y-54820000D03*
X44700000Y-54820000D03*
X47240000Y-54820000D03*
X49780000Y-54820000D03*
X52320000Y-54820000D03*
X54860000Y-54820000D03*
X57400000Y-54820000D03*
D10*
X202500000Y-79500000D03*
D11*
X205040000Y-79500000D03*
D15*
X134960000Y-110000000D03*
X140040000Y-110000000D03*
D12*
X64000000Y-53310000D03*
D13*
X64000000Y-45690000D03*
D10*
X44500000Y-67425000D03*
D11*
X44500000Y-64885000D03*
D10*
X228185000Y-79500000D03*
D11*
X230725000Y-79500000D03*
D16*
X109500000Y-131000000D03*
D17*
X110500000Y-131000000D03*
X111500000Y-131000000D03*
X112500000Y-131000000D03*
X113500000Y-131000000D03*
X114500000Y-131000000D03*
X115500000Y-131000000D03*
X116500000Y-131000000D03*
X117500000Y-131000000D03*
X118500000Y-131000000D03*
X119500000Y-131000000D03*
X120500000Y-131000000D03*
X121500000Y-131000000D03*
D10*
X44500000Y-99000000D03*
D11*
X44500000Y-96460000D03*
D14*
X141300000Y-136125000D03*
D13*
X141300000Y-133585000D03*
X141300000Y-131045000D03*
X141300000Y-128505000D03*
X141300000Y-125965000D03*
X141300000Y-123425000D03*
X141300000Y-120885000D03*
X133680000Y-120885000D03*
X133680000Y-123425000D03*
X133680000Y-125965000D03*
X133680000Y-128505000D03*
X133680000Y-131045000D03*
X133680000Y-133585000D03*
X133680000Y-136125000D03*
D10*
X165725000Y-79500000D03*
D11*
X168265000Y-79500000D03*
D10*
X62000000Y-67275000D03*
D11*
X62000000Y-64735000D03*
D18*
X191500000Y-50960000D03*
X191500000Y-56040000D03*
D19*
X93200000Y-81275000D03*
X102800000Y-81275000D03*
D10*
X95500000Y-88775000D03*
D11*
X98000000Y-88775000D03*
X100500000Y-88775000D03*
D19*
X57200000Y-98000000D03*
X66800000Y-98000000D03*
D10*
X59500000Y-105500000D03*
D11*
X62000000Y-105500000D03*
X64500000Y-105500000D03*
D10*
X190460000Y-115500000D03*
D11*
X193000000Y-115500000D03*
D10*
X228185000Y-91500000D03*
D11*
X230725000Y-91500000D03*
D10*
X202725000Y-91500000D03*
D11*
X205265000Y-91500000D03*
D10*
X98000000Y-82275000D03*
D11*
X98000000Y-79735000D03*
D19*
X86800000Y-97775000D03*
X77200000Y-97775000D03*
D10*
X79500000Y-105275000D03*
D11*
X82000000Y-105275000D03*
X84500000Y-105275000D03*
D10*
X98000000Y-114775000D03*
D11*
X98000000Y-112235000D03*
D19*
X57200000Y-113500000D03*
X66800000Y-113500000D03*
D10*
X59500000Y-121000000D03*
D11*
X62000000Y-121000000D03*
X64500000Y-121000000D03*
D15*
X157540000Y-116500000D03*
X152460000Y-116500000D03*
D10*
X190460000Y-128000000D03*
D11*
X193000000Y-128000000D03*
D10*
X44500000Y-83275000D03*
D11*
X44500000Y-80735000D03*
D10*
X215950000Y-128000000D03*
D11*
X218490000Y-128000000D03*
D19*
X66800000Y-66500000D03*
X57200000Y-66500000D03*
D10*
X59500000Y-74000000D03*
D11*
X62000000Y-74000000D03*
X64500000Y-74000000D03*
D10*
X82000000Y-67050000D03*
D11*
X82000000Y-64510000D03*
D14*
X94900000Y-128200000D03*
D13*
X92360000Y-128200000D03*
X89820000Y-128200000D03*
X87280000Y-128200000D03*
X84740000Y-128200000D03*
X82200000Y-128200000D03*
X79660000Y-128200000D03*
X77120000Y-128200000D03*
X77120000Y-135820000D03*
X79660000Y-135820000D03*
X82200000Y-135820000D03*
X84740000Y-135820000D03*
X87280000Y-135820000D03*
X89820000Y-135820000D03*
X92360000Y-135820000D03*
X94900000Y-135820000D03*
D10*
X228185000Y-128000000D03*
D11*
X230725000Y-128000000D03*
D10*
X44500000Y-114275000D03*
D11*
X44500000Y-111735000D03*
D10*
X178225000Y-91500000D03*
D11*
X180765000Y-91500000D03*
D10*
X202725000Y-115500000D03*
D11*
X205265000Y-115500000D03*
D19*
X39700000Y-66610000D03*
X49300000Y-66610000D03*
D10*
X42000000Y-74110000D03*
D11*
X44500000Y-74110000D03*
X47000000Y-74110000D03*
D18*
X204000000Y-50460000D03*
X204000000Y-55540000D03*
D15*
X157540000Y-129000000D03*
X152460000Y-129000000D03*
D10*
X62000000Y-98775000D03*
D11*
X62000000Y-96235000D03*
D10*
X190460000Y-91500000D03*
D11*
X193000000Y-91500000D03*
D20*
X110720000Y-115000000D03*
D21*
X122120000Y-115000000D03*
X113820000Y-115000000D03*
D10*
X82000000Y-114775000D03*
D11*
X82000000Y-112235000D03*
D12*
X125310000Y-127000000D03*
D13*
X117690000Y-127000000D03*
D10*
X165725000Y-104000000D03*
D11*
X168265000Y-104000000D03*
D14*
X248300000Y-112975000D03*
D13*
X248300000Y-110435000D03*
X248300000Y-107895000D03*
X248300000Y-105355000D03*
X248300000Y-102815000D03*
X248300000Y-100275000D03*
X248300000Y-97735000D03*
X248300000Y-95195000D03*
X248300000Y-92655000D03*
X248300000Y-90115000D03*
X248300000Y-87575000D03*
X248300000Y-85035000D03*
X240680000Y-85035000D03*
X240680000Y-87575000D03*
X240680000Y-90115000D03*
X240680000Y-92655000D03*
X240680000Y-95195000D03*
X240680000Y-97735000D03*
X240680000Y-100275000D03*
X240680000Y-102815000D03*
X240680000Y-105355000D03*
X240680000Y-107895000D03*
X240680000Y-110435000D03*
X240680000Y-112975000D03*
D12*
X126000000Y-96810000D03*
D13*
X126000000Y-89190000D03*
D15*
X157540000Y-104000000D03*
X152460000Y-104000000D03*
D20*
X110720000Y-67500000D03*
D21*
X122120000Y-67500000D03*
X113820000Y-67500000D03*
D10*
X62000000Y-114550000D03*
D11*
X62000000Y-112010000D03*
D14*
X94900000Y-46700000D03*
D13*
X92360000Y-46700000D03*
X89820000Y-46700000D03*
X87280000Y-46700000D03*
X84740000Y-46700000D03*
X82200000Y-46700000D03*
X79660000Y-46700000D03*
X77120000Y-46700000D03*
X77120000Y-54320000D03*
X79660000Y-54320000D03*
X82200000Y-54320000D03*
X84740000Y-54320000D03*
X87280000Y-54320000D03*
X89820000Y-54320000D03*
X92360000Y-54320000D03*
X94900000Y-54320000D03*
D12*
X129000000Y-125310000D03*
D13*
X129000000Y-117690000D03*
D10*
X82000000Y-82775000D03*
D11*
X82000000Y-80235000D03*
D10*
X215725000Y-67000000D03*
D11*
X218265000Y-67000000D03*
D12*
X126000000Y-131250000D03*
X126000000Y-133750000D03*
X70500000Y-53310000D03*
D13*
X70500000Y-45690000D03*
D10*
X178225000Y-115500000D03*
D11*
X180765000Y-115500000D03*
D16*
X109500000Y-50500000D03*
D17*
X110500000Y-50500000D03*
X111500000Y-50500000D03*
X112500000Y-50500000D03*
X113500000Y-50500000D03*
X114500000Y-50500000D03*
X115500000Y-50500000D03*
X116500000Y-50500000D03*
X117500000Y-50500000D03*
X118500000Y-50500000D03*
X119500000Y-50500000D03*
X120500000Y-50500000D03*
X121500000Y-50500000D03*
X122500000Y-50500000D03*
X123500000Y-50500000D03*
X124500000Y-50500000D03*
X125500000Y-50500000D03*
X126500000Y-50500000D03*
D19*
X39700000Y-82640000D03*
X49300000Y-82640000D03*
D10*
X42000000Y-90140000D03*
D11*
X44500000Y-90140000D03*
X47000000Y-90140000D03*
D10*
X165725000Y-115500000D03*
D11*
X168265000Y-115500000D03*
D14*
X57400000Y-128200000D03*
D13*
X54860000Y-128200000D03*
X52320000Y-128200000D03*
X49780000Y-128200000D03*
X47240000Y-128200000D03*
X44700000Y-128200000D03*
X42160000Y-128200000D03*
X39620000Y-128200000D03*
X39620000Y-135820000D03*
X42160000Y-135820000D03*
X44700000Y-135820000D03*
X47240000Y-135820000D03*
X49780000Y-135820000D03*
X52320000Y-135820000D03*
X54860000Y-135820000D03*
X57400000Y-135820000D03*
D20*
X110720000Y-104000000D03*
D21*
X122120000Y-104000000D03*
X113820000Y-104000000D03*
D10*
X202725000Y-128000000D03*
D11*
X205265000Y-128000000D03*
D10*
X82000000Y-99000000D03*
D11*
X82000000Y-96460000D03*
D20*
X110720000Y-93000000D03*
D21*
X122120000Y-93000000D03*
X113820000Y-93000000D03*
D19*
X49300000Y-113650000D03*
X39700000Y-113650000D03*
D10*
X42000000Y-121150000D03*
D11*
X44500000Y-121150000D03*
X47000000Y-121150000D03*
D15*
X134960000Y-97500000D03*
X140040000Y-97500000D03*
D10*
X215950000Y-91500000D03*
D11*
X218490000Y-91500000D03*
D10*
X190460000Y-104000000D03*
D11*
X193000000Y-104000000D03*
D15*
X134960000Y-85000000D03*
X140040000Y-85000000D03*
D18*
X166500000Y-50960000D03*
X166500000Y-56040000D03*
X179000000Y-50960000D03*
X179000000Y-56040000D03*
D10*
X228185000Y-104000000D03*
D11*
X230725000Y-104000000D03*
D10*
X178225000Y-128000000D03*
D11*
X180765000Y-128000000D03*
D12*
X101000000Y-135810000D03*
D13*
X101000000Y-128190000D03*
D12*
X129000000Y-129000000D03*
D13*
X129000000Y-136620000D03*
D10*
X165500000Y-91500000D03*
D11*
X168040000Y-91500000D03*
D10*
X62000000Y-83275000D03*
D11*
X62000000Y-80735000D03*
D10*
X228185000Y-115500000D03*
D11*
X230725000Y-115500000D03*
D15*
X157040000Y-79000000D03*
X151960000Y-79000000D03*
D10*
X190460000Y-67000000D03*
D11*
X193000000Y-67000000D03*
D12*
X126000000Y-122250000D03*
X126000000Y-119750000D03*
D10*
X202725000Y-104000000D03*
D11*
X205265000Y-104000000D03*
D10*
X165460000Y-67000000D03*
D11*
X168000000Y-67000000D03*
D18*
X229000000Y-50460000D03*
X229000000Y-55540000D03*
D10*
X178225000Y-104000000D03*
D11*
X180765000Y-104000000D03*
D19*
X57200000Y-82500000D03*
X66800000Y-82500000D03*
D10*
X59500000Y-90000000D03*
D11*
X62000000Y-90000000D03*
X64500000Y-90000000D03*
D10*
X98000000Y-66540000D03*
D11*
X98000000Y-64000000D03*
D10*
X227960000Y-67000000D03*
D11*
X230500000Y-67000000D03*
D19*
X102800000Y-97500000D03*
X93200000Y-97500000D03*
D10*
X95500000Y-105000000D03*
D11*
X98000000Y-105000000D03*
X100500000Y-105000000D03*
D19*
X102800000Y-65500000D03*
X93200000Y-65500000D03*
D10*
X95500000Y-73000000D03*
D11*
X98000000Y-73000000D03*
X100500000Y-73000000D03*
D15*
X157040000Y-91500000D03*
X151960000Y-91500000D03*
D19*
X77200000Y-65775000D03*
X86800000Y-65775000D03*
D10*
X79500000Y-73275000D03*
D11*
X82000000Y-73275000D03*
X84500000Y-73275000D03*
D10*
X215950000Y-79500000D03*
D11*
X218490000Y-79500000D03*
D15*
X157040000Y-66500000D03*
X151960000Y-66500000D03*
D20*
X110720000Y-79000000D03*
D21*
X122120000Y-79000000D03*
X113820000Y-79000000D03*
D19*
X102800000Y-113500000D03*
X93200000Y-113500000D03*
D10*
X95500000Y-121000000D03*
D11*
X98000000Y-121000000D03*
X100500000Y-121000000D03*
D10*
X177960000Y-67000000D03*
D11*
X180500000Y-67000000D03*
D15*
X134960000Y-72400000D03*
X140040000Y-72400000D03*
D10*
X215950000Y-115500000D03*
D11*
X218490000Y-115500000D03*
D10*
X215950000Y-104000000D03*
D11*
X218490000Y-104000000D03*
D19*
X86800000Y-81775000D03*
X77200000Y-81775000D03*
D10*
X79500000Y-89275000D03*
D11*
X82000000Y-89275000D03*
X84500000Y-89275000D03*
D10*
X190460000Y-79500000D03*
D11*
X193000000Y-79500000D03*
D10*
X98000000Y-98500000D03*
D11*
X98000000Y-95960000D03*
D18*
X216500000Y-50460000D03*
X216500000Y-55540000D03*
D12*
X121810000Y-122500000D03*
D13*
X114190000Y-122500000D03*
D19*
X77200000Y-113500000D03*
X86800000Y-113500000D03*
D10*
X79500000Y-121000000D03*
D11*
X82000000Y-121000000D03*
X84500000Y-121000000D03*
D12*
X126000000Y-108310000D03*
D13*
X126000000Y-100690000D03*
D10*
X202725000Y-67000000D03*
D11*
X205265000Y-67000000D03*
D19*
X39700000Y-98150000D03*
X49300000Y-98150000D03*
D10*
X42000000Y-105650000D03*
D11*
X44500000Y-105650000D03*
X47000000Y-105650000D03*
D10*
X165500000Y-128000000D03*
D11*
X168040000Y-128000000D03*
M02*
