M48
; DRILL file {KiCad 6.0.5-2.fc35} date Mi 06 Jul 2022 13:12:37 CEST
; FORMAT={-:-/ absolute / metric / decimal}
; #@! TF.CreationDate,2022-07-06T13:12:37+02:00
; #@! TF.GenerationSoftware,Kicad,Pcbnew,6.0.5-2.fc35
; #@! TF.FileFunction,Plated,1,2,PTH
FMAT,2
METRIC
; #@! TA.AperFunction,Plated,PTH,ViaDrill
T1C0.400
; #@! TA.AperFunction,Plated,PTH,ComponentDrill
T2C0.500
; #@! TA.AperFunction,Plated,PTH,ComponentDrill
T3C0.800
; #@! TA.AperFunction,Plated,PTH,ComponentDrill
T4C0.900
; #@! TA.AperFunction,Plated,PTH,ComponentDrill
T5C1.000
; #@! TA.AperFunction,Plated,PTH,ComponentDrill
T6C1.100
; #@! TA.AperFunction,Plated,PTH,ComponentDrill
T7C1.220
; #@! TA.AperFunction,Plated,PTH,ComponentDrill
T8C1.420
; #@! TA.AperFunction,Plated,PTH,ComponentDrill
T9C1.430
%
G90
G05
T1
X33.578Y-123.5
X34.0Y-103.0
X34.0Y-103.0
X53.445Y-123.625
X90.5Y-59.0
X91.5Y-57.54
X102.0Y-122.06
X102.996Y-121.977
X104.0Y-122.0
X104.0Y-128.0
X104.0Y-132.5
X106.0Y-128.0
X130.0Y-108.0
T2
X109.5Y-50.5
X109.5Y-131.0
X110.5Y-50.5
X110.5Y-131.0
X111.5Y-50.5
X111.5Y-131.0
X112.5Y-50.5
X112.5Y-131.0
X113.5Y-50.5
X113.5Y-131.0
X114.5Y-50.5
X114.5Y-131.0
X115.5Y-50.5
X115.5Y-131.0
X116.5Y-50.5
X116.5Y-131.0
X117.5Y-50.5
X117.5Y-131.0
X118.5Y-50.5
X118.5Y-131.0
X119.5Y-50.5
X119.5Y-131.0
X120.5Y-50.5
X120.5Y-131.0
X121.5Y-50.5
X121.5Y-131.0
X122.5Y-50.5
X123.5Y-50.5
X124.5Y-50.5
X125.5Y-50.5
X126.5Y-50.5
T3
X39.62Y-47.2
X39.62Y-54.82
X39.62Y-128.2
X39.62Y-135.82
X42.16Y-47.2
X42.16Y-54.82
X42.16Y-128.2
X42.16Y-135.82
X44.7Y-47.2
X44.7Y-54.82
X44.7Y-128.2
X44.7Y-135.82
X47.24Y-47.2
X47.24Y-54.82
X47.24Y-128.2
X47.24Y-135.82
X49.78Y-47.2
X49.78Y-54.82
X49.78Y-128.2
X49.78Y-135.82
X52.32Y-47.2
X52.32Y-54.82
X52.32Y-128.2
X52.32Y-135.82
X54.86Y-47.2
X54.86Y-54.82
X54.86Y-128.2
X54.86Y-135.82
X57.4Y-47.2
X57.4Y-54.82
X57.4Y-128.2
X57.4Y-135.82
X63.5Y-128.19
X63.5Y-135.81
X64.0Y-45.69
X64.0Y-53.31
X70.5Y-45.69
X70.5Y-53.31
X77.12Y-46.7
X77.12Y-54.32
X77.12Y-128.2
X77.12Y-135.82
X79.66Y-46.7
X79.66Y-54.32
X79.66Y-128.2
X79.66Y-135.82
X82.2Y-46.7
X82.2Y-54.32
X82.2Y-128.2
X82.2Y-135.82
X84.74Y-46.7
X84.74Y-54.32
X84.74Y-128.2
X84.74Y-135.82
X87.28Y-46.7
X87.28Y-54.32
X87.28Y-128.2
X87.28Y-135.82
X89.82Y-46.7
X89.82Y-54.32
X89.82Y-128.2
X89.82Y-135.82
X92.36Y-46.7
X92.36Y-54.32
X92.36Y-128.2
X92.36Y-135.82
X94.9Y-46.7
X94.9Y-54.32
X94.9Y-128.2
X94.9Y-135.82
X101.0Y-128.19
X101.0Y-135.81
X114.19Y-122.5
X117.69Y-127.0
X121.81Y-122.5
X125.31Y-127.0
X126.0Y-89.19
X126.0Y-96.81
X126.0Y-100.69
X126.0Y-108.31
X126.0Y-119.75
X126.0Y-122.25
X126.0Y-131.25
X126.0Y-133.75
X129.0Y-117.69
X129.0Y-125.31
X129.0Y-129.0
X129.0Y-136.62
X133.68Y-120.885
X133.68Y-123.425
X133.68Y-125.965
X133.68Y-128.505
X133.68Y-131.045
X133.68Y-133.585
X133.68Y-136.125
X141.3Y-120.885
X141.3Y-123.425
X141.3Y-125.965
X141.3Y-128.505
X141.3Y-131.045
X141.3Y-133.585
X141.3Y-136.125
X240.68Y-85.035
X240.68Y-87.575
X240.68Y-90.115
X240.68Y-92.655
X240.68Y-95.195
X240.68Y-97.735
X240.68Y-100.275
X240.68Y-102.815
X240.68Y-105.355
X240.68Y-107.895
X240.68Y-110.435
X240.68Y-112.975
X248.3Y-85.035
X248.3Y-87.575
X248.3Y-90.115
X248.3Y-92.655
X248.3Y-95.195
X248.3Y-97.735
X248.3Y-100.275
X248.3Y-102.815
X248.3Y-105.355
X248.3Y-107.895
X248.3Y-110.435
X248.3Y-112.975
T4
X44.5Y-64.885
X44.5Y-67.425
X44.5Y-80.735
X44.5Y-83.275
X44.5Y-96.46
X44.5Y-99.0
X44.5Y-111.735
X44.5Y-114.275
X62.0Y-64.735
X62.0Y-67.275
X62.0Y-80.735
X62.0Y-83.275
X62.0Y-96.235
X62.0Y-98.775
X62.0Y-112.01
X62.0Y-114.55
X82.0Y-64.51
X82.0Y-67.05
X82.0Y-80.235
X82.0Y-82.775
X82.0Y-96.46
X82.0Y-99.0
X82.0Y-112.235
X82.0Y-114.775
X98.0Y-64.0
X98.0Y-66.54
X98.0Y-79.735
X98.0Y-82.275
X98.0Y-95.96
X98.0Y-98.5
X98.0Y-112.235
X98.0Y-114.775
X165.46Y-67.0
X165.5Y-91.5
X165.5Y-128.0
X165.725Y-79.5
X165.725Y-104.0
X165.725Y-115.5
X168.0Y-67.0
X168.04Y-91.5
X168.04Y-128.0
X168.265Y-79.5
X168.265Y-104.0
X168.265Y-115.5
X177.96Y-67.0
X178.225Y-79.5
X178.225Y-91.5
X178.225Y-104.0
X178.225Y-115.5
X178.225Y-128.0
X180.5Y-67.0
X180.765Y-79.5
X180.765Y-91.5
X180.765Y-104.0
X180.765Y-115.5
X180.765Y-128.0
X190.46Y-67.0
X190.46Y-79.5
X190.46Y-91.5
X190.46Y-104.0
X190.46Y-115.5
X190.46Y-128.0
X193.0Y-67.0
X193.0Y-79.5
X193.0Y-91.5
X193.0Y-104.0
X193.0Y-115.5
X193.0Y-128.0
X202.5Y-79.5
X202.725Y-67.0
X202.725Y-91.5
X202.725Y-104.0
X202.725Y-115.5
X202.725Y-128.0
X205.04Y-79.5
X205.265Y-67.0
X205.265Y-91.5
X205.265Y-104.0
X205.265Y-115.5
X205.265Y-128.0
X215.725Y-67.0
X215.95Y-79.5
X215.95Y-91.5
X215.95Y-104.0
X215.95Y-115.5
X215.95Y-128.0
X218.265Y-67.0
X218.49Y-79.5
X218.49Y-91.5
X218.49Y-104.0
X218.49Y-115.5
X218.49Y-128.0
X227.96Y-67.0
X228.185Y-79.5
X228.185Y-91.5
X228.185Y-104.0
X228.185Y-115.5
X228.185Y-128.0
X230.5Y-67.0
X230.725Y-79.5
X230.725Y-91.5
X230.725Y-104.0
X230.725Y-115.5
X230.725Y-128.0
T5
X42.0Y-74.11
X42.0Y-90.14
X42.0Y-105.65
X42.0Y-121.15
X44.5Y-74.11
X44.5Y-90.14
X44.5Y-105.65
X44.5Y-121.15
X47.0Y-74.11
X47.0Y-90.14
X47.0Y-105.65
X47.0Y-121.15
X59.5Y-74.0
X59.5Y-90.0
X59.5Y-105.5
X59.5Y-121.0
X62.0Y-74.0
X62.0Y-90.0
X62.0Y-105.5
X62.0Y-121.0
X64.5Y-74.0
X64.5Y-90.0
X64.5Y-105.5
X64.5Y-121.0
X79.5Y-73.275
X79.5Y-89.275
X79.5Y-105.275
X79.5Y-121.0
X82.0Y-73.275
X82.0Y-89.275
X82.0Y-105.275
X82.0Y-121.0
X84.5Y-73.275
X84.5Y-89.275
X84.5Y-105.275
X84.5Y-121.0
X95.5Y-73.0
X95.5Y-88.775
X95.5Y-105.0
X95.5Y-121.0
X98.0Y-73.0
X98.0Y-88.775
X98.0Y-105.0
X98.0Y-121.0
X100.5Y-73.0
X100.5Y-88.775
X100.5Y-105.0
X100.5Y-121.0
T7
X110.72Y-67.5
X110.72Y-79.0
X110.72Y-93.0
X110.72Y-104.0
X110.72Y-115.0
T8
X113.82Y-67.5
X113.82Y-79.0
X113.82Y-93.0
X113.82Y-104.0
X113.82Y-115.0
T9
X122.12Y-67.5
X122.12Y-79.0
X122.12Y-93.0
X122.12Y-104.0
X122.12Y-115.0
T5
X134.96Y-72.9G85X134.96Y-71.9
G05
X134.96Y-85.5G85X134.96Y-84.5
G05
X134.96Y-98.0G85X134.96Y-97.0
G05
X134.96Y-110.5G85X134.96Y-109.5
G05
X140.04Y-72.9G85X140.04Y-71.9
G05
X140.04Y-85.5G85X140.04Y-84.5
G05
X140.04Y-98.0G85X140.04Y-97.0
G05
X140.04Y-110.5G85X140.04Y-109.5
G05
X151.96Y-66.0G85X151.96Y-67.0
G05
X151.96Y-78.5G85X151.96Y-79.5
G05
X151.96Y-91.0G85X151.96Y-92.0
G05
X152.46Y-103.5G85X152.46Y-104.5
G05
X152.46Y-116.0G85X152.46Y-117.0
G05
X152.46Y-128.5G85X152.46Y-129.5
G05
X157.04Y-66.0G85X157.04Y-67.0
G05
X157.04Y-78.5G85X157.04Y-79.5
G05
X157.04Y-91.0G85X157.04Y-92.0
G05
X157.54Y-103.5G85X157.54Y-104.5
G05
X157.54Y-116.0G85X157.54Y-117.0
G05
X157.54Y-128.5G85X157.54Y-129.5
G05
X166.0Y-50.96G85X167.0Y-50.96
G05
X166.0Y-56.04G85X167.0Y-56.04
G05
X178.5Y-50.96G85X179.5Y-50.96
G05
X178.5Y-56.04G85X179.5Y-56.04
G05
X191.0Y-50.96G85X192.0Y-50.96
G05
X191.0Y-56.04G85X192.0Y-56.04
G05
X203.5Y-50.46G85X204.5Y-50.46
G05
X203.5Y-55.54G85X204.5Y-55.54
G05
X216.0Y-50.46G85X217.0Y-50.46
G05
X216.0Y-55.54G85X217.0Y-55.54
G05
X228.5Y-50.46G85X229.5Y-50.46
G05
X228.5Y-55.54G85X229.5Y-55.54
G05
T6
X39.7Y-66.96G85X39.7Y-66.26
G05
X39.7Y-82.99G85X39.7Y-82.29
G05
X39.7Y-98.5G85X39.7Y-97.8
G05
X39.7Y-114.0G85X39.7Y-113.3
G05
X49.3Y-66.96G85X49.3Y-66.26
G05
X49.3Y-82.99G85X49.3Y-82.29
G05
X49.3Y-98.5G85X49.3Y-97.8
G05
X49.3Y-114.0G85X49.3Y-113.3
G05
X57.2Y-66.85G85X57.2Y-66.15
G05
X57.2Y-82.85G85X57.2Y-82.15
G05
X57.2Y-98.35G85X57.2Y-97.65
G05
X57.2Y-113.85G85X57.2Y-113.15
G05
X66.8Y-66.85G85X66.8Y-66.15
G05
X66.8Y-82.85G85X66.8Y-82.15
G05
X66.8Y-98.35G85X66.8Y-97.65
G05
X66.8Y-113.85G85X66.8Y-113.15
G05
X77.2Y-66.125G85X77.2Y-65.425
G05
X77.2Y-82.125G85X77.2Y-81.425
G05
X77.2Y-98.125G85X77.2Y-97.425
G05
X77.2Y-113.85G85X77.2Y-113.15
G05
X86.8Y-66.125G85X86.8Y-65.425
G05
X86.8Y-82.125G85X86.8Y-81.425
G05
X86.8Y-98.125G85X86.8Y-97.425
G05
X86.8Y-113.85G85X86.8Y-113.15
G05
X93.2Y-65.85G85X93.2Y-65.15
G05
X93.2Y-81.625G85X93.2Y-80.925
G05
X93.2Y-97.85G85X93.2Y-97.15
G05
X93.2Y-113.85G85X93.2Y-113.15
G05
X102.8Y-65.85G85X102.8Y-65.15
G05
X102.8Y-81.625G85X102.8Y-80.925
G05
X102.8Y-97.85G85X102.8Y-97.15
G05
X102.8Y-113.85G85X102.8Y-113.15
G05
T0
M30
